G04*
G04 #@! TF.GenerationSoftware,Altium Limited,Altium Designer,18.1.9 (240)*
G04*
G04 Layer_Physical_Order=1*
G04 Layer_Color=255*
%FSLAX25Y25*%
%MOIN*%
G70*
G01*
G75*
%ADD12C,0.00500*%
%ADD13R,0.02362X0.01968*%
%ADD14R,0.01968X0.02362*%
G04:AMPARAMS|DCode=15|XSize=7.87mil|YSize=17.72mil|CornerRadius=1.97mil|HoleSize=0mil|Usage=FLASHONLY|Rotation=90.000|XOffset=0mil|YOffset=0mil|HoleType=Round|Shape=RoundedRectangle|*
%AMROUNDEDRECTD15*
21,1,0.00787,0.01378,0,0,90.0*
21,1,0.00394,0.01772,0,0,90.0*
1,1,0.00394,0.00689,0.00197*
1,1,0.00394,0.00689,-0.00197*
1,1,0.00394,-0.00689,-0.00197*
1,1,0.00394,-0.00689,0.00197*
%
%ADD15ROUNDEDRECTD15*%
%ADD20C,0.01968*%
G36*
X23500Y500D02*
X500D01*
Y23000D01*
X23500D01*
Y500D01*
D02*
G37*
%LPC*%
G36*
X20500Y21618D02*
X19016D01*
Y21123D01*
X18516Y20971D01*
X18498Y20998D01*
X18040Y21304D01*
X17500Y21411D01*
X16960Y21304D01*
X16502Y20998D01*
X16196Y20540D01*
X16089Y20000D01*
X16167Y19604D01*
X15694Y19131D01*
X14569D01*
X14134Y19311D01*
X12756D01*
X12299Y19122D01*
X12110Y18665D01*
Y18272D01*
X12292Y17831D01*
X12289Y17824D01*
X11893Y17560D01*
X11629Y17164D01*
X11596Y17000D01*
X13445D01*
Y16000D01*
X11596D01*
X11629Y15836D01*
X11893Y15440D01*
X12289Y15176D01*
X12292Y15169D01*
X12110Y14728D01*
Y14335D01*
X12299Y13878D01*
X12756Y13689D01*
X12782D01*
Y12055D01*
X12833Y11801D01*
X12976Y11586D01*
X13563Y11000D01*
X13778Y10856D01*
X14031Y10806D01*
X19616D01*
Y9887D01*
X22384D01*
Y13050D01*
X21663D01*
Y13919D01*
X22384D01*
X22384Y17081D01*
X22812Y17256D01*
X22984D01*
Y18937D01*
X21000D01*
Y19437D01*
X20500D01*
Y21618D01*
D02*
G37*
G36*
X22984D02*
X21500D01*
Y19937D01*
X22984D01*
Y21618D01*
D02*
G37*
G36*
X7000Y9924D02*
X6726Y9869D01*
X6069Y9431D01*
X5631Y8774D01*
X5576Y8500D01*
X7000D01*
Y9924D01*
D02*
G37*
G36*
X3000Y21911D02*
X2460Y21804D01*
X2002Y21498D01*
X1696Y21040D01*
X1589Y20500D01*
X1696Y19960D01*
X2002Y19502D01*
X2460Y19196D01*
X3000Y19089D01*
X3396Y19167D01*
X4563Y18000D01*
X4778Y17856D01*
X5032Y17806D01*
X5228Y17306D01*
X5075Y17163D01*
X4000D01*
X3746Y17112D01*
X3531Y16969D01*
X3031Y16469D01*
X2888Y16254D01*
X2837Y16000D01*
Y11222D01*
X2502Y10998D01*
X2196Y10540D01*
X2089Y10000D01*
X2196Y9460D01*
X2502Y9002D01*
X2960Y8696D01*
X3500Y8589D01*
X4040Y8696D01*
X4498Y9002D01*
X4804Y9460D01*
X4911Y10000D01*
X4804Y10540D01*
X4498Y10998D01*
X4163Y11222D01*
Y15725D01*
X4275Y15837D01*
X5431D01*
X5554Y15786D01*
Y15245D01*
X5409Y15185D01*
X5220Y14728D01*
Y14335D01*
X5409Y13878D01*
X5866Y13689D01*
X7244D01*
X7679Y13869D01*
X9694D01*
X10322Y13241D01*
Y8726D01*
X10212Y8638D01*
X10002Y8498D01*
X9961Y8436D01*
X9942Y8421D01*
X9419Y8525D01*
X9369Y8774D01*
X8931Y9431D01*
X8274Y9869D01*
X8000Y9924D01*
Y8000D01*
X7500D01*
Y7500D01*
X5576D01*
X5631Y7226D01*
X6069Y6569D01*
X6197Y6484D01*
X6045Y5984D01*
X4866D01*
Y4500D01*
X7047D01*
Y4000D01*
X7547D01*
Y2016D01*
X9228D01*
Y2188D01*
X9403Y2616D01*
X9728Y2616D01*
X12565D01*
Y5384D01*
X11647D01*
Y6267D01*
X11998Y6502D01*
X12304Y6960D01*
X12411Y7500D01*
X12304Y8040D01*
X11998Y8498D01*
X11647Y8732D01*
Y13516D01*
X11597Y13769D01*
X11453Y13984D01*
X10437Y15000D01*
X10222Y15144D01*
X9968Y15194D01*
X7679D01*
X7556Y15245D01*
Y15786D01*
X7701Y15846D01*
X7890Y16303D01*
Y16697D01*
X7701Y17154D01*
X7556Y17214D01*
Y17755D01*
X7701Y17815D01*
X7890Y18272D01*
Y18665D01*
X7701Y19122D01*
X7244Y19311D01*
X5866D01*
X5431Y19131D01*
X5306D01*
X4333Y20105D01*
X4411Y20500D01*
X4304Y21040D01*
X3998Y21498D01*
X3540Y21804D01*
X3000Y21911D01*
D02*
G37*
G36*
X22384Y9113D02*
X19616D01*
Y5950D01*
X20337D01*
Y4722D01*
X20002Y4498D01*
X19696Y4040D01*
X19589Y3500D01*
X19696Y2960D01*
X20002Y2502D01*
X20460Y2196D01*
X21000Y2089D01*
X21540Y2196D01*
X21998Y2502D01*
X22304Y2960D01*
X22411Y3500D01*
X22304Y4040D01*
X21998Y4498D01*
X21663Y4722D01*
Y5950D01*
X22384D01*
Y9113D01*
D02*
G37*
G36*
X6547Y3500D02*
X4866D01*
Y2016D01*
X6547D01*
Y3500D01*
D02*
G37*
%LPD*%
D12*
X10984Y4000D02*
Y13516D01*
X6555Y14532D02*
X9968D01*
X10984Y13516D01*
X21000Y3500D02*
X21000Y3500D01*
Y7531D01*
X21000Y11468D02*
Y15500D01*
X13445Y12055D02*
Y14532D01*
Y12055D02*
X14031Y11468D01*
X21000D01*
X18063Y16500D02*
X21000Y19437D01*
X17500Y16500D02*
X18063D01*
X17500Y14500D02*
Y16500D01*
X13445D02*
X17500D01*
X3500Y10000D02*
Y16000D01*
X4000Y16500D01*
X6555D01*
X3000Y20500D02*
X5032Y18469D01*
X6555D01*
X15969D02*
X17500Y20000D01*
X13445Y18469D02*
X15969D01*
X7047Y4000D02*
X7500Y4453D01*
Y8000D01*
D13*
X7047Y4000D02*
D03*
X10984D02*
D03*
D14*
X21000Y19437D02*
D03*
Y15500D02*
D03*
X21000Y7531D02*
D03*
Y11468D02*
D03*
D15*
X13445Y18469D02*
D03*
Y16500D02*
D03*
Y14532D02*
D03*
X6555D02*
D03*
Y16500D02*
D03*
Y18469D02*
D03*
D20*
X3000Y20500D02*
D03*
X17500Y14500D02*
D03*
Y20000D02*
D03*
X21000Y3500D02*
D03*
X7500Y8000D02*
D03*
X11000Y7500D02*
D03*
X3500Y10000D02*
D03*
M02*
