G04*
G04 #@! TF.GenerationSoftware,Altium Limited,Altium Designer,18.1.9 (240)*
G04*
G04 Layer_Physical_Order=2*
G04 Layer_Color=16711680*
%FSLAX25Y25*%
%MOIN*%
G70*
G01*
G75*
%ADD12C,0.00500*%
%ADD13R,0.02362X0.01968*%
%ADD20C,0.01968*%
%ADD21R,0.01181X0.03937*%
%ADD22R,0.01181X0.02756*%
G36*
X23500Y3666D02*
X23000Y3616D01*
X22869Y4274D01*
X22431Y4931D01*
X21774Y5369D01*
X21500Y5424D01*
Y3500D01*
X20500D01*
Y5424D01*
X20226Y5369D01*
X19569Y4931D01*
X19522Y4860D01*
X19022Y5011D01*
Y5652D01*
X17041D01*
Y1000D01*
X17041Y915D01*
X16836Y500D01*
X3164D01*
X2959Y915D01*
X2959Y1000D01*
Y5652D01*
X1000D01*
X978Y5652D01*
X500Y5705D01*
Y23000D01*
X23500D01*
Y3666D01*
D02*
G37*
%LPC*%
G36*
X14500Y22163D02*
X4000D01*
X3746Y22112D01*
X3531Y21969D01*
X3396Y21833D01*
X3000Y21911D01*
X2460Y21804D01*
X2002Y21498D01*
X1696Y21040D01*
X1589Y20500D01*
X1696Y19960D01*
X2002Y19502D01*
X2460Y19196D01*
X3000Y19089D01*
X3540Y19196D01*
X3998Y19502D01*
X4304Y19960D01*
X4411Y20500D01*
X4688Y20837D01*
X5850D01*
Y20000D01*
X8032D01*
Y19500D01*
X8531D01*
Y17129D01*
X8579Y17016D01*
X8547Y16984D01*
X8404Y16769D01*
X8353Y16516D01*
Y16094D01*
X7547D01*
Y13716D01*
Y11339D01*
X7694D01*
X7901Y10839D01*
X7031Y9969D01*
X6888Y9754D01*
X6837Y9500D01*
Y9222D01*
X6502Y8998D01*
X6196Y8540D01*
X6089Y8000D01*
X6196Y7460D01*
X6502Y7002D01*
X6960Y6696D01*
X7500Y6589D01*
X8040Y6696D01*
X8498Y7002D01*
X8804Y7460D01*
X8911Y8000D01*
X8804Y8540D01*
X8498Y8998D01*
X8521Y9584D01*
X9484Y10547D01*
X9628Y10762D01*
X9679Y11016D01*
Y11939D01*
X10337D01*
Y8722D01*
X10002Y8498D01*
X9696Y8040D01*
X9589Y7500D01*
X9696Y6960D01*
X10002Y6502D01*
X10460Y6196D01*
X11000Y6089D01*
X11540Y6196D01*
X11998Y6502D01*
X12304Y6960D01*
X12411Y7500D01*
X12304Y8040D01*
X11998Y8498D01*
X11663Y8722D01*
Y11939D01*
X12290D01*
Y11547D01*
X12341Y11294D01*
X12484Y11079D01*
X13531Y10031D01*
X13746Y9888D01*
X14000Y9837D01*
X16269D01*
X16522Y9888D01*
X16737Y10031D01*
X19603Y12897D01*
X19747Y13112D01*
X19797Y13366D01*
Y17177D01*
X19747Y17431D01*
X19603Y17646D01*
X18475Y18773D01*
X18498Y19002D01*
X18804Y19460D01*
X18911Y20000D01*
X18804Y20540D01*
X18498Y20998D01*
X18040Y21304D01*
X17500Y21411D01*
X16960Y21304D01*
X16502Y20998D01*
X16196Y20540D01*
X16089Y20000D01*
X16196Y19460D01*
X16502Y19002D01*
X16845Y18773D01*
X16888Y18558D01*
X17031Y18342D01*
X18472Y16902D01*
Y16035D01*
X18279Y15931D01*
X17971Y15818D01*
X17500Y15911D01*
X16960Y15804D01*
X16502Y15498D01*
X16412Y15363D01*
X15912Y15495D01*
X15584Y15859D01*
Y21079D01*
X15533Y21332D01*
X15390Y21547D01*
X14969Y21969D01*
X14754Y22112D01*
X14500Y22163D01*
D02*
G37*
G36*
X7531Y19000D02*
X5850D01*
Y17516D01*
X7531D01*
Y19000D01*
D02*
G37*
G36*
X6547Y16094D02*
X5457D01*
Y15495D01*
X4088D01*
Y12416D01*
X4000Y12344D01*
Y10500D01*
X5424D01*
X5369Y10774D01*
X5276Y10913D01*
X5593Y11339D01*
X6547D01*
Y13716D01*
Y16094D01*
D02*
G37*
G36*
X3000Y11924D02*
X2726Y11869D01*
X2069Y11431D01*
X1631Y10774D01*
X1576Y10500D01*
X3000D01*
Y11924D01*
D02*
G37*
G36*
X5424Y9500D02*
X4000D01*
Y8076D01*
X4274Y8131D01*
X4931Y8569D01*
X5369Y9226D01*
X5424Y9500D01*
D02*
G37*
G36*
X3000D02*
X1576D01*
X1631Y9226D01*
X2069Y8569D01*
X2726Y8131D01*
X3000Y8076D01*
Y9500D01*
D02*
G37*
%LPD*%
D12*
Y20500D02*
X4000Y21500D01*
X14500D01*
X14921Y21079D01*
Y13716D02*
Y21079D01*
X16269Y10500D02*
X19134Y13366D01*
X14000Y10500D02*
X16269D01*
X17500Y18811D02*
X19134Y17177D01*
X17500Y18811D02*
Y20000D01*
X19134Y13366D02*
Y17177D01*
X3500Y6000D02*
Y10000D01*
Y6000D02*
X5000Y4500D01*
X12500D01*
X15000Y7000D01*
X8032Y17531D02*
Y19500D01*
X7047Y16547D02*
X8032Y17531D01*
X7047Y13716D02*
Y16547D01*
X11969Y17500D02*
Y19500D01*
X11468Y17000D02*
X11969Y17500D01*
X9500Y17000D02*
X11468D01*
X9016Y16516D02*
X9500Y17000D01*
X9016Y13716D02*
Y16516D01*
X7500Y8000D02*
Y9500D01*
X11000Y7500D02*
Y13701D01*
X7500Y9500D02*
X9016Y11016D01*
Y13716D01*
X10984D02*
X11000Y13701D01*
X7047Y11547D02*
Y13716D01*
X5500Y10000D02*
X7047Y11547D01*
X3500Y10000D02*
X5500D01*
X12953Y11547D02*
X14000Y10500D01*
X12953Y11547D02*
Y13716D01*
D13*
X11969Y19500D02*
D03*
X8032D02*
D03*
D20*
X3000Y20500D02*
D03*
X17500Y14500D02*
D03*
Y20000D02*
D03*
X21000Y3500D02*
D03*
X7500Y8000D02*
D03*
X11000Y7500D02*
D03*
X3500Y10000D02*
D03*
D21*
X1969Y3283D02*
D03*
X18032D02*
D03*
D22*
X9016Y13716D02*
D03*
X10984D02*
D03*
X12953D02*
D03*
X14921D02*
D03*
X7047D02*
D03*
X5079D02*
D03*
M02*
