M48
;Layer_Color=9474304
;FILE_FORMAT=2:5
INCH,LZ
;TYPE=PLATED
T1F00S00C0.00787
T2F00S00C0.02500
T3F00S00C0.03543
;TYPE=NON_PLATED
T4F00S00C0.03543
%
T01
X01295Y00465
X0133063Y0047
X0141Y0048529
X01359Y0060186
X01295Y0062
X0133429Y0074965
X0146Y0069469
X0147031Y0063547
X015174Y008274
X01445Y0097
X0135Y0094
X0131032Y0104469
X0137437Y0108563
X0117166Y0110666
Y0106335
X0112835
Y0110666
X0102Y0098
X0103Y0091
X0088685Y0083685
X0093Y0079
X00935Y00755
X0084Y0078
X008Y0076872
X0075Y0074
X0066969Y0075531
X0063032
Y0079468
X0066969
X00485Y0078484
X0048Y00735
X00545Y0072
X0048Y00835
X00465Y0093
X00535Y0091
X00535Y0096
Y00995
X0062Y01045
X00775Y0105
Y00995
X0085Y01075
X0035484Y0105516
X00355Y0111
X00345Y01005
X0032Y0092833
X0028Y00875
X002Y0092
X00155Y00925
X0019Y00985
X0012Y01055
X0011Y0083
X002
Y0079
Y0075
X0028Y0069
X0029887Y0070887
X0037Y0031
X00495Y00325
X00715Y0032
Y00195
Y00455
X0071812Y0052977
X00865Y0043
X00915Y0039
X00955Y00415
X0102Y00495
Y007
X0109Y0067
Y0064
X01135Y006
X0122Y0075
X0119Y00785
Y0084
X01275Y0079
X0041307Y0016193
X0028Y0016
X0019654Y0030846
X0018Y01235
X0021969Y0123468
X005Y0123
X00555Y0116
X0082595Y0114469
X0088685Y0121185
X0094937Y0127063
X0090437Y0136063
X0095273Y0142273
X0100921Y0144879
X0107Y0147
X0106Y0151781
X0107Y0156
X0108Y0159
X0106Y0161969
X01055Y01705
X011Y0175
X0119Y0178
X01195Y0183
X0121731Y0191315
X0116Y01955
X0107Y0205
X01045Y02075
X0102Y021
X0099398Y0225
X0094Y0221
X0098Y0233
X0082968Y0228916
X008Y0231
X0075Y0228
X0076Y0225
X0071Y02335
X0067Y0235
X0064331Y023975
X00599Y024
X0056032Y0239968
X0049Y0239
X0046Y0233
X0037
X0039916Y0223
Y0219
X00395Y021
X00365Y0208
X00345Y0205
X0032Y0202
X003Y0199831
X0027Y01975
X0024Y0195
X0022Y0191
Y0187
X003Y0173
X0041Y0166
X0046
X0048Y0161
X0049Y0156
X00545Y01585
X0060532Y0156968
X00585Y0153
X0064331Y0146
X00729Y01412
X00765Y01445
X0079937Y0140063
X0086Y015
X00965
X0087Y016
X009Y0163
X0097Y0175
X0082Y0185
Y01925
X00745Y018
X0062
X00555Y0188
Y0192
X00545Y023
X0049Y0226
X0045555Y0246991
X0048343Y0254126
Y0258063
X0057323Y0258063
Y0254126
X006126
Y0258063
Y0262
X0057323
X0071374Y0258063
Y0254126
X0078044Y0256327
X0078055Y026115
X00745Y02685
X0068021Y0246991
X0091218Y0252138
X0114124Y0249075
X011Y0244
X0121068Y0253256
X0118Y0224
X0115
X0125Y0209
X0119Y016
X0115Y0159
X0116Y0154
X0117469Y0148031
X0111469Y0124531
X00645Y01615
X004Y01555
X00435Y01435
X0012Y0152
X001Y0158
X0015Y0164
X0014Y0169
X0005Y0211829
X0013Y0223
X00216Y0227
X00213Y02314
X0021256Y0257
X0019256Y0261
X0011256Y0265
X0040224Y0263947
X0038256Y0261
Y0257
X0130468Y0259264
Y0263264
X0138469Y0255264
X0140469Y0251264
X0157468
Y0255264
X0150469Y0266264
X0146468
X0152Y0223
X0141Y01965
X01415Y0189
X01305Y01895
Y0194
X0151Y0175
X0152Y0158
X0145Y0154
X0135
X013
X0135468Y01383
X0132468Y0134531
X0138469
X01359Y01306
X015Y013
X0155Y0123
X0148Y01185
X0132437Y0118563
X0134937Y0113563
X0153988Y0269012
X0107874
X0095214
X0036331Y0273
X0031256Y0272
X0027256
X0011256Y0269
T02
X0079Y0043
X0111Y00425
Y0032
X0123Y00465
X0015Y0131
Y01405
T03
X0016Y024
X0026
X0036
T04
X0159Y0054689
Y00665
M30
