G04 Layer_Color=8388736*
%FSLAX25Y25*%
%MOIN*%
G70*
G01*
G75*
%ADD60R,0.02768X0.03162*%
%ADD61R,0.04343X0.03950*%
%ADD62R,0.01981X0.04737*%
%ADD63R,0.04737X0.01981*%
%ADD64R,0.03162X0.02768*%
%ADD65R,0.03713X0.10249*%
%ADD66R,0.05131X0.07493*%
%ADD67R,0.06312X0.08280*%
%ADD68R,0.07887X0.06312*%
%ADD69R,0.03950X0.06706*%
%ADD70R,0.04737X0.14579*%
%ADD71R,0.06706X0.14186*%
%ADD72R,0.07493X0.05131*%
%ADD73R,0.02572X0.06233*%
%ADD74R,0.06607X0.09068*%
%ADD75R,0.10150X0.08280*%
%ADD76R,0.05426X0.08280*%
%ADD77O,0.06509X0.01981*%
%ADD78R,0.08438X0.09343*%
%ADD79R,0.07299X0.10173*%
%ADD80R,0.03559X0.01787*%
%ADD81R,0.05131X0.11036*%
%ADD82R,0.05328X0.03162*%
%ADD83R,0.05918X0.02965*%
%ADD84R,0.04737X0.07887*%
%ADD85R,0.05721X0.07099*%
%ADD86R,0.03950X0.04343*%
G04:AMPARAMS|DCode=87|XSize=27.68mil|YSize=31.62mil|CornerRadius=0mil|HoleSize=0mil|Usage=FLASHONLY|Rotation=135.000|XOffset=0mil|YOffset=0mil|HoleType=Round|Shape=Rectangle|*
%AMROTATEDRECTD87*
4,1,4,0.02097,0.00139,-0.00139,-0.02097,-0.02097,-0.00139,0.00139,0.02097,0.02097,0.00139,0.0*
%
%ADD87ROTATEDRECTD87*%

%ADD88R,0.04343X0.04737*%
%ADD89R,0.04737X0.05918*%
%ADD90R,0.03950X0.01981*%
%ADD91R,0.01981X0.03950*%
%ADD92C,0.07874*%
%ADD93R,0.06706X0.01981*%
%ADD94R,0.01981X0.06706*%
%ADD95C,0.05800*%
%ADD96C,0.06706*%
%ADD97R,0.06706X0.06706*%
%ADD98C,0.04737*%
%ADD99R,0.04737X0.04737*%
%ADD100C,0.02768*%
D60*
X121968Y148000D02*
D03*
Y144063D02*
D03*
X111469Y129063D02*
D03*
Y133000D02*
D03*
X117469Y136563D02*
D03*
Y140500D02*
D03*
Y130000D02*
D03*
Y126063D02*
D03*
X99000Y161969D02*
D03*
Y158031D02*
D03*
X91500Y150031D02*
D03*
Y153969D02*
D03*
X125500Y198531D02*
D03*
Y202468D02*
D03*
X71500Y27968D02*
D03*
Y24032D02*
D03*
Y39968D02*
D03*
Y36031D02*
D03*
X91500Y34787D02*
D03*
Y30850D02*
D03*
X95500Y34787D02*
D03*
Y30850D02*
D03*
X75500Y8669D02*
D03*
Y12606D02*
D03*
X71500Y8669D02*
D03*
Y12606D02*
D03*
X90437Y127094D02*
D03*
Y131031D02*
D03*
X77500Y114469D02*
D03*
Y110531D02*
D03*
X93500Y111469D02*
D03*
Y107531D02*
D03*
X135000Y104469D02*
D03*
Y100531D02*
D03*
X37500Y187031D02*
D03*
Y190969D02*
D03*
X100000Y190031D02*
D03*
Y193968D02*
D03*
X26000Y169031D02*
D03*
Y172968D02*
D03*
X64500Y153031D02*
D03*
Y156968D02*
D03*
X152000Y113531D02*
D03*
Y117469D02*
D03*
X73000Y147731D02*
D03*
Y151669D02*
D03*
X113500Y55468D02*
D03*
Y51531D02*
D03*
X117500Y55468D02*
D03*
Y51531D02*
D03*
X121500D02*
D03*
Y55468D02*
D03*
X90000Y223000D02*
D03*
Y226937D02*
D03*
X28000Y92531D02*
D03*
Y96468D02*
D03*
X35500Y119937D02*
D03*
Y116000D02*
D03*
X14000Y83031D02*
D03*
Y86968D02*
D03*
X12000Y109000D02*
D03*
Y112937D02*
D03*
Y191031D02*
D03*
Y194968D02*
D03*
X16000Y191031D02*
D03*
Y194968D02*
D03*
D61*
X111469Y143787D02*
D03*
Y138276D02*
D03*
X86500Y36756D02*
D03*
Y31244D02*
D03*
X104500Y190244D02*
D03*
Y195756D02*
D03*
X34500Y173256D02*
D03*
Y167744D02*
D03*
D62*
X133500Y126067D02*
D03*
X131532D02*
D03*
X135468Y142996D02*
D03*
X133500D02*
D03*
X131532D02*
D03*
X135468Y126067D02*
D03*
X137437D02*
D03*
X139406D02*
D03*
X137437Y142996D02*
D03*
X139406D02*
D03*
D63*
X127201Y140437D02*
D03*
X143933Y138469D02*
D03*
X127201Y136500D02*
D03*
Y128626D02*
D03*
Y130595D02*
D03*
Y132563D02*
D03*
Y134531D02*
D03*
Y138469D02*
D03*
X143933Y134531D02*
D03*
Y128626D02*
D03*
Y130595D02*
D03*
Y132563D02*
D03*
Y136500D02*
D03*
Y140437D02*
D03*
D64*
X42500Y137000D02*
D03*
X46437D02*
D03*
X38500D02*
D03*
X34563D02*
D03*
X59969Y146000D02*
D03*
X56032D02*
D03*
X60532Y116000D02*
D03*
X64468D02*
D03*
X118937Y167500D02*
D03*
X115000D02*
D03*
X130532Y198500D02*
D03*
X134468D02*
D03*
X118968Y172500D02*
D03*
X115032D02*
D03*
X140032Y118500D02*
D03*
X143968D02*
D03*
X151937Y68000D02*
D03*
X148000D02*
D03*
X93532Y70000D02*
D03*
X97469D02*
D03*
X56032Y235000D02*
D03*
X59969D02*
D03*
X147031Y189000D02*
D03*
X150969D02*
D03*
Y197500D02*
D03*
X147031D02*
D03*
Y193500D02*
D03*
X150969D02*
D03*
X63532Y109000D02*
D03*
X67469D02*
D03*
X18032Y119000D02*
D03*
X21969D02*
D03*
X36500Y92833D02*
D03*
X40437D02*
D03*
X43468Y98000D02*
D03*
X39531D02*
D03*
X41532Y102500D02*
D03*
X45469D02*
D03*
X16969Y231000D02*
D03*
X13032D02*
D03*
X17531Y159500D02*
D03*
X21468D02*
D03*
X17531Y152000D02*
D03*
X21468D02*
D03*
X13032Y227000D02*
D03*
X16969D02*
D03*
D65*
X145000Y175000D02*
D03*
Y160000D02*
D03*
X140000Y175000D02*
D03*
Y160000D02*
D03*
X135000Y175000D02*
D03*
Y160000D02*
D03*
X130000Y175000D02*
D03*
Y160000D02*
D03*
X125000Y175000D02*
D03*
Y160000D02*
D03*
D66*
X99315Y91500D02*
D03*
X88685D02*
D03*
X129315Y94000D02*
D03*
X118685D02*
D03*
D67*
X63984Y8638D02*
D03*
X12213Y12575D02*
D03*
D68*
X18512Y64346D02*
D03*
X40165D02*
D03*
D69*
X45638Y23795D02*
D03*
X41307Y25370D02*
D03*
X36977Y23795D02*
D03*
X32646Y23008D02*
D03*
X28315Y23795D02*
D03*
X23984Y23008D02*
D03*
X19654Y23795D02*
D03*
X15323D02*
D03*
D70*
X133063Y33000D02*
D03*
X140937D02*
D03*
D71*
X123221Y11150D02*
D03*
X150779D02*
D03*
D72*
X102000Y42465D02*
D03*
Y31835D02*
D03*
X141500Y60815D02*
D03*
Y50185D02*
D03*
X79937Y132693D02*
D03*
Y122063D02*
D03*
X144500Y102685D02*
D03*
Y113315D02*
D03*
X43000Y109185D02*
D03*
Y119815D02*
D03*
D73*
X90679Y18473D02*
D03*
X93238D02*
D03*
X95797D02*
D03*
X98356D02*
D03*
X100915D02*
D03*
D74*
X86102Y17055D02*
D03*
X105492D02*
D03*
D75*
X84331Y8000D02*
D03*
X107264D02*
D03*
D76*
X92500D02*
D03*
X99094D02*
D03*
D77*
X106437Y112437D02*
D03*
Y110468D02*
D03*
Y108500D02*
D03*
Y106531D02*
D03*
Y104563D02*
D03*
X123563Y112437D02*
D03*
Y110468D02*
D03*
Y108500D02*
D03*
Y106531D02*
D03*
Y104563D02*
D03*
D78*
X115000Y108500D02*
D03*
D79*
X65000Y77500D02*
D03*
D80*
X70512Y74547D02*
D03*
Y76516D02*
D03*
Y78484D02*
D03*
Y80453D02*
D03*
X59488Y74547D02*
D03*
Y76516D02*
D03*
Y78484D02*
D03*
Y80453D02*
D03*
D81*
X25185Y78500D02*
D03*
X35815D02*
D03*
X59185Y96000D02*
D03*
X69815D02*
D03*
D82*
X144429Y75260D02*
D03*
Y82740D02*
D03*
X135571Y79000D02*
D03*
D83*
X110224Y82740D02*
D03*
Y79000D02*
D03*
Y75260D02*
D03*
X100776D02*
D03*
Y79000D02*
D03*
Y82740D02*
D03*
D84*
X45421Y129000D02*
D03*
X35579D02*
D03*
D85*
X55669Y123716D02*
D03*
Y138283D02*
D03*
X64331D02*
D03*
Y123716D02*
D03*
D86*
X31756Y188000D02*
D03*
X26244D02*
D03*
D87*
X110608Y187608D02*
D03*
X113392Y190392D02*
D03*
D88*
X93571Y52851D02*
D03*
X77429D02*
D03*
Y59150D02*
D03*
X93571D02*
D03*
X12929Y218150D02*
D03*
X29071D02*
D03*
Y211851D02*
D03*
X12929D02*
D03*
X149571Y208851D02*
D03*
X133429D02*
D03*
Y215150D02*
D03*
X149571D02*
D03*
D89*
X51350Y109500D02*
D03*
X57650D02*
D03*
X26851Y159500D02*
D03*
X33150D02*
D03*
X26851Y152000D02*
D03*
X33150D02*
D03*
D90*
X19000Y112469D02*
D03*
Y110500D02*
D03*
Y108531D02*
D03*
Y106563D02*
D03*
Y104595D02*
D03*
X28842D02*
D03*
Y106563D02*
D03*
Y108531D02*
D03*
Y110500D02*
D03*
Y112469D02*
D03*
D91*
X21953Y103610D02*
D03*
X23921D02*
D03*
X25890D02*
D03*
Y113453D02*
D03*
X23921D02*
D03*
X21953D02*
D03*
D92*
X90894Y170500D02*
D03*
X46012Y215382D02*
D03*
D93*
X90894Y207705D02*
D03*
Y205736D02*
D03*
Y203768D02*
D03*
Y201799D02*
D03*
Y199831D02*
D03*
Y197862D02*
D03*
Y195894D02*
D03*
Y193925D02*
D03*
Y191957D02*
D03*
Y189988D02*
D03*
Y188020D02*
D03*
Y186051D02*
D03*
Y184083D02*
D03*
Y182114D02*
D03*
Y180146D02*
D03*
Y178177D02*
D03*
X46012D02*
D03*
Y180146D02*
D03*
Y182114D02*
D03*
Y184083D02*
D03*
Y186051D02*
D03*
Y188020D02*
D03*
Y189988D02*
D03*
Y191957D02*
D03*
Y193925D02*
D03*
Y195894D02*
D03*
Y197862D02*
D03*
Y199831D02*
D03*
Y201799D02*
D03*
Y203768D02*
D03*
Y205736D02*
D03*
Y207705D02*
D03*
D94*
X83217Y170500D02*
D03*
X81248D02*
D03*
X79280D02*
D03*
X77311D02*
D03*
X75343D02*
D03*
X73374D02*
D03*
X71406D02*
D03*
X69437D02*
D03*
X67469D02*
D03*
X65500D02*
D03*
X63532D02*
D03*
X61563D02*
D03*
X59595D02*
D03*
X57626D02*
D03*
X55658D02*
D03*
X53689D02*
D03*
Y215382D02*
D03*
X55658D02*
D03*
X57626D02*
D03*
X59595D02*
D03*
X61563D02*
D03*
X63532D02*
D03*
X65500D02*
D03*
X67469D02*
D03*
X69437D02*
D03*
X71406D02*
D03*
X73374D02*
D03*
X75343D02*
D03*
X77311D02*
D03*
X79280D02*
D03*
X81248D02*
D03*
X83217D02*
D03*
D95*
X150500Y50000D02*
D03*
X111000Y32000D02*
D03*
Y42500D02*
D03*
X15000Y131000D02*
D03*
Y140500D02*
D03*
X123000Y46500D02*
D03*
X79000Y43000D02*
D03*
X150500Y60500D02*
D03*
D96*
X16000Y240000D02*
D03*
X26000D02*
D03*
D97*
X36000D02*
D03*
D98*
X93500Y245000D02*
D03*
Y240000D02*
D03*
X88500Y245000D02*
D03*
Y240000D02*
D03*
X83500Y245000D02*
D03*
X120000Y245000D02*
D03*
Y240000D02*
D03*
X115000Y245000D02*
D03*
Y240000D02*
D03*
X110000Y245000D02*
D03*
X146500D02*
D03*
Y240000D02*
D03*
X141500Y245000D02*
D03*
Y240000D02*
D03*
X136500Y245000D02*
D03*
D99*
X83500Y240000D02*
D03*
X110000Y240000D02*
D03*
X136500D02*
D03*
D100*
X14000Y169000D02*
D03*
X15000Y164000D02*
D03*
X10000Y158000D02*
D03*
X12000Y152000D02*
D03*
X22000Y191000D02*
D03*
X24000Y195000D02*
D03*
X27000Y197500D02*
D03*
X30000Y199831D02*
D03*
X32000Y202000D02*
D03*
X34500Y205000D02*
D03*
X36500Y208000D02*
D03*
X39500Y210000D02*
D03*
X39916Y223000D02*
D03*
Y219000D02*
D03*
X31000Y223000D02*
D03*
X37000Y233000D02*
D03*
X46000D02*
D03*
X76000Y225000D02*
D03*
X82968Y228916D02*
D03*
X80000Y231000D02*
D03*
X115000Y224000D02*
D03*
X118000D02*
D03*
X152000Y223000D02*
D03*
X102000Y225000D02*
D03*
X152000Y158000D02*
D03*
X116000Y154000D02*
D03*
X108000Y159000D02*
D03*
X106000Y161969D02*
D03*
X105500Y170500D02*
D03*
X110000Y175000D02*
D03*
X97000D02*
D03*
X115000Y159000D02*
D03*
X150000Y130000D02*
D03*
X41000Y166000D02*
D03*
X90000Y163000D02*
D03*
X46000Y166000D02*
D03*
X48000Y161000D02*
D03*
X151000Y175000D02*
D03*
X87000Y160000D02*
D03*
X107000Y147000D02*
D03*
Y156000D02*
D03*
X106000Y151781D02*
D03*
X145000Y154000D02*
D03*
X130000D02*
D03*
X135000D02*
D03*
X103000Y91000D02*
D03*
X102000Y98000D02*
D03*
X109000Y64000D02*
D03*
Y67000D02*
D03*
X102000Y70000D02*
D03*
X95500Y41500D02*
D03*
X29887Y70887D02*
D03*
X28000Y69000D02*
D03*
X11000Y83000D02*
D03*
X75000Y74000D02*
D03*
X15500Y92500D02*
D03*
X20000Y92000D02*
D03*
Y83000D02*
D03*
X53500Y96000D02*
D03*
Y99500D02*
D03*
X66969Y75531D02*
D03*
X63032Y79468D02*
D03*
X66969D02*
D03*
X94937Y127063D02*
D03*
X112835Y106335D02*
D03*
Y110666D02*
D03*
X111469Y124531D02*
D03*
X21600Y227000D02*
D03*
X21300Y231400D02*
D03*
X59900Y240000D02*
D03*
X135900Y130600D02*
D03*
X135468Y138300D02*
D03*
X64500Y232500D02*
D03*
X78200Y159500D02*
D03*
X72900Y141200D02*
D03*
X12000Y105500D02*
D03*
X125000Y209000D02*
D03*
X41307Y16193D02*
D03*
X77500Y99500D02*
D03*
X71000Y233500D02*
D03*
X75000Y228000D02*
D03*
X116000Y195500D02*
D03*
X138469Y134531D02*
D03*
X32000Y92833D02*
D03*
X62000Y104500D02*
D03*
X80000Y76872D02*
D03*
X93000Y79000D02*
D03*
X55500Y188000D02*
D03*
Y192000D02*
D03*
X28000Y16000D02*
D03*
X56032Y239968D02*
D03*
X117469Y148031D02*
D03*
X82595Y114469D02*
D03*
X85000Y107500D02*
D03*
X131032Y104469D02*
D03*
X135000Y94000D02*
D03*
X100921Y144879D02*
D03*
X54500Y158500D02*
D03*
X96500Y150000D02*
D03*
X86000D02*
D03*
X95273Y142273D02*
D03*
X64331Y146000D02*
D03*
X55500Y116000D02*
D03*
X119000Y160000D02*
D03*
X121731Y191315D02*
D03*
X119500Y183000D02*
D03*
X130500Y194000D02*
D03*
Y189500D02*
D03*
X71500Y32000D02*
D03*
Y45500D02*
D03*
Y19500D02*
D03*
X137437Y108563D02*
D03*
X134937Y113563D02*
D03*
X132437Y118563D02*
D03*
X90437Y136063D02*
D03*
X48500Y78484D02*
D03*
X20000Y79000D02*
D03*
Y75000D02*
D03*
X77500Y105000D02*
D03*
X119000Y84000D02*
D03*
X151740Y82740D02*
D03*
X152000Y75000D02*
D03*
X142000Y66500D02*
D03*
X93500Y75500D02*
D03*
X54500Y72000D02*
D03*
X48000Y73500D02*
D03*
Y83500D02*
D03*
X119000Y178000D02*
D03*
X82000Y192500D02*
D03*
X30000Y173000D02*
D03*
X62000Y180000D02*
D03*
X74500D02*
D03*
X129500Y46500D02*
D03*
X127500Y79000D02*
D03*
X144500Y97000D02*
D03*
X113500Y60000D02*
D03*
X102000Y49500D02*
D03*
X71650Y59150D02*
D03*
X141500Y189000D02*
D03*
X141000Y196500D02*
D03*
X19654Y30846D02*
D03*
X37000Y31000D02*
D03*
X64500Y161500D02*
D03*
X91500Y39000D02*
D03*
X86500Y43000D02*
D03*
X49500Y32500D02*
D03*
X88685Y121185D02*
D03*
X34500Y100500D02*
D03*
X35484Y105516D02*
D03*
X46500Y93000D02*
D03*
X35500Y111000D02*
D03*
X102000Y210000D02*
D03*
X104500Y207500D02*
D03*
X107000Y205000D02*
D03*
X132468Y134531D02*
D03*
X88685Y83685D02*
D03*
X21969Y123468D02*
D03*
X19000Y98500D02*
D03*
X63032Y75531D02*
D03*
X119000Y78500D02*
D03*
Y74000D02*
D03*
X117166Y106335D02*
D03*
Y110666D02*
D03*
X82000Y185000D02*
D03*
X76500Y144500D02*
D03*
X79937Y140063D02*
D03*
X28000Y87500D02*
D03*
X18000Y123500D02*
D03*
X53500Y91000D02*
D03*
X54500Y230000D02*
D03*
X13000Y223000D02*
D03*
X58500Y153000D02*
D03*
X60532Y156968D02*
D03*
X67000Y235000D02*
D03*
X102000Y230000D02*
D03*
X129000D02*
D03*
Y242000D02*
D03*
X102000D02*
D03*
X77000Y251000D02*
D03*
X88924D02*
D03*
X148000Y118500D02*
D03*
X160000Y119000D02*
D03*
X22000Y187000D02*
D03*
X49000Y226000D02*
D03*
Y239000D02*
D03*
X73000Y252000D02*
D03*
X162000Y135000D02*
D03*
Y125000D02*
D03*
X50000Y123000D02*
D03*
X135000Y230000D02*
D03*
X146000D02*
D03*
X110000D02*
D03*
X120000D02*
D03*
X84000Y78000D02*
D03*
X98000Y233000D02*
D03*
X94000Y221000D02*
D03*
X40000Y155500D02*
D03*
X49000Y156000D02*
D03*
X43500Y143500D02*
D03*
M02*
