G04*
G04 #@! TF.GenerationSoftware,Altium Limited,Altium Designer,19.1.5 (86)*
G04*
G04 Layer_Color=8388736*
%FSLAX25Y25*%
%MOIN*%
G70*
G01*
G75*
%ADD59R,0.05131X0.03556*%
%ADD60R,0.05131X0.03162*%
%ADD61R,0.03162X0.02769*%
%ADD62R,0.02769X0.03162*%
G04:AMPARAMS|DCode=63|XSize=15.87mil|YSize=25.72mil|CornerRadius=5.97mil|HoleSize=0mil|Usage=FLASHONLY|Rotation=270.000|XOffset=0mil|YOffset=0mil|HoleType=Round|Shape=RoundedRectangle|*
%AMROUNDEDRECTD63*
21,1,0.01587,0.01378,0,0,270.0*
21,1,0.00394,0.02572,0,0,270.0*
1,1,0.01194,-0.00689,-0.00197*
1,1,0.01194,-0.00689,0.00197*
1,1,0.01194,0.00689,0.00197*
1,1,0.01194,0.00689,-0.00197*
%
%ADD63ROUNDEDRECTD63*%
%ADD64R,0.03950X0.04737*%
%ADD65R,0.06706X0.03556*%
%ADD66R,0.04737X0.05918*%
%ADD67C,0.07874*%
%ADD68R,0.01981X0.06706*%
%ADD69R,0.06706X0.01981*%
%ADD70R,0.04343X0.03950*%
%ADD71R,0.07493X0.05131*%
%ADD72R,0.01981X0.03950*%
%ADD73R,0.03950X0.01981*%
G04:AMPARAMS|DCode=74|XSize=27.69mil|YSize=31.62mil|CornerRadius=0mil|HoleSize=0mil|Usage=FLASHONLY|Rotation=135.000|XOffset=0mil|YOffset=0mil|HoleType=Round|Shape=Rectangle|*
%AMROTATEDRECTD74*
4,1,4,0.02097,0.00139,-0.00139,-0.02097,-0.02097,-0.00139,0.00139,0.02097,0.02097,0.00139,0.0*
%
%ADD74ROTATEDRECTD74*%

%ADD75R,0.03950X0.04343*%
%ADD76R,0.05721X0.07099*%
%ADD77R,0.04737X0.07887*%
%ADD78R,0.05131X0.07493*%
%ADD79R,0.05918X0.02965*%
%ADD80R,0.05328X0.03162*%
%ADD81R,0.05131X0.11036*%
%ADD82R,0.03559X0.01787*%
%ADD83R,0.07299X0.10173*%
%ADD84R,0.08438X0.09343*%
%ADD85O,0.06509X0.01981*%
%ADD86R,0.03950X0.06706*%
%ADD87R,0.07887X0.06312*%
%ADD88R,0.06312X0.08280*%
%ADD89R,0.03713X0.10249*%
%ADD90R,0.04737X0.01981*%
%ADD91R,0.01981X0.04737*%
%ADD92R,0.04343X0.04737*%
%ADD93R,0.02572X0.06233*%
%ADD94R,0.06607X0.09068*%
%ADD95R,0.10150X0.08280*%
%ADD96R,0.05426X0.08280*%
%ADD97R,0.04737X0.14580*%
%ADD98R,0.06706X0.14186*%
%ADD99C,0.03162*%
%ADD100R,0.06706X0.06706*%
%ADD101C,0.06706*%
%ADD102C,0.05800*%
%ADD103C,0.02769*%
D59*
X106650Y256075D02*
D03*
X97988D02*
D03*
D60*
X106650Y252138D02*
D03*
X97988D02*
D03*
Y260012D02*
D03*
X106650D02*
D03*
D61*
X57374Y268063D02*
D03*
X61311D02*
D03*
X103811Y269012D02*
D03*
X99874D02*
D03*
X82780Y261150D02*
D03*
X86717D02*
D03*
X82780Y256327D02*
D03*
X86717D02*
D03*
X135500Y263264D02*
D03*
X139437D02*
D03*
X135531Y259264D02*
D03*
X139469D02*
D03*
X150437Y262264D02*
D03*
X146500D02*
D03*
X155500D02*
D03*
X159437D02*
D03*
X36287Y268000D02*
D03*
X40224D02*
D03*
X16287Y269000D02*
D03*
X20224D02*
D03*
X16319Y265000D02*
D03*
X20256D02*
D03*
X31224Y268000D02*
D03*
X27287D02*
D03*
X16969Y227000D02*
D03*
X13032D02*
D03*
X21468Y152000D02*
D03*
X17531D02*
D03*
X21468Y159500D02*
D03*
X17531D02*
D03*
X13032Y231000D02*
D03*
X16969D02*
D03*
X45469Y102500D02*
D03*
X41532D02*
D03*
X39531Y98000D02*
D03*
X43468D02*
D03*
X40437Y92833D02*
D03*
X36500D02*
D03*
X21969Y119000D02*
D03*
X18032D02*
D03*
X67469Y109000D02*
D03*
X63532D02*
D03*
X150969Y193500D02*
D03*
X147031D02*
D03*
Y197500D02*
D03*
X150969D02*
D03*
Y189000D02*
D03*
X147031D02*
D03*
X59969Y235000D02*
D03*
X56032D02*
D03*
X97469Y70000D02*
D03*
X93532D02*
D03*
X143968Y118500D02*
D03*
X140032D02*
D03*
X115032Y172500D02*
D03*
X118968D02*
D03*
X134468Y198500D02*
D03*
X130532D02*
D03*
X115000Y167500D02*
D03*
X118937D02*
D03*
X64468Y116000D02*
D03*
X60532D02*
D03*
X56032Y146000D02*
D03*
X59969D02*
D03*
X34563Y137000D02*
D03*
X38500D02*
D03*
X46437D02*
D03*
X42500D02*
D03*
D62*
X114874Y256106D02*
D03*
Y260043D02*
D03*
X16000Y194968D02*
D03*
Y191031D02*
D03*
X12000Y194968D02*
D03*
Y191031D02*
D03*
Y112937D02*
D03*
Y109000D02*
D03*
X14000Y86968D02*
D03*
Y83031D02*
D03*
X35500Y116000D02*
D03*
Y119937D02*
D03*
X28000Y96468D02*
D03*
Y92531D02*
D03*
X90000Y226937D02*
D03*
Y223000D02*
D03*
X121500Y55468D02*
D03*
Y51531D02*
D03*
X117500D02*
D03*
Y55468D02*
D03*
X113500Y51531D02*
D03*
Y55468D02*
D03*
X73000Y151669D02*
D03*
Y147731D02*
D03*
X152000Y117469D02*
D03*
Y113531D02*
D03*
X64500Y156968D02*
D03*
Y153031D02*
D03*
X26000Y172968D02*
D03*
Y169031D02*
D03*
X100000Y193968D02*
D03*
Y190031D02*
D03*
X37500Y190969D02*
D03*
Y187031D02*
D03*
X134000Y65532D02*
D03*
Y69469D02*
D03*
X135000Y100531D02*
D03*
Y104469D02*
D03*
X93500Y107531D02*
D03*
Y111469D02*
D03*
X77500Y110531D02*
D03*
Y114469D02*
D03*
X90437Y131031D02*
D03*
Y127094D02*
D03*
X71500Y12606D02*
D03*
Y8669D02*
D03*
X75500Y12606D02*
D03*
Y8669D02*
D03*
X95500Y30850D02*
D03*
Y34787D02*
D03*
X91500Y30850D02*
D03*
Y34787D02*
D03*
X71500Y36031D02*
D03*
Y39968D02*
D03*
Y24032D02*
D03*
Y27968D02*
D03*
X125500Y202468D02*
D03*
Y198531D02*
D03*
X91500Y153969D02*
D03*
Y150031D02*
D03*
X99000Y158031D02*
D03*
Y161969D02*
D03*
X117469Y126063D02*
D03*
Y130000D02*
D03*
Y140500D02*
D03*
Y136563D02*
D03*
X111469Y133000D02*
D03*
Y129063D02*
D03*
X121968Y144063D02*
D03*
Y148000D02*
D03*
D63*
X151913Y253295D02*
D03*
Y255264D02*
D03*
Y257232D02*
D03*
X145024D02*
D03*
Y255264D02*
D03*
Y253295D02*
D03*
X32701Y259032D02*
D03*
Y261000D02*
D03*
Y262968D02*
D03*
X25811D02*
D03*
Y261000D02*
D03*
Y259032D02*
D03*
D64*
X155201Y74965D02*
D03*
X162799D02*
D03*
Y46224D02*
D03*
X155201D02*
D03*
D65*
X152110Y51736D02*
D03*
Y69453D02*
D03*
Y63547D02*
D03*
D66*
X33150Y152000D02*
D03*
X26851D02*
D03*
X33150Y159500D02*
D03*
X26851D02*
D03*
X57650Y109500D02*
D03*
X51350D02*
D03*
D67*
X46012Y215382D02*
D03*
X90894Y170500D02*
D03*
D68*
X83217Y215382D02*
D03*
X81248D02*
D03*
X79280D02*
D03*
X77311D02*
D03*
X75343D02*
D03*
X73374D02*
D03*
X71406D02*
D03*
X69437D02*
D03*
X67469D02*
D03*
X65500D02*
D03*
X63532D02*
D03*
X61563D02*
D03*
X59595D02*
D03*
X57626D02*
D03*
X55658D02*
D03*
X53689D02*
D03*
Y170500D02*
D03*
X55658D02*
D03*
X57626D02*
D03*
X59595D02*
D03*
X61563D02*
D03*
X63532D02*
D03*
X65500D02*
D03*
X67469D02*
D03*
X69437D02*
D03*
X71406D02*
D03*
X73374D02*
D03*
X75343D02*
D03*
X77311D02*
D03*
X79280D02*
D03*
X81248D02*
D03*
X83217D02*
D03*
D69*
X46012Y207705D02*
D03*
Y205736D02*
D03*
Y203768D02*
D03*
Y201799D02*
D03*
Y199831D02*
D03*
Y197862D02*
D03*
Y195894D02*
D03*
Y193925D02*
D03*
Y191957D02*
D03*
Y189988D02*
D03*
Y188020D02*
D03*
Y186051D02*
D03*
Y184083D02*
D03*
Y182114D02*
D03*
Y180146D02*
D03*
Y178177D02*
D03*
X90894D02*
D03*
Y180146D02*
D03*
Y182114D02*
D03*
Y184083D02*
D03*
Y186051D02*
D03*
Y188020D02*
D03*
Y189988D02*
D03*
Y191957D02*
D03*
Y193925D02*
D03*
Y195894D02*
D03*
Y197862D02*
D03*
Y199831D02*
D03*
Y201799D02*
D03*
Y203768D02*
D03*
Y205736D02*
D03*
Y207705D02*
D03*
D70*
X34500Y167744D02*
D03*
Y173256D02*
D03*
X104500Y195756D02*
D03*
Y190244D02*
D03*
X86500Y31244D02*
D03*
Y36756D02*
D03*
X111469Y138276D02*
D03*
Y143787D02*
D03*
D71*
X43000Y119815D02*
D03*
Y109185D02*
D03*
X144500Y113315D02*
D03*
Y102685D02*
D03*
X79937Y122063D02*
D03*
Y132693D02*
D03*
X102000Y31835D02*
D03*
Y42465D02*
D03*
D72*
X21953Y113453D02*
D03*
X23921D02*
D03*
X25890D02*
D03*
Y103610D02*
D03*
X23921D02*
D03*
X21953D02*
D03*
D73*
X28842Y112469D02*
D03*
Y110500D02*
D03*
Y108531D02*
D03*
Y106563D02*
D03*
Y104595D02*
D03*
X19000D02*
D03*
Y106563D02*
D03*
Y108531D02*
D03*
Y110500D02*
D03*
Y112469D02*
D03*
D74*
X113392Y190392D02*
D03*
X110608Y187608D02*
D03*
D75*
X26244Y188000D02*
D03*
X31756D02*
D03*
D76*
X64331Y123716D02*
D03*
Y138283D02*
D03*
X55669D02*
D03*
Y123716D02*
D03*
D77*
X35579Y129000D02*
D03*
X45421D02*
D03*
D78*
X118685Y94000D02*
D03*
X129315D02*
D03*
X88685Y91500D02*
D03*
X99315D02*
D03*
D79*
X100776Y82740D02*
D03*
Y79000D02*
D03*
Y75260D02*
D03*
X110224D02*
D03*
Y79000D02*
D03*
Y82740D02*
D03*
D80*
X135571Y79000D02*
D03*
X144429Y82740D02*
D03*
Y75260D02*
D03*
D81*
X69815Y96000D02*
D03*
X59185D02*
D03*
X35815Y78500D02*
D03*
X25185D02*
D03*
D82*
X59488Y80453D02*
D03*
Y78484D02*
D03*
Y76516D02*
D03*
Y74547D02*
D03*
X70512Y80453D02*
D03*
Y78484D02*
D03*
Y76516D02*
D03*
Y74547D02*
D03*
D83*
X65000Y77500D02*
D03*
D84*
X115000Y108500D02*
D03*
D85*
X123563Y104563D02*
D03*
Y106531D02*
D03*
Y108500D02*
D03*
Y110468D02*
D03*
Y112437D02*
D03*
X106437Y104563D02*
D03*
Y106531D02*
D03*
Y108500D02*
D03*
Y110468D02*
D03*
Y112437D02*
D03*
D86*
X15323Y23795D02*
D03*
X19654D02*
D03*
X23984Y23008D02*
D03*
X28315Y23795D02*
D03*
X32646Y23008D02*
D03*
X36977Y23795D02*
D03*
X41307Y25370D02*
D03*
X45638Y23795D02*
D03*
D87*
X40165Y64346D02*
D03*
X18512D02*
D03*
D88*
X12213Y12575D02*
D03*
X63984Y8638D02*
D03*
D89*
X125000Y160000D02*
D03*
Y175000D02*
D03*
X130000Y160000D02*
D03*
Y175000D02*
D03*
X135000Y160000D02*
D03*
Y175000D02*
D03*
X140000Y160000D02*
D03*
Y175000D02*
D03*
X145000Y160000D02*
D03*
Y175000D02*
D03*
D90*
X143933Y140437D02*
D03*
Y136500D02*
D03*
Y132563D02*
D03*
Y130595D02*
D03*
Y128626D02*
D03*
Y134531D02*
D03*
X127201Y138469D02*
D03*
Y134531D02*
D03*
Y132563D02*
D03*
Y130595D02*
D03*
Y128626D02*
D03*
Y136500D02*
D03*
X143933Y138469D02*
D03*
X127201Y140437D02*
D03*
D91*
X139406Y142996D02*
D03*
X137437D02*
D03*
X139406Y126067D02*
D03*
X137437D02*
D03*
X135468D02*
D03*
X131532Y142996D02*
D03*
X133500D02*
D03*
X135468D02*
D03*
X131532Y126067D02*
D03*
X133500D02*
D03*
D92*
X149571Y215150D02*
D03*
X133429D02*
D03*
Y208850D02*
D03*
X149571D02*
D03*
X93571Y59150D02*
D03*
X77429D02*
D03*
Y52850D02*
D03*
X93571D02*
D03*
X12929Y211850D02*
D03*
X29071D02*
D03*
Y218150D02*
D03*
X12929D02*
D03*
D93*
X90679Y18472D02*
D03*
X93238D02*
D03*
X95797D02*
D03*
X98356D02*
D03*
X100915D02*
D03*
D94*
X86102Y17055D02*
D03*
X105492D02*
D03*
D95*
X84331Y8000D02*
D03*
X107264D02*
D03*
D96*
X92500D02*
D03*
X99094D02*
D03*
D97*
X133063Y33000D02*
D03*
X140937D02*
D03*
D98*
X123221Y11150D02*
D03*
X150779D02*
D03*
D99*
X159000Y66500D02*
D03*
Y54689D02*
D03*
D100*
X36000Y240000D02*
D03*
D101*
X26000D02*
D03*
X16000D02*
D03*
D102*
X79000Y43000D02*
D03*
X123000Y46500D02*
D03*
X15000Y140500D02*
D03*
Y131000D02*
D03*
X111000Y42500D02*
D03*
Y32000D02*
D03*
D103*
X153988Y269012D02*
D03*
X99398Y225000D02*
D03*
X74500Y268500D02*
D03*
X36331Y273000D02*
D03*
X67000Y235000D02*
D03*
X71374Y254126D02*
D03*
Y258063D02*
D03*
X121068Y253256D02*
D03*
X46863Y251264D02*
D03*
X38256Y261000D02*
D03*
X110000Y244000D02*
D03*
X68021Y246991D02*
D03*
X48343Y258063D02*
D03*
Y254126D02*
D03*
X40224Y263947D02*
D03*
X114124Y249075D02*
D03*
X91218Y252138D02*
D03*
X107874Y269012D02*
D03*
X95214D02*
D03*
X78055Y261150D02*
D03*
X78044Y256327D02*
D03*
X157468Y255264D02*
D03*
X138469D02*
D03*
X130468Y259264D02*
D03*
Y263264D02*
D03*
X146468Y266264D02*
D03*
X150469D02*
D03*
X140469Y251264D02*
D03*
X157468D02*
D03*
X38256Y257000D02*
D03*
X21256D02*
D03*
X31256Y272000D02*
D03*
X27256D02*
D03*
X11256Y269000D02*
D03*
Y265000D02*
D03*
X19256Y261000D02*
D03*
X141000Y48529D02*
D03*
X135900Y60186D02*
D03*
X155000Y123000D02*
D03*
X64331Y239750D02*
D03*
X152000Y223000D02*
D03*
X129500Y62000D02*
D03*
X133063Y47000D02*
D03*
X147031Y63547D02*
D03*
X146000Y69469D02*
D03*
X122000Y75000D02*
D03*
X43500Y143500D02*
D03*
X49000Y156000D02*
D03*
X40000Y155500D02*
D03*
X94000Y221000D02*
D03*
X98000Y233000D02*
D03*
X84000Y78000D02*
D03*
X50000Y123000D02*
D03*
X49000Y239000D02*
D03*
Y226000D02*
D03*
X22000Y187000D02*
D03*
X148000Y118500D02*
D03*
X60532Y156968D02*
D03*
X58500Y153000D02*
D03*
X13000Y223000D02*
D03*
X54500Y230000D02*
D03*
X53500Y91000D02*
D03*
X18000Y123500D02*
D03*
X28000Y87500D02*
D03*
X79937Y140063D02*
D03*
X76500Y144500D02*
D03*
X82000Y185000D02*
D03*
X117166Y110666D02*
D03*
Y106335D02*
D03*
X119000Y78500D02*
D03*
X63032Y75531D02*
D03*
X19000Y98500D02*
D03*
X21969Y123468D02*
D03*
X88685Y83685D02*
D03*
X132468Y134531D02*
D03*
X107000Y205000D02*
D03*
X104500Y207500D02*
D03*
X102000Y210000D02*
D03*
X35500Y111000D02*
D03*
X46500Y93000D02*
D03*
X35484Y105516D02*
D03*
X34500Y100500D02*
D03*
X88685Y121185D02*
D03*
X49500Y32500D02*
D03*
X86500Y43000D02*
D03*
X91500Y39000D02*
D03*
X64500Y161500D02*
D03*
X37000Y31000D02*
D03*
X19654Y30846D02*
D03*
X141000Y196500D02*
D03*
X141500Y189000D02*
D03*
X102000Y49500D02*
D03*
X113500Y60000D02*
D03*
X144500Y97000D02*
D03*
X127500Y79000D02*
D03*
X129500Y46500D02*
D03*
X74500Y180000D02*
D03*
X62000D02*
D03*
X30000Y173000D02*
D03*
X82000Y192500D02*
D03*
X119000Y178000D02*
D03*
X48000Y83500D02*
D03*
Y73500D02*
D03*
X54500Y72000D02*
D03*
X93500Y75500D02*
D03*
X133429Y74965D02*
D03*
X151740Y82740D02*
D03*
X119000Y84000D02*
D03*
X77500Y105000D02*
D03*
X20000Y75000D02*
D03*
Y79000D02*
D03*
X48500Y78484D02*
D03*
X90437Y136063D02*
D03*
X132437Y118563D02*
D03*
X134937Y113563D02*
D03*
X137437Y108563D02*
D03*
X71500Y19500D02*
D03*
Y45500D02*
D03*
Y32000D02*
D03*
X130500Y189500D02*
D03*
Y194000D02*
D03*
X119500Y183000D02*
D03*
X121731Y191315D02*
D03*
X119000Y160000D02*
D03*
X55500Y116000D02*
D03*
X64331Y146000D02*
D03*
X95273Y142273D02*
D03*
X86000Y150000D02*
D03*
X96500D02*
D03*
X54500Y158500D02*
D03*
X100921Y144879D02*
D03*
X135000Y94000D02*
D03*
X131032Y104469D02*
D03*
X85000Y107500D02*
D03*
X82595Y114469D02*
D03*
X117469Y148031D02*
D03*
X56032Y239968D02*
D03*
X28000Y16000D02*
D03*
X55500Y192000D02*
D03*
Y188000D02*
D03*
X93000Y79000D02*
D03*
X80000Y76872D02*
D03*
X62000Y104500D02*
D03*
X32000Y92833D02*
D03*
X138469Y134531D02*
D03*
X116000Y195500D02*
D03*
X75000Y228000D02*
D03*
X71000Y233500D02*
D03*
X77500Y99500D02*
D03*
X41307Y16193D02*
D03*
X125000Y209000D02*
D03*
X12000Y105500D02*
D03*
X72900Y141200D02*
D03*
X135468Y138300D02*
D03*
X135900Y130600D02*
D03*
X59900Y240000D02*
D03*
X21300Y231400D02*
D03*
X21600Y227000D02*
D03*
X111469Y124531D02*
D03*
X112835Y110666D02*
D03*
Y106335D02*
D03*
X94937Y127063D02*
D03*
X66969Y79468D02*
D03*
X63032D02*
D03*
X66969Y75531D02*
D03*
X53500Y99500D02*
D03*
Y96000D02*
D03*
X20000Y83000D02*
D03*
Y92000D02*
D03*
X15500Y92500D02*
D03*
X75000Y74000D02*
D03*
X11000Y83000D02*
D03*
X28000Y69000D02*
D03*
X29887Y70887D02*
D03*
X95500Y41500D02*
D03*
X102000Y70000D02*
D03*
X109000Y67000D02*
D03*
Y64000D02*
D03*
X102000Y98000D02*
D03*
X103000Y91000D02*
D03*
X135000Y154000D02*
D03*
X130000D02*
D03*
X145000D02*
D03*
X106000Y151781D02*
D03*
X107000Y156000D02*
D03*
Y147000D02*
D03*
X87000Y160000D02*
D03*
X151000Y175000D02*
D03*
X48000Y161000D02*
D03*
X46000Y166000D02*
D03*
X90000Y163000D02*
D03*
X41000Y166000D02*
D03*
X150000Y130000D02*
D03*
X115000Y159000D02*
D03*
X97000Y175000D02*
D03*
X110000D02*
D03*
X105500Y170500D02*
D03*
X106000Y161969D02*
D03*
X108000Y159000D02*
D03*
X116000Y154000D02*
D03*
X152000Y158000D02*
D03*
X118000Y224000D02*
D03*
X115000D02*
D03*
X80000Y231000D02*
D03*
X82968Y228916D02*
D03*
X76000Y225000D02*
D03*
X46000Y233000D02*
D03*
X37000D02*
D03*
X39916Y219000D02*
D03*
Y223000D02*
D03*
X39500Y210000D02*
D03*
X36500Y208000D02*
D03*
X34500Y205000D02*
D03*
X32000Y202000D02*
D03*
X30000Y199831D02*
D03*
X27000Y197500D02*
D03*
X24000Y195000D02*
D03*
X22000Y191000D02*
D03*
X12000Y152000D02*
D03*
X10000Y158000D02*
D03*
X15000Y164000D02*
D03*
X14000Y169000D02*
D03*
X71812Y52977D02*
D03*
X5000Y211829D02*
D03*
M02*
