G04 Layer_Physical_Order=2*
G04 Layer_Color=16711680*
%FSLAX25Y25*%
%MOIN*%
G70*
G01*
G75*
%ADD42C,0.03937*%
%ADD45C,0.00800*%
%ADD47C,0.01500*%
%ADD48C,0.01000*%
%ADD49C,0.01300*%
%ADD50C,0.05000*%
%ADD51C,0.05905*%
%ADD52R,0.05905X0.05905*%
%ADD53R,0.03937X0.03937*%
%ADD54C,0.01968*%
G36*
X166777Y224463D02*
X166315Y224272D01*
X166177Y224409D01*
X165813Y224652D01*
X165384Y224737D01*
X165384Y224737D01*
X152000D01*
X151571Y224652D01*
X151528Y224623D01*
X151343Y224587D01*
X150786Y224214D01*
X150414Y223657D01*
X150283Y223000D01*
X150414Y222343D01*
X150786Y221786D01*
X151343Y221413D01*
X152000Y221283D01*
X152657Y221413D01*
X153214Y221786D01*
X153586Y222343D01*
X153617Y222494D01*
X164920D01*
X165278Y222135D01*
Y132865D01*
X163535Y131122D01*
X151276D01*
X151214Y131214D01*
X150657Y131587D01*
X150000Y131717D01*
X149343Y131587D01*
X148786Y131214D01*
X148414Y130657D01*
X148283Y130000D01*
X148414Y129343D01*
X148786Y128786D01*
X149343Y128413D01*
X150000Y128283D01*
X150657Y128413D01*
X151214Y128786D01*
X151276Y128878D01*
X164000D01*
X164000Y128878D01*
X164429Y128964D01*
X164793Y129207D01*
X166315Y130728D01*
X166777Y130537D01*
Y1223D01*
X1223D01*
Y258776D01*
X166777D01*
Y224463D01*
D02*
G37*
%LPC*%
G36*
X118884Y105335D02*
X118166D01*
Y104616D01*
X118596Y104904D01*
X118884Y105335D01*
D02*
G37*
G36*
X11000Y107218D02*
X10569Y106931D01*
X10282Y106500D01*
X11000D01*
Y107218D01*
D02*
G37*
G36*
X84000Y106500D02*
X83282D01*
X83570Y106070D01*
X84000Y105782D01*
Y106500D01*
D02*
G37*
G36*
X111835Y105335D02*
X111116D01*
X111404Y104904D01*
X111835Y104616D01*
Y105335D01*
D02*
G37*
G36*
X77500Y106717D02*
X76843Y106587D01*
X76286Y106214D01*
X75914Y105657D01*
X75783Y105000D01*
X75914Y104343D01*
X76286Y103786D01*
X76843Y103413D01*
X77500Y103283D01*
X78157Y103413D01*
X78714Y103786D01*
X79087Y104343D01*
X79217Y105000D01*
X79087Y105657D01*
X78714Y106214D01*
X78157Y106587D01*
X77500Y106717D01*
D02*
G37*
G36*
X62000Y106217D02*
X61343Y106087D01*
X60786Y105714D01*
X60413Y105157D01*
X60283Y104500D01*
X60413Y103843D01*
X60786Y103286D01*
X61343Y102913D01*
X62000Y102783D01*
X62657Y102913D01*
X63214Y103286D01*
X63586Y103843D01*
X63717Y104500D01*
X63586Y105157D01*
X63214Y105714D01*
X62657Y106087D01*
X62000Y106217D01*
D02*
G37*
G36*
X13718Y104500D02*
X13000D01*
Y103782D01*
X13431Y104069D01*
X13718Y104500D01*
D02*
G37*
G36*
X11000D02*
X10282D01*
X10569Y104069D01*
X11000Y103782D01*
Y104500D01*
D02*
G37*
G36*
X54500Y115000D02*
X53782D01*
X54070Y114569D01*
X54500Y114282D01*
Y115000D01*
D02*
G37*
G36*
X118166Y112384D02*
Y111665D01*
X118884D01*
X118596Y112096D01*
X118166Y112384D01*
D02*
G37*
G36*
X54500Y117718D02*
X54070Y117431D01*
X53782Y117000D01*
X54500D01*
Y117718D01*
D02*
G37*
G36*
X57218Y115000D02*
X56500D01*
Y114282D01*
X56931Y114569D01*
X57218Y115000D01*
D02*
G37*
G36*
X84000Y109218D02*
X83570Y108931D01*
X83282Y108500D01*
X84000D01*
Y109218D01*
D02*
G37*
G36*
X13000Y107218D02*
Y106500D01*
X13718D01*
X13431Y106931D01*
X13000Y107218D01*
D02*
G37*
G36*
X111835Y112384D02*
X111404Y112096D01*
X111116Y111665D01*
X111835D01*
Y112384D01*
D02*
G37*
G36*
X116165D02*
X115735Y112096D01*
X115296Y111440D01*
X115255Y111232D01*
X114745D01*
X114704Y111440D01*
X114265Y112096D01*
X113835Y112384D01*
Y110666D01*
X112835D01*
Y109666D01*
X111116D01*
X111404Y109235D01*
X112060Y108796D01*
X112268Y108755D01*
Y108245D01*
X112060Y108204D01*
X111404Y107765D01*
X111116Y107335D01*
X112835D01*
Y106335D01*
X113835D01*
Y104616D01*
X114265Y104904D01*
X114704Y105560D01*
X114745Y105769D01*
X115255D01*
X115296Y105560D01*
X115735Y104904D01*
X116165Y104616D01*
Y106335D01*
X117166D01*
Y107335D01*
X118884D01*
X118596Y107765D01*
X117940Y108204D01*
X117732Y108245D01*
Y108755D01*
X117940Y108796D01*
X118596Y109235D01*
X118884Y109666D01*
X117166D01*
Y110666D01*
X116165D01*
Y112384D01*
D02*
G37*
G36*
X18000Y97500D02*
X17282D01*
X17570Y97070D01*
X18000Y96782D01*
Y97500D01*
D02*
G37*
G36*
X146218Y96000D02*
X145500D01*
Y95282D01*
X145931Y95569D01*
X146218Y96000D01*
D02*
G37*
G36*
X55218Y98500D02*
X51782D01*
X52069Y98070D01*
X52173Y98000D01*
Y97500D01*
X52069Y97431D01*
X51782Y97000D01*
X55218D01*
X54931Y97431D01*
X54827Y97500D01*
Y98000D01*
X54931Y98070D01*
X55218Y98500D01*
D02*
G37*
G36*
X20718Y97500D02*
X20000D01*
Y96782D01*
X20431Y97070D01*
X20718Y97500D01*
D02*
G37*
G36*
X134000Y95718D02*
X133570Y95431D01*
X133282Y95000D01*
X134000D01*
Y95718D01*
D02*
G37*
G36*
X55218Y95000D02*
X54500D01*
Y94282D01*
X54931Y94569D01*
X55218Y95000D01*
D02*
G37*
G36*
X143500Y96000D02*
X142782D01*
X143070Y95569D01*
X143500Y95282D01*
Y96000D01*
D02*
G37*
G36*
X136000Y95718D02*
Y95000D01*
X136718D01*
X136431Y95431D01*
X136000Y95718D01*
D02*
G37*
G36*
X52500Y101218D02*
X52069Y100931D01*
X51782Y100500D01*
X52500D01*
Y101218D01*
D02*
G37*
G36*
X20000Y100218D02*
Y99500D01*
X20718D01*
X20431Y99931D01*
X20000Y100218D01*
D02*
G37*
G36*
X131032Y106186D02*
X130374Y106055D01*
X129817Y105683D01*
X129445Y105126D01*
X129314Y104469D01*
X129336Y104359D01*
X114707Y89730D01*
X114464Y89366D01*
X114378Y88937D01*
X114378Y88937D01*
Y82000D01*
X114378Y82000D01*
X114464Y81571D01*
X114707Y81207D01*
X117305Y78609D01*
X117283Y78500D01*
X117413Y77843D01*
X117786Y77286D01*
X118343Y76913D01*
X119000Y76783D01*
X119657Y76913D01*
X120214Y77286D01*
X120587Y77843D01*
X120717Y78500D01*
X120587Y79157D01*
X120214Y79714D01*
X119657Y80087D01*
X119000Y80217D01*
X118891Y80195D01*
X116622Y82465D01*
Y88472D01*
X130922Y102773D01*
X131032Y102751D01*
X131689Y102882D01*
X132246Y103254D01*
X132618Y103811D01*
X132749Y104469D01*
X132618Y105126D01*
X132246Y105683D01*
X131689Y106055D01*
X131032Y106186D01*
D02*
G37*
G36*
X54500Y101218D02*
Y100500D01*
X55218D01*
X54931Y100931D01*
X54500Y101218D01*
D02*
G37*
G36*
X143500Y98718D02*
X143070Y98431D01*
X142782Y98000D01*
X143500D01*
Y98718D01*
D02*
G37*
G36*
X77500Y101217D02*
X76843Y101087D01*
X76286Y100714D01*
X75914Y100157D01*
X75783Y99500D01*
X75914Y98843D01*
X76286Y98286D01*
X76843Y97913D01*
X77500Y97783D01*
X78157Y97913D01*
X78714Y98286D01*
X79087Y98843D01*
X79217Y99500D01*
X79087Y100157D01*
X78714Y100714D01*
X78157Y101087D01*
X77500Y101217D01*
D02*
G37*
G36*
X18000Y100218D02*
X17570Y99931D01*
X17282Y99500D01*
X18000D01*
Y100218D01*
D02*
G37*
G36*
X145500Y98718D02*
Y98000D01*
X146218D01*
X145931Y98431D01*
X145500Y98718D01*
D02*
G37*
G36*
X132468Y136249D02*
X131811Y136118D01*
X131254Y135746D01*
X130882Y135189D01*
X130751Y134531D01*
X130882Y133874D01*
X131254Y133317D01*
X131811Y132945D01*
X132468Y132814D01*
X133126Y132945D01*
X133683Y133317D01*
X134055Y133874D01*
X134186Y134531D01*
X134055Y135189D01*
X133683Y135746D01*
X133126Y136118D01*
X132468Y136249D01*
D02*
G37*
G36*
X16000Y134374D02*
Y132000D01*
X18374D01*
X18057Y132765D01*
X17496Y133496D01*
X16765Y134057D01*
X16000Y134374D01*
D02*
G37*
G36*
X161000Y134000D02*
X160282D01*
X160569Y133569D01*
X161000Y133282D01*
Y134000D01*
D02*
G37*
G36*
X138469Y136249D02*
X137811Y136118D01*
X137254Y135746D01*
X136882Y135189D01*
X136751Y134531D01*
X136882Y133874D01*
X137254Y133317D01*
X137811Y132945D01*
X138469Y132814D01*
X139126Y132945D01*
X139683Y133317D01*
X140055Y133874D01*
X140186Y134531D01*
X140055Y135189D01*
X139683Y135746D01*
X139126Y136118D01*
X138469Y136249D01*
D02*
G37*
G36*
X134900Y132318D02*
X134469Y132031D01*
X134182Y131600D01*
X134900D01*
Y132318D01*
D02*
G37*
G36*
X137618Y129600D02*
X136900D01*
Y128882D01*
X137331Y129169D01*
X137618Y129600D01*
D02*
G37*
G36*
X14000Y134374D02*
X13235Y134057D01*
X12504Y133496D01*
X11943Y132765D01*
X11626Y132000D01*
X14000D01*
Y134374D01*
D02*
G37*
G36*
X136900Y132318D02*
Y131600D01*
X137618D01*
X137331Y132031D01*
X136900Y132318D01*
D02*
G37*
G36*
X15000Y143728D02*
X14165Y143618D01*
X13386Y143295D01*
X12718Y142782D01*
X12205Y142114D01*
X11882Y141335D01*
X11772Y140500D01*
X11882Y139665D01*
X12205Y138886D01*
X12718Y138218D01*
X13386Y137705D01*
X14165Y137382D01*
X15000Y137272D01*
X15835Y137382D01*
X16614Y137705D01*
X17282Y138218D01*
X17795Y138886D01*
X18118Y139665D01*
X18228Y140500D01*
X18118Y141335D01*
X17795Y142114D01*
X17282Y142782D01*
X16614Y143295D01*
X15835Y143618D01*
X15000Y143728D01*
D02*
G37*
G36*
X137187Y137300D02*
X136469D01*
Y136582D01*
X136899Y136869D01*
X137187Y137300D01*
D02*
G37*
G36*
X134468Y140018D02*
X134038Y139731D01*
X133750Y139300D01*
X134468D01*
Y140018D01*
D02*
G37*
G36*
X78937Y139063D02*
X78219D01*
X78506Y138633D01*
X78937Y138345D01*
Y139063D01*
D02*
G37*
G36*
X161000Y136718D02*
X160569Y136431D01*
X160282Y136000D01*
X161000D01*
Y136718D01*
D02*
G37*
G36*
X163718Y134000D02*
X163000D01*
Y133282D01*
X163431Y133569D01*
X163718Y134000D01*
D02*
G37*
G36*
X134468Y137300D02*
X133750D01*
X134038Y136869D01*
X134468Y136582D01*
Y137300D01*
D02*
G37*
G36*
X163000Y136718D02*
Y136000D01*
X163718D01*
X163431Y136431D01*
X163000Y136718D01*
D02*
G37*
G36*
X134900Y129600D02*
X134182D01*
X134469Y129169D01*
X134900Y128882D01*
Y129600D01*
D02*
G37*
G36*
X23687Y122468D02*
X22968D01*
Y121750D01*
X23399Y122038D01*
X23687Y122468D01*
D02*
G37*
G36*
X18000Y125217D02*
X17343Y125087D01*
X16786Y124714D01*
X16413Y124157D01*
X16283Y123500D01*
X16413Y122843D01*
X16786Y122286D01*
X17343Y121914D01*
X18000Y121783D01*
X18657Y121914D01*
X19214Y122286D01*
X19566Y122812D01*
X19696Y122828D01*
X20083Y122776D01*
X20099Y122694D01*
X20538Y122038D01*
X20968Y121750D01*
Y123468D01*
Y125187D01*
X20538Y124899D01*
X20099Y124243D01*
X20089Y124193D01*
X19650Y124162D01*
X19576Y124173D01*
X19214Y124714D01*
X18657Y125087D01*
X18000Y125217D01*
D02*
G37*
G36*
X161000Y124000D02*
X160282D01*
X160569Y123569D01*
X161000Y123282D01*
Y124000D01*
D02*
G37*
G36*
X110468Y123531D02*
X109750D01*
X110038Y123101D01*
X110468Y122813D01*
Y123531D01*
D02*
G37*
G36*
X160000Y120717D02*
X159343Y120587D01*
X158786Y120214D01*
X158458Y119724D01*
X149200D01*
X148657Y120087D01*
X148000Y120217D01*
X147343Y120087D01*
X146786Y119714D01*
X146414Y119157D01*
X146283Y118500D01*
X146414Y117843D01*
X146786Y117286D01*
X147343Y116913D01*
X148000Y116783D01*
X148657Y116913D01*
X149200Y117277D01*
X159500D01*
X159766Y117329D01*
X160000Y117283D01*
X160657Y117413D01*
X161214Y117786D01*
X161586Y118343D01*
X161717Y119000D01*
X161586Y119657D01*
X161214Y120214D01*
X160657Y120587D01*
X160000Y120717D01*
D02*
G37*
G36*
X56500Y117718D02*
Y117000D01*
X57218D01*
X56931Y117431D01*
X56500Y117718D01*
D02*
G37*
G36*
X51718Y122000D02*
X51000D01*
Y121282D01*
X51431Y121569D01*
X51718Y122000D01*
D02*
G37*
G36*
X49000D02*
X48282D01*
X48569Y121569D01*
X49000Y121282D01*
Y122000D01*
D02*
G37*
G36*
X163000Y126718D02*
Y126000D01*
X163718D01*
X163431Y126431D01*
X163000Y126718D01*
D02*
G37*
G36*
X161000D02*
X160569Y126431D01*
X160282Y126000D01*
X161000D01*
Y126718D01*
D02*
G37*
G36*
X18374Y130000D02*
X16000D01*
Y127626D01*
X16765Y127943D01*
X17496Y128504D01*
X18057Y129235D01*
X18374Y130000D01*
D02*
G37*
G36*
X14000D02*
X11626D01*
X11943Y129235D01*
X12504Y128504D01*
X13235Y127943D01*
X14000Y127626D01*
Y130000D01*
D02*
G37*
G36*
X49000Y124718D02*
X48569Y124431D01*
X48282Y124000D01*
X49000D01*
Y124718D01*
D02*
G37*
G36*
X163718Y124000D02*
X163000D01*
Y123282D01*
X163431Y123569D01*
X163718Y124000D01*
D02*
G37*
G36*
X22968Y125187D02*
Y124469D01*
X23687D01*
X23399Y124899D01*
X22968Y125187D01*
D02*
G37*
G36*
X51000Y124718D02*
Y124000D01*
X51718D01*
X51431Y124431D01*
X51000Y124718D01*
D02*
G37*
G36*
X52500Y95000D02*
X51782D01*
X52069Y94569D01*
X52500Y94282D01*
Y95000D01*
D02*
G37*
G36*
X103000Y51218D02*
Y50500D01*
X103718D01*
X103431Y50931D01*
X103000Y51218D01*
D02*
G37*
G36*
X101000D02*
X100569Y50931D01*
X100282Y50500D01*
X101000D01*
Y51218D01*
D02*
G37*
G36*
X153874Y59500D02*
X151500D01*
Y57126D01*
X152265Y57443D01*
X152996Y58004D01*
X153557Y58735D01*
X153874Y59500D01*
D02*
G37*
G36*
X149500D02*
X147126D01*
X147443Y58735D01*
X148004Y58004D01*
X148735Y57443D01*
X149500Y57126D01*
Y59500D01*
D02*
G37*
G36*
X150500Y53228D02*
X149665Y53118D01*
X148886Y52795D01*
X148218Y52282D01*
X147705Y51614D01*
X147382Y50835D01*
X147273Y50000D01*
X147382Y49165D01*
X147705Y48386D01*
X148218Y47718D01*
X148886Y47205D01*
X149665Y46882D01*
X150500Y46772D01*
X151335Y46882D01*
X152114Y47205D01*
X152782Y47718D01*
X153295Y48386D01*
X153618Y49165D01*
X153728Y50000D01*
X153618Y50835D01*
X153295Y51614D01*
X152782Y52282D01*
X152114Y52795D01*
X151335Y53118D01*
X150500Y53228D01*
D02*
G37*
G36*
X72500Y47218D02*
Y46500D01*
X73218D01*
X72931Y46931D01*
X72500Y47218D01*
D02*
G37*
G36*
X103718Y48500D02*
X103000D01*
Y47782D01*
X103431Y48070D01*
X103718Y48500D01*
D02*
G37*
G36*
X101000D02*
X100282D01*
X100569Y48070D01*
X101000Y47782D01*
Y48500D01*
D02*
G37*
G36*
X151500Y63874D02*
Y61500D01*
X153874D01*
X153557Y62265D01*
X152996Y62996D01*
X152265Y63557D01*
X151500Y63874D01*
D02*
G37*
G36*
X149500Y63874D02*
X148735Y63557D01*
X148004Y62996D01*
X147443Y62265D01*
X147126Y61500D01*
X149500D01*
Y63874D01*
D02*
G37*
G36*
X143718Y65500D02*
X143000D01*
Y64782D01*
X143431Y65070D01*
X143718Y65500D01*
D02*
G37*
G36*
X141000D02*
X140282D01*
X140569Y65070D01*
X141000Y64782D01*
Y65500D01*
D02*
G37*
G36*
X73368Y58150D02*
X72650D01*
Y57431D01*
X73080Y57719D01*
X73368Y58150D01*
D02*
G37*
G36*
X70650D02*
X69931D01*
X70219Y57719D01*
X70650Y57431D01*
Y58150D01*
D02*
G37*
G36*
X72650Y60868D02*
Y60150D01*
X73368D01*
X73080Y60580D01*
X72650Y60868D01*
D02*
G37*
G36*
X70650D02*
X70219Y60580D01*
X69931Y60150D01*
X70650D01*
Y60868D01*
D02*
G37*
G36*
X71500Y33717D02*
X70843Y33587D01*
X70286Y33214D01*
X69914Y32657D01*
X69783Y32000D01*
X69914Y31343D01*
X70286Y30786D01*
X70843Y30413D01*
X71500Y30283D01*
X72157Y30413D01*
X72714Y30786D01*
X73087Y31343D01*
X73217Y32000D01*
X73087Y32657D01*
X72714Y33214D01*
X72157Y33587D01*
X71500Y33717D01*
D02*
G37*
G36*
X111000Y35228D02*
X110165Y35118D01*
X109386Y34795D01*
X108718Y34282D01*
X108205Y33614D01*
X107882Y32835D01*
X107773Y32000D01*
X107882Y31165D01*
X108205Y30386D01*
X108718Y29718D01*
X109386Y29205D01*
X110165Y28882D01*
X111000Y28772D01*
X111835Y28882D01*
X112614Y29205D01*
X113282Y29718D01*
X113795Y30386D01*
X114118Y31165D01*
X114228Y32000D01*
X114118Y32835D01*
X113795Y33614D01*
X113282Y34282D01*
X112614Y34795D01*
X111835Y35118D01*
X111000Y35228D01*
D02*
G37*
G36*
X114374Y41500D02*
X112000D01*
Y39126D01*
X112765Y39443D01*
X113496Y40004D01*
X114057Y40735D01*
X114374Y41500D01*
D02*
G37*
G36*
X110000D02*
X107626D01*
X107943Y40735D01*
X108504Y40004D01*
X109235Y39443D01*
X110000Y39126D01*
Y41500D01*
D02*
G37*
G36*
X73218Y18500D02*
X72500D01*
Y17782D01*
X72931Y18069D01*
X73218Y18500D01*
D02*
G37*
G36*
X70500D02*
X69782D01*
X70069Y18069D01*
X70500Y17782D01*
Y18500D01*
D02*
G37*
G36*
X72500Y21218D02*
Y20500D01*
X73218D01*
X72931Y20931D01*
X72500Y21218D01*
D02*
G37*
G36*
X70500D02*
X70069Y20931D01*
X69782Y20500D01*
X70500D01*
Y21218D01*
D02*
G37*
G36*
X73218Y44500D02*
X72500D01*
Y43782D01*
X72931Y44069D01*
X73218Y44500D01*
D02*
G37*
G36*
X70500D02*
X69782D01*
X70069Y44069D01*
X70500Y43782D01*
Y44500D01*
D02*
G37*
G36*
Y47218D02*
X70069Y46931D01*
X69782Y46500D01*
X70500D01*
Y47218D01*
D02*
G37*
G36*
X129500Y48217D02*
X128843Y48087D01*
X128286Y47714D01*
X127913Y47157D01*
X127783Y46500D01*
X127913Y45843D01*
X128286Y45286D01*
X128843Y44914D01*
X129500Y44783D01*
X130157Y44914D01*
X130714Y45286D01*
X131087Y45843D01*
X131217Y46500D01*
X131087Y47157D01*
X130714Y47714D01*
X130157Y48087D01*
X129500Y48217D01*
D02*
G37*
G36*
X123000Y49728D02*
X122165Y49618D01*
X121386Y49295D01*
X120718Y48782D01*
X120205Y48114D01*
X119882Y47335D01*
X119773Y46500D01*
X119882Y45665D01*
X120205Y44886D01*
X120718Y44218D01*
X121386Y43705D01*
X122165Y43382D01*
X123000Y43272D01*
X123835Y43382D01*
X124614Y43705D01*
X125282Y44218D01*
X125795Y44886D01*
X126118Y45665D01*
X126228Y46500D01*
X126118Y47335D01*
X125795Y48114D01*
X125282Y48782D01*
X124614Y49295D01*
X123835Y49618D01*
X123000Y49728D01*
D02*
G37*
G36*
X79000Y46228D02*
X78165Y46118D01*
X77386Y45795D01*
X76718Y45282D01*
X76205Y44614D01*
X75882Y43835D01*
X75773Y43000D01*
X75882Y42165D01*
X76205Y41386D01*
X76718Y40718D01*
X77386Y40205D01*
X78165Y39882D01*
X79000Y39772D01*
X79835Y39882D01*
X80614Y40205D01*
X81282Y40718D01*
X81795Y41386D01*
X82118Y42165D01*
X82228Y43000D01*
X82118Y43835D01*
X81795Y44614D01*
X81282Y45282D01*
X80614Y45795D01*
X79835Y46118D01*
X79000Y46228D01*
D02*
G37*
G36*
X112000Y45874D02*
Y43500D01*
X114374D01*
X114057Y44265D01*
X113496Y44996D01*
X112765Y45557D01*
X112000Y45874D01*
D02*
G37*
G36*
X110000Y45874D02*
X109235Y45557D01*
X108504Y44996D01*
X107943Y44265D01*
X107626Y43500D01*
X110000D01*
Y45874D01*
D02*
G37*
G36*
X141000Y68218D02*
X140569Y67931D01*
X140282Y67500D01*
X141000D01*
Y68218D01*
D02*
G37*
G36*
X27000Y86500D02*
X26282D01*
X26570Y86070D01*
X27000Y85782D01*
Y86500D01*
D02*
G37*
G36*
X21000Y84718D02*
Y84000D01*
X21718D01*
X21431Y84431D01*
X21000Y84718D01*
D02*
G37*
G36*
X27000Y89218D02*
X26570Y88931D01*
X26282Y88500D01*
X27000D01*
Y89218D01*
D02*
G37*
G36*
X29718Y86500D02*
X29000D01*
Y85782D01*
X29431Y86070D01*
X29718Y86500D01*
D02*
G37*
G36*
X65969Y81187D02*
X65538Y80899D01*
X65301Y80544D01*
X64699D01*
X64462Y80899D01*
X64031Y81187D01*
Y79468D01*
X63032D01*
Y78468D01*
X61313D01*
X61601Y78038D01*
X61956Y77801D01*
Y77199D01*
X61601Y76962D01*
X61313Y76531D01*
X63032D01*
Y75531D01*
X64031D01*
Y73813D01*
X64462Y74101D01*
X64699Y74456D01*
X65301D01*
X65538Y74101D01*
X65969Y73813D01*
Y75531D01*
X66969D01*
Y76531D01*
X68687D01*
X68399Y76962D01*
X68044Y77199D01*
Y77801D01*
X68399Y78038D01*
X68687Y78468D01*
X66969D01*
Y79468D01*
X65969D01*
Y81187D01*
D02*
G37*
G36*
X67968D02*
Y80468D01*
X68687D01*
X68399Y80899D01*
X67968Y81187D01*
D02*
G37*
G36*
X11000Y84717D02*
X10343Y84587D01*
X9786Y84214D01*
X9414Y83657D01*
X9283Y83000D01*
X9414Y82343D01*
X9786Y81786D01*
X10343Y81414D01*
X11000Y81283D01*
X11657Y81414D01*
X12214Y81786D01*
X12586Y82343D01*
X12717Y83000D01*
X12586Y83657D01*
X12214Y84214D01*
X11657Y84587D01*
X11000Y84717D01*
D02*
G37*
G36*
X119000Y85717D02*
X118343Y85587D01*
X117786Y85214D01*
X117413Y84657D01*
X117283Y84000D01*
X117413Y83343D01*
X117786Y82786D01*
X118343Y82414D01*
X118534Y82376D01*
X119214Y81695D01*
X119694Y81374D01*
X120260Y81262D01*
X150921D01*
X151083Y81154D01*
X151740Y81023D01*
X152397Y81154D01*
X152954Y81526D01*
X153327Y82083D01*
X153457Y82740D01*
X153327Y83397D01*
X152954Y83955D01*
X152397Y84327D01*
X151740Y84457D01*
X151083Y84327D01*
X150921Y84219D01*
X120872D01*
X120625Y84466D01*
X120587Y84657D01*
X120214Y85214D01*
X119657Y85587D01*
X119000Y85717D01*
D02*
G37*
G36*
X102000Y92718D02*
X101569Y92431D01*
X101282Y92000D01*
X102000D01*
Y92718D01*
D02*
G37*
G36*
X54500D02*
Y92000D01*
X55218D01*
X54931Y92431D01*
X54500Y92718D01*
D02*
G37*
G36*
X136718Y93000D02*
X136000D01*
Y92282D01*
X136431Y92570D01*
X136718Y93000D01*
D02*
G37*
G36*
X134000D02*
X133282D01*
X133570Y92570D01*
X134000Y92282D01*
Y93000D01*
D02*
G37*
G36*
X55218Y90000D02*
X54500D01*
Y89282D01*
X54931Y89569D01*
X55218Y90000D01*
D02*
G37*
G36*
X29000Y89218D02*
Y88500D01*
X29718D01*
X29431Y88931D01*
X29000Y89218D01*
D02*
G37*
G36*
X15500Y94217D02*
X14843Y94086D01*
X14286Y93714D01*
X13914Y93157D01*
X13783Y92500D01*
X13914Y91843D01*
X14286Y91286D01*
X14843Y90913D01*
X14878Y90906D01*
Y70879D01*
X14878Y70879D01*
X14964Y70450D01*
X15207Y70086D01*
X16586Y68707D01*
X16586Y68707D01*
X16950Y68464D01*
X17379Y68378D01*
X17379Y68379D01*
X26406D01*
X26414Y68343D01*
X26786Y67786D01*
X27343Y67414D01*
X28000Y67283D01*
X28657Y67414D01*
X29214Y67786D01*
X29586Y68343D01*
X29659Y68705D01*
X29831Y69056D01*
X30182Y69228D01*
X30544Y69300D01*
X31101Y69673D01*
X31473Y70230D01*
X31604Y70887D01*
X31473Y71544D01*
X31101Y72101D01*
X30544Y72474D01*
X29887Y72604D01*
X29230Y72474D01*
X28829Y72206D01*
X21084D01*
X21084Y72206D01*
X20661Y72122D01*
X18621D01*
Y73004D01*
X19000Y73207D01*
Y75000D01*
X20000D01*
Y76000D01*
X21718D01*
X21431Y76431D01*
X21015Y76708D01*
Y77292D01*
X21431Y77569D01*
X21718Y78000D01*
X20000D01*
Y80000D01*
X21718D01*
X21431Y80431D01*
X21015Y80708D01*
Y81292D01*
X21431Y81569D01*
X21718Y82000D01*
X20000D01*
Y83000D01*
X19000D01*
Y84793D01*
X18621Y84996D01*
Y89035D01*
X19891Y90304D01*
X20000Y90283D01*
X20657Y90413D01*
X21214Y90786D01*
X21587Y91343D01*
X21717Y92000D01*
X21587Y92657D01*
X21214Y93214D01*
X20657Y93586D01*
X20000Y93717D01*
X19343Y93586D01*
X18786Y93214D01*
X18414Y92657D01*
X18283Y92000D01*
X18304Y91891D01*
X17583Y91170D01*
X17121Y91361D01*
Y92000D01*
X17122Y92000D01*
X17120Y92010D01*
X17217Y92500D01*
X17086Y93157D01*
X16714Y93714D01*
X16157Y94086D01*
X15500Y94217D01*
D02*
G37*
G36*
X102000Y90000D02*
X101282D01*
X101569Y89569D01*
X102000Y89282D01*
Y90000D01*
D02*
G37*
G36*
X21718Y74000D02*
X21000D01*
Y73282D01*
X21431Y73569D01*
X21718Y74000D01*
D02*
G37*
G36*
X48000Y75217D02*
X47343Y75087D01*
X46786Y74714D01*
X46413Y74157D01*
X46283Y73500D01*
X46413Y72843D01*
X46786Y72286D01*
X47343Y71913D01*
X48000Y71783D01*
X48657Y71913D01*
X49214Y72286D01*
X49587Y72843D01*
X49717Y73500D01*
X49587Y74157D01*
X49214Y74714D01*
X48657Y75087D01*
X48000Y75217D01*
D02*
G37*
G36*
X68687Y74531D02*
X67968D01*
Y73813D01*
X68399Y74101D01*
X68687Y74531D01*
D02*
G37*
G36*
X62032D02*
X61313D01*
X61601Y74101D01*
X62032Y73813D01*
Y74531D01*
D02*
G37*
G36*
X103718Y69000D02*
X103000D01*
Y68282D01*
X103431Y68569D01*
X103718Y69000D01*
D02*
G37*
G36*
X143000Y68218D02*
Y67500D01*
X143718D01*
X143431Y67931D01*
X143000Y68218D01*
D02*
G37*
G36*
X103000Y71718D02*
Y71000D01*
X103718D01*
X103431Y71431D01*
X103000Y71718D01*
D02*
G37*
G36*
X53500Y71000D02*
X52782D01*
X53070Y70569D01*
X53500Y70282D01*
Y71000D01*
D02*
G37*
G36*
X83000Y79718D02*
X82569Y79431D01*
X82282Y79000D01*
X83000D01*
Y79718D01*
D02*
G37*
G36*
X127500Y80717D02*
X126843Y80587D01*
X126286Y80214D01*
X125914Y79657D01*
X125783Y79000D01*
X125914Y78343D01*
X126286Y77786D01*
X126843Y77413D01*
X127500Y77283D01*
X128157Y77413D01*
X128714Y77786D01*
X129087Y78343D01*
X129217Y79000D01*
X129087Y79657D01*
X128714Y80214D01*
X128157Y80587D01*
X127500Y80717D01*
D02*
G37*
G36*
X62032Y81187D02*
X61601Y80899D01*
X61313Y80468D01*
X62032D01*
Y81187D01*
D02*
G37*
G36*
X85000Y79718D02*
Y79000D01*
X85718D01*
X85431Y79431D01*
X85000Y79718D01*
D02*
G37*
G36*
X152000Y76717D02*
X151343Y76587D01*
X150786Y76214D01*
X150724Y76122D01*
X120000D01*
X119571Y76036D01*
X119207Y75793D01*
X119207Y75793D01*
X119109Y75696D01*
X119000Y75717D01*
X118343Y75587D01*
X117786Y75214D01*
X117413Y74657D01*
X117283Y74000D01*
X117413Y73343D01*
X117786Y72786D01*
X118343Y72413D01*
X119000Y72283D01*
X119657Y72413D01*
X120214Y72786D01*
X120587Y73343D01*
X120693Y73879D01*
X150724D01*
X150786Y73786D01*
X151343Y73413D01*
X152000Y73283D01*
X152657Y73413D01*
X153214Y73786D01*
X153587Y74343D01*
X153717Y75000D01*
X153587Y75657D01*
X153214Y76214D01*
X152657Y76587D01*
X152000Y76717D01*
D02*
G37*
G36*
X74000Y75718D02*
X73569Y75431D01*
X73282Y75000D01*
X74000D01*
Y75718D01*
D02*
G37*
G36*
X85718Y77000D02*
X85000D01*
Y76282D01*
X85431Y76569D01*
X85718Y77000D01*
D02*
G37*
G36*
X83000D02*
X82282D01*
X82569Y76569D01*
X83000Y76282D01*
Y77000D01*
D02*
G37*
G36*
X20600Y226000D02*
X19882D01*
X20169Y225569D01*
X20600Y225282D01*
Y226000D01*
D02*
G37*
G36*
X23318D02*
X22600D01*
Y225282D01*
X23031Y225569D01*
X23318Y226000D01*
D02*
G37*
G36*
X32718Y222000D02*
X32000D01*
Y221282D01*
X32431Y221569D01*
X32718Y222000D01*
D02*
G37*
G36*
X124000Y210718D02*
X123569Y210431D01*
X123282Y210000D01*
X124000D01*
Y210718D01*
D02*
G37*
G36*
X126000D02*
Y210000D01*
X126718D01*
X126431Y210431D01*
X126000Y210718D01*
D02*
G37*
G36*
X20600Y228718D02*
X20169Y228431D01*
X19882Y228000D01*
X20600D01*
Y228718D01*
D02*
G37*
G36*
X145000Y229000D02*
X144282D01*
X144569Y228569D01*
X145000Y228282D01*
Y229000D01*
D02*
G37*
G36*
X147718D02*
X147000D01*
Y228282D01*
X147431Y228569D01*
X147718Y229000D01*
D02*
G37*
G36*
X111718D02*
X111000D01*
Y228282D01*
X111431Y228569D01*
X111718Y229000D01*
D02*
G37*
G36*
X22600Y228718D02*
Y228000D01*
X23318D01*
X23031Y228431D01*
X22600Y228718D01*
D02*
G37*
G36*
X109000Y229000D02*
X108282D01*
X108569Y228569D01*
X109000Y228282D01*
Y229000D01*
D02*
G37*
G36*
X126718Y208000D02*
X126000D01*
Y207282D01*
X126431Y207569D01*
X126718Y208000D01*
D02*
G37*
G36*
X140500Y190718D02*
X140069Y190431D01*
X139782Y190000D01*
X140500D01*
Y190718D01*
D02*
G37*
G36*
X142500D02*
Y190000D01*
X143218D01*
X142931Y190431D01*
X142500Y190718D01*
D02*
G37*
G36*
X121731Y193032D02*
X121073Y192902D01*
X120516Y192529D01*
X120144Y191972D01*
X120013Y191315D01*
X120144Y190658D01*
X120516Y190101D01*
X121073Y189728D01*
X121731Y189598D01*
X122388Y189728D01*
X122945Y190101D01*
X123317Y190658D01*
X123448Y191315D01*
X123317Y191972D01*
X122945Y192529D01*
X122388Y192902D01*
X121731Y193032D01*
D02*
G37*
G36*
X140500Y188000D02*
X139782D01*
X140069Y187569D01*
X140500Y187282D01*
Y188000D01*
D02*
G37*
G36*
X143218D02*
X142500D01*
Y187282D01*
X142931Y187569D01*
X143218Y188000D01*
D02*
G37*
G36*
X115000Y194500D02*
X114282D01*
X114569Y194070D01*
X115000Y193782D01*
Y194500D01*
D02*
G37*
G36*
X117000Y197218D02*
Y196500D01*
X117718D01*
X117431Y196931D01*
X117000Y197218D01*
D02*
G37*
G36*
X124000Y208000D02*
X123282D01*
X123569Y207569D01*
X124000Y207282D01*
Y208000D01*
D02*
G37*
G36*
X115000Y197218D02*
X114569Y196931D01*
X114282Y196500D01*
X115000D01*
Y197218D01*
D02*
G37*
G36*
X117718Y194500D02*
X117000D01*
Y193782D01*
X117431Y194070D01*
X117718Y194500D01*
D02*
G37*
G36*
X141000Y198217D02*
X140343Y198087D01*
X139786Y197714D01*
X139413Y197157D01*
X139283Y196500D01*
X139413Y195843D01*
X139786Y195286D01*
X140343Y194913D01*
X141000Y194783D01*
X141657Y194913D01*
X142214Y195286D01*
X142587Y195843D01*
X142717Y196500D01*
X142587Y197157D01*
X142214Y197714D01*
X141657Y198087D01*
X141000Y198217D01*
D02*
G37*
G36*
X102000Y243717D02*
X101343Y243586D01*
X100786Y243214D01*
X100414Y242657D01*
X100283Y242000D01*
X100414Y241343D01*
X100777Y240799D01*
Y231201D01*
X100414Y230657D01*
X100283Y230000D01*
X100414Y229343D01*
X100786Y228786D01*
X101343Y228414D01*
X102000Y228283D01*
X102657Y228414D01*
X103214Y228786D01*
X103586Y229343D01*
X103717Y230000D01*
X103586Y230657D01*
X103224Y231201D01*
Y240799D01*
X103586Y241343D01*
X103717Y242000D01*
X103586Y242657D01*
X103214Y243214D01*
X102657Y243586D01*
X102000Y243717D01*
D02*
G37*
G36*
X109000Y256122D02*
X109000Y256121D01*
X43000D01*
X42571Y256036D01*
X42207Y255793D01*
X42207Y255793D01*
X41207Y254793D01*
X40964Y254429D01*
X40878Y254000D01*
X40878Y254000D01*
Y224938D01*
X40378Y224625D01*
X39916Y224717D01*
X39259Y224587D01*
X38702Y224214D01*
X38640Y224121D01*
X38000D01*
X38000Y224122D01*
X37571Y224036D01*
X37207Y223793D01*
X37207Y223793D01*
X30475Y217061D01*
X11294D01*
X11294Y217061D01*
X10865Y216975D01*
X10501Y216732D01*
X9207Y215438D01*
X8964Y215074D01*
X8878Y214645D01*
X8878Y214645D01*
Y159276D01*
X8786Y159214D01*
X8414Y158657D01*
X8283Y158000D01*
X8414Y157343D01*
X8786Y156786D01*
X9343Y156413D01*
X10000Y156283D01*
X10657Y156413D01*
X11214Y156786D01*
X11378Y157031D01*
X11878Y156880D01*
Y153693D01*
X11343Y153586D01*
X10786Y153214D01*
X10413Y152657D01*
X10283Y152000D01*
X10413Y151343D01*
X10786Y150786D01*
X11343Y150414D01*
X12000Y150283D01*
X12657Y150414D01*
X13214Y150786D01*
X13587Y151343D01*
X13717Y152000D01*
X13695Y152109D01*
X13793Y152207D01*
X13793Y152207D01*
X14036Y152571D01*
X14121Y153000D01*
Y159000D01*
X14122Y159000D01*
X14036Y159429D01*
X13793Y159793D01*
X13793Y159793D01*
X13037Y160549D01*
Y163006D01*
X13537Y163157D01*
X13786Y162786D01*
X14343Y162414D01*
X15000Y162283D01*
X15336Y162350D01*
X29378Y148308D01*
Y103000D01*
X29378Y103000D01*
X29464Y102571D01*
X29707Y102207D01*
X30878Y101035D01*
Y94110D01*
X30786Y94048D01*
X30413Y93490D01*
X30283Y92833D01*
X30413Y92176D01*
X30786Y91619D01*
X31343Y91247D01*
X32000Y91116D01*
X32657Y91247D01*
X33194Y91606D01*
X33312Y91582D01*
X33694Y91437D01*
Y52391D01*
X13207Y31903D01*
X12964Y31540D01*
X12878Y31110D01*
X12878Y31110D01*
Y24000D01*
X12878Y24000D01*
X12964Y23571D01*
X13207Y23207D01*
X21207Y15207D01*
X21207Y15207D01*
X21571Y14964D01*
X22000Y14878D01*
X22000Y14878D01*
X26724D01*
X26786Y14786D01*
X27343Y14413D01*
X28000Y14283D01*
X28657Y14413D01*
X29214Y14786D01*
X29586Y15343D01*
X29717Y16000D01*
X29586Y16657D01*
X29214Y17214D01*
X28969Y17379D01*
X29120Y17878D01*
X31035D01*
X33514Y15400D01*
X33514Y15400D01*
X33878Y15157D01*
X34307Y15071D01*
X40031D01*
X40093Y14979D01*
X40650Y14606D01*
X41307Y14476D01*
X41964Y14606D01*
X42521Y14979D01*
X42894Y15536D01*
X43024Y16193D01*
X42894Y16850D01*
X42521Y17407D01*
X41964Y17779D01*
X41307Y17910D01*
X40650Y17779D01*
X40093Y17407D01*
X40031Y17314D01*
X34772D01*
X32293Y19793D01*
X31929Y20036D01*
X31500Y20122D01*
X31500Y20121D01*
X22465D01*
X17621Y24965D01*
Y30024D01*
X17752Y30073D01*
X18122Y30108D01*
X18439Y29632D01*
X18996Y29260D01*
X19654Y29129D01*
X20311Y29260D01*
X20868Y29632D01*
X21240Y30189D01*
X21371Y30846D01*
X21349Y30956D01*
X35535Y45142D01*
X35740Y45040D01*
X35948Y44847D01*
X35879Y44500D01*
X35879Y44500D01*
Y32276D01*
X35786Y32214D01*
X35414Y31657D01*
X35283Y31000D01*
X35414Y30343D01*
X35786Y29786D01*
X36343Y29414D01*
X37000Y29283D01*
X37657Y29414D01*
X38214Y29786D01*
X38587Y30343D01*
X38717Y31000D01*
X38587Y31657D01*
X38214Y32214D01*
X38122Y32276D01*
Y44036D01*
X40878Y46792D01*
X41378Y46585D01*
Y39500D01*
X41378Y39500D01*
X41464Y39071D01*
X41707Y38707D01*
X47805Y32609D01*
X47783Y32500D01*
X47914Y31843D01*
X48286Y31286D01*
X48843Y30913D01*
X49500Y30783D01*
X50157Y30913D01*
X50714Y31286D01*
X51087Y31843D01*
X51217Y32500D01*
X51087Y33157D01*
X50714Y33714D01*
X50157Y34087D01*
X49500Y34217D01*
X49391Y34196D01*
X43622Y39965D01*
Y93990D01*
X44909Y95277D01*
X45152Y95641D01*
X45237Y96070D01*
X45237Y96070D01*
Y96523D01*
X45699Y96715D01*
X47246Y95168D01*
X47228Y95073D01*
X46654Y94687D01*
X46500Y94717D01*
X45843Y94587D01*
X45286Y94214D01*
X44914Y93657D01*
X44783Y93000D01*
X44914Y92343D01*
X45286Y91786D01*
X45843Y91413D01*
X46500Y91283D01*
X47157Y91413D01*
X47714Y91786D01*
X48087Y92343D01*
X48217Y93000D01*
X48187Y93154D01*
X48573Y93728D01*
X48668Y93746D01*
X49878Y92535D01*
Y84620D01*
X49378Y84469D01*
X49214Y84714D01*
X48657Y85087D01*
X48000Y85217D01*
X47343Y85087D01*
X46786Y84714D01*
X46413Y84157D01*
X46283Y83500D01*
X46413Y82843D01*
X46786Y82286D01*
X47343Y81914D01*
X48000Y81783D01*
X48657Y81914D01*
X49214Y82286D01*
X49378Y82531D01*
X49878Y82380D01*
Y80190D01*
X49479Y79930D01*
X49391Y79915D01*
X49157Y80071D01*
X48500Y80202D01*
X47843Y80071D01*
X47286Y79698D01*
X46913Y79141D01*
X46783Y78484D01*
X46913Y77827D01*
X47286Y77270D01*
X47843Y76898D01*
X48500Y76767D01*
X49157Y76898D01*
X49714Y77270D01*
X50087Y77827D01*
X50217Y78484D01*
X50216Y78491D01*
X50677Y78737D01*
X54975Y74438D01*
X54729Y73978D01*
X54500Y74023D01*
X53726Y73869D01*
X53070Y73431D01*
X52782Y73000D01*
X54500D01*
Y72000D01*
X55500D01*
Y70282D01*
X55931Y70569D01*
X56369Y71226D01*
X56523Y72000D01*
X56478Y72229D01*
X56938Y72475D01*
X59207Y70207D01*
X59207Y70207D01*
X59571Y69964D01*
X60000Y69878D01*
X75000D01*
X75000Y69878D01*
X75429Y69964D01*
X75793Y70207D01*
X80793Y75207D01*
X80793Y75207D01*
X80997Y75513D01*
X81214Y75658D01*
X81587Y76215D01*
X81717Y76872D01*
X81680Y77060D01*
X81677Y77073D01*
X81678Y77073D01*
X81587Y77529D01*
Y77529D01*
X81587Y77529D01*
X81564Y77563D01*
X81214Y78086D01*
X80657Y78458D01*
X80000Y78589D01*
X79343Y78458D01*
X78786Y78086D01*
X78413Y77529D01*
X78283Y76872D01*
X78413Y76215D01*
X78500Y76086D01*
X77315Y74901D01*
X76714Y75007D01*
X76431Y75431D01*
X76000Y75718D01*
Y74000D01*
X75000D01*
Y73000D01*
X73282D01*
X73535Y72622D01*
X73475Y72385D01*
X73340Y72122D01*
X60465D01*
X52122Y80465D01*
Y89004D01*
X52500Y89207D01*
Y91000D01*
Y92718D01*
X52562Y92760D01*
X52412Y92840D01*
X52110Y93059D01*
X52036Y93429D01*
X51793Y93793D01*
X51793Y93793D01*
X46206Y99380D01*
Y114970D01*
X46206Y114970D01*
X46121Y115399D01*
X45877Y115763D01*
X45877Y115763D01*
X45122Y116519D01*
Y140588D01*
X46377Y141844D01*
X46377Y141844D01*
X46620Y142208D01*
X46706Y142637D01*
X46706Y142637D01*
Y144363D01*
X46706Y144363D01*
X46620Y144792D01*
X46377Y145156D01*
X46377Y145156D01*
X45122Y146412D01*
Y156535D01*
X47891Y159304D01*
X48000Y159283D01*
X48657Y159414D01*
X49214Y159786D01*
X49586Y160343D01*
X49717Y161000D01*
X49586Y161657D01*
X49214Y162214D01*
X48969Y162378D01*
X49120Y162878D01*
X62794D01*
X63061Y162378D01*
X62914Y162157D01*
X62783Y161500D01*
X62914Y160843D01*
X63286Y160286D01*
X63843Y159914D01*
X64500Y159783D01*
X65157Y159914D01*
X65714Y160286D01*
X65833Y160463D01*
X76262D01*
X76575Y159963D01*
X76483Y159500D01*
X76613Y158843D01*
X76986Y158286D01*
X77543Y157913D01*
X78200Y157783D01*
X78857Y157913D01*
X79414Y158286D01*
X79786Y158843D01*
X79917Y159500D01*
X79825Y159963D01*
X80138Y160463D01*
X84951D01*
X85304Y160109D01*
X85283Y160000D01*
X85413Y159343D01*
X85786Y158786D01*
X86343Y158414D01*
X87000Y158283D01*
X87657Y158414D01*
X88214Y158786D01*
X88586Y159343D01*
X88717Y160000D01*
X88586Y160657D01*
X88214Y161214D01*
X87657Y161586D01*
X87000Y161717D01*
X86891Y161696D01*
X86209Y162377D01*
X86207Y162378D01*
X86359Y162878D01*
X88307D01*
X88414Y162343D01*
X88786Y161786D01*
X89343Y161414D01*
X90000Y161283D01*
X90657Y161414D01*
X91214Y161786D01*
X91587Y162343D01*
X91717Y163000D01*
X91587Y163657D01*
X91439Y163878D01*
X91706Y164378D01*
X93500D01*
X93500Y164378D01*
X93929Y164464D01*
X94293Y164707D01*
X97793Y168207D01*
X97793Y168207D01*
X98036Y168571D01*
X98122Y169000D01*
X98122Y169000D01*
Y173645D01*
X98378Y173873D01*
X98878Y173691D01*
Y167433D01*
X81801Y150356D01*
X81558Y149992D01*
X81473Y149563D01*
X81473Y149563D01*
Y142025D01*
X80973Y141757D01*
X80937Y141781D01*
Y140063D01*
Y138345D01*
X80973Y138369D01*
X81473Y138101D01*
Y115745D01*
X81380Y115683D01*
X81008Y115126D01*
X80877Y114469D01*
X81008Y113811D01*
X81380Y113254D01*
X81937Y112882D01*
X82595Y112751D01*
X83252Y112882D01*
X83809Y113254D01*
X84181Y113811D01*
X84312Y114469D01*
X84181Y115126D01*
X83809Y115683D01*
X83716Y115745D01*
Y148924D01*
X84043Y149199D01*
X84571Y149108D01*
X84786Y148786D01*
X84878Y148724D01*
Y123870D01*
X84878Y123870D01*
X84964Y123441D01*
X85207Y123077D01*
X86990Y121294D01*
X86968Y121185D01*
X87098Y120528D01*
X87309Y120213D01*
Y108448D01*
X87250Y108425D01*
X86809Y108365D01*
X86431Y108931D01*
X86000Y109218D01*
Y107500D01*
Y105782D01*
X86431Y106070D01*
X86809Y106635D01*
X87250Y106575D01*
X87309Y106552D01*
Y84657D01*
X87098Y84342D01*
X87024Y83970D01*
X86728Y83527D01*
X86624Y83000D01*
Y45070D01*
X86214Y44660D01*
X85843Y44587D01*
X85286Y44214D01*
X84913Y43657D01*
X84783Y43000D01*
X84913Y42343D01*
X85286Y41786D01*
X85843Y41414D01*
X86500Y41283D01*
X87157Y41414D01*
X87714Y41786D01*
X88087Y42343D01*
X88160Y42714D01*
X88973Y43527D01*
X88973Y43527D01*
X89272Y43973D01*
X89376Y44500D01*
X89376Y44500D01*
Y63384D01*
X89838Y63575D01*
X90376Y63038D01*
X90378Y40276D01*
X90286Y40214D01*
X89913Y39657D01*
X89783Y39000D01*
X89913Y38343D01*
X90286Y37786D01*
X90843Y37413D01*
X91500Y37283D01*
X92157Y37413D01*
X92714Y37786D01*
X93087Y38343D01*
X93217Y39000D01*
X93087Y39657D01*
X92714Y40214D01*
X92621Y40276D01*
X92619Y63503D01*
X92619Y63503D01*
X92533Y63932D01*
X92290Y64296D01*
X92290Y64296D01*
X91122Y65464D01*
Y77340D01*
X91385Y77475D01*
X91622Y77535D01*
X92118Y77203D01*
X92225Y76891D01*
X92224Y76622D01*
X91913Y76157D01*
X91783Y75500D01*
X91913Y74843D01*
X92286Y74286D01*
X92843Y73914D01*
X93500Y73783D01*
X94157Y73914D01*
X94714Y74286D01*
X95087Y74843D01*
X95217Y75500D01*
X95091Y76133D01*
X95617Y76659D01*
X96078Y76467D01*
Y43665D01*
X95609Y43196D01*
X95500Y43217D01*
X94843Y43087D01*
X94286Y42714D01*
X93914Y42157D01*
X93783Y41500D01*
X93914Y40843D01*
X94286Y40286D01*
X94843Y39913D01*
X95500Y39783D01*
X96157Y39913D01*
X96714Y40286D01*
X97087Y40843D01*
X97217Y41500D01*
X97196Y41609D01*
X97993Y42407D01*
X97993Y42407D01*
X98236Y42771D01*
X98322Y43200D01*
Y62439D01*
X98784Y62630D01*
X102207Y59207D01*
X102207Y59207D01*
X102571Y58964D01*
X103000Y58878D01*
X103000Y58878D01*
X112224D01*
X112286Y58786D01*
X112843Y58413D01*
X113500Y58283D01*
X114157Y58413D01*
X114714Y58786D01*
X115087Y59343D01*
X115217Y60000D01*
X115087Y60657D01*
X114714Y61214D01*
X114157Y61587D01*
X113500Y61717D01*
X112843Y61587D01*
X112286Y61214D01*
X112224Y61122D01*
X103464D01*
X100122Y64464D01*
Y68340D01*
X100385Y68475D01*
X100622Y68535D01*
X101000Y68282D01*
Y70000D01*
Y71718D01*
X100622Y71465D01*
X100385Y71525D01*
X100122Y71660D01*
Y96880D01*
X100622Y97031D01*
X100786Y96786D01*
X101343Y96413D01*
X102000Y96283D01*
X102657Y96413D01*
X103214Y96786D01*
X103586Y97343D01*
X103717Y98000D01*
X103586Y98657D01*
X103214Y99214D01*
X102657Y99586D01*
X102502Y99617D01*
X102337Y100160D01*
X104177Y102000D01*
X104177Y102000D01*
X104378Y102301D01*
X104621Y102300D01*
X104878Y102218D01*
Y92660D01*
X104615Y92525D01*
X104378Y92465D01*
X104000Y92718D01*
Y91000D01*
Y89282D01*
X104378Y89535D01*
X104615Y89475D01*
X104878Y89340D01*
Y89221D01*
X104878Y89221D01*
X104964Y88792D01*
X105207Y88428D01*
X105378Y88256D01*
Y66500D01*
X105378Y66500D01*
X105464Y66071D01*
X105707Y65707D01*
X107305Y64109D01*
X107283Y64000D01*
X107413Y63343D01*
X107786Y62786D01*
X108343Y62414D01*
X109000Y62283D01*
X109657Y62414D01*
X110214Y62786D01*
X110587Y63343D01*
X110717Y64000D01*
X110587Y64657D01*
X110214Y65214D01*
X110161Y65250D01*
Y65750D01*
X110214Y65786D01*
X110587Y66343D01*
X110717Y67000D01*
X110587Y67657D01*
X110214Y68214D01*
X110122Y68276D01*
Y71000D01*
X110036Y71429D01*
X109793Y71793D01*
X109793Y71793D01*
X109122Y72465D01*
Y90152D01*
X109122Y90153D01*
X109036Y90582D01*
X108793Y90946D01*
X108793Y90946D01*
X108622Y91117D01*
Y146500D01*
X108622Y146500D01*
X108620Y146510D01*
X108717Y147000D01*
X108695Y147109D01*
X109378Y147792D01*
X109878Y147585D01*
Y128000D01*
X109878Y128000D01*
X109964Y127571D01*
X110207Y127207D01*
X110567Y126846D01*
X110462Y126245D01*
X110038Y125962D01*
X109750Y125531D01*
X111469D01*
Y124531D01*
X112469D01*
Y122813D01*
X112899Y123101D01*
X113182Y123525D01*
X113783Y123630D01*
X119644Y117770D01*
X119644Y117770D01*
X120008Y117527D01*
X120437Y117441D01*
X131161D01*
X131223Y117349D01*
X131780Y116976D01*
X132437Y116846D01*
X133094Y116976D01*
X133651Y117349D01*
X134024Y117906D01*
X134154Y118563D01*
X134024Y119220D01*
X133989Y119272D01*
X134219Y119733D01*
X134639Y119775D01*
X136316Y118098D01*
Y115269D01*
X135816Y115002D01*
X135594Y115150D01*
X134937Y115280D01*
X134280Y115150D01*
X133723Y114777D01*
X133351Y114220D01*
X133220Y113563D01*
X133351Y112906D01*
X133723Y112349D01*
X134280Y111977D01*
X134937Y111846D01*
X135594Y111977D01*
X135816Y112124D01*
X136316Y111857D01*
Y109839D01*
X136223Y109777D01*
X135851Y109220D01*
X135720Y108563D01*
X135851Y107906D01*
X136223Y107349D01*
X136780Y106976D01*
X137437Y106846D01*
X138094Y106976D01*
X138651Y107349D01*
X139024Y107906D01*
X139154Y108563D01*
X139024Y109220D01*
X138651Y109777D01*
X138559Y109839D01*
Y118563D01*
X138473Y118992D01*
X138230Y119356D01*
X138230Y119356D01*
X135793Y121793D01*
X135429Y122036D01*
X135000Y122122D01*
X135000Y122122D01*
X124586D01*
X113622Y133086D01*
Y157294D01*
X114122Y157561D01*
X114343Y157413D01*
X115000Y157283D01*
X115657Y157413D01*
X116214Y157786D01*
X116586Y158343D01*
X116717Y159000D01*
X116586Y159657D01*
X116214Y160214D01*
X116122Y160276D01*
Y168535D01*
X121465Y173878D01*
X149724D01*
X149786Y173786D01*
X150343Y173414D01*
X151000Y173283D01*
X151657Y173414D01*
X152214Y173786D01*
X152586Y174343D01*
X152717Y175000D01*
X152586Y175657D01*
X152214Y176214D01*
X151657Y176586D01*
X151000Y176717D01*
X150343Y176586D01*
X149786Y176214D01*
X149724Y176122D01*
X121000D01*
X121000Y176122D01*
X120571Y176036D01*
X120207Y175793D01*
X120207Y175793D01*
X118222Y173808D01*
X117722Y174015D01*
Y176227D01*
X118222Y176495D01*
X118343Y176414D01*
X119000Y176283D01*
X119657Y176414D01*
X120214Y176786D01*
X120587Y177343D01*
X120717Y178000D01*
X120696Y178109D01*
X130391Y187805D01*
X130500Y187783D01*
X131157Y187914D01*
X131714Y188286D01*
X132087Y188843D01*
X132217Y189500D01*
X132087Y190157D01*
X131714Y190714D01*
X131157Y191087D01*
X130500Y191217D01*
X130346Y191187D01*
X129772Y191573D01*
X129753Y191667D01*
X130391Y192305D01*
X130500Y192283D01*
X131157Y192413D01*
X131714Y192786D01*
X132087Y193343D01*
X132217Y194000D01*
X132087Y194657D01*
X131714Y195214D01*
X131157Y195587D01*
X130500Y195717D01*
X129843Y195587D01*
X129286Y195214D01*
X128913Y194657D01*
X128783Y194000D01*
X128805Y193891D01*
X119609Y184695D01*
X119500Y184717D01*
X118843Y184587D01*
X118286Y184214D01*
X118222Y184118D01*
X117722Y184270D01*
Y185600D01*
X117722Y185600D01*
X117636Y186029D01*
X117393Y186393D01*
X111706Y192080D01*
Y212416D01*
X111706Y212416D01*
X111620Y212845D01*
X111377Y213209D01*
X111377Y213209D01*
X101767Y222819D01*
X102000Y223283D01*
X102657Y223413D01*
X103214Y223786D01*
X103586Y224343D01*
X103717Y225000D01*
X103586Y225657D01*
X103214Y226214D01*
X102657Y226587D01*
X102000Y226717D01*
X101343Y226587D01*
X100786Y226214D01*
X100724Y226121D01*
X97655D01*
X96899Y226877D01*
X96535Y227120D01*
X96106Y227206D01*
X96106Y227206D01*
X95380D01*
X94100Y228486D01*
Y229021D01*
X94015Y229450D01*
X93772Y229814D01*
X93772Y229814D01*
X89622Y233965D01*
Y237576D01*
X89846Y237669D01*
X90403Y238097D01*
X90503Y238227D01*
X91126Y238217D01*
X91383Y237883D01*
X92003Y237407D01*
X92500Y237201D01*
Y240000D01*
X93500D01*
Y241000D01*
X96299D01*
X96093Y241497D01*
X95617Y242117D01*
X95282Y242374D01*
X95273Y242997D01*
X95403Y243097D01*
X95831Y243654D01*
X96100Y244303D01*
X96192Y245000D01*
X96100Y245697D01*
X95831Y246346D01*
X95403Y246903D01*
X94846Y247331D01*
X94197Y247600D01*
X93500Y247691D01*
X92803Y247600D01*
X92154Y247331D01*
X91597Y246903D01*
X91301Y246518D01*
X91201Y246481D01*
X90799D01*
X90699Y246518D01*
X90403Y246903D01*
X89846Y247331D01*
X89197Y247600D01*
X88500Y247691D01*
X87803Y247600D01*
X87154Y247331D01*
X86597Y246903D01*
X86301Y246518D01*
X86201Y246481D01*
X85799D01*
X85699Y246518D01*
X85403Y246903D01*
X84846Y247331D01*
X84622Y247424D01*
X84622Y248000D01*
Y253878D01*
X108535D01*
X108878Y253535D01*
Y249241D01*
X108807Y249193D01*
X108564Y248829D01*
X108478Y248400D01*
X108564Y247971D01*
X108635Y247864D01*
X108652Y247405D01*
X108510Y247220D01*
X108097Y246903D01*
X107669Y246346D01*
X107400Y245697D01*
X107308Y245000D01*
X107400Y244303D01*
X107669Y243654D01*
X108042Y243168D01*
X107972Y242894D01*
X107834Y242669D01*
X107332D01*
Y237332D01*
X112669D01*
Y237834D01*
X112894Y237972D01*
X113169Y238042D01*
X113654Y237669D01*
X113878Y237576D01*
Y233000D01*
Y225276D01*
X113786Y225214D01*
X113414Y224657D01*
X113283Y224000D01*
X113414Y223343D01*
X113786Y222786D01*
X114343Y222413D01*
X115000Y222283D01*
X115657Y222413D01*
X116214Y222786D01*
X116250Y222839D01*
X116750D01*
X116786Y222786D01*
X117343Y222413D01*
X118000Y222283D01*
X118657Y222413D01*
X119214Y222786D01*
X119276Y222879D01*
X139000D01*
X139000Y222878D01*
X139429Y222964D01*
X139793Y223207D01*
X142293Y225707D01*
X142293Y225707D01*
X142536Y226071D01*
X142622Y226500D01*
Y237576D01*
X142846Y237669D01*
X143403Y238097D01*
X143503Y238227D01*
X144126Y238217D01*
X144383Y237883D01*
X145003Y237407D01*
X145500Y237201D01*
Y240000D01*
X146500D01*
Y241000D01*
X149299D01*
X149093Y241497D01*
X148617Y242117D01*
X148283Y242374D01*
X148273Y242997D01*
X148403Y243097D01*
X148831Y243654D01*
X149100Y244303D01*
X149191Y245000D01*
X149100Y245697D01*
X148831Y246346D01*
X148403Y246903D01*
X147846Y247331D01*
X147197Y247600D01*
X146500Y247691D01*
X145803Y247600D01*
X145154Y247331D01*
X144597Y246903D01*
X144301Y246518D01*
X144201Y246481D01*
X143799D01*
X143699Y246518D01*
X143403Y246903D01*
X142846Y247331D01*
X142197Y247600D01*
X141500Y247691D01*
X140803Y247600D01*
X140154Y247331D01*
X139597Y246903D01*
X139301Y246518D01*
X139201Y246481D01*
X138799D01*
X138699Y246518D01*
X138403Y246903D01*
X137846Y247331D01*
X137197Y247600D01*
X136500Y247691D01*
X135803Y247600D01*
X135579Y247507D01*
X133893Y249193D01*
X133529Y249436D01*
X133100Y249522D01*
X133100Y249521D01*
X111122D01*
Y254000D01*
X111036Y254429D01*
X110793Y254793D01*
X110793Y254793D01*
X109793Y255793D01*
X109429Y256036D01*
X109000Y256122D01*
D02*
G37*
G36*
X149299Y239000D02*
X147500D01*
Y237201D01*
X147997Y237407D01*
X148617Y237883D01*
X149093Y238503D01*
X149299Y239000D01*
D02*
G37*
G36*
X96299Y239000D02*
X94500D01*
Y237201D01*
X94997Y237407D01*
X95617Y237883D01*
X96093Y238503D01*
X96299Y239000D01*
D02*
G37*
G36*
X16000Y243684D02*
X15046Y243559D01*
X14158Y243191D01*
X13395Y242605D01*
X12809Y241842D01*
X12441Y240954D01*
X12316Y240000D01*
X12441Y239046D01*
X12809Y238158D01*
X13395Y237395D01*
X14158Y236809D01*
X15046Y236441D01*
X16000Y236316D01*
X16954Y236441D01*
X17842Y236809D01*
X18605Y237395D01*
X19191Y238158D01*
X19559Y239046D01*
X19684Y240000D01*
X19559Y240954D01*
X19191Y241842D01*
X18605Y242605D01*
X17842Y243191D01*
X16954Y243559D01*
X16000Y243684D01*
D02*
G37*
G36*
X26000D02*
X25046Y243559D01*
X24158Y243191D01*
X23395Y242605D01*
X22809Y241842D01*
X22441Y240954D01*
X22316Y240000D01*
X22441Y239046D01*
X22809Y238158D01*
X23395Y237395D01*
X24158Y236809D01*
X25046Y236441D01*
X26000Y236316D01*
X26954Y236441D01*
X27842Y236809D01*
X28605Y237395D01*
X29191Y238158D01*
X29559Y239046D01*
X29684Y240000D01*
X29559Y240954D01*
X29191Y241842D01*
X28605Y242605D01*
X27842Y243191D01*
X26954Y243559D01*
X26000Y243684D01*
D02*
G37*
G36*
X35000Y243953D02*
X32047D01*
Y241000D01*
X35000D01*
Y243953D01*
D02*
G37*
G36*
X87924Y252718D02*
X87493Y252431D01*
X87205Y252000D01*
X87924D01*
Y252718D01*
D02*
G37*
G36*
X89924D02*
Y252000D01*
X90642D01*
X90354Y252431D01*
X89924Y252718D01*
D02*
G37*
G36*
X90642Y250000D02*
X89924D01*
Y249282D01*
X90354Y249569D01*
X90642Y250000D01*
D02*
G37*
G36*
X39953Y243953D02*
X37000D01*
Y241000D01*
X39953D01*
Y243953D01*
D02*
G37*
G36*
X87924Y250000D02*
X87205D01*
X87493Y249569D01*
X87924Y249282D01*
Y250000D01*
D02*
G37*
G36*
X39953Y239000D02*
X37000D01*
Y236047D01*
X39953D01*
Y239000D01*
D02*
G37*
G36*
X145000Y231718D02*
X144569Y231431D01*
X144282Y231000D01*
X145000D01*
Y231718D01*
D02*
G37*
G36*
X147000D02*
Y231000D01*
X147718D01*
X147431Y231431D01*
X147000Y231718D01*
D02*
G37*
G36*
X111000D02*
Y231000D01*
X111718D01*
X111431Y231431D01*
X111000Y231718D01*
D02*
G37*
G36*
X21300Y233117D02*
X20643Y232986D01*
X20086Y232614D01*
X19714Y232057D01*
X19583Y231400D01*
X19714Y230743D01*
X20086Y230186D01*
X20643Y229814D01*
X21300Y229683D01*
X21957Y229814D01*
X22514Y230186D01*
X22886Y230743D01*
X23017Y231400D01*
X22886Y232057D01*
X22514Y232614D01*
X21957Y232986D01*
X21300Y233117D01*
D02*
G37*
G36*
X109000Y231718D02*
X108569Y231431D01*
X108282Y231000D01*
X109000D01*
Y231718D01*
D02*
G37*
G36*
X97000Y232000D02*
X96282D01*
X96569Y231569D01*
X97000Y231282D01*
Y232000D01*
D02*
G37*
G36*
X99000Y234718D02*
Y234000D01*
X99718D01*
X99431Y234431D01*
X99000Y234718D01*
D02*
G37*
G36*
X35000Y239000D02*
X32047D01*
Y236047D01*
X35000D01*
Y239000D01*
D02*
G37*
G36*
X97000Y234718D02*
X96569Y234431D01*
X96282Y234000D01*
X97000D01*
Y234718D01*
D02*
G37*
G36*
X99718Y232000D02*
X99000D01*
Y231282D01*
X99431Y231569D01*
X99718Y232000D01*
D02*
G37*
G36*
X37000Y234717D02*
X36343Y234587D01*
X35786Y234214D01*
X35414Y233657D01*
X35283Y233000D01*
X35304Y232891D01*
X26535Y224121D01*
X14276D01*
X14214Y224214D01*
X13657Y224587D01*
X13000Y224717D01*
X12343Y224587D01*
X11786Y224214D01*
X11413Y223657D01*
X11283Y223000D01*
X11413Y222343D01*
X11786Y221786D01*
X12343Y221413D01*
X13000Y221283D01*
X13657Y221413D01*
X14214Y221786D01*
X14276Y221879D01*
X27000D01*
X27000Y221878D01*
X27429Y221964D01*
X27793Y222207D01*
X28487Y222901D01*
X29029Y222736D01*
X29131Y222226D01*
X29569Y221569D01*
X30000Y221282D01*
Y223000D01*
X31000D01*
Y224000D01*
X32718D01*
X32431Y224431D01*
X31774Y224869D01*
X31264Y224971D01*
X31099Y225513D01*
X36891Y231305D01*
X37000Y231283D01*
X37657Y231414D01*
X38214Y231786D01*
X38587Y232343D01*
X38717Y233000D01*
X38587Y233657D01*
X38214Y234214D01*
X37657Y234587D01*
X37000Y234717D01*
D02*
G37*
G36*
X63331Y147718D02*
X62900Y147431D01*
X62612Y147000D01*
X63331D01*
Y147718D01*
D02*
G37*
G36*
X119187Y147031D02*
X118468D01*
Y146313D01*
X118899Y146601D01*
X119187Y147031D01*
D02*
G37*
G36*
X131000Y155718D02*
Y155000D01*
X131718D01*
X131431Y155431D01*
X131000Y155718D01*
D02*
G37*
G36*
X50718Y155000D02*
X50000D01*
Y154282D01*
X50431Y154569D01*
X50718Y155000D01*
D02*
G37*
G36*
X129000Y155718D02*
X128569Y155431D01*
X128282Y155000D01*
X129000D01*
Y155718D01*
D02*
G37*
G36*
X65331Y147718D02*
Y147000D01*
X66049D01*
X65761Y147431D01*
X65331Y147718D01*
D02*
G37*
G36*
X116469Y147031D02*
X115750D01*
X116038Y146601D01*
X116469Y146313D01*
Y147031D01*
D02*
G37*
G36*
X146000Y155718D02*
Y155000D01*
X146718D01*
X146431Y155431D01*
X146000Y155718D01*
D02*
G37*
G36*
X152000Y159717D02*
X151343Y159587D01*
X150786Y159214D01*
X150724Y159122D01*
X128000D01*
X127571Y159036D01*
X127207Y158793D01*
X127207Y158793D01*
X123535Y155122D01*
X117276D01*
X117214Y155214D01*
X116657Y155587D01*
X116000Y155717D01*
X115343Y155587D01*
X114786Y155214D01*
X114413Y154657D01*
X114283Y154000D01*
X114413Y153343D01*
X114786Y152786D01*
X115343Y152413D01*
X116000Y152283D01*
X116657Y152413D01*
X117214Y152786D01*
X117276Y152878D01*
X124000D01*
X124000Y152878D01*
X124429Y152964D01*
X124793Y153207D01*
X128465Y156878D01*
X150724D01*
X150786Y156786D01*
X151343Y156413D01*
X152000Y156283D01*
X152657Y156413D01*
X153214Y156786D01*
X153586Y157343D01*
X153717Y158000D01*
X153586Y158657D01*
X153214Y159214D01*
X152657Y159587D01*
X152000Y159717D01*
D02*
G37*
G36*
X134000Y155718D02*
X133569Y155431D01*
X133282Y155000D01*
X134000D01*
Y155718D01*
D02*
G37*
G36*
X136000D02*
Y155000D01*
X136718D01*
X136431Y155431D01*
X136000Y155718D01*
D02*
G37*
G36*
X144000D02*
X143569Y155431D01*
X143282Y155000D01*
X144000D01*
Y155718D01*
D02*
G37*
G36*
X48000Y155000D02*
X47282D01*
X47569Y154569D01*
X48000Y154282D01*
Y155000D01*
D02*
G37*
G36*
X144000Y153000D02*
X143282D01*
X143569Y152569D01*
X144000Y152282D01*
Y153000D01*
D02*
G37*
G36*
X129000D02*
X128282D01*
X128569Y152569D01*
X129000Y152282D01*
Y153000D01*
D02*
G37*
G36*
X60218Y152000D02*
X59500D01*
Y151282D01*
X59931Y151569D01*
X60218Y152000D01*
D02*
G37*
G36*
X131718Y153000D02*
X131000D01*
Y152282D01*
X131431Y152569D01*
X131718Y153000D01*
D02*
G37*
G36*
X134000D02*
X133282D01*
X133569Y152569D01*
X134000Y152282D01*
Y153000D01*
D02*
G37*
G36*
X136718D02*
X136000D01*
Y152282D01*
X136431Y152569D01*
X136718Y153000D01*
D02*
G37*
G36*
X57500Y154718D02*
X57069Y154431D01*
X56782Y154000D01*
X57500D01*
Y154718D01*
D02*
G37*
G36*
X59500D02*
Y154000D01*
X60218D01*
X59931Y154431D01*
X59500Y154718D01*
D02*
G37*
G36*
X116469Y149750D02*
X116038Y149462D01*
X115750Y149031D01*
X116469D01*
Y149750D01*
D02*
G37*
G36*
X57500Y152000D02*
X56782D01*
X57069Y151569D01*
X57500Y151282D01*
Y152000D01*
D02*
G37*
G36*
X118468Y149750D02*
Y149031D01*
X119187D01*
X118899Y149462D01*
X118468Y149750D01*
D02*
G37*
G36*
X146718Y153000D02*
X146000D01*
Y152282D01*
X146431Y152569D01*
X146718Y153000D01*
D02*
G37*
G36*
X66049Y145000D02*
X65331D01*
Y144282D01*
X65761Y144570D01*
X66049Y145000D01*
D02*
G37*
G36*
X74618Y140200D02*
X73900D01*
Y139482D01*
X74331Y139769D01*
X74618Y140200D01*
D02*
G37*
G36*
X55500Y160218D02*
Y159500D01*
X56218D01*
X55931Y159931D01*
X55500Y160218D01*
D02*
G37*
G36*
X53500D02*
X53070Y159931D01*
X52782Y159500D01*
X53500D01*
Y160218D01*
D02*
G37*
G36*
X60532Y158686D02*
X59874Y158555D01*
X59317Y158183D01*
X58945Y157626D01*
X58814Y156968D01*
X58945Y156311D01*
X59317Y155754D01*
X59874Y155382D01*
X60532Y155251D01*
X60641Y155273D01*
X72207Y143707D01*
X72207Y143707D01*
X72336Y143621D01*
X72230Y143090D01*
X72126Y143069D01*
X71469Y142631D01*
X71182Y142200D01*
X74618D01*
X74331Y142631D01*
X73959Y142878D01*
X74111Y143378D01*
X75224D01*
X75286Y143286D01*
X75843Y142913D01*
X76500Y142783D01*
X77157Y142913D01*
X77714Y143286D01*
X78087Y143843D01*
X78217Y144500D01*
X78087Y145157D01*
X77714Y145714D01*
X77157Y146087D01*
X76500Y146217D01*
X75843Y146087D01*
X75286Y145714D01*
X75224Y145622D01*
X73465D01*
X62227Y156859D01*
X62249Y156968D01*
X62118Y157626D01*
X61746Y158183D01*
X61189Y158555D01*
X60532Y158686D01*
D02*
G37*
G36*
X63331Y145000D02*
X62612D01*
X62900Y144570D01*
X63331Y144282D01*
Y145000D01*
D02*
G37*
G36*
X78937Y141781D02*
X78506Y141494D01*
X78219Y141063D01*
X78937D01*
Y141781D01*
D02*
G37*
G36*
X119000Y161717D02*
X118343Y161587D01*
X117786Y161214D01*
X117413Y160657D01*
X117283Y160000D01*
X117413Y159343D01*
X117786Y158786D01*
X118343Y158414D01*
X119000Y158283D01*
X119657Y158414D01*
X120214Y158786D01*
X120587Y159343D01*
X120717Y160000D01*
X120587Y160657D01*
X120214Y161214D01*
X119657Y161587D01*
X119000Y161717D01*
D02*
G37*
G36*
X53500Y157500D02*
X52782D01*
X53070Y157070D01*
X53500Y156782D01*
Y157500D01*
D02*
G37*
G36*
X56218D02*
X55500D01*
Y156782D01*
X55931Y157070D01*
X56218Y157500D01*
D02*
G37*
G36*
X71900Y140200D02*
X71182D01*
X71469Y139769D01*
X71900Y139482D01*
Y140200D01*
D02*
G37*
G36*
X136469Y140018D02*
Y139300D01*
X137187D01*
X136899Y139731D01*
X136469Y140018D01*
D02*
G37*
G36*
X50000Y157718D02*
Y157000D01*
X50718D01*
X50431Y157431D01*
X50000Y157718D01*
D02*
G37*
G36*
X48000D02*
X47569Y157431D01*
X47282Y157000D01*
X48000D01*
Y157718D01*
D02*
G37*
%LPD*%
G36*
X68260Y224207D02*
X68260Y224207D01*
X68623Y223964D01*
X69052Y223878D01*
X69053Y223879D01*
X74724D01*
X74786Y223786D01*
X75343Y223413D01*
X76000Y223283D01*
X76657Y223413D01*
X77214Y223786D01*
X77587Y224343D01*
X77717Y225000D01*
X77587Y225657D01*
X77559Y225698D01*
X77787Y226154D01*
X78217Y226197D01*
X99878Y204535D01*
Y182707D01*
X99207Y182036D01*
X98964Y181672D01*
X98878Y181243D01*
X98878Y181243D01*
Y176120D01*
X98378Y175969D01*
X98214Y176214D01*
X97657Y176586D01*
X97000Y176717D01*
X96343Y176586D01*
X95786Y176214D01*
X95414Y175657D01*
X95283Y175000D01*
X95414Y174343D01*
X95786Y173786D01*
X95878Y173724D01*
Y169465D01*
X93035Y166622D01*
X50965D01*
X48793Y168793D01*
X48429Y169036D01*
X48000Y169122D01*
X48000Y169122D01*
X47287D01*
X46863Y169206D01*
X46863Y169206D01*
X45137D01*
X44708Y169120D01*
X44344Y168877D01*
X44344Y168877D01*
X42721Y167254D01*
X42214Y167214D01*
X41657Y167587D01*
X41000Y167717D01*
X40343Y167587D01*
X39786Y167214D01*
X39413Y166657D01*
X39283Y166000D01*
X39413Y165343D01*
X39786Y164786D01*
X40343Y164413D01*
X41000Y164283D01*
X41657Y164413D01*
X42214Y164786D01*
X42276Y164878D01*
X43052D01*
X43052Y164878D01*
X43482Y164964D01*
X43845Y165207D01*
X43949Y165310D01*
X44524Y165178D01*
X44786Y164786D01*
X45343Y164413D01*
X46000Y164283D01*
X46109Y164304D01*
X47207Y163207D01*
X47207Y163207D01*
X47366Y163101D01*
X47354Y162827D01*
X47289Y162551D01*
X46786Y162214D01*
X46413Y161657D01*
X46283Y161000D01*
X46305Y160891D01*
X43207Y157793D01*
X43103Y157638D01*
X42553Y157530D01*
X42487Y157547D01*
X39793Y160241D01*
X39429Y160484D01*
X39000Y160569D01*
X39000Y160569D01*
X33017D01*
X27095Y166491D01*
Y169148D01*
X27095Y169148D01*
X27010Y169577D01*
X26767Y169941D01*
X26767Y169941D01*
X22182Y174525D01*
Y181596D01*
X45793Y205207D01*
X46036Y205571D01*
X46122Y206000D01*
X46122Y206000D01*
Y228535D01*
X46465Y228878D01*
X53224D01*
X53286Y228786D01*
X53843Y228414D01*
X54500Y228283D01*
X55157Y228414D01*
X55714Y228786D01*
X56087Y229343D01*
X56217Y230000D01*
X56087Y230657D01*
X55714Y231214D01*
X55469Y231379D01*
X55620Y231878D01*
X60588D01*
X68260Y224207D01*
D02*
G37*
G36*
X133993Y245921D02*
X133900Y245697D01*
X133809Y245000D01*
X133900Y244303D01*
X134169Y243654D01*
X134542Y243168D01*
X134472Y242894D01*
X134334Y242669D01*
X133832D01*
Y237332D01*
X139169D01*
Y237834D01*
X139394Y237972D01*
X139669Y238042D01*
X140154Y237669D01*
X140378Y237576D01*
Y226965D01*
X138535Y225121D01*
X119276D01*
X119214Y225214D01*
X118657Y225587D01*
X118000Y225717D01*
X117343Y225587D01*
X116786Y225214D01*
X116324Y225390D01*
X116122Y225576D01*
Y233000D01*
Y237576D01*
X116346Y237669D01*
X116903Y238097D01*
X117003Y238227D01*
X117626Y238217D01*
X117883Y237883D01*
X118503Y237407D01*
X119000Y237201D01*
Y240000D01*
X120000D01*
Y241000D01*
X122799D01*
X122593Y241497D01*
X122117Y242117D01*
X121783Y242374D01*
X121773Y242997D01*
X121903Y243097D01*
X122331Y243654D01*
X122600Y244303D01*
X122692Y245000D01*
X122600Y245697D01*
X122331Y246346D01*
X121999Y246778D01*
X122177Y247278D01*
X132635D01*
X133993Y245921D01*
D02*
G37*
G36*
X82378Y247424D02*
X82154Y247331D01*
X81597Y246903D01*
X81169Y246346D01*
X80900Y245697D01*
X80808Y245000D01*
X80900Y244303D01*
X81169Y243654D01*
X81542Y243168D01*
X81472Y242894D01*
X81334Y242668D01*
X80831D01*
Y237331D01*
X86168D01*
Y237834D01*
X86393Y237972D01*
X86668Y238042D01*
X87154Y237669D01*
X87378Y237576D01*
Y234861D01*
X86916Y234670D01*
X85793Y235793D01*
X85429Y236036D01*
X85000Y236122D01*
X85000Y236122D01*
X72912D01*
X72656Y236377D01*
X72293Y236620D01*
X71863Y236706D01*
X71863Y236706D01*
X70137D01*
X69708Y236620D01*
X69344Y236377D01*
X69344Y236377D01*
X69088Y236122D01*
X68276D01*
X68214Y236214D01*
X67657Y236587D01*
X67000Y236717D01*
X66343Y236587D01*
X65786Y236214D01*
X65413Y235657D01*
X65283Y235000D01*
X65380Y234513D01*
X65350Y234456D01*
X65044Y234150D01*
X64987Y234120D01*
X64500Y234217D01*
X63843Y234087D01*
X63286Y233714D01*
X63024Y233322D01*
X62449Y233190D01*
X61846Y233793D01*
X61482Y234036D01*
X61053Y234122D01*
X61053Y234121D01*
X47276D01*
X47214Y234214D01*
X46657Y234587D01*
X46000Y234717D01*
X45343Y234587D01*
X45122Y234439D01*
X44622Y234706D01*
Y251035D01*
X45183Y251597D01*
X71363D01*
X71413Y251343D01*
X71786Y250786D01*
X72343Y250413D01*
X73000Y250283D01*
X73657Y250413D01*
X74214Y250786D01*
X74514Y251234D01*
X74984Y251039D01*
X75131Y251774D01*
X75204Y251884D01*
X74815Y251977D01*
X74711Y252031D01*
X74586Y252657D01*
X74214Y253214D01*
X73969Y253379D01*
X74120Y253878D01*
X82378D01*
Y247424D01*
D02*
G37*
%LPC*%
G36*
X81000Y191500D02*
X80282D01*
X80569Y191069D01*
X81000Y190782D01*
Y191500D01*
D02*
G37*
G36*
X31000Y174718D02*
Y174000D01*
X31718D01*
X31431Y174431D01*
X31000Y174718D01*
D02*
G37*
G36*
X61000Y179000D02*
X60282D01*
X60570Y178569D01*
X61000Y178282D01*
Y179000D01*
D02*
G37*
G36*
X83718Y191500D02*
X83000D01*
Y190782D01*
X83431Y191069D01*
X83718Y191500D01*
D02*
G37*
G36*
X29000Y174718D02*
X28569Y174431D01*
X28282Y174000D01*
X29000D01*
Y174718D01*
D02*
G37*
G36*
X83000Y194218D02*
Y193500D01*
X83718D01*
X83431Y193931D01*
X83000Y194218D01*
D02*
G37*
G36*
X81000D02*
X80569Y193931D01*
X80282Y193500D01*
X81000D01*
Y194218D01*
D02*
G37*
G36*
X63718Y179000D02*
X63000D01*
Y178282D01*
X63431Y178569D01*
X63718Y179000D01*
D02*
G37*
G36*
X54500Y187000D02*
X53782D01*
X54069Y186569D01*
X54500Y186282D01*
Y187000D01*
D02*
G37*
G36*
X82000Y186717D02*
X81343Y186587D01*
X80786Y186214D01*
X80414Y185657D01*
X80283Y185000D01*
X80414Y184343D01*
X80786Y183786D01*
X81343Y183414D01*
X82000Y183283D01*
X82657Y183414D01*
X83214Y183786D01*
X83587Y184343D01*
X83717Y185000D01*
X83587Y185657D01*
X83214Y186214D01*
X82657Y186587D01*
X82000Y186717D01*
D02*
G37*
G36*
X63000Y181718D02*
Y181000D01*
X63718D01*
X63431Y181431D01*
X63000Y181718D01*
D02*
G37*
G36*
X57218Y187000D02*
X56500D01*
Y186282D01*
X56931Y186569D01*
X57218Y187000D01*
D02*
G37*
G36*
X55500Y193717D02*
X54843Y193587D01*
X54286Y193214D01*
X53913Y192657D01*
X53783Y192000D01*
X53913Y191343D01*
X54286Y190786D01*
X54843Y190413D01*
X54871Y190408D01*
Y189898D01*
X54726Y189869D01*
X54069Y189431D01*
X53782Y189000D01*
X57218D01*
X56931Y189431D01*
X56274Y189869D01*
X56129Y189898D01*
Y190408D01*
X56157Y190413D01*
X56714Y190786D01*
X57086Y191343D01*
X57217Y192000D01*
X57086Y192657D01*
X56714Y193214D01*
X56157Y193587D01*
X55500Y193717D01*
D02*
G37*
G36*
X74500Y181717D02*
X73843Y181587D01*
X73286Y181214D01*
X72913Y180657D01*
X72783Y180000D01*
X72913Y179343D01*
X73286Y178786D01*
X73843Y178413D01*
X74500Y178283D01*
X75157Y178413D01*
X75714Y178786D01*
X76087Y179343D01*
X76217Y180000D01*
X76087Y180657D01*
X75714Y181214D01*
X75157Y181587D01*
X74500Y181717D01*
D02*
G37*
G36*
X61000Y181718D02*
X60570Y181431D01*
X60282Y181000D01*
X61000D01*
Y181718D01*
D02*
G37*
G36*
X48000Y225000D02*
X47282D01*
X47569Y224569D01*
X48000Y224282D01*
Y225000D01*
D02*
G37*
G36*
X29000Y172000D02*
X28282D01*
X28569Y171569D01*
X29000Y171282D01*
Y172000D01*
D02*
G37*
G36*
X31718D02*
X31000D01*
Y171282D01*
X31431Y171569D01*
X31718Y172000D01*
D02*
G37*
G36*
X50718Y225000D02*
X50000D01*
Y224282D01*
X50431Y224569D01*
X50718Y225000D01*
D02*
G37*
G36*
X50000Y227718D02*
Y227000D01*
X50718D01*
X50431Y227431D01*
X50000Y227718D01*
D02*
G37*
G36*
X48000D02*
X47569Y227431D01*
X47282Y227000D01*
X48000D01*
Y227718D01*
D02*
G37*
G36*
X122799Y239000D02*
X121000D01*
Y237201D01*
X121497Y237407D01*
X122117Y237883D01*
X122593Y238503D01*
X122799Y239000D01*
D02*
G37*
G36*
X129000Y243717D02*
X128343Y243586D01*
X127786Y243214D01*
X127413Y242657D01*
X127283Y242000D01*
X127413Y241343D01*
X127777Y240799D01*
Y231201D01*
X127413Y230657D01*
X127283Y230000D01*
X127413Y229343D01*
X127786Y228786D01*
X128343Y228414D01*
X129000Y228283D01*
X129657Y228414D01*
X130214Y228786D01*
X130587Y229343D01*
X130717Y230000D01*
X130587Y230657D01*
X130224Y231201D01*
Y240799D01*
X130587Y241343D01*
X130717Y242000D01*
X130587Y242657D01*
X130214Y243214D01*
X129657Y243586D01*
X129000Y243717D01*
D02*
G37*
G36*
X136718Y229000D02*
X136000D01*
Y228282D01*
X136431Y228569D01*
X136718Y229000D01*
D02*
G37*
G36*
X134000D02*
X133282D01*
X133569Y228569D01*
X134000Y228282D01*
Y229000D01*
D02*
G37*
G36*
X119000Y231718D02*
X118569Y231431D01*
X118282Y231000D01*
X119000D01*
Y231718D01*
D02*
G37*
G36*
X136000D02*
Y231000D01*
X136718D01*
X136431Y231431D01*
X136000Y231718D01*
D02*
G37*
G36*
X134000D02*
X133569Y231431D01*
X133282Y231000D01*
X134000D01*
Y231718D01*
D02*
G37*
G36*
X121000D02*
Y231000D01*
X121718D01*
X121431Y231431D01*
X121000Y231718D01*
D02*
G37*
G36*
X121718Y229000D02*
X121000D01*
Y228282D01*
X121431Y228569D01*
X121718Y229000D01*
D02*
G37*
G36*
X119000D02*
X118282D01*
X118569Y228569D01*
X119000Y228282D01*
Y229000D01*
D02*
G37*
G36*
X78000Y252718D02*
Y252000D01*
X78718D01*
X78431Y252431D01*
X78000Y252718D01*
D02*
G37*
G36*
X78718Y250000D02*
X78000D01*
Y249282D01*
X78431Y249569D01*
X78718Y250000D01*
D02*
G37*
G36*
X76000Y252718D02*
X75569Y252431D01*
X75282Y252000D01*
X76000D01*
Y252718D01*
D02*
G37*
G36*
Y250000D02*
X75282D01*
X75569Y249569D01*
X76000Y249282D01*
Y250000D01*
D02*
G37*
G36*
X50718Y238000D02*
X50000D01*
Y237282D01*
X50431Y237569D01*
X50718Y238000D01*
D02*
G37*
G36*
X55032Y238968D02*
X54313D01*
X54601Y238538D01*
X55032Y238250D01*
Y238968D01*
D02*
G37*
G36*
X48000Y238000D02*
X47282D01*
X47569Y237569D01*
X48000Y237282D01*
Y238000D01*
D02*
G37*
G36*
X59900Y241717D02*
X59243Y241586D01*
X58686Y241214D01*
X58401Y240789D01*
X58143Y240765D01*
X57924Y240785D01*
X57858Y240807D01*
X57462Y241399D01*
X57032Y241687D01*
Y239968D01*
Y238250D01*
X57462Y238538D01*
X57879Y239161D01*
X58091Y239195D01*
X58411Y239197D01*
X58686Y238786D01*
X59243Y238414D01*
X59900Y238283D01*
X60557Y238414D01*
X61114Y238786D01*
X61487Y239343D01*
X61617Y240000D01*
X61487Y240657D01*
X61114Y241214D01*
X60557Y241586D01*
X59900Y241717D01*
D02*
G37*
G36*
X55032Y241687D02*
X54601Y241399D01*
X54313Y240968D01*
X55032D01*
Y241687D01*
D02*
G37*
G36*
X48000Y240718D02*
X47569Y240431D01*
X47282Y240000D01*
X48000D01*
Y240718D01*
D02*
G37*
G36*
X50000D02*
Y240000D01*
X50718D01*
X50431Y240431D01*
X50000Y240718D01*
D02*
G37*
%LPD*%
D42*
X93500Y245000D02*
D03*
Y240000D02*
D03*
X88500Y245000D02*
D03*
Y240000D02*
D03*
X83500Y245000D02*
D03*
X120000Y245000D02*
D03*
Y240000D02*
D03*
X115000Y245000D02*
D03*
Y240000D02*
D03*
X110000Y245000D02*
D03*
X146500D02*
D03*
Y240000D02*
D03*
X141500Y245000D02*
D03*
Y240000D02*
D03*
X136500Y245000D02*
D03*
D45*
X11916Y160084D02*
Y212916D01*
X10000Y158000D02*
Y214645D01*
X11294Y215939D01*
X11916Y160084D02*
X13000Y159000D01*
Y153000D02*
Y159000D01*
X11916Y212916D02*
X13439Y214439D01*
X31561D01*
X30939Y215939D02*
X38000Y223000D01*
X11294Y215939D02*
X30939D01*
X31561Y214439D02*
X36121Y219000D01*
X12000Y152000D02*
X13000Y153000D01*
X19561Y193508D02*
X23552Y197500D01*
X18061Y194130D02*
X23762Y199831D01*
X16561Y194751D02*
X24078Y202269D01*
X15061Y195372D02*
X24689Y205000D01*
X36121Y219000D02*
X39916D01*
X38000Y223000D02*
X39916D01*
X24689Y205000D02*
X34500D01*
X23552Y197500D02*
X27000D01*
X23762Y199831D02*
X30000D01*
X24078Y202269D02*
X32000D01*
Y202000D02*
Y202269D01*
X27000Y223000D02*
X37000Y233000D01*
X13000Y223000D02*
X27000D01*
X46000Y233000D02*
X61053D01*
X69052Y225000D01*
X76000D01*
X75584Y227416D02*
X78584D01*
X75000Y228000D02*
X75584Y227416D01*
X78584D02*
X101000Y205000D01*
X79206Y228916D02*
X102500Y205621D01*
X79137Y228916D02*
X79206D01*
X77916Y230137D02*
X79137Y228916D01*
X77916Y230137D02*
Y230206D01*
X74621Y233500D02*
X77916Y230206D01*
X115000Y224000D02*
Y233000D01*
Y240000D01*
X139000Y224000D02*
X141500Y226500D01*
X118000Y224000D02*
X139000D01*
X141500Y226500D02*
Y240000D01*
X133100Y248400D02*
X136500Y245000D01*
X109600Y248400D02*
X133100D01*
X71863Y235584D02*
X72448Y235000D01*
X70137Y235584D02*
X71863D01*
X69552Y235000D02*
X70137Y235584D01*
X67000Y235000D02*
X69552D01*
X83500Y248000D02*
Y255000D01*
Y245000D02*
Y248000D01*
X128000Y158000D02*
X152000D01*
X124000Y154000D02*
X128000Y158000D01*
X116000Y154000D02*
X124000D01*
X108000Y159000D02*
Y160000D01*
X109500Y161500D01*
Y174500D01*
X110000Y175000D01*
X105500Y166104D02*
Y170500D01*
X82595Y149563D02*
X100000Y166969D01*
Y164847D02*
X101500Y166347D01*
X101000Y182243D02*
Y205000D01*
X100000Y181243D02*
X101000Y182243D01*
X100000Y166969D02*
Y181243D01*
X102500Y181621D02*
Y205621D01*
X101500Y180621D02*
X102500Y181621D01*
X101500Y166347D02*
Y180621D01*
X103000Y165726D02*
Y180000D01*
X101884Y164610D02*
X103000Y165726D01*
X97000Y169000D02*
Y175000D01*
X93500Y165500D02*
X97000Y169000D01*
X103384Y163989D02*
X105500Y166104D01*
X115000Y159000D02*
Y169000D01*
X120437Y118563D02*
X132437D01*
X111000Y128000D02*
X120437Y118563D01*
X111000Y128000D02*
Y173052D01*
X50500Y165500D02*
X93500D01*
X48000Y168000D02*
X50500Y165500D01*
X46948Y168000D02*
X48000D01*
X46863Y168084D02*
X46948Y168000D01*
X45137Y168084D02*
X46863D01*
X43052Y166000D02*
X45137Y168084D01*
X41000Y166000D02*
X43052D01*
X89000Y164000D02*
X90000Y163000D01*
X48000Y164000D02*
X89000D01*
X46000Y166000D02*
X48000Y164000D01*
X41084Y101804D02*
X42084Y102804D01*
X38084Y99783D02*
Y103047D01*
X39068Y104031D01*
X36584Y99212D02*
Y101363D01*
X34816Y97444D02*
X36584Y99212D01*
X36000Y103084D02*
X37569Y104653D01*
X36000Y101948D02*
Y103084D01*
X39584Y100405D02*
Y102426D01*
Y100405D02*
X40484Y99505D01*
X41084Y101026D02*
Y101804D01*
X39584Y102426D02*
X40569Y103410D01*
X38084Y99783D02*
X38684Y99183D01*
X36000Y101948D02*
X36584Y101363D01*
X38684Y98767D02*
Y99183D01*
X40484Y98021D02*
Y99505D01*
X121000Y175000D02*
X151000D01*
X115000Y169000D02*
X121000Y175000D01*
X85416Y161584D02*
X87000Y160000D01*
X64584Y161584D02*
X85416D01*
X64500Y161500D02*
X64584Y161584D01*
X82595Y114469D02*
Y149563D01*
X86000Y123870D02*
Y150000D01*
X112500Y169500D02*
X116600Y173600D01*
X112500Y132621D02*
Y169500D01*
X71000Y233500D02*
X74621D01*
X107500Y90653D02*
X108000Y90153D01*
X106000Y89221D02*
X106500Y88721D01*
X107500Y90653D02*
Y146500D01*
X107000Y147000D02*
X107500Y146500D01*
X104916Y144032D02*
X106000Y142947D01*
Y89221D02*
Y142947D01*
X106500Y66500D02*
Y88721D01*
X99000Y98409D02*
X103384Y102793D01*
X135000Y121000D02*
X137437Y118563D01*
X124121Y121000D02*
X135000D01*
X112500Y132621D02*
X124121Y121000D01*
X97200Y99154D02*
X101087Y103041D01*
X104916Y144032D02*
Y147863D01*
X106000Y148948D01*
Y151781D01*
X107000Y147000D02*
X109000Y149000D01*
Y154000D01*
X107000Y156000D02*
X109000Y154000D01*
X106500Y66500D02*
X109000Y64000D01*
Y67000D02*
Y71000D01*
X108000Y72000D02*
X109000Y71000D01*
X108000Y72000D02*
Y90153D01*
X99000Y64000D02*
Y98409D01*
X97200Y43200D02*
Y99154D01*
X95384Y99884D02*
X99287Y103787D01*
X95384Y78013D02*
Y99884D01*
X103000Y60000D02*
X113500D01*
X99000Y64000D02*
X103000Y60000D01*
X91497Y63503D02*
X91500Y39000D01*
X90000Y65000D02*
X91497Y63503D01*
X95500Y41500D02*
X97200Y43200D01*
X90000Y65000D02*
Y79372D01*
X93000Y82371D01*
Y101000D02*
X97321Y105321D01*
X93000Y82371D02*
Y101000D01*
X93500Y76128D02*
X95384Y78013D01*
X21084Y71084D02*
X29690D01*
X29887Y70887D01*
X21000Y71000D02*
X21084Y71084D01*
X27500Y69500D02*
X28000Y69000D01*
X17379Y69500D02*
X27500D01*
X16000Y70879D02*
X17379Y69500D01*
X16000Y70879D02*
Y92000D01*
X15500Y92500D02*
X16000Y92000D01*
X18000Y71000D02*
X21000D01*
X17500Y71500D02*
X18000Y71000D01*
X17500Y71500D02*
Y89500D01*
X20000Y92000D01*
X60000Y71000D02*
X75000D01*
X80000Y76000D01*
X51000Y80000D02*
X60000Y71000D01*
X80000Y76000D02*
Y76872D01*
X94937Y127063D02*
Y139237D01*
X100921Y144879D02*
X101087Y144713D01*
X110000Y245000D02*
X110000D01*
X110000Y245000D02*
Y245000D01*
X83500Y248000D02*
X83500Y245000D01*
X34307Y16193D02*
X41307D01*
X31500Y19000D02*
X34307Y16193D01*
X22000Y19000D02*
X31500D01*
X137437Y108563D02*
Y118563D01*
X32000Y92833D02*
Y101500D01*
X42500Y39500D02*
Y94454D01*
X40500Y48000D02*
Y95000D01*
X42500Y39500D02*
X49500Y32500D01*
X37000Y44500D02*
X40500Y48000D01*
X37000Y31000D02*
Y44500D01*
X16500Y24500D02*
X22000Y19000D01*
X16500Y24500D02*
Y31065D01*
X22000Y16000D02*
X28000D01*
X14000Y24000D02*
X22000Y16000D01*
X14000Y24000D02*
Y31110D01*
X19654Y30846D02*
X38416Y49609D01*
X36616Y51181D02*
Y96698D01*
X16500Y31065D02*
X36616Y51181D01*
X34816Y51926D02*
Y97444D01*
X14000Y31110D02*
X34816Y51926D01*
X36616Y96698D02*
X38684Y98767D01*
X38416Y95953D02*
X40484Y98021D01*
X38416Y49609D02*
Y95953D01*
X115500Y88937D02*
X131032Y104469D01*
X115500Y82000D02*
Y88937D01*
X95273Y142273D02*
X97321Y140224D01*
X86000Y123870D02*
X88685Y121185D01*
X119500Y183000D02*
X130500Y194000D01*
X120000Y75000D02*
X152000D01*
X119000Y178000D02*
X130500Y189500D01*
X93500Y75500D02*
Y76128D01*
X115500Y82000D02*
X119000Y78500D01*
Y74000D02*
X120000Y75000D01*
X73000Y144500D02*
X76500D01*
X76884Y144884D01*
X60532Y156968D02*
X73000Y144500D01*
X110000Y245000D02*
Y254000D01*
X45000Y206000D02*
Y229000D01*
X46000Y230000D01*
X54500D01*
X25974Y166026D02*
X32552Y159448D01*
X32097Y157782D02*
X33008D01*
X33174Y157948D01*
X35416D01*
X31475Y156282D02*
X33629D01*
X33795Y156448D01*
X34795D01*
X15000Y164000D02*
X15272D01*
X30500Y148772D01*
X24000Y165879D02*
X32097Y157782D01*
X22500Y165257D02*
X31475Y156282D01*
X18000Y163393D02*
Y165000D01*
X14000Y169000D02*
X18000Y165000D01*
X19561Y173439D02*
X24000Y169000D01*
Y165879D02*
Y169000D01*
X18061Y172818D02*
X22500Y168379D01*
Y165257D02*
Y168379D01*
X16561Y172197D02*
X21000Y167757D01*
Y164636D02*
Y167757D01*
X15061Y171575D02*
X19500Y167136D01*
Y164015D02*
Y167136D01*
X24000Y195000D02*
X28879D01*
X42000Y208121D01*
X22000Y191000D02*
X27000D01*
X43500Y207500D01*
X19561Y173439D02*
Y178318D01*
X19500Y178379D02*
X19561Y178318D01*
X19500Y178379D02*
Y182621D01*
X19561Y182682D01*
Y193508D01*
X18061Y172818D02*
Y177697D01*
X18000Y177757D02*
X18061Y177697D01*
X18000Y177757D02*
Y183243D01*
X18061Y183303D01*
Y194130D01*
X16561Y172197D02*
Y177075D01*
X16500Y177136D02*
X16561Y177075D01*
X16500Y177136D02*
Y183864D01*
X16561Y183925D01*
Y194751D01*
X15061Y171575D02*
Y176454D01*
X15000Y176515D02*
X15061Y176454D01*
X15000Y176515D02*
Y184485D01*
X15061Y184546D01*
Y195372D01*
X25974Y166026D02*
Y169148D01*
X21061Y174061D02*
X25974Y169148D01*
X21061Y174061D02*
Y182061D01*
X45000Y206000D01*
X42000Y208121D02*
Y254000D01*
X109000Y255000D02*
X110000Y254000D01*
X42000D02*
X43000Y255000D01*
X109000D01*
X72282Y252718D02*
X73000Y252000D01*
X43500Y207500D02*
Y251500D01*
X44718Y252718D01*
X72282D01*
X111000Y173052D02*
X112084Y174137D01*
X109084Y204137D02*
Y211794D01*
X116600Y173600D02*
Y185600D01*
X108000Y181000D02*
X112084Y176916D01*
Y174137D02*
Y176916D01*
X110584Y191616D02*
Y212416D01*
Y191616D02*
X116600Y185600D01*
X108000Y203052D02*
X109084Y204137D01*
X103000Y180000D02*
X106500Y183500D01*
Y204500D02*
X107000Y205000D01*
X106500Y183500D02*
Y204500D01*
X108000Y181000D02*
Y203052D01*
X152000Y223616D02*
X165384D01*
X166400Y222600D01*
X150000Y130000D02*
X164000D01*
X166400Y132400D01*
Y222600D01*
X33116Y107884D02*
X35484Y105516D01*
X30500Y103000D02*
X32000Y101500D01*
X30500Y103000D02*
Y148772D01*
X42084Y102804D02*
Y106673D01*
X36500Y107448D02*
X37569Y106379D01*
X38000Y108069D02*
X39068Y107001D01*
X42068Y106689D02*
X42084Y106673D01*
X43569Y107310D02*
X43584Y107294D01*
X36500Y107448D02*
Y109052D01*
X37584Y110137D01*
Y111863D01*
X38000Y108069D02*
Y108431D01*
X39084Y109515D01*
Y112485D01*
X40584Y108894D02*
Y113106D01*
X42084Y108273D02*
Y113727D01*
X43569Y107636D02*
X43584Y107651D01*
Y114349D01*
X44000Y116054D02*
X45084Y114970D01*
X37569Y104653D02*
Y106379D01*
X35416Y114032D02*
X37584Y111863D01*
X39068Y104031D02*
Y107001D01*
X36916Y114653D02*
X39084Y112485D01*
X38416Y115275D02*
X40584Y113106D01*
X39916Y115896D02*
X42084Y113727D01*
X43569Y107310D02*
Y107636D01*
X41416Y116517D02*
X43584Y114349D01*
X44000Y116054D02*
Y141052D01*
X42068Y108257D02*
X42084Y108273D01*
X42068Y106689D02*
Y108257D01*
X40569Y108878D02*
X40584Y108894D01*
X40569Y103410D02*
Y108878D01*
X42500Y94454D02*
X44116Y96070D01*
X40500Y95000D02*
X42316Y96816D01*
X45084Y98916D02*
Y114970D01*
Y98916D02*
X51000Y93000D01*
Y80000D02*
Y93000D01*
X44116Y96070D02*
Y97763D01*
X43584Y98294D02*
X44116Y97763D01*
X41084Y101026D02*
X42084Y100026D01*
Y97673D02*
Y100026D01*
Y97673D02*
X42316Y97442D01*
Y96816D02*
Y97442D01*
X43584Y98294D02*
Y107294D01*
X72448Y235000D02*
X85000D01*
X88500Y233500D02*
Y240000D01*
X85000Y235000D02*
X87000Y233000D01*
Y232879D02*
Y233000D01*
X99500Y223500D02*
X110584Y212416D01*
X80000Y231000D02*
X86757D01*
X98879Y222000D02*
X109084Y211794D01*
X88500Y233500D02*
X92979Y229021D01*
X96569Y223500D02*
X99500D01*
X95948Y222000D02*
X98879D01*
X92979Y228021D02*
Y229021D01*
X87000Y232879D02*
X91479Y228400D01*
Y227400D02*
Y228400D01*
X86757Y231000D02*
X89979Y227779D01*
Y226779D02*
Y227779D01*
Y226779D02*
X93673Y223084D01*
X94863D01*
X95948Y222000D01*
X91479Y227400D02*
X94294Y224584D01*
X95485D01*
X96569Y223500D01*
X92979Y228021D02*
X94916Y226084D01*
X96106D01*
X97190Y225000D01*
X102000D01*
X18000Y163393D02*
X29612Y151782D01*
X19500Y164015D02*
X30233Y153282D01*
X21000Y164636D02*
X30854Y154782D01*
X29612Y151782D02*
X31218D01*
X33116Y149884D01*
Y107884D02*
Y149884D01*
X30233Y153282D02*
X32907D01*
X30854Y154782D02*
X34339D01*
X34916Y154206D01*
X34795Y156448D02*
X36416Y154827D01*
X35416Y157948D02*
X37916Y155448D01*
X34916Y153394D02*
Y154206D01*
X36416Y154015D02*
Y154827D01*
X37916Y154637D02*
Y155448D01*
X32907Y153282D02*
X35416Y150773D01*
Y114032D02*
Y150773D01*
X34916Y153394D02*
X37334Y150976D01*
X36416Y154015D02*
X39000Y151431D01*
X37916Y154637D02*
X40500Y152052D01*
X32552Y159448D02*
X39000D01*
X44000Y157000D02*
X48000Y161000D01*
X39000Y159448D02*
X42084Y156363D01*
X103384Y102793D02*
Y163989D01*
X101087Y103041D02*
Y144713D01*
X97321Y105321D02*
Y140224D01*
X99287Y103787D02*
Y142213D01*
X98537Y142963D02*
X99287Y142213D01*
X93189Y140985D02*
X94937Y139237D01*
X101884Y149214D02*
Y164610D01*
X98537Y142963D02*
Y145866D01*
X101884Y149214D01*
X93189Y140985D02*
Y143189D01*
X100000Y150000D01*
Y164847D01*
X90437Y136063D02*
Y147437D01*
X93000Y150000D01*
X96500D01*
X36916Y114653D02*
Y146227D01*
X38416Y115275D02*
Y145606D01*
X39916Y115896D02*
Y144985D01*
X41416Y116517D02*
Y144363D01*
X44000Y141052D02*
X45584Y142637D01*
X36916Y146227D02*
X37334Y146645D01*
Y150976D01*
X38416Y145606D02*
X39000Y146190D01*
Y151431D01*
X39916Y144985D02*
X40500Y145569D01*
Y152052D01*
X41416Y144363D02*
X42084Y145032D01*
Y156363D01*
X44000Y145948D02*
Y157000D01*
Y145948D02*
X45584Y144363D01*
Y142637D02*
Y144363D01*
D47*
X119000Y84000D02*
X120260Y82740D01*
X151740D01*
D48*
X129000Y230000D02*
Y242000D01*
X102000Y230000D02*
Y242000D01*
X148000Y118500D02*
X159500D01*
X160000Y119000D01*
D49*
X86500Y43000D02*
X88000Y44500D01*
Y83000D01*
X88685Y83685D01*
Y121185D01*
Y83685D02*
X88954D01*
D50*
X150500Y50000D02*
D03*
X111000Y32000D02*
D03*
Y42500D02*
D03*
X15000Y131000D02*
D03*
Y140500D02*
D03*
X123000Y46500D02*
D03*
X79000Y43000D02*
D03*
X150500Y60500D02*
D03*
D51*
X16000Y240000D02*
D03*
X26000D02*
D03*
D52*
X36000D02*
D03*
D53*
X83500Y240000D02*
D03*
X110000Y240000D02*
D03*
X136500D02*
D03*
D54*
X14000Y169000D02*
D03*
X15000Y164000D02*
D03*
X10000Y158000D02*
D03*
X12000Y152000D02*
D03*
X22000Y191000D02*
D03*
X24000Y195000D02*
D03*
X27000Y197500D02*
D03*
X30000Y199831D02*
D03*
X32000Y202000D02*
D03*
X34500Y205000D02*
D03*
X36500Y208000D02*
D03*
X39500Y210000D02*
D03*
X39916Y223000D02*
D03*
Y219000D02*
D03*
X31000Y223000D02*
D03*
X37000Y233000D02*
D03*
X46000D02*
D03*
X76000Y225000D02*
D03*
X82968Y228916D02*
D03*
X80000Y231000D02*
D03*
X115000Y224000D02*
D03*
X118000D02*
D03*
X152000Y223000D02*
D03*
X102000Y225000D02*
D03*
X152000Y158000D02*
D03*
X116000Y154000D02*
D03*
X108000Y159000D02*
D03*
X106000Y161969D02*
D03*
X105500Y170500D02*
D03*
X110000Y175000D02*
D03*
X97000D02*
D03*
X115000Y159000D02*
D03*
X150000Y130000D02*
D03*
X41000Y166000D02*
D03*
X90000Y163000D02*
D03*
X46000Y166000D02*
D03*
X48000Y161000D02*
D03*
X151000Y175000D02*
D03*
X87000Y160000D02*
D03*
X107000Y147000D02*
D03*
Y156000D02*
D03*
X106000Y151781D02*
D03*
X145000Y154000D02*
D03*
X130000D02*
D03*
X135000D02*
D03*
X103000Y91000D02*
D03*
X102000Y98000D02*
D03*
X109000Y64000D02*
D03*
Y67000D02*
D03*
X102000Y70000D02*
D03*
X95500Y41500D02*
D03*
X29887Y70887D02*
D03*
X28000Y69000D02*
D03*
X11000Y83000D02*
D03*
X75000Y74000D02*
D03*
X15500Y92500D02*
D03*
X20000Y92000D02*
D03*
Y83000D02*
D03*
X53500Y96000D02*
D03*
Y99500D02*
D03*
X66969Y75531D02*
D03*
X63032Y79468D02*
D03*
X66969D02*
D03*
X94937Y127063D02*
D03*
X112835Y106335D02*
D03*
Y110666D02*
D03*
X111469Y124531D02*
D03*
X21600Y227000D02*
D03*
X21300Y231400D02*
D03*
X59900Y240000D02*
D03*
X135900Y130600D02*
D03*
X135468Y138300D02*
D03*
X64500Y232500D02*
D03*
X78200Y159500D02*
D03*
X72900Y141200D02*
D03*
X12000Y105500D02*
D03*
X125000Y209000D02*
D03*
X41307Y16193D02*
D03*
X77500Y99500D02*
D03*
X71000Y233500D02*
D03*
X75000Y228000D02*
D03*
X116000Y195500D02*
D03*
X138469Y134531D02*
D03*
X32000Y92833D02*
D03*
X62000Y104500D02*
D03*
X80000Y76872D02*
D03*
X93000Y79000D02*
D03*
X55500Y188000D02*
D03*
Y192000D02*
D03*
X28000Y16000D02*
D03*
X56032Y239968D02*
D03*
X117469Y148031D02*
D03*
X82595Y114469D02*
D03*
X85000Y107500D02*
D03*
X131032Y104469D02*
D03*
X135000Y94000D02*
D03*
X100921Y144879D02*
D03*
X54500Y158500D02*
D03*
X96500Y150000D02*
D03*
X86000D02*
D03*
X95273Y142273D02*
D03*
X64331Y146000D02*
D03*
X55500Y116000D02*
D03*
X119000Y160000D02*
D03*
X121731Y191315D02*
D03*
X119500Y183000D02*
D03*
X130500Y194000D02*
D03*
Y189500D02*
D03*
X71500Y32000D02*
D03*
Y45500D02*
D03*
Y19500D02*
D03*
X137437Y108563D02*
D03*
X134937Y113563D02*
D03*
X132437Y118563D02*
D03*
X90437Y136063D02*
D03*
X48500Y78484D02*
D03*
X20000Y79000D02*
D03*
Y75000D02*
D03*
X77500Y105000D02*
D03*
X119000Y84000D02*
D03*
X151740Y82740D02*
D03*
X152000Y75000D02*
D03*
X142000Y66500D02*
D03*
X93500Y75500D02*
D03*
X54500Y72000D02*
D03*
X48000Y73500D02*
D03*
Y83500D02*
D03*
X119000Y178000D02*
D03*
X82000Y192500D02*
D03*
X30000Y173000D02*
D03*
X62000Y180000D02*
D03*
X74500D02*
D03*
X129500Y46500D02*
D03*
X127500Y79000D02*
D03*
X144500Y97000D02*
D03*
X113500Y60000D02*
D03*
X102000Y49500D02*
D03*
X71650Y59150D02*
D03*
X141500Y189000D02*
D03*
X141000Y196500D02*
D03*
X19654Y30846D02*
D03*
X37000Y31000D02*
D03*
X64500Y161500D02*
D03*
X91500Y39000D02*
D03*
X86500Y43000D02*
D03*
X49500Y32500D02*
D03*
X88685Y121185D02*
D03*
X34500Y100500D02*
D03*
X35484Y105516D02*
D03*
X46500Y93000D02*
D03*
X35500Y111000D02*
D03*
X102000Y210000D02*
D03*
X104500Y207500D02*
D03*
X107000Y205000D02*
D03*
X132468Y134531D02*
D03*
X88685Y83685D02*
D03*
X21969Y123468D02*
D03*
X19000Y98500D02*
D03*
X63032Y75531D02*
D03*
X119000Y78500D02*
D03*
Y74000D02*
D03*
X117166Y106335D02*
D03*
Y110666D02*
D03*
X82000Y185000D02*
D03*
X76500Y144500D02*
D03*
X79937Y140063D02*
D03*
X28000Y87500D02*
D03*
X18000Y123500D02*
D03*
X53500Y91000D02*
D03*
X54500Y230000D02*
D03*
X13000Y223000D02*
D03*
X58500Y153000D02*
D03*
X60532Y156968D02*
D03*
X67000Y235000D02*
D03*
X102000Y230000D02*
D03*
X129000D02*
D03*
Y242000D02*
D03*
X102000D02*
D03*
X77000Y251000D02*
D03*
X88924D02*
D03*
X148000Y118500D02*
D03*
X160000Y119000D02*
D03*
X22000Y187000D02*
D03*
X49000Y226000D02*
D03*
Y239000D02*
D03*
X73000Y252000D02*
D03*
X162000Y135000D02*
D03*
Y125000D02*
D03*
X50000Y123000D02*
D03*
X135000Y230000D02*
D03*
X146000D02*
D03*
X110000D02*
D03*
X120000D02*
D03*
X84000Y78000D02*
D03*
X98000Y233000D02*
D03*
X94000Y221000D02*
D03*
X40000Y155500D02*
D03*
X49000Y156000D02*
D03*
X43500Y143500D02*
D03*
M02*
