M48
;Layer_Color=9474304
;FILE_FORMAT=2:5
INCH,LZ
;TYPE=PLATED
T1F00S00C0.00787
T2F00S00C0.02362
T3F00S00C0.02500
T4F00S00C0.03543
%
T01
X01295Y00465
X0142Y00665
X0152Y0075
X015174Y008274
X01445Y0097
X0135Y0094
X0131032Y0104469
X0137437Y0108563
X0117166Y0110666
X0112835
Y0106335
X0117166
X0102Y0098
X0103Y0091
X0088685Y0083685
X0093Y0079
X00935Y00755
X0084Y0078
X008Y0076872
X0075Y0074
X0066969Y0075531
Y0079468
X0063032
Y0075531
X00545Y0072
X0048Y00735
X00485Y0078484
X0048Y00835
X00465Y0093
X00535Y0091
X00535Y0096
Y00995
X0062Y01045
X00775Y0105
Y00995
X0085Y01075
X0035484Y0105516
X00355Y0111
X00345Y01005
X0032Y0092833
X0028Y00875
X002Y0092
X00155Y00925
X0019Y00985
X0012Y01055
X0011Y0083
X002
Y0079
Y0075
X0029887Y0070887
X0028Y0069
X0019654Y0030846
X0037Y0031
X00495Y00325
X00715Y0032
Y00195
Y00455
X007165Y005915
X00865Y0043
X00915Y0039
X00955Y00415
X0102Y00495
Y007
X0109Y0067
Y0064
X01135Y006
X0119Y0074
Y00785
Y0084
X01275Y0079
X0041307Y0016193
X0028Y0016
X0021969Y0123468
X0018Y01235
X005Y0123
X00555Y0116
X0082595Y0114469
X0088685Y0121185
X0094937Y0127063
X0090437Y0136063
X0095273Y0142273
X0100921Y0144879
X0107Y0147
X0106Y0151781
X0107Y0156
X0108Y0159
X0106Y0161969
X01055Y01705
X011Y0175
X0119Y0178
X01195Y0183
X0121731Y0191315
X0116Y01955
X0107Y0205
X01045Y02075
X0102Y021
X0102Y0225
Y023
X0098Y0233
X0102Y0242
X011Y023
X012
X0118Y0224
X0115
X0129Y023
Y0242
X0125Y0209
X0094Y0221
X0082968Y0228916
X008Y0231
X0075Y0228
X0076Y0225
X0071Y02335
X0067Y0235
X00645Y02325
X00599Y024
X0056032Y0239968
X0049Y0239
X0046Y0233
X0037
X0039916Y0223
Y0219
X00395Y021
X00365Y0208
X00345Y0205
X0032Y0202
X003Y0199831
X0027Y01975
X0024Y0195
X0022Y0191
Y0187
X003Y0173
X0041Y0166
X0046
X0048Y0161
X0049Y0156
X00545Y01585
X0060532Y0156968
X00585Y0153
X0064331Y0146
X00729Y01412
X00765Y01445
X0079937Y0140063
X0086Y015
X00965
X009Y0163
X0087Y016
X00782Y01595
X00645Y01615
X0062Y018
X00745
X0082Y0185
Y01925
X00555Y0192
Y0188
X00545Y023
X0049Y0226
X0031Y0223
X00216Y0227
X00213Y02314
X0013Y0223
X0014Y0169
X0015Y0164
X001Y0158
X0012Y0152
X004Y01555
X00435Y01435
X0117469Y0148031
X0116Y0154
X0115Y0159
X0119Y016
X0097Y0175
X0111469Y0124531
X0088924Y0251
X0077
X0073Y0252
X0135Y023
X0146
X0152Y0223
X0141Y01965
X01415Y0189
X01305Y01895
Y0194
X0151Y0175
X0152Y0158
X0145Y0154
X0135
X013
X0135468Y01383
X0138469Y0134531
X0132468
X01359Y01306
X015Y013
X0148Y01185
X016Y0119
X0162Y0125
Y0135
X0132437Y0118563
X0134937Y0113563
T02
X00835Y024
X00885
X00935
Y0245
X00885
X00835
X011Y0245
X0115
X012
Y024
X0115
X011
X01365
X01415
X01465
Y0245
X01415
X01365
T03
X01505Y005
Y00605
X0123Y00465
X0111Y00425
Y0032
X0079Y0043
X0015Y0131
Y01405
T04
X0016Y024
X0026
X0036
M30
