G04 Layer_Color=255*
%FSLAX25Y25*%
%MOIN*%
G70*
G01*
G75*
%ADD10R,0.01968X0.02362*%
%ADD11R,0.03543X0.03150*%
%ADD12R,0.01181X0.03937*%
%ADD13R,0.03937X0.01181*%
%ADD14R,0.02362X0.01968*%
%ADD15R,0.02913X0.09449*%
%ADD16R,0.04331X0.06693*%
%ADD17R,0.05512X0.07480*%
%ADD18R,0.07087X0.05512*%
%ADD19R,0.03150X0.05905*%
%ADD20R,0.03937X0.13780*%
%ADD21R,0.05905X0.13386*%
%ADD22R,0.06693X0.04331*%
%ADD23R,0.01772X0.05433*%
%ADD24R,0.05807X0.08268*%
%ADD25R,0.09350X0.07480*%
%ADD26R,0.04626X0.07480*%
%ADD27O,0.05709X0.01181*%
%ADD28R,0.07638X0.08543*%
%ADD29R,0.06496X0.09370*%
%ADD30R,0.02756X0.00984*%
%ADD31R,0.04331X0.10236*%
%ADD32R,0.04528X0.02362*%
%ADD33R,0.05118X0.02165*%
%ADD34R,0.03937X0.07087*%
%ADD35R,0.04921X0.06299*%
%ADD36R,0.03150X0.03543*%
G04:AMPARAMS|DCode=37|XSize=19.68mil|YSize=23.62mil|CornerRadius=0mil|HoleSize=0mil|Usage=FLASHONLY|Rotation=135.000|XOffset=0mil|YOffset=0mil|HoleType=Round|Shape=Rectangle|*
%AMROTATEDRECTD37*
4,1,4,0.01531,0.00139,-0.00139,-0.01531,-0.01531,-0.00139,0.00139,0.01531,0.01531,0.00139,0.0*
%
%ADD37ROTATEDRECTD37*%

%ADD38R,0.03543X0.03937*%
%ADD39R,0.03937X0.05118*%
%ADD40R,0.03150X0.01181*%
%ADD41R,0.01181X0.03150*%
%ADD42C,0.03937*%
%ADD43R,0.05905X0.01181*%
%ADD44R,0.01181X0.05905*%
%ADD50C,0.05000*%
%ADD51C,0.05905*%
%ADD52R,0.05905X0.05905*%
%ADD53R,0.03937X0.03937*%
D10*
X121968Y148000D02*
D03*
Y144063D02*
D03*
X111469Y129063D02*
D03*
Y133000D02*
D03*
X117469Y136563D02*
D03*
Y140500D02*
D03*
Y130000D02*
D03*
Y126063D02*
D03*
X99000Y161969D02*
D03*
Y158031D02*
D03*
X91500Y150031D02*
D03*
Y153969D02*
D03*
X125500Y198531D02*
D03*
Y202468D02*
D03*
X71500Y27968D02*
D03*
Y24032D02*
D03*
Y39968D02*
D03*
Y36031D02*
D03*
X91500Y34787D02*
D03*
Y30850D02*
D03*
X95500Y34787D02*
D03*
Y30850D02*
D03*
X75500Y8669D02*
D03*
Y12606D02*
D03*
X71500Y8669D02*
D03*
Y12606D02*
D03*
X90437Y127094D02*
D03*
Y131031D02*
D03*
X77500Y114469D02*
D03*
Y110531D02*
D03*
X93500Y111469D02*
D03*
Y107531D02*
D03*
X135000Y104469D02*
D03*
Y100531D02*
D03*
X37500Y187031D02*
D03*
Y190969D02*
D03*
X100000Y190031D02*
D03*
Y193968D02*
D03*
X26000Y169031D02*
D03*
Y172968D02*
D03*
X64500Y153031D02*
D03*
Y156968D02*
D03*
X152000Y113531D02*
D03*
Y117469D02*
D03*
X73000Y147731D02*
D03*
Y151669D02*
D03*
X113500Y55468D02*
D03*
Y51531D02*
D03*
X117500Y55468D02*
D03*
Y51531D02*
D03*
X121500D02*
D03*
Y55468D02*
D03*
X90000Y223000D02*
D03*
Y226937D02*
D03*
X28000Y92531D02*
D03*
Y96468D02*
D03*
X35500Y119937D02*
D03*
Y116000D02*
D03*
X14000Y83031D02*
D03*
Y86968D02*
D03*
X12000Y109000D02*
D03*
Y112937D02*
D03*
Y191031D02*
D03*
Y194968D02*
D03*
X16000Y191031D02*
D03*
Y194968D02*
D03*
D11*
X111469Y143787D02*
D03*
Y138276D02*
D03*
X86500Y36756D02*
D03*
Y31244D02*
D03*
X104500Y190244D02*
D03*
Y195756D02*
D03*
X34500Y173256D02*
D03*
Y167744D02*
D03*
D12*
X133500Y126067D02*
D03*
X131532D02*
D03*
X135468Y142996D02*
D03*
X133500D02*
D03*
X131532D02*
D03*
X135468Y126067D02*
D03*
X137437D02*
D03*
X139406D02*
D03*
X137437Y142996D02*
D03*
X139406D02*
D03*
D13*
X127201Y140437D02*
D03*
X143933Y138469D02*
D03*
X127201Y136500D02*
D03*
Y128626D02*
D03*
Y130595D02*
D03*
Y132563D02*
D03*
Y134531D02*
D03*
Y138469D02*
D03*
X143933Y134531D02*
D03*
Y128626D02*
D03*
Y130595D02*
D03*
Y132563D02*
D03*
Y136500D02*
D03*
Y140437D02*
D03*
D14*
X42500Y137000D02*
D03*
X46437D02*
D03*
X38500D02*
D03*
X34563D02*
D03*
X59969Y146000D02*
D03*
X56032D02*
D03*
X60532Y116000D02*
D03*
X64468D02*
D03*
X118937Y167500D02*
D03*
X115000D02*
D03*
X130532Y198500D02*
D03*
X134468D02*
D03*
X118968Y172500D02*
D03*
X115032D02*
D03*
X140032Y118500D02*
D03*
X143968D02*
D03*
X151937Y68000D02*
D03*
X148000D02*
D03*
X93532Y70000D02*
D03*
X97469D02*
D03*
X56032Y235000D02*
D03*
X59969D02*
D03*
X147031Y189000D02*
D03*
X150969D02*
D03*
Y197500D02*
D03*
X147031D02*
D03*
Y193500D02*
D03*
X150969D02*
D03*
X63532Y109000D02*
D03*
X67469D02*
D03*
X18032Y119000D02*
D03*
X21969D02*
D03*
X36500Y92833D02*
D03*
X40437D02*
D03*
X43468Y98000D02*
D03*
X39531D02*
D03*
X41532Y102500D02*
D03*
X45469D02*
D03*
X16969Y231000D02*
D03*
X13032D02*
D03*
X17531Y159500D02*
D03*
X21468D02*
D03*
X17531Y152000D02*
D03*
X21468D02*
D03*
X13032Y227000D02*
D03*
X16969D02*
D03*
D15*
X145000Y175000D02*
D03*
Y160000D02*
D03*
X140000Y175000D02*
D03*
Y160000D02*
D03*
X135000Y175000D02*
D03*
Y160000D02*
D03*
X130000Y175000D02*
D03*
Y160000D02*
D03*
X125000Y175000D02*
D03*
Y160000D02*
D03*
D16*
X99315Y91500D02*
D03*
X88685D02*
D03*
X129315Y94000D02*
D03*
X118685D02*
D03*
D17*
X63984Y8638D02*
D03*
X12213Y12575D02*
D03*
D18*
X18512Y64346D02*
D03*
X40165D02*
D03*
D19*
X45638Y23795D02*
D03*
X41307Y25370D02*
D03*
X36977Y23795D02*
D03*
X32646Y23008D02*
D03*
X28315Y23795D02*
D03*
X23984Y23008D02*
D03*
X19654Y23795D02*
D03*
X15323D02*
D03*
D20*
X133063Y33000D02*
D03*
X140937D02*
D03*
D21*
X123221Y11150D02*
D03*
X150779D02*
D03*
D22*
X102000Y42465D02*
D03*
Y31835D02*
D03*
X141500Y60815D02*
D03*
Y50185D02*
D03*
X79937Y132693D02*
D03*
Y122063D02*
D03*
X144500Y102685D02*
D03*
Y113315D02*
D03*
X43000Y109185D02*
D03*
Y119815D02*
D03*
D23*
X90679Y18473D02*
D03*
X93238D02*
D03*
X95797D02*
D03*
X98356D02*
D03*
X100915D02*
D03*
D24*
X86102Y17055D02*
D03*
X105492D02*
D03*
D25*
X84331Y8000D02*
D03*
X107264D02*
D03*
D26*
X92500D02*
D03*
X99094D02*
D03*
D27*
X106437Y112437D02*
D03*
Y110468D02*
D03*
Y108500D02*
D03*
Y106531D02*
D03*
Y104563D02*
D03*
X123563Y112437D02*
D03*
Y110468D02*
D03*
Y108500D02*
D03*
Y106531D02*
D03*
Y104563D02*
D03*
D28*
X115000Y108500D02*
D03*
D29*
X65000Y77500D02*
D03*
D30*
X70512Y74547D02*
D03*
Y76516D02*
D03*
Y78484D02*
D03*
Y80453D02*
D03*
X59488Y74547D02*
D03*
Y76516D02*
D03*
Y78484D02*
D03*
Y80453D02*
D03*
D31*
X25185Y78500D02*
D03*
X35815D02*
D03*
X59185Y96000D02*
D03*
X69815D02*
D03*
D32*
X144429Y75260D02*
D03*
Y82740D02*
D03*
X135571Y79000D02*
D03*
D33*
X110224Y82740D02*
D03*
Y79000D02*
D03*
Y75260D02*
D03*
X100776D02*
D03*
Y79000D02*
D03*
Y82740D02*
D03*
D34*
X45421Y129000D02*
D03*
X35579D02*
D03*
D35*
X55669Y123716D02*
D03*
Y138283D02*
D03*
X64331D02*
D03*
Y123716D02*
D03*
D36*
X31756Y188000D02*
D03*
X26244D02*
D03*
D37*
X110608Y187608D02*
D03*
X113392Y190392D02*
D03*
D38*
X93571Y52851D02*
D03*
X77429D02*
D03*
Y59150D02*
D03*
X93571D02*
D03*
X12929Y218150D02*
D03*
X29071D02*
D03*
Y211851D02*
D03*
X12929D02*
D03*
X149571Y208851D02*
D03*
X133429D02*
D03*
Y215150D02*
D03*
X149571D02*
D03*
D39*
X51350Y109500D02*
D03*
X57650D02*
D03*
X26851Y159500D02*
D03*
X33150D02*
D03*
X26851Y152000D02*
D03*
X33150D02*
D03*
D40*
X19000Y112469D02*
D03*
Y110500D02*
D03*
Y108531D02*
D03*
Y106563D02*
D03*
Y104595D02*
D03*
X28842D02*
D03*
Y106563D02*
D03*
Y108531D02*
D03*
Y110500D02*
D03*
Y112469D02*
D03*
D41*
X21953Y103610D02*
D03*
X23921D02*
D03*
X25890D02*
D03*
Y113453D02*
D03*
X23921D02*
D03*
X21953D02*
D03*
D42*
X90894Y170500D02*
D03*
X46012Y215382D02*
D03*
X93500Y245000D02*
D03*
Y240000D02*
D03*
X88500Y245000D02*
D03*
Y240000D02*
D03*
X83500Y245000D02*
D03*
X120000Y245000D02*
D03*
Y240000D02*
D03*
X115000Y245000D02*
D03*
Y240000D02*
D03*
X110000Y245000D02*
D03*
X146500D02*
D03*
Y240000D02*
D03*
X141500Y245000D02*
D03*
Y240000D02*
D03*
X136500Y245000D02*
D03*
D43*
X90894Y207705D02*
D03*
Y205736D02*
D03*
Y203768D02*
D03*
Y201799D02*
D03*
Y199831D02*
D03*
Y197862D02*
D03*
Y195894D02*
D03*
Y193925D02*
D03*
Y191957D02*
D03*
Y189988D02*
D03*
Y188020D02*
D03*
Y186051D02*
D03*
Y184083D02*
D03*
Y182114D02*
D03*
Y180146D02*
D03*
Y178177D02*
D03*
X46012D02*
D03*
Y180146D02*
D03*
Y182114D02*
D03*
Y184083D02*
D03*
Y186051D02*
D03*
Y188020D02*
D03*
Y189988D02*
D03*
Y191957D02*
D03*
Y193925D02*
D03*
Y195894D02*
D03*
Y197862D02*
D03*
Y199831D02*
D03*
Y201799D02*
D03*
Y203768D02*
D03*
Y205736D02*
D03*
Y207705D02*
D03*
D44*
X83217Y170500D02*
D03*
X81248D02*
D03*
X79280D02*
D03*
X77311D02*
D03*
X75343D02*
D03*
X73374D02*
D03*
X71406D02*
D03*
X69437D02*
D03*
X67469D02*
D03*
X65500D02*
D03*
X63532D02*
D03*
X61563D02*
D03*
X59595D02*
D03*
X57626D02*
D03*
X55658D02*
D03*
X53689D02*
D03*
Y215382D02*
D03*
X55658D02*
D03*
X57626D02*
D03*
X59595D02*
D03*
X61563D02*
D03*
X63532D02*
D03*
X65500D02*
D03*
X67469D02*
D03*
X69437D02*
D03*
X71406D02*
D03*
X73374D02*
D03*
X75343D02*
D03*
X77311D02*
D03*
X79280D02*
D03*
X81248D02*
D03*
X83217D02*
D03*
D50*
X150500Y50000D02*
D03*
X111000Y32000D02*
D03*
Y42500D02*
D03*
X15000Y131000D02*
D03*
Y140500D02*
D03*
X123000Y46500D02*
D03*
X79000Y43000D02*
D03*
X150500Y60500D02*
D03*
D51*
X16000Y240000D02*
D03*
X26000D02*
D03*
D52*
X36000D02*
D03*
D53*
X83500Y240000D02*
D03*
X110000Y240000D02*
D03*
X136500D02*
D03*
M02*
