G04*
G04 #@! TF.GenerationSoftware,Altium Limited,Altium Designer,18.1.9 (240)*
G04*
G04 Layer_Color=255*
%FSLAX25Y25*%
%MOIN*%
G70*
G01*
G75*
%ADD16R,0.02362X0.01968*%
%ADD17R,0.04331X0.02362*%
%ADD18R,0.04331X0.02756*%
%ADD19C,0.03937*%
%ADD20R,0.01181X0.05906*%
%ADD21R,0.05906X0.01181*%
%ADD22O,0.03347X0.01772*%
%ADD23R,0.06299X0.09843*%
%ADD24R,0.01968X0.02362*%
G04:AMPARAMS|DCode=25|XSize=7.87mil|YSize=17.72mil|CornerRadius=1.97mil|HoleSize=0mil|Usage=FLASHONLY|Rotation=270.000|XOffset=0mil|YOffset=0mil|HoleType=Round|Shape=RoundedRectangle|*
%AMROUNDEDRECTD25*
21,1,0.00787,0.01378,0,0,270.0*
21,1,0.00394,0.01772,0,0,270.0*
1,1,0.00394,-0.00689,-0.00197*
1,1,0.00394,-0.00689,0.00197*
1,1,0.00394,0.00689,0.00197*
1,1,0.00394,0.00689,-0.00197*
%
%ADD25ROUNDEDRECTD25*%
%ADD26R,0.03150X0.03937*%
%ADD27R,0.05906X0.02756*%
%ADD28R,0.03937X0.05118*%
%ADD29R,0.03543X0.03150*%
%ADD30R,0.06693X0.04331*%
%ADD31R,0.01181X0.03150*%
%ADD32R,0.03150X0.01181*%
G04:AMPARAMS|DCode=33|XSize=19.68mil|YSize=23.62mil|CornerRadius=0mil|HoleSize=0mil|Usage=FLASHONLY|Rotation=135.000|XOffset=0mil|YOffset=0mil|HoleType=Round|Shape=Rectangle|*
%AMROTATEDRECTD33*
4,1,4,0.01531,0.00139,-0.00139,-0.01531,-0.01531,-0.00139,0.00139,0.01531,0.01531,0.00139,0.0*
%
%ADD33ROTATEDRECTD33*%

%ADD34R,0.03150X0.03543*%
%ADD35R,0.04921X0.06299*%
%ADD36R,0.03937X0.07087*%
%ADD37R,0.04331X0.06693*%
%ADD38R,0.05118X0.02165*%
%ADD39R,0.04528X0.02362*%
%ADD40R,0.04331X0.10236*%
%ADD41R,0.02756X0.00984*%
%ADD42R,0.06496X0.09370*%
%ADD43R,0.07638X0.08543*%
%ADD44O,0.05709X0.01181*%
%ADD45R,0.03150X0.05906*%
%ADD46R,0.07087X0.05512*%
%ADD47R,0.05512X0.07480*%
%ADD48R,0.02913X0.09449*%
%ADD49R,0.03937X0.01181*%
%ADD50R,0.01181X0.03937*%
%ADD51R,0.03543X0.03937*%
%ADD52R,0.01772X0.05433*%
%ADD53R,0.05807X0.08268*%
%ADD54R,0.09350X0.07480*%
%ADD55R,0.04626X0.07480*%
%ADD56R,0.03937X0.13780*%
%ADD57R,0.05906X0.13386*%
%ADD109C,0.02362*%
%ADD110R,0.05906X0.05906*%
%ADD111C,0.05906*%
%ADD112C,0.05000*%
D16*
X20256Y265000D02*
D03*
X16319D02*
D03*
X135500Y263264D02*
D03*
X139437D02*
D03*
X86717Y261150D02*
D03*
X82780D02*
D03*
X86717Y256327D02*
D03*
X82780D02*
D03*
X20224Y269000D02*
D03*
X16287D02*
D03*
X139469Y259264D02*
D03*
X135531D02*
D03*
X57374Y268063D02*
D03*
X61311D02*
D03*
X103811Y269012D02*
D03*
X99874D02*
D03*
X150437Y262264D02*
D03*
X146500D02*
D03*
X155500D02*
D03*
X159437D02*
D03*
X36287Y268000D02*
D03*
X40224D02*
D03*
X31224D02*
D03*
X27287D02*
D03*
X16969Y227000D02*
D03*
X13032D02*
D03*
X21468Y152000D02*
D03*
X17531D02*
D03*
X21468Y159500D02*
D03*
X17531D02*
D03*
X13032Y231000D02*
D03*
X16969D02*
D03*
X45469Y102500D02*
D03*
X41532D02*
D03*
X39531Y98000D02*
D03*
X43468D02*
D03*
X40437Y92833D02*
D03*
X36500D02*
D03*
X21969Y119000D02*
D03*
X18032D02*
D03*
X67469Y109000D02*
D03*
X63532D02*
D03*
X150969Y193500D02*
D03*
X147031D02*
D03*
Y197500D02*
D03*
X150969D02*
D03*
Y189000D02*
D03*
X147031D02*
D03*
X59969Y235000D02*
D03*
X56032D02*
D03*
X97469Y70000D02*
D03*
X93532D02*
D03*
X143968Y118500D02*
D03*
X140032D02*
D03*
X115032Y172500D02*
D03*
X118968D02*
D03*
X134468Y198500D02*
D03*
X130532D02*
D03*
X115000Y167500D02*
D03*
X118937D02*
D03*
X64468Y116000D02*
D03*
X60532D02*
D03*
X56032Y146000D02*
D03*
X59969D02*
D03*
X34563Y137000D02*
D03*
X38500D02*
D03*
X46437D02*
D03*
X42500D02*
D03*
D17*
X106650Y260012D02*
D03*
X97988D02*
D03*
Y252138D02*
D03*
X106650D02*
D03*
D18*
X97988Y256075D02*
D03*
X106650D02*
D03*
D19*
X46012Y215382D02*
D03*
X90894Y170500D02*
D03*
D20*
X83217Y215382D02*
D03*
X81248D02*
D03*
X79280D02*
D03*
X77311D02*
D03*
X75343D02*
D03*
X73374D02*
D03*
X71406D02*
D03*
X69437D02*
D03*
X67469D02*
D03*
X65500D02*
D03*
X63532D02*
D03*
X61563D02*
D03*
X59595D02*
D03*
X57626D02*
D03*
X55658D02*
D03*
X53689D02*
D03*
Y170500D02*
D03*
X55658D02*
D03*
X57626D02*
D03*
X59595D02*
D03*
X61563D02*
D03*
X63532D02*
D03*
X65500D02*
D03*
X67469D02*
D03*
X69437D02*
D03*
X71406D02*
D03*
X73374D02*
D03*
X75343D02*
D03*
X77311D02*
D03*
X79280D02*
D03*
X81248D02*
D03*
X83217D02*
D03*
D21*
X46012Y207705D02*
D03*
Y205736D02*
D03*
Y203768D02*
D03*
Y201799D02*
D03*
Y199831D02*
D03*
Y197862D02*
D03*
Y195894D02*
D03*
Y193925D02*
D03*
Y191957D02*
D03*
Y189988D02*
D03*
Y188020D02*
D03*
Y186051D02*
D03*
Y184083D02*
D03*
Y182114D02*
D03*
Y180146D02*
D03*
Y178177D02*
D03*
X90894D02*
D03*
Y180146D02*
D03*
Y182114D02*
D03*
Y184083D02*
D03*
Y186051D02*
D03*
Y188020D02*
D03*
Y189988D02*
D03*
Y191957D02*
D03*
Y193925D02*
D03*
Y195894D02*
D03*
Y197862D02*
D03*
Y199831D02*
D03*
Y201799D02*
D03*
Y203768D02*
D03*
Y205736D02*
D03*
Y207705D02*
D03*
D22*
X65000Y254126D02*
D03*
Y258063D02*
D03*
Y262000D02*
D03*
X53583Y254126D02*
D03*
Y258063D02*
D03*
Y262000D02*
D03*
D23*
X59291Y258063D02*
D03*
D24*
X114874Y256106D02*
D03*
Y260043D02*
D03*
X16000Y194968D02*
D03*
Y191031D02*
D03*
X12000Y194968D02*
D03*
Y191031D02*
D03*
Y112937D02*
D03*
Y109000D02*
D03*
X14000Y86968D02*
D03*
Y83031D02*
D03*
X35500Y116000D02*
D03*
Y119937D02*
D03*
X28000Y96468D02*
D03*
Y92531D02*
D03*
X90000Y226937D02*
D03*
Y223000D02*
D03*
X121500Y55468D02*
D03*
Y51531D02*
D03*
X117500D02*
D03*
Y55468D02*
D03*
X113500Y51531D02*
D03*
Y55468D02*
D03*
X73000Y151669D02*
D03*
Y147731D02*
D03*
X152000Y117469D02*
D03*
Y113531D02*
D03*
X64500Y156968D02*
D03*
Y153031D02*
D03*
X26000Y172968D02*
D03*
Y169031D02*
D03*
X100000Y193968D02*
D03*
Y190031D02*
D03*
X37500Y190969D02*
D03*
Y187031D02*
D03*
X134000Y65532D02*
D03*
Y69469D02*
D03*
X135000Y100531D02*
D03*
Y104469D02*
D03*
X93500Y107531D02*
D03*
Y111469D02*
D03*
X77500Y110531D02*
D03*
Y114469D02*
D03*
X90437Y131031D02*
D03*
Y127094D02*
D03*
X71500Y12606D02*
D03*
Y8669D02*
D03*
X75500Y12606D02*
D03*
Y8669D02*
D03*
X95500Y30850D02*
D03*
Y34787D02*
D03*
X91500Y30850D02*
D03*
Y34787D02*
D03*
X71500Y36031D02*
D03*
Y39968D02*
D03*
Y24032D02*
D03*
Y27968D02*
D03*
X125500Y202468D02*
D03*
Y198531D02*
D03*
X91500Y153969D02*
D03*
Y150031D02*
D03*
X99000Y158031D02*
D03*
Y161969D02*
D03*
X117469Y126063D02*
D03*
Y130000D02*
D03*
Y140500D02*
D03*
Y136563D02*
D03*
X111469Y133000D02*
D03*
Y129063D02*
D03*
X121968Y144063D02*
D03*
Y148000D02*
D03*
D25*
X151913Y253295D02*
D03*
Y255264D02*
D03*
Y257232D02*
D03*
X145024D02*
D03*
Y255264D02*
D03*
Y253295D02*
D03*
X32701Y259032D02*
D03*
Y261000D02*
D03*
Y262968D02*
D03*
X25811D02*
D03*
Y261000D02*
D03*
Y259032D02*
D03*
D26*
X155201Y74965D02*
D03*
X162799D02*
D03*
Y46224D02*
D03*
X155201D02*
D03*
D27*
X152110Y51736D02*
D03*
Y69453D02*
D03*
Y63547D02*
D03*
D28*
X33150Y152000D02*
D03*
X26851D02*
D03*
X33150Y159500D02*
D03*
X26851D02*
D03*
X57650Y109500D02*
D03*
X51350D02*
D03*
D29*
X34500Y167744D02*
D03*
Y173256D02*
D03*
X104500Y195756D02*
D03*
Y190244D02*
D03*
X86500Y31244D02*
D03*
Y36756D02*
D03*
X111469Y138276D02*
D03*
Y143787D02*
D03*
D30*
X43000Y119815D02*
D03*
Y109185D02*
D03*
X144500Y113315D02*
D03*
Y102685D02*
D03*
X79937Y122063D02*
D03*
Y132693D02*
D03*
X102000Y31835D02*
D03*
Y42465D02*
D03*
D31*
X21953Y113453D02*
D03*
X23921D02*
D03*
X25890D02*
D03*
Y103610D02*
D03*
X23921D02*
D03*
X21953D02*
D03*
D32*
X28842Y112469D02*
D03*
Y110500D02*
D03*
Y108531D02*
D03*
Y106563D02*
D03*
Y104595D02*
D03*
X19000D02*
D03*
Y106563D02*
D03*
Y108531D02*
D03*
Y110500D02*
D03*
Y112469D02*
D03*
D33*
X113392Y190392D02*
D03*
X110608Y187608D02*
D03*
D34*
X26244Y188000D02*
D03*
X31756D02*
D03*
D35*
X64331Y123716D02*
D03*
Y138283D02*
D03*
X55669D02*
D03*
Y123716D02*
D03*
D36*
X35579Y129000D02*
D03*
X45421D02*
D03*
D37*
X118685Y94000D02*
D03*
X129315D02*
D03*
X88685Y91500D02*
D03*
X99315D02*
D03*
D38*
X100776Y82740D02*
D03*
Y79000D02*
D03*
Y75260D02*
D03*
X110224D02*
D03*
Y79000D02*
D03*
Y82740D02*
D03*
D39*
X135571Y79000D02*
D03*
X144429Y82740D02*
D03*
Y75260D02*
D03*
D40*
X69815Y96000D02*
D03*
X59185D02*
D03*
X35815Y78500D02*
D03*
X25185D02*
D03*
D41*
X59488Y80453D02*
D03*
Y78484D02*
D03*
Y76516D02*
D03*
Y74547D02*
D03*
X70512Y80453D02*
D03*
Y78484D02*
D03*
Y76516D02*
D03*
Y74547D02*
D03*
D42*
X65000Y77500D02*
D03*
D43*
X115000Y108500D02*
D03*
D44*
X123563Y104563D02*
D03*
Y106531D02*
D03*
Y108500D02*
D03*
Y110468D02*
D03*
Y112437D02*
D03*
X106437Y104563D02*
D03*
Y106531D02*
D03*
Y108500D02*
D03*
Y110468D02*
D03*
Y112437D02*
D03*
D45*
X15323Y23795D02*
D03*
X19654D02*
D03*
X23984Y23008D02*
D03*
X28315Y23795D02*
D03*
X32646Y23008D02*
D03*
X36977Y23795D02*
D03*
X41307Y25370D02*
D03*
X45638Y23795D02*
D03*
D46*
X40165Y64346D02*
D03*
X18512D02*
D03*
D47*
X12213Y12575D02*
D03*
X63984Y8638D02*
D03*
D48*
X125000Y160000D02*
D03*
Y175000D02*
D03*
X130000Y160000D02*
D03*
Y175000D02*
D03*
X135000Y160000D02*
D03*
Y175000D02*
D03*
X140000Y160000D02*
D03*
Y175000D02*
D03*
X145000Y160000D02*
D03*
Y175000D02*
D03*
D49*
X143933Y140437D02*
D03*
Y136500D02*
D03*
Y132563D02*
D03*
Y130595D02*
D03*
Y128626D02*
D03*
Y134531D02*
D03*
X127201Y138469D02*
D03*
Y134531D02*
D03*
Y132563D02*
D03*
Y130595D02*
D03*
Y128626D02*
D03*
Y136500D02*
D03*
X143933Y138469D02*
D03*
X127201Y140437D02*
D03*
D50*
X139406Y142996D02*
D03*
X137437D02*
D03*
X139406Y126067D02*
D03*
X137437D02*
D03*
X135468D02*
D03*
X131532Y142996D02*
D03*
X133500D02*
D03*
X135468D02*
D03*
X131532Y126067D02*
D03*
X133500D02*
D03*
D51*
X149571Y215150D02*
D03*
X133429D02*
D03*
Y208850D02*
D03*
X149571D02*
D03*
X93571Y59150D02*
D03*
X77429D02*
D03*
Y52850D02*
D03*
X93571D02*
D03*
X12929Y211850D02*
D03*
X29071D02*
D03*
Y218150D02*
D03*
X12929D02*
D03*
D52*
X90679Y18472D02*
D03*
X93238D02*
D03*
X95797D02*
D03*
X98356D02*
D03*
X100915D02*
D03*
D53*
X86102Y17055D02*
D03*
X105492D02*
D03*
D54*
X84331Y8000D02*
D03*
X107264D02*
D03*
D55*
X92500D02*
D03*
X99094D02*
D03*
D56*
X133063Y33000D02*
D03*
X140937D02*
D03*
D57*
X123221Y11150D02*
D03*
X150779D02*
D03*
D109*
X159000Y66500D02*
D03*
Y54689D02*
D03*
D110*
X36000Y240000D02*
D03*
D111*
X26000D02*
D03*
X16000D02*
D03*
D112*
X79000Y43000D02*
D03*
X123000Y46500D02*
D03*
X15000Y140500D02*
D03*
Y131000D02*
D03*
X111000Y42500D02*
D03*
Y32000D02*
D03*
M02*
