G04*
G04 #@! TF.GenerationSoftware,Altium Limited,Altium Designer,19.1.5 (86)*
G04*
G04 Layer_Physical_Order=1*
G04 Layer_Color=255*
%FSLAX25Y25*%
%MOIN*%
G70*
G01*
G75*
%ADD13C,0.01000*%
%ADD16R,0.04331X0.02362*%
%ADD17R,0.04331X0.02756*%
%ADD18C,0.03937*%
%ADD19R,0.01181X0.05906*%
%ADD20R,0.05906X0.01181*%
%ADD21O,0.03347X0.01772*%
%ADD22R,0.06299X0.09843*%
%ADD23R,0.02362X0.01968*%
%ADD24R,0.01968X0.02362*%
G04:AMPARAMS|DCode=25|XSize=7.87mil|YSize=17.72mil|CornerRadius=1.97mil|HoleSize=0mil|Usage=FLASHONLY|Rotation=270.000|XOffset=0mil|YOffset=0mil|HoleType=Round|Shape=RoundedRectangle|*
%AMROUNDEDRECTD25*
21,1,0.00787,0.01378,0,0,270.0*
21,1,0.00394,0.01772,0,0,270.0*
1,1,0.00394,-0.00689,-0.00197*
1,1,0.00394,-0.00689,0.00197*
1,1,0.00394,0.00689,0.00197*
1,1,0.00394,0.00689,-0.00197*
%
%ADD25ROUNDEDRECTD25*%
%ADD26R,0.03150X0.03937*%
%ADD27R,0.05906X0.02756*%
%ADD28R,0.03937X0.05118*%
%ADD29R,0.03543X0.03150*%
%ADD30R,0.06693X0.04331*%
%ADD31R,0.01181X0.03150*%
%ADD32R,0.03150X0.01181*%
G04:AMPARAMS|DCode=33|XSize=19.68mil|YSize=23.62mil|CornerRadius=0mil|HoleSize=0mil|Usage=FLASHONLY|Rotation=135.000|XOffset=0mil|YOffset=0mil|HoleType=Round|Shape=Rectangle|*
%AMROTATEDRECTD33*
4,1,4,0.01531,0.00139,-0.00139,-0.01531,-0.01531,-0.00139,0.00139,0.01531,0.01531,0.00139,0.0*
%
%ADD33ROTATEDRECTD33*%

%ADD34R,0.03150X0.03543*%
%ADD35R,0.04921X0.06299*%
%ADD36R,0.03937X0.07087*%
%ADD37R,0.04331X0.06693*%
%ADD38R,0.05118X0.02165*%
%ADD39R,0.04528X0.02362*%
%ADD40R,0.04331X0.10236*%
%ADD41R,0.02756X0.00984*%
%ADD42R,0.06496X0.09370*%
%ADD43R,0.07638X0.08543*%
%ADD44O,0.05709X0.01181*%
%ADD45R,0.03150X0.05906*%
%ADD46R,0.07087X0.05512*%
%ADD47R,0.05512X0.07480*%
%ADD48R,0.02913X0.09449*%
%ADD49R,0.03937X0.01181*%
%ADD50R,0.01181X0.03937*%
%ADD51R,0.03543X0.03937*%
%ADD52R,0.01772X0.05433*%
%ADD53R,0.05807X0.08268*%
%ADD54R,0.09350X0.07480*%
%ADD55R,0.04626X0.07480*%
%ADD56R,0.03937X0.13780*%
%ADD57R,0.05906X0.13386*%
%ADD58R,0.00886X0.01772*%
%ADD106C,0.00800*%
%ADD107C,0.01500*%
%ADD108C,0.00600*%
%ADD109C,0.01300*%
%ADD110C,0.02362*%
%ADD111R,0.05906X0.05906*%
%ADD112C,0.05906*%
%ADD113C,0.05000*%
%ADD114C,0.01968*%
G36*
X166777Y1223D02*
X1223D01*
Y278777D01*
X166777D01*
X166777Y1223D01*
D02*
G37*
%LPC*%
G36*
X26256Y273718D02*
X25825Y273431D01*
X25538Y273000D01*
X26256D01*
Y273718D01*
D02*
G37*
G36*
X108874Y270730D02*
Y270012D01*
X109593D01*
X109305Y270442D01*
X108874Y270730D01*
D02*
G37*
G36*
X12256Y270718D02*
Y270000D01*
X12974D01*
X12686Y270430D01*
X12256Y270718D01*
D02*
G37*
G36*
X10256D02*
X9825Y270430D01*
X9538Y270000D01*
X10256D01*
Y270718D01*
D02*
G37*
G36*
X15287Y270984D02*
X14106D01*
Y270000D01*
X15287D01*
Y270984D01*
D02*
G37*
G36*
X56374Y270047D02*
X55193D01*
Y269063D01*
X56374D01*
Y270047D01*
D02*
G37*
G36*
X42406Y269984D02*
X41224D01*
Y269000D01*
X42406D01*
Y269984D01*
D02*
G37*
G36*
X109593Y268012D02*
X108874D01*
Y267294D01*
X109305Y267581D01*
X109593Y268012D01*
D02*
G37*
G36*
X105992Y270996D02*
X104811D01*
Y269012D01*
Y267028D01*
X105992D01*
Y267216D01*
X106090Y267296D01*
X106593Y267482D01*
X106874Y267294D01*
Y269012D01*
Y270730D01*
X106593Y270542D01*
X106090Y270728D01*
X105992Y270808D01*
Y270996D01*
D02*
G37*
G36*
X145468Y267982D02*
X145038Y267694D01*
X144750Y267264D01*
X145468D01*
Y267982D01*
D02*
G37*
G36*
X36331Y274717D02*
X35674Y274587D01*
X35117Y274214D01*
X34745Y273657D01*
X34614Y273000D01*
X34745Y272343D01*
X35117Y271786D01*
X35166Y271753D01*
Y269684D01*
X34406D01*
Y266316D01*
X35166D01*
Y264934D01*
X34322Y264090D01*
X32701D01*
X32649Y264080D01*
X32012D01*
X31662Y264010D01*
X31365Y263812D01*
X31167Y263515D01*
X31097Y263165D01*
Y262772D01*
X31167Y262422D01*
X31317Y261984D01*
X31167Y261547D01*
X31097Y261197D01*
Y260803D01*
X31167Y260453D01*
X31317Y260016D01*
X31167Y259578D01*
X31097Y259228D01*
Y258835D01*
X31167Y258485D01*
X31365Y258188D01*
X31662Y257990D01*
X32012Y257920D01*
X32649D01*
X32701Y257910D01*
X35760D01*
X36560Y257109D01*
X36539Y257000D01*
X36669Y256343D01*
X37042Y255786D01*
X37599Y255414D01*
X38256Y255283D01*
X38365Y255305D01*
X40337Y253333D01*
X40337Y253333D01*
X40701Y253090D01*
X41130Y253004D01*
X47067D01*
X47128Y252912D01*
X47221Y252850D01*
Y251552D01*
X47221Y251552D01*
X47307Y251123D01*
X47550Y250759D01*
X49596Y248712D01*
X49348Y248112D01*
X46831D01*
X46769Y248205D01*
X46212Y248577D01*
X45555Y248708D01*
X44898Y248577D01*
X44341Y248205D01*
X44279Y248112D01*
X43230D01*
X35537Y255805D01*
X35173Y256048D01*
X34744Y256133D01*
X34744Y256133D01*
X23709D01*
X22951Y256891D01*
X22973Y257000D01*
X22951Y257109D01*
X23752Y257910D01*
X25811D01*
X25863Y257920D01*
X26500D01*
X26850Y257990D01*
X27147Y258188D01*
X27345Y258485D01*
X27414Y258835D01*
Y259228D01*
X27345Y259578D01*
X27183Y259820D01*
X27363Y259940D01*
X27403Y260000D01*
X26960D01*
X26850Y260073D01*
X26500Y260143D01*
X25863D01*
X25811Y260153D01*
Y261847D01*
X25863Y261857D01*
X26500D01*
X26850Y261927D01*
X26960Y262000D01*
X27403D01*
X27363Y262060D01*
X27183Y262180D01*
X27345Y262422D01*
X27414Y262772D01*
Y263165D01*
X27345Y263515D01*
X27147Y263812D01*
X26850Y264010D01*
X26500Y264080D01*
X25863D01*
X25811Y264090D01*
X25796D01*
X24422Y265465D01*
Y268000D01*
X24336Y268429D01*
X24093Y268793D01*
X24093Y268793D01*
X23093Y269793D01*
X22729Y270036D01*
X22300Y270122D01*
X22106Y270658D01*
Y270684D01*
X18469D01*
Y270984D01*
X17287D01*
Y269000D01*
X16287D01*
Y268000D01*
X14106D01*
Y267016D01*
X14317Y266722D01*
X14126Y266234D01*
X14014Y266122D01*
X12532D01*
X12470Y266214D01*
X12018Y266517D01*
X12023Y267000D01*
X12063Y267153D01*
X12686Y267569D01*
X12974Y268000D01*
X9538D01*
X9825Y267569D01*
X10449Y267153D01*
X10489Y267000D01*
X10494Y266517D01*
X10042Y266214D01*
X9669Y265657D01*
X9539Y265000D01*
X9669Y264343D01*
X10042Y263786D01*
X10599Y263414D01*
X11256Y263283D01*
X11913Y263414D01*
X12470Y263786D01*
X12532Y263878D01*
X14438D01*
Y263316D01*
X17987Y263316D01*
X18308Y262814D01*
X18299Y262747D01*
X17825Y262431D01*
X17538Y262000D01*
X20974D01*
X20686Y262431D01*
X20260Y262716D01*
X20442Y263316D01*
X22137D01*
Y263878D01*
X22836D01*
X24063Y262650D01*
X24259Y262060D01*
X23995Y261664D01*
X23902Y261197D01*
Y260803D01*
X23912Y260753D01*
X23450Y260153D01*
X23287D01*
X22858Y260068D01*
X22494Y259825D01*
X22494Y259824D01*
X21365Y258696D01*
X21256Y258717D01*
X20599Y258587D01*
X20042Y258214D01*
X19669Y257657D01*
X19539Y257000D01*
X19669Y256343D01*
X20042Y255786D01*
X20599Y255414D01*
X21256Y255283D01*
X21365Y255305D01*
X22451Y254219D01*
X22451Y254219D01*
X22815Y253976D01*
X23244Y253890D01*
X34280D01*
X41972Y246198D01*
X42336Y245954D01*
X42765Y245869D01*
X42766Y245869D01*
X44279D01*
X44341Y245776D01*
X44898Y245404D01*
X45555Y245273D01*
X46212Y245404D01*
X46769Y245776D01*
X46831Y245869D01*
X52434D01*
X52683Y245269D01*
X51207Y243793D01*
X50964Y243429D01*
X50878Y243000D01*
X50878Y243000D01*
Y240300D01*
X50278Y240118D01*
X50214Y240214D01*
X49657Y240586D01*
X49000Y240717D01*
X48343Y240586D01*
X47786Y240214D01*
X47414Y239657D01*
X47283Y239000D01*
X47414Y238343D01*
X47522Y238181D01*
Y234731D01*
X46922Y234410D01*
X46657Y234587D01*
X46000Y234717D01*
X45343Y234587D01*
X44786Y234214D01*
X44724Y234121D01*
X38276D01*
X38214Y234214D01*
X37657Y234587D01*
X37000Y234717D01*
X36343Y234587D01*
X35786Y234214D01*
X35414Y233657D01*
X35283Y233000D01*
X35414Y232343D01*
X35786Y231786D01*
X36343Y231414D01*
X37000Y231283D01*
X37657Y231414D01*
X38214Y231786D01*
X38276Y231878D01*
X44724D01*
X44786Y231786D01*
X45343Y231414D01*
X46000Y231283D01*
X46657Y231414D01*
X46922Y231590D01*
X47522Y231269D01*
Y226819D01*
X47414Y226657D01*
X47283Y226000D01*
X47414Y225343D01*
X47786Y224786D01*
X47882Y224722D01*
X47700Y224121D01*
X41192D01*
X41130Y224214D01*
X40573Y224587D01*
X39916Y224717D01*
X39553Y224645D01*
X38953Y225049D01*
Y225918D01*
X38868Y226348D01*
X38625Y226712D01*
X38625Y226712D01*
X28551Y236785D01*
X28591Y237384D01*
X28605Y237395D01*
X29191Y238158D01*
X29559Y239046D01*
X29684Y240000D01*
X29559Y240954D01*
X29191Y241842D01*
X28605Y242605D01*
X27842Y243191D01*
X26954Y243559D01*
X26000Y243684D01*
X25046Y243559D01*
X24158Y243191D01*
X23395Y242605D01*
X22809Y241842D01*
X22441Y240954D01*
X22316Y240000D01*
X22441Y239046D01*
X22809Y238158D01*
X23395Y237395D01*
X24158Y236809D01*
X24370Y236721D01*
X24250Y236122D01*
X19965D01*
X18643Y237444D01*
X19191Y238158D01*
X19559Y239046D01*
X19684Y240000D01*
X19559Y240954D01*
X19191Y241842D01*
X18605Y242605D01*
X17842Y243191D01*
X16954Y243559D01*
X16000Y243684D01*
X15046Y243559D01*
X14158Y243191D01*
X13395Y242605D01*
X12809Y241842D01*
X12441Y240954D01*
X12370Y240413D01*
X12214Y240179D01*
X12128Y239750D01*
X12214Y239321D01*
X12457Y238957D01*
X12494Y238920D01*
X12809Y238158D01*
X13395Y237395D01*
X14158Y236809D01*
X15046Y236441D01*
X16000Y236316D01*
X16529Y236385D01*
X18707Y234207D01*
X18707Y234207D01*
X19071Y233964D01*
X19500Y233878D01*
X19500Y233878D01*
X20514D01*
X20573Y233278D01*
X20526Y233269D01*
X19869Y232831D01*
X19750Y232651D01*
X19150Y232833D01*
Y232984D01*
X17968D01*
Y231000D01*
X15969D01*
Y232984D01*
X14787D01*
Y232684D01*
X11150D01*
Y229316D01*
X11910D01*
Y228684D01*
X11150D01*
Y225316D01*
X11910D01*
Y224297D01*
X11786Y224214D01*
X11413Y223657D01*
X11283Y223000D01*
X11413Y222343D01*
X11786Y221786D01*
X11878Y221724D01*
Y220818D01*
X10458D01*
Y215481D01*
X15401D01*
Y220818D01*
X14121D01*
Y221724D01*
X14214Y221786D01*
X14586Y222343D01*
X14717Y223000D01*
X14586Y223657D01*
X14214Y224214D01*
X14153Y224255D01*
Y224891D01*
X14577Y225316D01*
X14913D01*
X15513Y225316D01*
X18850D01*
Y225980D01*
X20256D01*
X20386Y225786D01*
X20943Y225413D01*
X21600Y225283D01*
X22257Y225413D01*
X22814Y225786D01*
X23187Y226343D01*
X23317Y227000D01*
X23187Y227657D01*
X22814Y228214D01*
X22257Y228587D01*
X21600Y228717D01*
X20943Y228587D01*
X20386Y228214D01*
X20256Y228020D01*
X19274D01*
X18992Y228302D01*
X18900Y228620D01*
X19150Y229016D01*
X19150Y229160D01*
Y229967D01*
X19750Y230149D01*
X19869Y229969D01*
X20300Y229682D01*
Y231400D01*
X21300D01*
Y232400D01*
X23018D01*
X22731Y232831D01*
X22074Y233269D01*
X22027Y233278D01*
X22086Y233878D01*
X24535D01*
X31207Y227207D01*
X31207Y227207D01*
X33707Y224707D01*
X33707Y224707D01*
X35210Y223204D01*
Y209101D01*
X34914Y208657D01*
X34783Y208000D01*
X34914Y207343D01*
X34988Y207232D01*
X34627Y206692D01*
X34500Y206717D01*
X33843Y206587D01*
X33286Y206214D01*
X32913Y205657D01*
X32783Y205000D01*
X32913Y204343D01*
X33162Y203971D01*
X32729Y203538D01*
X32657Y203587D01*
X32000Y203717D01*
X31343Y203587D01*
X30786Y203214D01*
X30413Y202657D01*
X30283Y202000D01*
X29770Y201502D01*
X29343Y201417D01*
X28786Y201045D01*
X28414Y200488D01*
X28283Y199831D01*
X28355Y199468D01*
X28282Y199349D01*
X27657Y199087D01*
X27000Y199217D01*
X26343Y199087D01*
X25786Y198714D01*
X25414Y198157D01*
X25283Y197500D01*
X25354Y197142D01*
X24999Y196672D01*
X24413Y196673D01*
X21293Y199793D01*
X20929Y200036D01*
X20500Y200122D01*
X20500Y200122D01*
X13500D01*
X13500Y200122D01*
X13071Y200036D01*
X12707Y199793D01*
X11207Y198293D01*
X10964Y197929D01*
X10879Y197500D01*
X10879Y197500D01*
Y196850D01*
X10316D01*
Y193213D01*
X10016D01*
Y192031D01*
X12000D01*
Y191031D01*
X13000D01*
Y188850D01*
X13984D01*
Y188850D01*
X14016D01*
Y188850D01*
X15000D01*
Y191031D01*
X17000D01*
Y188850D01*
X17984D01*
Y190767D01*
X18539Y190997D01*
X19328Y190207D01*
X19328Y190207D01*
X19692Y189964D01*
X20121Y189878D01*
X20724D01*
X20786Y189786D01*
X21238Y189483D01*
X21233Y189000D01*
X21193Y188847D01*
X20569Y188431D01*
X20282Y188000D01*
X22000D01*
Y186000D01*
X20282D01*
X20413Y185804D01*
X20118Y185204D01*
X19583D01*
X19583Y185204D01*
X19153Y185119D01*
X18790Y184876D01*
X13207Y179293D01*
X12964Y178929D01*
X12878Y178500D01*
X12878Y178500D01*
Y170276D01*
X12786Y170214D01*
X12414Y169657D01*
X12283Y169000D01*
X12414Y168343D01*
X12786Y167786D01*
X13343Y167413D01*
X14000Y167283D01*
X14657Y167413D01*
X15214Y167786D01*
X15279Y167882D01*
X15879Y167700D01*
Y166465D01*
X15109Y165696D01*
X15000Y165717D01*
X14343Y165586D01*
X13786Y165214D01*
X13413Y164657D01*
X13283Y164000D01*
X13413Y163343D01*
X13786Y162786D01*
X14343Y162414D01*
X15000Y162283D01*
X15657Y162414D01*
X16214Y162786D01*
X16587Y163343D01*
X16717Y164000D01*
X16695Y164109D01*
X17793Y165207D01*
X17793Y165207D01*
X18036Y165571D01*
X18122Y166000D01*
X18122Y166000D01*
Y169688D01*
X18122Y169688D01*
X18036Y170118D01*
X17793Y170482D01*
X16932Y171342D01*
Y177725D01*
X20200Y180993D01*
X40558D01*
X40807Y180393D01*
X40207Y179793D01*
X39964Y179429D01*
X39878Y179000D01*
X39878Y179000D01*
Y167276D01*
X39786Y167214D01*
X39413Y166657D01*
X39283Y166000D01*
X39413Y165343D01*
X39786Y164786D01*
X40343Y164413D01*
X41000Y164283D01*
X41657Y164413D01*
X42214Y164786D01*
X42586Y165343D01*
X42717Y166000D01*
X42586Y166657D01*
X42214Y167214D01*
X42122Y167276D01*
Y176385D01*
X42359Y176887D01*
X44890D01*
Y167284D01*
X44786Y167214D01*
X44414Y166657D01*
X44283Y166000D01*
X44414Y165343D01*
X44786Y164786D01*
X45343Y164413D01*
X46000Y164283D01*
X46657Y164413D01*
X47214Y164786D01*
X47587Y165343D01*
X47717Y166000D01*
X47587Y166657D01*
X47214Y167214D01*
X47133Y167268D01*
Y176887D01*
X49665D01*
Y178855D01*
Y182792D01*
Y186898D01*
X54211D01*
X54286Y186786D01*
X54843Y186414D01*
X55500Y186283D01*
X56157Y186414D01*
X56714Y186786D01*
X57086Y187343D01*
X57217Y188000D01*
X57086Y188657D01*
X56714Y189214D01*
X56262Y189517D01*
X56267Y190000D01*
X56307Y190153D01*
X56931Y190569D01*
X57218Y191000D01*
X55500D01*
Y193000D01*
X57218D01*
X56931Y193431D01*
X56274Y193869D01*
X55632Y193997D01*
X55437Y194375D01*
X55395Y194609D01*
X55965Y195178D01*
X81835D01*
X82231Y194783D01*
X82065Y194378D01*
X81957Y194209D01*
X81343Y194087D01*
X80786Y193714D01*
X80414Y193157D01*
X80283Y192500D01*
X80414Y191843D01*
X80786Y191286D01*
X81343Y190913D01*
X82000Y190783D01*
X82109Y190805D01*
X83719Y189195D01*
X83719Y189195D01*
X84083Y188952D01*
X84512Y188867D01*
X84512Y188867D01*
X86941D01*
Y186429D01*
X87241D01*
Y184761D01*
Y180824D01*
Y176887D01*
X94547D01*
Y177056D01*
X95965D01*
X96147Y176456D01*
X95786Y176214D01*
X95414Y175657D01*
X95283Y175000D01*
X95414Y174343D01*
X95786Y173786D01*
X96343Y173414D01*
X97000Y173283D01*
X97657Y173414D01*
X98214Y173786D01*
X98276Y173878D01*
X108724D01*
X108786Y173786D01*
X109343Y173414D01*
X110000Y173283D01*
X110657Y173414D01*
X111214Y173786D01*
X111586Y174343D01*
X111717Y175000D01*
X111586Y175657D01*
X111214Y176214D01*
X110853Y176456D01*
X111035Y177056D01*
X117605D01*
X117786Y176786D01*
X117878Y176724D01*
Y174184D01*
X117213D01*
Y174484D01*
X116032D01*
Y172500D01*
Y170516D01*
X117213D01*
Y170816D01*
X120850D01*
Y174184D01*
X120122D01*
Y176724D01*
X120214Y176786D01*
X120587Y177343D01*
X120717Y178000D01*
X120587Y178657D01*
X120214Y179214D01*
X119657Y179587D01*
X119000Y179717D01*
X118565Y179631D01*
X118270Y180184D01*
X119391Y181305D01*
X119500Y181283D01*
X120157Y181413D01*
X120714Y181786D01*
X121087Y182343D01*
X121217Y183000D01*
X121087Y183657D01*
X120949Y183862D01*
X121214Y184547D01*
X121336Y184578D01*
X123879Y182036D01*
Y180424D01*
X122843D01*
Y169576D01*
X123879D01*
Y168965D01*
X123536Y168622D01*
X120818D01*
Y169184D01*
X117181D01*
Y169484D01*
X116000D01*
Y167500D01*
Y165516D01*
X117181D01*
Y165816D01*
X120818D01*
Y166378D01*
X124000D01*
X124000Y166378D01*
X124429Y166464D01*
X124793Y166707D01*
X125793Y167707D01*
X125793Y167707D01*
X126036Y168071D01*
X126122Y168500D01*
Y169576D01*
X127157D01*
Y180424D01*
X126122D01*
Y182500D01*
X126122Y182500D01*
X126036Y182929D01*
X125793Y183293D01*
X125793Y183293D01*
X122293Y186793D01*
X121929Y187036D01*
X121500Y187122D01*
X121500Y187122D01*
X119913D01*
X119726Y187659D01*
X119723Y187722D01*
X121352Y189350D01*
X122110D01*
X128878Y182581D01*
Y180424D01*
X127843D01*
Y169576D01*
X132157D01*
Y180424D01*
X131122D01*
Y183046D01*
X131122Y183046D01*
X131036Y183475D01*
X130793Y183839D01*
X130793Y183839D01*
X123426Y191206D01*
X123448Y191315D01*
X123426Y191424D01*
X126293Y194291D01*
X126293Y194291D01*
X126536Y194655D01*
X126622Y195084D01*
X126622Y195085D01*
Y196650D01*
X127184D01*
Y199987D01*
X127184Y200413D01*
X127184Y201013D01*
Y204349D01*
X126622D01*
Y205500D01*
X126622Y205500D01*
X126536Y205929D01*
X126293Y206293D01*
X126293Y206293D01*
X126122Y206465D01*
Y207724D01*
X126214Y207786D01*
X126586Y208343D01*
X126717Y209000D01*
X126586Y209657D01*
X126214Y210214D01*
X126122Y210276D01*
Y211224D01*
X128926Y214028D01*
X130957D01*
Y212481D01*
X135901D01*
Y217818D01*
X130957D01*
Y216271D01*
X128461D01*
X128032Y216186D01*
X127668Y215943D01*
X127668Y215943D01*
X124207Y212482D01*
X123964Y212118D01*
X123878Y211688D01*
X123878Y211688D01*
Y210276D01*
X123786Y210214D01*
X123414Y209657D01*
X123283Y209000D01*
X123414Y208343D01*
X123786Y207786D01*
X123878Y207724D01*
Y206000D01*
X123878Y206000D01*
X123964Y205571D01*
X124207Y205207D01*
X124379Y205035D01*
Y204349D01*
X123816D01*
Y201013D01*
X123816Y200587D01*
X123816Y199987D01*
Y196650D01*
X124379D01*
Y195549D01*
X121840Y193010D01*
X121731Y193032D01*
X121073Y192902D01*
X120516Y192529D01*
X120144Y191972D01*
X120013Y191315D01*
X120035Y191206D01*
X118451Y189622D01*
X116500D01*
X116500Y189622D01*
X116071Y189536D01*
X115707Y189293D01*
X115707Y189293D01*
X114482Y188068D01*
X113778Y188213D01*
X113725Y188344D01*
X115913Y190531D01*
X115815Y190629D01*
X115815Y191229D01*
X116793Y192207D01*
X116793Y192207D01*
X117036Y192571D01*
X117036Y192571D01*
X117070Y192743D01*
X117122Y193000D01*
X117122Y193000D01*
Y194224D01*
X117214Y194286D01*
X117587Y194843D01*
X117717Y195500D01*
X117587Y196157D01*
X117214Y196714D01*
X116657Y197087D01*
X116000Y197217D01*
X115343Y197087D01*
X114786Y196714D01*
X114724Y196622D01*
X112000D01*
X112000Y196622D01*
X111571Y196536D01*
X111207Y196293D01*
X111207Y196293D01*
X107298Y192384D01*
X106972Y192519D01*
Y192519D01*
X102091D01*
X102028Y192519D01*
X101684Y192976D01*
Y193024D01*
X102028Y193481D01*
X106972D01*
Y198031D01*
X102028D01*
Y197383D01*
X101787Y196877D01*
X101358Y196792D01*
X100994Y196549D01*
X100994Y196549D01*
X100295Y195850D01*
X98316D01*
Y195060D01*
X98039Y195005D01*
X97675Y194762D01*
X97675Y194762D01*
X95992Y193078D01*
X94547D01*
Y196572D01*
Y200678D01*
X103799D01*
X103799Y200678D01*
X104228Y200763D01*
X104592Y201006D01*
X106891Y203305D01*
X107000Y203283D01*
X107657Y203414D01*
X108214Y203786D01*
X108587Y204343D01*
X108717Y205000D01*
X108587Y205657D01*
X108214Y206214D01*
X107657Y206587D01*
X107000Y206717D01*
X106619Y206641D01*
X106141Y207119D01*
X106217Y207500D01*
X106196Y207609D01*
X118793Y220207D01*
X118793Y220207D01*
X119036Y220571D01*
X119122Y221000D01*
X119122Y221000D01*
Y222724D01*
X119214Y222786D01*
X119587Y223343D01*
X119717Y224000D01*
X119587Y224657D01*
X119214Y225214D01*
X118657Y225587D01*
X118000Y225717D01*
X117343Y225587D01*
X116786Y225214D01*
X116214D01*
X115657Y225587D01*
X115000Y225717D01*
X114343Y225587D01*
X113786Y225214D01*
X113414Y224657D01*
X113283Y224000D01*
X113414Y223343D01*
X113551Y223137D01*
X102109Y211696D01*
X102000Y211717D01*
X101343Y211587D01*
X100903Y211293D01*
X100491Y211625D01*
X100438Y211692D01*
X100520Y212100D01*
X100520Y212100D01*
Y223724D01*
X100612Y223786D01*
X100985Y224343D01*
X101115Y225000D01*
X100985Y225657D01*
X100612Y226214D01*
X100055Y226587D01*
X99398Y226717D01*
X98741Y226587D01*
X98184Y226214D01*
X97811Y225657D01*
X97681Y225000D01*
X97811Y224343D01*
X98184Y223786D01*
X98276Y223724D01*
Y212564D01*
X95011Y209299D01*
X94546Y208995D01*
Y208995D01*
X94546Y208995D01*
X87241D01*
Y206414D01*
Y202477D01*
Y198540D01*
Y193794D01*
X86641Y193545D01*
X83093Y197093D01*
X82729Y197336D01*
X82300Y197422D01*
X82300Y197422D01*
X55500D01*
X55071Y197336D01*
X54707Y197093D01*
X54707Y197093D01*
X50692Y193078D01*
X49665D01*
Y196572D01*
Y200509D01*
Y204446D01*
Y208995D01*
X42359D01*
X41856Y209230D01*
X41195Y209891D01*
X41217Y210000D01*
X41086Y210657D01*
X40714Y211214D01*
X40622Y211276D01*
Y216468D01*
X40536Y216898D01*
X40808Y217570D01*
X41130Y217786D01*
X41502Y218343D01*
X41633Y219000D01*
X41625Y219039D01*
X42465Y219879D01*
X43290D01*
X43472Y219279D01*
X43106Y219033D01*
X43056Y218984D01*
X42997Y218945D01*
X42449Y218396D01*
X42410Y218338D01*
X42360Y218288D01*
X41930Y217643D01*
X41903Y217578D01*
X41864Y217520D01*
X41567Y216803D01*
X41553Y216734D01*
X41526Y216670D01*
X41375Y215909D01*
Y215839D01*
X41361Y215770D01*
Y214994D01*
X41375Y214925D01*
Y214855D01*
X41526Y214094D01*
X41553Y214029D01*
X41567Y213960D01*
X41864Y213244D01*
X41903Y213185D01*
X41930Y213121D01*
X42360Y212476D01*
X42410Y212426D01*
X42449Y212368D01*
X42997Y211819D01*
X43056Y211780D01*
X43106Y211730D01*
X43750Y211299D01*
X43815Y211273D01*
X43874Y211234D01*
X44590Y210937D01*
X44659Y210923D01*
X44724Y210896D01*
X45485Y210745D01*
X45555D01*
X45624Y210731D01*
X46400D01*
X46468Y210745D01*
X46539D01*
X47299Y210896D01*
X47364Y210923D01*
X47433Y210937D01*
X48150Y211234D01*
X48208Y211273D01*
X48273Y211299D01*
X48918Y211730D01*
X48968Y211780D01*
X49026Y211819D01*
X49575Y212368D01*
X49614Y212426D01*
X49663Y212476D01*
X50094Y213121D01*
X50121Y213185D01*
X50160Y213244D01*
X50457Y213960D01*
X50471Y214029D01*
X50498Y214094D01*
X50649Y214855D01*
Y214925D01*
X50662Y214994D01*
Y215770D01*
X50649Y215839D01*
Y215909D01*
X50498Y216670D01*
X50471Y216735D01*
X50457Y216803D01*
X50160Y217520D01*
X50121Y217578D01*
X50094Y217643D01*
X49663Y218288D01*
X49614Y218338D01*
X49575Y218396D01*
X49026Y218945D01*
X48968Y218984D01*
X48918Y219033D01*
X48551Y219279D01*
X48733Y219879D01*
X52535D01*
X52567Y219846D01*
Y219035D01*
X52398D01*
Y211729D01*
X61941D01*
Y211429D01*
X62532D01*
Y211729D01*
X62854D01*
Y215382D01*
X64209D01*
Y211729D01*
X64531D01*
Y211429D01*
X65122D01*
Y211729D01*
X79658D01*
Y211429D01*
X80248D01*
Y211729D01*
X80570D01*
Y215382D01*
X81926D01*
Y211729D01*
X82248D01*
Y211429D01*
X82839D01*
Y211729D01*
X84507D01*
Y219035D01*
X82839D01*
Y219335D01*
X80401D01*
Y221815D01*
X84402Y225816D01*
X88316D01*
Y225181D01*
X88016D01*
Y224000D01*
X90000D01*
Y223000D01*
X91000D01*
Y220819D01*
X91463D01*
X91984Y220819D01*
X92012Y220822D01*
X92131Y220226D01*
X92569Y219569D01*
X93000Y219282D01*
Y221000D01*
Y222718D01*
X92584Y222441D01*
X92491Y222458D01*
X91984Y222635D01*
Y225181D01*
X92469Y225459D01*
X95937D01*
X96503Y225571D01*
X96982Y225892D01*
X99045Y227955D01*
X99366Y228434D01*
X99478Y229000D01*
Y232181D01*
X99586Y232343D01*
X99717Y233000D01*
X99586Y233657D01*
X99214Y234214D01*
X98992Y234363D01*
X99174Y234963D01*
X149451D01*
X150878Y233535D01*
Y224276D01*
X150786Y224214D01*
X150414Y223657D01*
X150283Y223000D01*
X150414Y222343D01*
X150786Y221786D01*
X151343Y221413D01*
X152000Y221283D01*
X152657Y221413D01*
X153214Y221786D01*
X153586Y222343D01*
X153717Y223000D01*
X153586Y223657D01*
X153214Y224214D01*
X153122Y224276D01*
Y234000D01*
X153036Y234429D01*
X152793Y234793D01*
X152793Y234793D01*
X150709Y236877D01*
X150345Y237120D01*
X149916Y237206D01*
X149916Y237206D01*
X80380D01*
X72317Y245269D01*
X72566Y245869D01*
X75824D01*
X78486Y243207D01*
X78486Y243207D01*
X78850Y242964D01*
X79280Y242879D01*
X108724D01*
X108786Y242786D01*
X109343Y242413D01*
X110000Y242283D01*
X110657Y242413D01*
X111214Y242786D01*
X111586Y243343D01*
X111717Y244000D01*
X111586Y244657D01*
X111214Y245214D01*
X111132Y245269D01*
X111314Y245869D01*
X153195D01*
X153195Y245869D01*
X153625Y245954D01*
X153988Y246198D01*
X157359Y249568D01*
X157468Y249547D01*
X158126Y249677D01*
X158683Y250049D01*
X159055Y250607D01*
X159186Y251264D01*
X159055Y251921D01*
X158683Y252478D01*
X158126Y252850D01*
X157897Y252896D01*
X157845Y253010D01*
X158126Y253677D01*
X158683Y254049D01*
X159055Y254607D01*
X159186Y255264D01*
X159055Y255921D01*
X158683Y256478D01*
X158126Y256850D01*
X157468Y256981D01*
X156811Y256850D01*
X156254Y256478D01*
X156192Y256385D01*
X155587D01*
X155338Y256985D01*
X156293Y257940D01*
X156293Y257940D01*
X156536Y258304D01*
X156622Y258733D01*
Y260579D01*
X157256D01*
Y260279D01*
X158437D01*
Y262264D01*
Y264248D01*
X157256D01*
Y263948D01*
X156622D01*
Y267435D01*
X156536Y267864D01*
X156293Y268228D01*
X156293Y268228D01*
X155673Y268848D01*
X155705Y269012D01*
X155575Y269669D01*
X155202Y270226D01*
X154645Y270598D01*
X153988Y270729D01*
X153331Y270598D01*
X152774Y270226D01*
X152402Y269669D01*
X152271Y269012D01*
X152402Y268355D01*
X152774Y267798D01*
X153331Y267425D01*
X153988Y267295D01*
X154378Y266863D01*
Y263948D01*
X153619D01*
Y260579D01*
X154378D01*
Y259198D01*
X153535Y258354D01*
X151913D01*
X151862Y258344D01*
X151224D01*
X150874Y258274D01*
X150578Y258076D01*
X150380Y257779D01*
X150310Y257429D01*
Y257035D01*
X150380Y256685D01*
X150530Y256248D01*
X150380Y255810D01*
X150310Y255461D01*
Y255067D01*
X150380Y254717D01*
X150530Y254279D01*
X150380Y253842D01*
X150310Y253492D01*
Y253098D01*
X150380Y252748D01*
X150578Y252452D01*
X150874Y252254D01*
X151224Y252184D01*
X151862D01*
X151913Y252174D01*
X154973D01*
X155503Y251643D01*
Y250885D01*
X152731Y248112D01*
X139752D01*
X139503Y248712D01*
X140359Y249568D01*
X140469Y249547D01*
X141126Y249677D01*
X141683Y250049D01*
X142055Y250607D01*
X142186Y251264D01*
X142164Y251373D01*
X142965Y252174D01*
X145024D01*
X145075Y252184D01*
X145713D01*
X146063Y252254D01*
X146359Y252452D01*
X146557Y252748D01*
X146627Y253098D01*
Y253492D01*
X146557Y253842D01*
X146396Y254084D01*
X146575Y254204D01*
X146615Y254264D01*
X146172D01*
X146063Y254337D01*
X145713Y254407D01*
X145075D01*
X145024Y254417D01*
Y256111D01*
X145075Y256121D01*
X145713D01*
X146063Y256190D01*
X146172Y256264D01*
X146615D01*
X146575Y256324D01*
X146396Y256444D01*
X146557Y256685D01*
X146627Y257035D01*
Y257429D01*
X146557Y257779D01*
X146359Y258076D01*
X146063Y258274D01*
X145713Y258344D01*
X145075D01*
X145024Y258354D01*
X145009D01*
X143634Y259728D01*
Y262264D01*
X143549Y262693D01*
X143306Y263057D01*
X143306Y263057D01*
X142306Y264057D01*
X141942Y264300D01*
X141513Y264385D01*
X141318Y264922D01*
Y264948D01*
X137681D01*
Y265248D01*
X136500D01*
Y263264D01*
X135500D01*
Y262264D01*
X133319D01*
Y261280D01*
X133530Y260985D01*
X133339Y260498D01*
X133226Y260385D01*
X131745D01*
X131683Y260478D01*
X131230Y260780D01*
X131235Y261264D01*
X131276Y261417D01*
X131899Y261833D01*
X132187Y262264D01*
X128750D01*
X129038Y261833D01*
X129661Y261417D01*
X129702Y261264D01*
X129707Y260780D01*
X129254Y260478D01*
X128882Y259921D01*
X128751Y259264D01*
X128882Y258607D01*
X129254Y258050D01*
X129811Y257677D01*
X130468Y257546D01*
X131126Y257677D01*
X131683Y258050D01*
X131745Y258142D01*
X133650D01*
Y257579D01*
X137199Y257579D01*
X137521Y257078D01*
X137512Y257011D01*
X137038Y256694D01*
X136750Y256264D01*
X140187D01*
X139899Y256694D01*
X139472Y256979D01*
X139654Y257579D01*
X141350D01*
Y258142D01*
X142048D01*
X143276Y256914D01*
X143472Y256324D01*
X143207Y255928D01*
X143114Y255461D01*
Y255067D01*
X143124Y255017D01*
X142663Y254417D01*
X142500D01*
X142071Y254331D01*
X141707Y254088D01*
X141707Y254088D01*
X140578Y252959D01*
X140469Y252981D01*
X139811Y252850D01*
X139254Y252478D01*
X138882Y251921D01*
X138751Y251264D01*
X138773Y251154D01*
X137815Y250196D01*
X115401D01*
X115339Y250289D01*
X114781Y250661D01*
X114124Y250792D01*
X114015Y250770D01*
X111854Y252931D01*
X111490Y253174D01*
X111061Y253259D01*
X111061Y253259D01*
X109840D01*
X109415Y253684D01*
X109415Y254560D01*
X109840Y254985D01*
X113190D01*
Y254225D01*
X116559D01*
Y254985D01*
X117753D01*
X119372Y253365D01*
X119350Y253256D01*
X119481Y252599D01*
X119853Y252042D01*
X120410Y251669D01*
X121068Y251539D01*
X121725Y251669D01*
X122282Y252042D01*
X122654Y252599D01*
X122785Y253256D01*
X122654Y253913D01*
X122282Y254470D01*
X121725Y254842D01*
X121068Y254973D01*
X120958Y254951D01*
X119010Y256899D01*
X118646Y257142D01*
X118217Y257228D01*
X118217Y257228D01*
X116559D01*
Y257862D01*
X116858D01*
Y259043D01*
X112890D01*
Y257862D01*
X113190D01*
Y257228D01*
X109415D01*
Y257831D01*
X109815D01*
Y259012D01*
X106650D01*
X103485D01*
Y257831D01*
X103885D01*
Y254519D01*
X103885Y254097D01*
X103885Y253497D01*
Y250357D01*
X109415D01*
Y251016D01*
X110597D01*
X112429Y249184D01*
X112407Y249075D01*
X112479Y248712D01*
X112075Y248112D01*
X94424D01*
X92339Y250197D01*
Y250862D01*
X92432Y250923D01*
X92494Y251016D01*
X95223D01*
Y250357D01*
X100754D01*
Y253497D01*
X100754Y253919D01*
X100754Y254519D01*
Y257631D01*
X100754Y258053D01*
X100754Y258653D01*
Y261793D01*
X99110D01*
Y263947D01*
X99110Y263947D01*
X99025Y264376D01*
X98782Y264740D01*
X98782Y264740D01*
X96349Y267173D01*
X96382Y267767D01*
X96428Y267798D01*
X96490Y267890D01*
X97993D01*
Y267328D01*
X101630D01*
Y267028D01*
X102811D01*
Y269012D01*
Y270996D01*
X101630D01*
Y270696D01*
X97993D01*
Y270133D01*
X96490D01*
X96428Y270226D01*
X95871Y270598D01*
X95214Y270729D01*
X94557Y270598D01*
X94000Y270226D01*
X93628Y269669D01*
X93497Y269012D01*
X93628Y268355D01*
X94000Y267798D01*
X94093Y267736D01*
Y266721D01*
X94093Y266721D01*
X94178Y266292D01*
X94421Y265928D01*
X96867Y263482D01*
Y261793D01*
X95223D01*
Y258653D01*
X95223Y258231D01*
Y257873D01*
X94799Y257448D01*
X92339D01*
Y260294D01*
X92339Y260295D01*
X92254Y260724D01*
X92011Y261087D01*
X92011Y261088D01*
X91156Y261943D01*
X90792Y262186D01*
X90363Y262271D01*
X90363Y262271D01*
X88598D01*
Y262834D01*
X85261D01*
X84836Y262834D01*
X84236Y262834D01*
X80899D01*
Y262271D01*
X79332D01*
X79270Y262364D01*
X78713Y262736D01*
X78055Y262867D01*
X77398Y262736D01*
X76841Y262364D01*
X76469Y261807D01*
X76338Y261150D01*
X76469Y260492D01*
X76841Y259935D01*
X77398Y259563D01*
X78055Y259432D01*
X78713Y259563D01*
X79270Y259935D01*
X79332Y260028D01*
X80899D01*
Y259465D01*
X84236D01*
X84661Y259465D01*
X85261Y259465D01*
X88598D01*
Y260028D01*
X89898D01*
X90096Y259830D01*
Y257448D01*
X88598D01*
Y258011D01*
X84961D01*
Y258311D01*
X83780D01*
Y256327D01*
Y254343D01*
X84961D01*
Y254643D01*
X88598D01*
Y255205D01*
X94799D01*
X95223Y254781D01*
X95223Y254097D01*
Y253684D01*
X94799Y253259D01*
X92494D01*
X92432Y253352D01*
X91875Y253724D01*
X91218Y253855D01*
X90561Y253724D01*
X90003Y253352D01*
X89631Y252795D01*
X89500Y252138D01*
X89631Y251481D01*
X90003Y250923D01*
X90096Y250862D01*
Y250197D01*
X90096Y250196D01*
X51284D01*
X49464Y252016D01*
Y252850D01*
X49557Y252912D01*
X49619Y253004D01*
X51243D01*
X51250Y252967D01*
X51405Y252735D01*
X51636Y252581D01*
X51910Y252526D01*
X52708D01*
X52795Y252509D01*
X54370D01*
X54842Y252603D01*
X55442Y252442D01*
Y252442D01*
X57157D01*
X57323Y252409D01*
X57489Y252442D01*
X61094D01*
X61260Y252409D01*
X61426Y252442D01*
X63141D01*
X63141Y252442D01*
X63741Y252603D01*
X64213Y252509D01*
X65787D01*
X65875Y252526D01*
X66673D01*
X66946Y252581D01*
X67178Y252735D01*
X67333Y252967D01*
X67340Y253004D01*
X70098D01*
X70160Y252912D01*
X70717Y252539D01*
X71374Y252409D01*
X72031Y252539D01*
X72588Y252912D01*
X72961Y253469D01*
X73092Y254126D01*
X72961Y254783D01*
X72588Y255340D01*
X72031Y255713D01*
X71696Y255779D01*
X71649Y255789D01*
Y256400D01*
X71696Y256410D01*
X72031Y256476D01*
X72588Y256849D01*
X72961Y257406D01*
X73092Y258063D01*
X72961Y258720D01*
X72588Y259277D01*
X72496Y259339D01*
Y264709D01*
X72496Y264709D01*
X72410Y265139D01*
X72167Y265503D01*
X72167Y265503D01*
X68814Y268856D01*
X68450Y269099D01*
X68021Y269185D01*
X68021Y269184D01*
X63192D01*
Y269747D01*
X59555D01*
Y270047D01*
X58374D01*
Y268063D01*
Y266079D01*
X59555D01*
Y266379D01*
X63192D01*
Y266941D01*
X67556D01*
X70253Y264245D01*
Y259339D01*
X70160Y259277D01*
X70098Y259185D01*
X67340D01*
X67333Y259222D01*
X67178Y259454D01*
X66946Y259608D01*
X66673Y259663D01*
X65875D01*
X65787Y259680D01*
X64213D01*
X64150Y259667D01*
X63685Y260032D01*
X64150Y260396D01*
X64213Y260383D01*
X65787D01*
X65875Y260401D01*
X66673D01*
X66946Y260455D01*
X67178Y260610D01*
X67333Y260841D01*
X67387Y261114D01*
Y261913D01*
X67404Y262000D01*
X67387Y262087D01*
Y262886D01*
X67333Y263159D01*
X67178Y263390D01*
X66946Y263545D01*
X66673Y263600D01*
X65874D01*
X65787Y263617D01*
X64213D01*
X63741Y263523D01*
X63141Y263684D01*
Y263684D01*
X61426D01*
X61260Y263717D01*
X61094Y263684D01*
X57489D01*
X57323Y263717D01*
X57157Y263684D01*
X55442D01*
X55442Y263684D01*
X54842Y263523D01*
X54370Y263617D01*
X52795D01*
X52708Y263600D01*
X51910D01*
X51636Y263545D01*
X51405Y263390D01*
X51250Y263159D01*
X51196Y262886D01*
Y262087D01*
X51178Y262000D01*
X51196Y261913D01*
Y261114D01*
X51250Y260841D01*
X51405Y260610D01*
X51636Y260455D01*
X51909Y260401D01*
X52014Y260009D01*
X52001Y259801D01*
X51436Y259423D01*
X51019Y258799D01*
X50938Y258393D01*
X50925Y258327D01*
X50313D01*
X50300Y258393D01*
X50212Y258837D01*
X49773Y259494D01*
X49343Y259781D01*
Y258063D01*
X48343D01*
Y257063D01*
X46624D01*
X46912Y256632D01*
X47488Y256247D01*
X47502Y256211D01*
X47537Y255875D01*
X47508Y255594D01*
X47128Y255340D01*
X47067Y255247D01*
X41594D01*
X39951Y256891D01*
X39973Y257000D01*
X39843Y257657D01*
X39470Y258214D01*
X38913Y258587D01*
X38684Y258632D01*
X38633Y258746D01*
X38913Y259414D01*
X39470Y259786D01*
X39843Y260343D01*
X39973Y261000D01*
X39898Y261377D01*
X40033Y261603D01*
X40299Y261920D01*
X40350Y261949D01*
X40999Y262078D01*
X41655Y262516D01*
X41943Y262947D01*
X40224D01*
Y264947D01*
X41943D01*
X41655Y265377D01*
X41598Y265416D01*
X41780Y266016D01*
X42406D01*
Y267000D01*
X40224D01*
Y268000D01*
X39224D01*
Y269984D01*
X38043D01*
Y269684D01*
X37409D01*
Y271694D01*
X37546Y271786D01*
X37608Y271879D01*
X69535D01*
X72805Y268609D01*
X72783Y268500D01*
X72913Y267843D01*
X73286Y267286D01*
X73843Y266913D01*
X74500Y266783D01*
X75157Y266913D01*
X75714Y267286D01*
X76087Y267843D01*
X76217Y268500D01*
X76087Y269157D01*
X75714Y269714D01*
X75157Y270087D01*
X74500Y270217D01*
X74391Y270195D01*
X70793Y273793D01*
X70429Y274036D01*
X70000Y274122D01*
X70000Y274121D01*
X37608D01*
X37546Y274214D01*
X36989Y274587D01*
X36331Y274717D01*
D02*
G37*
G36*
X56374Y267063D02*
X55193D01*
Y266079D01*
X56374D01*
Y267063D01*
D02*
G37*
G36*
X28256Y273718D02*
Y272000D01*
X27256D01*
Y271000D01*
X25538D01*
X25815Y270584D01*
X25798Y270491D01*
X25621Y269984D01*
X25106D01*
Y269000D01*
X27287D01*
Y268000D01*
X28287D01*
Y266016D01*
X29469D01*
Y266316D01*
X33105D01*
Y269684D01*
X32346D01*
Y270703D01*
X32470Y270786D01*
X32842Y271343D01*
X32973Y272000D01*
X32842Y272657D01*
X32470Y273214D01*
X31913Y273587D01*
X31256Y273717D01*
X30599Y273587D01*
X30042Y273214D01*
X29739Y272762D01*
X29256Y272767D01*
X29103Y272807D01*
X28686Y273431D01*
X28256Y273718D01*
D02*
G37*
G36*
X26287Y267000D02*
X25106D01*
Y266016D01*
X26287D01*
Y267000D01*
D02*
G37*
G36*
X131468Y264982D02*
Y264264D01*
X132187D01*
X131899Y264694D01*
X131468Y264982D01*
D02*
G37*
G36*
X129469D02*
X129038Y264694D01*
X128750Y264264D01*
X129469D01*
Y264982D01*
D02*
G37*
G36*
X134500Y265248D02*
X133319D01*
Y264264D01*
X134500D01*
Y265248D01*
D02*
G37*
G36*
X161618Y264248D02*
X160437D01*
Y263264D01*
X161618D01*
Y264248D01*
D02*
G37*
G36*
X116858Y262224D02*
X115874D01*
Y261043D01*
X116858D01*
Y262224D01*
D02*
G37*
G36*
X113874D02*
X112890D01*
Y261043D01*
X113874D01*
Y262224D01*
D02*
G37*
G36*
X109815Y262193D02*
X107650D01*
Y261012D01*
X109815D01*
Y262193D01*
D02*
G37*
G36*
X105650D02*
X103485D01*
Y261012D01*
X105650D01*
Y262193D01*
D02*
G37*
G36*
X161618Y261264D02*
X160437D01*
Y260279D01*
X161618D01*
Y261264D01*
D02*
G37*
G36*
X147468Y267982D02*
Y266264D01*
X146468D01*
Y265264D01*
X144750D01*
X145028Y264848D01*
X145011Y264755D01*
X144834Y264248D01*
X144319D01*
Y263264D01*
X146500D01*
Y262264D01*
X147500D01*
Y260279D01*
X148681D01*
Y260579D01*
X152318D01*
Y263948D01*
X151559D01*
Y264967D01*
X151683Y265050D01*
X152055Y265607D01*
X152186Y266264D01*
X152055Y266921D01*
X151683Y267478D01*
X151126Y267850D01*
X150469Y267981D01*
X149811Y267850D01*
X149254Y267478D01*
X148952Y267025D01*
X148468Y267031D01*
X148316Y267071D01*
X147899Y267694D01*
X147468Y267982D01*
D02*
G37*
G36*
X145500Y261264D02*
X144319D01*
Y260279D01*
X145500D01*
Y261264D01*
D02*
G37*
G36*
X20974Y260000D02*
X20256D01*
Y259282D01*
X20686Y259569D01*
X20974Y260000D01*
D02*
G37*
G36*
X18256D02*
X17538D01*
X17825Y259569D01*
X18256Y259282D01*
Y260000D01*
D02*
G37*
G36*
X47343Y259781D02*
X46912Y259494D01*
X46624Y259063D01*
X47343D01*
Y259781D01*
D02*
G37*
G36*
X77044Y258045D02*
X76613Y257757D01*
X76325Y257327D01*
X77044D01*
Y258045D01*
D02*
G37*
G36*
X81780Y258311D02*
X80599D01*
Y256728D01*
X79999Y256669D01*
X79913Y257101D01*
X79474Y257757D01*
X79044Y258045D01*
Y256327D01*
Y254608D01*
X79474Y254896D01*
X79913Y255553D01*
X79999Y255985D01*
X80599Y255926D01*
Y254343D01*
X81780D01*
Y256327D01*
Y258311D01*
D02*
G37*
G36*
X77044Y255327D02*
X76325D01*
X76613Y254896D01*
X77044Y254608D01*
Y255327D01*
D02*
G37*
G36*
X140187Y254264D02*
X139469D01*
Y253545D01*
X139899Y253833D01*
X140187Y254264D01*
D02*
G37*
G36*
X137469D02*
X136750D01*
X137038Y253833D01*
X137469Y253545D01*
Y254264D01*
D02*
G37*
G36*
X39653Y243653D02*
X32347D01*
Y236347D01*
X39653D01*
Y243653D01*
D02*
G37*
G36*
X23018Y230400D02*
X22300D01*
Y229682D01*
X22731Y229969D01*
X23018Y230400D01*
D02*
G37*
G36*
X95000Y222718D02*
Y222000D01*
X95718D01*
X95431Y222431D01*
X95000Y222718D01*
D02*
G37*
G36*
X89000Y222000D02*
X88016D01*
Y220819D01*
X89000D01*
Y222000D01*
D02*
G37*
G36*
X95718Y220000D02*
X95000D01*
Y219282D01*
X95431Y219569D01*
X95718Y220000D01*
D02*
G37*
G36*
X31543Y220818D02*
X26599D01*
Y215481D01*
X31543D01*
Y220818D01*
D02*
G37*
G36*
X15401Y214519D02*
X10458D01*
Y212972D01*
X6262D01*
X6214Y213043D01*
X5657Y213415D01*
X5000Y213546D01*
X4343Y213415D01*
X3786Y213043D01*
X3413Y212486D01*
X3283Y211829D01*
X3413Y211172D01*
X3786Y210615D01*
X4343Y210242D01*
X5000Y210112D01*
X5657Y210242D01*
X6214Y210615D01*
X6291Y210729D01*
X10458D01*
Y209182D01*
X15401D01*
Y214519D01*
D02*
G37*
G36*
X152042Y217818D02*
X147099D01*
Y212481D01*
X152042D01*
Y217818D01*
D02*
G37*
G36*
X31543Y214519D02*
X26599D01*
Y209182D01*
X31543D01*
Y214519D01*
D02*
G37*
G36*
X135901Y211519D02*
X130957D01*
Y206182D01*
X135901D01*
Y211519D01*
D02*
G37*
G36*
X136650Y200484D02*
X135468D01*
Y199500D01*
X136650D01*
Y200484D01*
D02*
G37*
G36*
X142000Y198218D02*
Y197500D01*
X142718D01*
X142431Y197931D01*
X142000Y198218D01*
D02*
G37*
G36*
X140000D02*
X139569Y197931D01*
X139282Y197500D01*
X140000D01*
Y198218D01*
D02*
G37*
G36*
X136650Y197500D02*
X135468D01*
Y196516D01*
X136650D01*
Y197500D01*
D02*
G37*
G36*
X133468Y200484D02*
X132287D01*
Y200184D01*
X128650D01*
Y196816D01*
X129410D01*
Y195297D01*
X129286Y195214D01*
X128913Y194657D01*
X128783Y194000D01*
X128913Y193343D01*
X129286Y192786D01*
X129843Y192413D01*
X130500Y192283D01*
X130609Y192305D01*
X131230Y191684D01*
X130935Y191131D01*
X130500Y191217D01*
X129843Y191087D01*
X129286Y190714D01*
X128913Y190157D01*
X128783Y189500D01*
X128913Y188843D01*
X129286Y188286D01*
X129843Y187914D01*
X130500Y187783D01*
X130609Y187805D01*
X133879Y184536D01*
Y180424D01*
X132843D01*
Y169576D01*
X137157D01*
Y180424D01*
X136122D01*
Y185000D01*
X136122Y185000D01*
X136036Y185429D01*
X135793Y185793D01*
X135793Y185793D01*
X132202Y189384D01*
X132203Y189427D01*
X132217Y189500D01*
X132206Y189555D01*
X132216Y189910D01*
X132737Y190177D01*
X138879Y184036D01*
Y180424D01*
X137843D01*
Y169576D01*
X142157D01*
Y180424D01*
X141122D01*
Y184500D01*
X141122Y184500D01*
X141036Y184929D01*
X140793Y185293D01*
X140793Y185293D01*
X132196Y193891D01*
X132217Y194000D01*
X132087Y194657D01*
X131714Y195214D01*
X131653Y195255D01*
Y196816D01*
X132287D01*
Y196516D01*
X133468D01*
Y198500D01*
Y200484D01*
D02*
G37*
G36*
X142718Y195500D02*
X142000D01*
Y194782D01*
X142431Y195070D01*
X142718Y195500D01*
D02*
G37*
G36*
X140000D02*
X139282D01*
X139569Y195070D01*
X140000Y194782D01*
Y195500D01*
D02*
G37*
G36*
X146031Y192500D02*
X144850D01*
Y191516D01*
X146031D01*
Y192500D01*
D02*
G37*
G36*
X152042Y211519D02*
X147099D01*
Y206182D01*
X148449D01*
Y203965D01*
X146238Y201754D01*
X145995Y201390D01*
X145910Y200961D01*
X145910Y200961D01*
Y199184D01*
X145150D01*
X145150Y195960D01*
X144850Y195484D01*
X144850Y195340D01*
Y194500D01*
X147031D01*
Y193500D01*
X148031D01*
Y191516D01*
X149213D01*
Y191816D01*
X149847D01*
Y191109D01*
X149423Y190684D01*
X149087D01*
X148487Y190684D01*
X145150D01*
Y190122D01*
X142776D01*
X142714Y190214D01*
X142157Y190587D01*
X141500Y190717D01*
X140843Y190587D01*
X140286Y190214D01*
X139913Y189657D01*
X139783Y189000D01*
X139913Y188343D01*
X140286Y187786D01*
X140843Y187414D01*
X141500Y187283D01*
X142157Y187414D01*
X142714Y187786D01*
X142776Y187879D01*
X145150D01*
Y187316D01*
X148487D01*
X148913Y187316D01*
X149513Y187316D01*
X150378D01*
Y176594D01*
X150343Y176586D01*
X149786Y176214D01*
X149724Y176122D01*
X147157D01*
Y180424D01*
X142843D01*
Y169576D01*
X147157D01*
Y173879D01*
X149724D01*
X149786Y173786D01*
X150343Y173414D01*
X151000Y173283D01*
X151657Y173414D01*
X152214Y173786D01*
X152586Y174343D01*
X152717Y175000D01*
X152622Y175481D01*
Y187316D01*
X152850D01*
Y190684D01*
X152090D01*
Y191816D01*
X152850D01*
Y195184D01*
X152090D01*
Y195816D01*
X152850D01*
Y199184D01*
X149513D01*
X149087Y199184D01*
X148577Y199184D01*
X148153Y199609D01*
Y200496D01*
X150364Y202707D01*
X150364Y202707D01*
X150607Y203071D01*
X150692Y203500D01*
Y206182D01*
X152042D01*
Y211519D01*
D02*
G37*
G36*
X11000Y190031D02*
X10016D01*
Y188850D01*
X11000D01*
Y190031D01*
D02*
G37*
G36*
X83000Y186718D02*
Y186000D01*
X83718D01*
X83431Y186431D01*
X83000Y186718D01*
D02*
G37*
G36*
X81000D02*
X80569Y186431D01*
X80282Y186000D01*
X81000D01*
Y186718D01*
D02*
G37*
G36*
X83718Y184000D02*
X83000D01*
Y183282D01*
X83431Y183570D01*
X83718Y184000D01*
D02*
G37*
G36*
X81000D02*
X80282D01*
X80569Y183570D01*
X81000Y183282D01*
Y184000D01*
D02*
G37*
G36*
X75500Y181718D02*
Y181000D01*
X76218D01*
X75931Y181431D01*
X75500Y181718D01*
D02*
G37*
G36*
X73500D02*
X73070Y181431D01*
X72782Y181000D01*
X73500D01*
Y181718D01*
D02*
G37*
G36*
X76218Y179000D02*
X75500D01*
Y178282D01*
X75931Y178569D01*
X76218Y179000D01*
D02*
G37*
G36*
X73500D02*
X72782D01*
X73070Y178569D01*
X73500Y178282D01*
Y179000D01*
D02*
G37*
G36*
X91281Y175151D02*
X90506D01*
X90437Y175137D01*
X90367D01*
X89606Y174986D01*
X89541Y174959D01*
X89472Y174945D01*
X88756Y174648D01*
X88697Y174609D01*
X88632Y174582D01*
X87988Y174152D01*
X87938Y174102D01*
X87879Y174063D01*
X87331Y173514D01*
X87292Y173456D01*
X87242Y173406D01*
X86811Y172761D01*
X86784Y172696D01*
X86745Y172638D01*
X86449Y171922D01*
X86435Y171853D01*
X86408Y171788D01*
X86257Y171027D01*
Y170957D01*
X86243Y170888D01*
Y170112D01*
X86257Y170043D01*
Y169973D01*
X86408Y169212D01*
X86435Y169147D01*
X86449Y169079D01*
X86745Y168362D01*
X86784Y168304D01*
X86811Y168239D01*
X87242Y167594D01*
X87292Y167544D01*
X87331Y167486D01*
X87879Y166937D01*
X87938Y166898D01*
X87988Y166849D01*
X88632Y166418D01*
X88697Y166391D01*
X88756Y166352D01*
X89472Y166055D01*
X89541Y166041D01*
X89606Y166014D01*
X90367Y165863D01*
X90437D01*
X90506Y165849D01*
X91281D01*
X91350Y165863D01*
X91421D01*
X92181Y166014D01*
X92246Y166041D01*
X92315Y166055D01*
X93032Y166352D01*
X93090Y166391D01*
X93155Y166418D01*
X93800Y166849D01*
X93850Y166898D01*
X93908Y166937D01*
X94456Y167486D01*
X94495Y167544D01*
X94545Y167594D01*
X94976Y168239D01*
X95003Y168304D01*
X95042Y168362D01*
X95339Y169079D01*
X95353Y169147D01*
X95379Y169212D01*
X95531Y169973D01*
Y170043D01*
X95544Y170112D01*
Y170888D01*
X95531Y170957D01*
Y171027D01*
X95379Y171788D01*
X95353Y171853D01*
X95339Y171922D01*
X95042Y172638D01*
X95003Y172696D01*
X94976Y172761D01*
X94545Y173406D01*
X94495Y173456D01*
X94456Y173514D01*
X93908Y174063D01*
X93850Y174102D01*
X93800Y174152D01*
X93155Y174582D01*
X93090Y174609D01*
X93032Y174648D01*
X92315Y174945D01*
X92246Y174959D01*
X92181Y174986D01*
X91421Y175137D01*
X91350D01*
X91281Y175151D01*
D02*
G37*
G36*
X36972Y175531D02*
X32028D01*
Y174478D01*
X30819D01*
X30657Y174586D01*
X30000Y174717D01*
X29343Y174586D01*
X29134Y174447D01*
X27684D01*
Y174849D01*
X24316D01*
Y171213D01*
X24016D01*
Y170031D01*
X26000D01*
X27984D01*
Y171212D01*
X28469Y171490D01*
X29228D01*
X29343Y171414D01*
X30000Y171283D01*
X30657Y171414D01*
X30819Y171522D01*
X32028D01*
Y170981D01*
X36972D01*
Y175531D01*
D02*
G37*
G36*
X114032Y174484D02*
X112850D01*
Y173500D01*
X114032D01*
Y174484D01*
D02*
G37*
G36*
Y171500D02*
X112850D01*
Y170516D01*
X114032D01*
Y171500D01*
D02*
G37*
G36*
X62000Y181717D02*
X61343Y181587D01*
X60786Y181214D01*
X60413Y180657D01*
X60283Y180000D01*
X60413Y179343D01*
X60786Y178786D01*
X61343Y178413D01*
X62000Y178283D01*
X62109Y178305D01*
X64378Y176035D01*
Y174153D01*
X52398D01*
Y167484D01*
X47540Y162626D01*
X47343Y162586D01*
X46786Y162214D01*
X46413Y161657D01*
X46283Y161000D01*
X46413Y160343D01*
X46786Y159786D01*
X47343Y159414D01*
X48000Y159283D01*
X48657Y159414D01*
X49214Y159786D01*
X49586Y160343D01*
X49717Y161000D01*
X49613Y161526D01*
X53936Y165850D01*
X54536Y165601D01*
Y164744D01*
X52041Y162249D01*
X51798Y161885D01*
X51713Y161456D01*
X51713Y161456D01*
Y161009D01*
X51623Y160919D01*
X51380Y160555D01*
X51294Y160126D01*
X51294Y160126D01*
Y157291D01*
X50976Y157026D01*
X50265Y157138D01*
X50214Y157214D01*
X49657Y157587D01*
X49000Y157717D01*
X48343Y157587D01*
X47786Y157214D01*
X47628Y156978D01*
X40819D01*
X40657Y157087D01*
X40000Y157217D01*
X39343Y157087D01*
X38786Y156714D01*
X38414Y156157D01*
X38283Y155500D01*
X38304Y155391D01*
X36418Y153504D01*
X35818Y153753D01*
Y155259D01*
X34271D01*
Y156241D01*
X35818D01*
Y162759D01*
X30481D01*
Y156241D01*
X32028D01*
Y155259D01*
X30481D01*
Y148741D01*
X35818D01*
Y150879D01*
X36500D01*
X36500Y150878D01*
X36929Y150964D01*
X37293Y151207D01*
X39891Y153805D01*
X40000Y153783D01*
X40657Y153913D01*
X40819Y154022D01*
X47651D01*
X47881Y153467D01*
X33770Y139356D01*
X33527Y138992D01*
X33466Y138684D01*
X32682D01*
Y135316D01*
X33441D01*
Y133243D01*
X32910D01*
Y124757D01*
X38247D01*
Y133243D01*
X35685D01*
Y135316D01*
X36444D01*
Y135316D01*
X36619D01*
Y135316D01*
X40381D01*
Y135316D01*
X40619D01*
Y135316D01*
X44381D01*
Y135316D01*
X44556D01*
Y135316D01*
X45316D01*
Y133243D01*
X42753D01*
Y124757D01*
X48090D01*
Y133243D01*
X47559D01*
Y135316D01*
X48318D01*
Y137295D01*
X48793Y137770D01*
X48793Y137770D01*
X48994Y138071D01*
X49148Y138153D01*
X49670Y138244D01*
X50423Y137490D01*
X50423Y137490D01*
X50619Y137360D01*
X50787Y137247D01*
X50787Y137247D01*
X50787Y137247D01*
X50903Y137224D01*
X51216Y137162D01*
X51217Y137162D01*
X52509D01*
Y134434D01*
X58830D01*
Y142133D01*
X56791D01*
Y143892D01*
X57215Y144316D01*
X57913Y144316D01*
X58513Y144316D01*
X61850D01*
Y144878D01*
X63054D01*
X63116Y144786D01*
X63209Y144724D01*
Y142133D01*
X61170D01*
Y134434D01*
X67491D01*
Y142133D01*
X65452D01*
Y144724D01*
X65545Y144786D01*
X65917Y145343D01*
X66048Y146000D01*
X65917Y146657D01*
X65545Y147214D01*
X64988Y147587D01*
X64331Y147717D01*
X63674Y147587D01*
X63116Y147214D01*
X63054Y147122D01*
X61850D01*
Y147684D01*
X58513D01*
X58087Y147684D01*
X57487Y147684D01*
X55795D01*
X55475Y148284D01*
X55538Y148379D01*
X67000D01*
X67000Y148379D01*
X67429Y148464D01*
X67716Y148655D01*
X68001Y148577D01*
X68316Y148381D01*
Y126234D01*
X68091Y126069D01*
X67491Y126373D01*
Y127566D01*
X61170D01*
Y119867D01*
X63209D01*
Y118109D01*
X62785Y117684D01*
X61987Y117684D01*
X58650D01*
Y117122D01*
X56776D01*
X56714Y117214D01*
X56622Y117276D01*
Y119867D01*
X58830D01*
Y127566D01*
X52509D01*
Y124478D01*
X50819D01*
X50657Y124586D01*
X50000Y124717D01*
X49343Y124586D01*
X48786Y124214D01*
X48414Y123657D01*
X48283Y123000D01*
X48414Y122343D01*
X48786Y121786D01*
X49343Y121414D01*
X50000Y121283D01*
X50657Y121414D01*
X50819Y121522D01*
X52509D01*
Y119867D01*
X54378D01*
Y117276D01*
X54286Y117214D01*
X54224Y117122D01*
X53000D01*
X52571Y117036D01*
X52207Y116793D01*
X52207Y116793D01*
X50408Y114994D01*
X50165Y114630D01*
X50079Y114201D01*
X50079Y114201D01*
Y112759D01*
X48682D01*
Y110663D01*
X47047D01*
Y112050D01*
X38954D01*
Y110307D01*
X37780D01*
X37196Y110891D01*
X37217Y111000D01*
X37087Y111657D01*
X36714Y112214D01*
X36622Y112276D01*
Y114119D01*
X37184D01*
Y117756D01*
X37484D01*
Y118937D01*
X35500D01*
X33516D01*
Y117756D01*
X33816D01*
Y117122D01*
X29000D01*
X29000Y117122D01*
X28571Y117036D01*
X28207Y116793D01*
X28049Y116636D01*
X27913Y116431D01*
X27480Y116028D01*
X27193Y116028D01*
X26890D01*
Y113759D01*
X26568D01*
Y113453D01*
X25212D01*
Y115728D01*
X24890D01*
Y116028D01*
X24299D01*
Y115728D01*
X23090D01*
Y117316D01*
X23850D01*
Y120684D01*
X23090D01*
Y122192D01*
X23183Y122254D01*
X23555Y122811D01*
X23686Y123468D01*
X23555Y124126D01*
X23183Y124683D01*
X22626Y125055D01*
X21969Y125186D01*
X21311Y125055D01*
X20754Y124683D01*
X20481Y124274D01*
X20047Y124274D01*
X19903Y124294D01*
X19842Y124315D01*
X19431Y124931D01*
X19000Y125218D01*
Y123500D01*
X18000D01*
Y122500D01*
X16282D01*
X16569Y122070D01*
X17226Y121631D01*
X17460Y121584D01*
X17401Y120984D01*
X15850D01*
Y120000D01*
X18032D01*
Y119000D01*
X19031D01*
Y117016D01*
X20213D01*
Y117316D01*
X20847D01*
Y115728D01*
X20662D01*
Y114059D01*
X20000D01*
Y112469D01*
X18000D01*
Y114059D01*
X16425D01*
Y113045D01*
X15871Y112815D01*
X14956Y113730D01*
X14592Y113973D01*
X14163Y114059D01*
X13684Y114406D01*
Y114818D01*
X10316D01*
Y111056D01*
X10316D01*
Y110881D01*
X10316D01*
Y107119D01*
X10389D01*
X10397Y107111D01*
X10655Y106519D01*
X10413Y106157D01*
X10283Y105500D01*
X10413Y104843D01*
X10786Y104286D01*
X11343Y103913D01*
X12000Y103783D01*
X12657Y103913D01*
X13214Y104286D01*
X13587Y104843D01*
X13717Y105500D01*
X13587Y106157D01*
X13345Y106519D01*
X13603Y107111D01*
X13611Y107119D01*
X13684D01*
Y107410D01*
X14975D01*
X15224Y106810D01*
X14707Y106293D01*
X14464Y105929D01*
X14378Y105500D01*
X14378Y105500D01*
Y93776D01*
X14286Y93714D01*
X13914Y93157D01*
X13783Y92500D01*
X13914Y91843D01*
X14286Y91286D01*
X14843Y90913D01*
X15500Y90783D01*
X16157Y90913D01*
X16714Y91286D01*
X17086Y91843D01*
X17217Y92500D01*
X17086Y93157D01*
X16714Y93714D01*
X16622Y93776D01*
Y102747D01*
X16725Y103304D01*
X17878D01*
Y99776D01*
X17786Y99714D01*
X17413Y99157D01*
X17283Y98500D01*
X17413Y97843D01*
X17786Y97286D01*
X18343Y96913D01*
X19000Y96783D01*
X19657Y96913D01*
X20214Y97286D01*
X20231Y97311D01*
X20831Y97129D01*
Y96417D01*
X19207Y94793D01*
X18964Y94429D01*
X18878Y94000D01*
X18879Y94000D01*
Y93276D01*
X18786Y93214D01*
X18414Y92657D01*
X18283Y92000D01*
X18414Y91343D01*
X18786Y90786D01*
X19343Y90413D01*
X20000Y90283D01*
X20657Y90413D01*
X21214Y90786D01*
X21587Y91343D01*
X21717Y92000D01*
X21587Y92657D01*
X21214Y93214D01*
X21377Y93791D01*
X22200Y94614D01*
X22800Y94365D01*
Y89886D01*
X21004Y88090D01*
X15684D01*
Y88850D01*
X12316D01*
Y85688D01*
X12016Y85212D01*
X12000Y85205D01*
Y83000D01*
Y80856D01*
X12016Y80850D01*
Y80850D01*
X13000D01*
Y83031D01*
X14000D01*
Y84031D01*
X15984D01*
Y85212D01*
X15684D01*
Y85847D01*
X21468D01*
X21468Y85847D01*
X21898Y85932D01*
X22262Y86175D01*
X24714Y88628D01*
X24714Y88628D01*
X24957Y88992D01*
X25043Y89421D01*
X25043Y89421D01*
Y99023D01*
X25643Y99271D01*
X26065Y98849D01*
X26316Y98349D01*
X26316D01*
X26316Y98349D01*
Y95013D01*
X26316Y94587D01*
X26316Y93987D01*
Y90650D01*
X26878D01*
Y88776D01*
X26786Y88714D01*
X26414Y88157D01*
X26283Y87500D01*
X26414Y86843D01*
X26786Y86286D01*
X27343Y85913D01*
X28000Y85783D01*
X28657Y85913D01*
X29214Y86286D01*
X29587Y86843D01*
X29717Y87500D01*
X29587Y88157D01*
X29214Y88714D01*
X29122Y88776D01*
Y90650D01*
X29684D01*
Y93987D01*
X29684Y94412D01*
X29684Y95013D01*
Y98349D01*
X29122D01*
Y98500D01*
X29036Y98929D01*
X28835Y99230D01*
X29301Y99613D01*
X30878Y98036D01*
Y94110D01*
X30786Y94048D01*
X30413Y93490D01*
X30283Y92833D01*
X30413Y92176D01*
X30786Y91619D01*
X31343Y91247D01*
X32000Y91116D01*
X32657Y91247D01*
X33214Y91619D01*
X33276Y91712D01*
X34619D01*
Y91149D01*
X38256D01*
Y90849D01*
X39437D01*
Y92833D01*
Y94818D01*
X38256D01*
Y94517D01*
X34619D01*
Y93955D01*
X33276D01*
X33214Y94048D01*
X33122Y94110D01*
Y98500D01*
X33082Y98700D01*
X33609Y99070D01*
X33609Y99070D01*
X33843Y98914D01*
X34500Y98783D01*
X34609Y98805D01*
X36207Y97207D01*
X36207Y97207D01*
X36571Y96964D01*
X37000Y96878D01*
X37650D01*
Y96316D01*
X40987D01*
X41413Y96316D01*
X42013Y96316D01*
X45350D01*
Y96878D01*
X48500D01*
X48500Y96878D01*
X48929Y96964D01*
X49293Y97207D01*
X50465Y98378D01*
X52224D01*
X52286Y98286D01*
X52568Y98097D01*
Y97403D01*
X52286Y97214D01*
X51913Y96657D01*
X51783Y96000D01*
X51913Y95343D01*
X52286Y94786D01*
X52843Y94414D01*
X53500Y94283D01*
X54157Y94414D01*
X54714Y94786D01*
X54776Y94879D01*
X56320D01*
Y92122D01*
X54776D01*
X54714Y92214D01*
X54157Y92586D01*
X53500Y92717D01*
X52843Y92586D01*
X52286Y92214D01*
X51913Y91657D01*
X51783Y91000D01*
X51913Y90343D01*
X52286Y89786D01*
X52843Y89413D01*
X53500Y89283D01*
X54157Y89413D01*
X54714Y89786D01*
X54776Y89878D01*
X57685D01*
X57685Y89878D01*
X58114Y89964D01*
X58441Y90182D01*
X62050D01*
Y101818D01*
X56320D01*
Y100622D01*
X54776D01*
X54714Y100714D01*
X54157Y101087D01*
X53500Y101217D01*
X52843Y101087D01*
X52286Y100714D01*
X52224Y100622D01*
X50000D01*
X50000Y100622D01*
X49571Y100536D01*
X49207Y100293D01*
X48035Y99122D01*
X45350D01*
Y99684D01*
X42013D01*
X41587Y99684D01*
X40987Y99684D01*
X37650D01*
Y99684D01*
X37050Y99536D01*
X36195Y100391D01*
X36217Y100500D01*
X36087Y101157D01*
X35714Y101714D01*
X35157Y102087D01*
X34500Y102217D01*
X34391Y102196D01*
X33622Y102965D01*
Y104192D01*
X34222Y104374D01*
X34270Y104302D01*
X34827Y103929D01*
X35484Y103799D01*
X35594Y103820D01*
X37707Y101707D01*
X37707Y101707D01*
X38071Y101464D01*
X38500Y101379D01*
X38500Y101379D01*
X39650D01*
Y100816D01*
X43287D01*
Y100516D01*
X44469D01*
Y102500D01*
Y104484D01*
X43287D01*
Y104184D01*
X39650D01*
Y103622D01*
X38965D01*
X37180Y105406D01*
X37201Y105516D01*
X37071Y106173D01*
X36698Y106730D01*
X36141Y107102D01*
X35484Y107233D01*
X35375Y107211D01*
X33261Y109325D01*
X33261Y109325D01*
X32898Y109568D01*
X32468Y109653D01*
X32468Y109653D01*
X31117D01*
Y113759D01*
X29964D01*
Y114878D01*
X33816D01*
Y114119D01*
X34378D01*
Y112276D01*
X34286Y112214D01*
X33913Y111657D01*
X33783Y111000D01*
X33913Y110343D01*
X34286Y109786D01*
X34843Y109414D01*
X35500Y109283D01*
X35609Y109305D01*
X36522Y108392D01*
X36522Y108392D01*
X36886Y108149D01*
X37315Y108063D01*
X37315Y108063D01*
X38954D01*
Y106320D01*
X47047D01*
Y107707D01*
X48682D01*
Y106241D01*
X54019D01*
Y112759D01*
X52322D01*
Y113736D01*
X53465Y114878D01*
X54224D01*
X54286Y114786D01*
X54843Y114413D01*
X55500Y114283D01*
X56157Y114413D01*
X56714Y114786D01*
X56776Y114878D01*
X58650D01*
Y114316D01*
X61987D01*
X62413Y114316D01*
X63013Y114316D01*
X66350D01*
Y117684D01*
X65452D01*
Y119867D01*
X67491D01*
Y122595D01*
X68000Y122879D01*
X68429Y122964D01*
X68793Y123207D01*
X70230Y124644D01*
X70230Y124644D01*
X70473Y125008D01*
X70559Y125437D01*
Y148669D01*
X71159Y149040D01*
X71316Y148962D01*
Y145850D01*
X71778D01*
Y142476D01*
X71686Y142414D01*
X71314Y141857D01*
X71183Y141200D01*
X71314Y140543D01*
X71686Y139986D01*
X72243Y139613D01*
X72900Y139483D01*
X73557Y139613D01*
X74114Y139986D01*
X74487Y140543D01*
X74617Y141200D01*
X74487Y141857D01*
X74114Y142414D01*
X74022Y142476D01*
Y145426D01*
X74436Y145841D01*
X74674Y145832D01*
X74738Y145767D01*
X74840Y145527D01*
X74906Y145286D01*
X74914Y145157D01*
X74877Y144973D01*
X74783Y144500D01*
X74914Y143843D01*
X75286Y143286D01*
X75843Y142913D01*
X76500Y142783D01*
X77157Y142913D01*
X77714Y143286D01*
X77776Y143378D01*
X79536D01*
X80667Y142247D01*
X80372Y141694D01*
X79937Y141780D01*
X79280Y141650D01*
X78723Y141277D01*
X78351Y140720D01*
X78220Y140063D01*
X78351Y139406D01*
X78723Y138849D01*
X78816Y138787D01*
Y135558D01*
X75891D01*
Y129827D01*
X83983D01*
Y135558D01*
X81059D01*
Y138787D01*
X81151Y138849D01*
X81524Y139406D01*
X81654Y140063D01*
X81568Y140498D01*
X82121Y140793D01*
X83234Y139680D01*
X83598Y139437D01*
X84027Y139351D01*
X84027Y139351D01*
X93237D01*
X94879Y137709D01*
Y132000D01*
X94879Y132000D01*
X94964Y131571D01*
X95207Y131207D01*
X109207Y117207D01*
X109571Y116964D01*
X110000Y116878D01*
X110000Y116878D01*
X126500D01*
X126500Y116878D01*
X126929Y116964D01*
X127293Y117207D01*
X130965Y120879D01*
X140848D01*
X141261Y120279D01*
X141224Y120184D01*
X138150D01*
Y119685D01*
X133713D01*
X133651Y119777D01*
X133094Y120150D01*
X132437Y120280D01*
X131780Y120150D01*
X131223Y119777D01*
X130851Y119220D01*
X130720Y118563D01*
X130851Y117906D01*
X131223Y117349D01*
X131060Y116772D01*
X127847Y113559D01*
X126471D01*
X126330Y113653D01*
X125827Y113753D01*
X121299D01*
X120796Y113653D01*
X120369Y113367D01*
X119618Y113314D01*
X119519Y113384D01*
Y113472D01*
X110481D01*
Y113384D01*
X110382Y113314D01*
X109631Y113367D01*
X109204Y113653D01*
X108701Y113753D01*
X107559D01*
Y115563D01*
X107559Y115563D01*
X107473Y115992D01*
X107230Y116356D01*
X107230Y116356D01*
X96633Y126954D01*
X96654Y127063D01*
X96524Y127720D01*
X96151Y128277D01*
X95594Y128650D01*
X94937Y128780D01*
X94280Y128650D01*
X93723Y128277D01*
X93682Y128216D01*
X92121D01*
Y128850D01*
X92421D01*
Y130031D01*
X88453D01*
Y128850D01*
X88753D01*
Y125213D01*
X92121D01*
Y125973D01*
X93640D01*
X93723Y125849D01*
X94280Y125477D01*
X94937Y125346D01*
X95046Y125368D01*
X105315Y115099D01*
Y113753D01*
X104173D01*
X103670Y113653D01*
X103243Y113367D01*
X103191Y113289D01*
X102442Y113190D01*
X93654Y121978D01*
X93290Y122221D01*
X92861Y122307D01*
X92860Y122307D01*
X89961D01*
X89899Y122399D01*
X89342Y122772D01*
X88685Y122902D01*
X88028Y122772D01*
X87471Y122399D01*
X87409Y122307D01*
X83983D01*
Y124928D01*
X75891D01*
Y123185D01*
X74563D01*
X74563Y123185D01*
X74134Y123099D01*
X73770Y122856D01*
X73770Y122856D01*
X72207Y121293D01*
X71964Y120929D01*
X71878Y120500D01*
X71878Y120500D01*
Y112465D01*
X69950Y110536D01*
X69349Y110684D01*
Y110684D01*
X66013D01*
X65587Y110684D01*
X64987Y110684D01*
X61650D01*
Y110122D01*
X60318D01*
Y112759D01*
X54981D01*
Y106241D01*
X59811D01*
X60055Y106241D01*
X60398Y105674D01*
X60282Y105500D01*
X61000D01*
Y106218D01*
X60874Y106134D01*
X60318Y106484D01*
X60318Y106732D01*
Y107878D01*
X61650D01*
Y107316D01*
X64987D01*
X65413Y107316D01*
X66013Y107316D01*
X69350D01*
Y107878D01*
X70000D01*
X70000Y107878D01*
X70429Y107964D01*
X70793Y108207D01*
X73793Y111207D01*
X74036Y111571D01*
X74122Y112000D01*
X74122Y112000D01*
Y120036D01*
X75028Y120941D01*
X75891D01*
Y119198D01*
X83983D01*
Y120063D01*
X87409D01*
X87471Y119971D01*
X88028Y119598D01*
X88685Y119468D01*
X89342Y119598D01*
X89899Y119971D01*
X89961Y120063D01*
X92396D01*
X101750Y110709D01*
X101553Y110058D01*
X101518Y110051D01*
X96307Y115261D01*
X96307Y115261D01*
X95943Y115505D01*
X95514Y115590D01*
X95514Y115590D01*
X83871D01*
X83809Y115683D01*
X83252Y116055D01*
X82595Y116186D01*
X81937Y116055D01*
X81380Y115683D01*
X81318Y115590D01*
X79184D01*
Y116349D01*
X75816D01*
Y112713D01*
X75516D01*
Y111531D01*
X77500D01*
X79484D01*
Y112713D01*
X79184D01*
Y113347D01*
X81318D01*
X81380Y113254D01*
X81937Y112882D01*
X82595Y112751D01*
X83252Y112882D01*
X83809Y113254D01*
X83871Y113347D01*
X91816D01*
Y109587D01*
X91816D01*
Y109413D01*
X91816D01*
Y108622D01*
X86276D01*
X86214Y108714D01*
X85657Y109087D01*
X85000Y109217D01*
X84343Y109087D01*
X83786Y108714D01*
X83413Y108157D01*
X83283Y107500D01*
X83413Y106843D01*
X83786Y106286D01*
X84343Y105913D01*
X85000Y105783D01*
X85657Y105913D01*
X86214Y106286D01*
X86276Y106378D01*
X91816D01*
Y105650D01*
X95184D01*
Y105650D01*
X95638Y105838D01*
X97707Y103770D01*
X97707Y103770D01*
X98071Y103527D01*
X98500Y103442D01*
X103529D01*
X103670Y103347D01*
X104173Y103247D01*
X108701D01*
X109204Y103347D01*
X109631Y103633D01*
X110382Y103686D01*
X110481Y103616D01*
Y103528D01*
X119519D01*
Y103616D01*
X119618Y103686D01*
X120369Y103633D01*
X120796Y103347D01*
X121299Y103247D01*
X125667D01*
X129175Y99738D01*
X129175Y99738D01*
X129402Y99587D01*
X129539Y99495D01*
X129968Y99410D01*
X133316D01*
Y98650D01*
X133879D01*
Y95478D01*
X132180D01*
Y98046D01*
X126450D01*
Y89954D01*
X131316D01*
X131427Y89403D01*
X131416Y89354D01*
X130955Y89045D01*
X126455Y84545D01*
X126134Y84066D01*
X126022Y83500D01*
Y79819D01*
X125914Y79657D01*
X125783Y79000D01*
X125914Y78343D01*
X126022Y78181D01*
Y76000D01*
X126134Y75434D01*
X126455Y74954D01*
X128022Y73388D01*
Y62819D01*
X127913Y62657D01*
X127783Y62000D01*
X127913Y61343D01*
X128022Y61181D01*
Y56590D01*
X123184D01*
Y57349D01*
X119816D01*
Y53587D01*
X119816D01*
Y53412D01*
X119816D01*
Y53396D01*
X119216Y53148D01*
X119184Y53179D01*
Y53412D01*
X119184Y54013D01*
Y57349D01*
X115816D01*
Y56590D01*
X115184D01*
Y57349D01*
X114622D01*
Y58724D01*
X114714Y58786D01*
X115087Y59343D01*
X115217Y60000D01*
X115087Y60657D01*
X114714Y61214D01*
X114157Y61587D01*
X113500Y61717D01*
X112843Y61587D01*
X112286Y61214D01*
X111914Y60657D01*
X111783Y60000D01*
X111914Y59343D01*
X112286Y58786D01*
X112379Y58724D01*
Y57349D01*
X111816D01*
Y54013D01*
X111816Y53587D01*
X111816Y53077D01*
X111391Y52653D01*
X109933D01*
X102644Y59943D01*
X102280Y60186D01*
X101850Y60271D01*
X101850Y60271D01*
X96043D01*
Y61818D01*
X91099D01*
Y56481D01*
X96043D01*
Y58028D01*
X101386D01*
X108675Y50738D01*
X108675Y50738D01*
X109039Y50495D01*
X109468Y50410D01*
X109468Y50410D01*
X111816D01*
Y49650D01*
X115184D01*
X115184Y53706D01*
X115500Y53854D01*
X115816Y53706D01*
X115816Y52987D01*
Y49650D01*
X119184D01*
Y50308D01*
X119816D01*
Y49650D01*
X120863D01*
X121067Y49050D01*
X120718Y48782D01*
X120205Y48114D01*
X119882Y47335D01*
X119773Y46500D01*
X119882Y45665D01*
X120205Y44886D01*
X120718Y44218D01*
X121386Y43705D01*
X122165Y43382D01*
X123000Y43272D01*
X123835Y43382D01*
X124614Y43705D01*
X125282Y44218D01*
X125795Y44886D01*
X125999Y45379D01*
X128224D01*
X128286Y45286D01*
X128843Y44914D01*
X129500Y44783D01*
X130157Y44914D01*
X130714Y45286D01*
X130942Y45626D01*
X131581Y45720D01*
X131658Y45701D01*
X131941Y45451D01*
Y40590D01*
X130394D01*
Y25410D01*
X135731D01*
Y40590D01*
X134185D01*
Y45724D01*
X134277Y45786D01*
X134650Y46343D01*
X134780Y47000D01*
X134650Y47657D01*
X134277Y48214D01*
X133720Y48586D01*
X133063Y48717D01*
X132406Y48586D01*
X131849Y48214D01*
X131579Y47810D01*
X130979Y47992D01*
Y55500D01*
Y61181D01*
X131087Y61343D01*
X131217Y62000D01*
X131087Y62657D01*
X130979Y62819D01*
Y74000D01*
X130866Y74566D01*
X130545Y75045D01*
X128979Y76612D01*
Y77522D01*
X132174D01*
X132607Y77119D01*
X132728Y76562D01*
X132724Y76519D01*
X132215Y76179D01*
X131843Y75622D01*
X131712Y74965D01*
X131843Y74308D01*
X132215Y73750D01*
X132772Y73378D01*
X132878Y73357D01*
Y71350D01*
X132316D01*
Y68013D01*
X132316Y67588D01*
X132316Y66988D01*
Y63651D01*
X132521D01*
Y62086D01*
X132634Y61520D01*
X132955Y61041D01*
X134275Y59720D01*
X134313Y59529D01*
X134686Y58972D01*
X135243Y58599D01*
X135900Y58469D01*
X136557Y58599D01*
X137114Y58972D01*
X137487Y59529D01*
X137617Y60186D01*
X137487Y60843D01*
X137114Y61400D01*
X136557Y61772D01*
X136366Y61810D01*
X135478Y62698D01*
Y63651D01*
X135684D01*
Y66988D01*
X135684Y67413D01*
X135684Y68013D01*
Y71350D01*
X135122D01*
Y74138D01*
X141465D01*
Y73379D01*
X147393D01*
Y77141D01*
X141465D01*
Y76381D01*
X134677D01*
X134520Y76618D01*
X134782Y77119D01*
X138535D01*
Y80881D01*
X132607D01*
Y80479D01*
X128979D01*
Y82888D01*
X132612Y86522D01*
X145000D01*
X145566Y86634D01*
X146045Y86955D01*
X153045Y93955D01*
X153366Y94434D01*
X153479Y95000D01*
Y111650D01*
X153684D01*
Y114987D01*
X153684Y115413D01*
X153684Y116013D01*
Y119350D01*
X153122D01*
Y120500D01*
X153122Y120500D01*
X153036Y120929D01*
X152793Y121293D01*
X151293Y122793D01*
X150929Y123036D01*
X150500Y123122D01*
X150500Y123122D01*
X141181D01*
X140696Y123398D01*
Y125733D01*
X143154D01*
X143154Y125733D01*
X143583Y125818D01*
X143947Y126061D01*
X144493Y126607D01*
X144493Y126607D01*
X144736Y126971D01*
X144809Y127336D01*
X146602D01*
Y129473D01*
X148388D01*
X148414Y129343D01*
X148786Y128786D01*
X149343Y128413D01*
X150000Y128283D01*
X150657Y128413D01*
X151214Y128786D01*
X151586Y129343D01*
X151717Y130000D01*
X151586Y130657D01*
X151214Y131214D01*
X151321Y131632D01*
X151399Y131813D01*
X152793Y133207D01*
X152793Y133207D01*
X153036Y133571D01*
X153122Y134000D01*
Y156724D01*
X153214Y156786D01*
X153586Y157343D01*
X153717Y158000D01*
X153586Y158657D01*
X153214Y159214D01*
X152657Y159587D01*
X152000Y159717D01*
X151343Y159587D01*
X150786Y159214D01*
X150414Y158657D01*
X150283Y158000D01*
X150414Y157343D01*
X150786Y156786D01*
X150878Y156724D01*
Y134465D01*
X150099Y133685D01*
X146902D01*
Y136122D01*
X146602D01*
Y141728D01*
X141265D01*
Y141728D01*
X140696Y141804D01*
Y145665D01*
X134622D01*
Y150500D01*
X134536Y150929D01*
X134293Y151293D01*
X134293Y151293D01*
X133012Y152574D01*
X132648Y152817D01*
X132219Y152903D01*
X132219Y152903D01*
X131959D01*
X131618Y153503D01*
X131717Y154000D01*
X131695Y154112D01*
X132076Y154576D01*
X132157D01*
Y165425D01*
X127933Y165425D01*
X127457Y165725D01*
X127368Y165725D01*
X126000D01*
Y160000D01*
Y154276D01*
X127368D01*
X127457Y154276D01*
X127927Y154572D01*
X128305Y154112D01*
X128283Y154000D01*
X128382Y153503D01*
X128041Y152903D01*
X117959D01*
X117618Y153503D01*
X117717Y154000D01*
X117587Y154657D01*
X117214Y155214D01*
X116657Y155587D01*
X116000Y155717D01*
X115343Y155587D01*
X114786Y155214D01*
X114724Y155122D01*
X113465D01*
X109695Y158891D01*
X109717Y159000D01*
X109587Y159657D01*
X109214Y160214D01*
X108657Y160587D01*
X108240Y160670D01*
X108029Y160969D01*
X104282D01*
X104569Y160538D01*
X105226Y160099D01*
X105909Y159964D01*
X105989Y159915D01*
X106080Y159826D01*
X106363Y159406D01*
X106283Y159000D01*
X106413Y158343D01*
X106490Y158228D01*
X106343Y157587D01*
X105786Y157214D01*
X105724Y157122D01*
X101465D01*
X100684Y157902D01*
Y159787D01*
X100984D01*
Y160968D01*
X99000D01*
Y162969D01*
X100984D01*
Y163963D01*
X104333D01*
X104503Y163558D01*
X104545Y163363D01*
X104282Y162969D01*
X107718D01*
X107455Y163363D01*
X107497Y163558D01*
X107667Y163963D01*
X108451D01*
X113304Y159109D01*
X113283Y159000D01*
X113414Y158343D01*
X113786Y157786D01*
X114343Y157413D01*
X115000Y157283D01*
X115657Y157413D01*
X116214Y157786D01*
X116586Y158343D01*
X116681Y158819D01*
X117283Y158999D01*
X117569Y158570D01*
X118000Y158282D01*
Y160000D01*
Y161718D01*
X117569Y161431D01*
X117131Y160774D01*
X117000Y160118D01*
X116622Y159962D01*
X116399Y159937D01*
X116214Y160214D01*
X115657Y160587D01*
X115000Y160717D01*
X114891Y160696D01*
X109709Y165877D01*
X109345Y166120D01*
X108916Y166206D01*
X108916Y166206D01*
X99454D01*
X99225Y166760D01*
X101843Y169378D01*
X104224D01*
X104286Y169286D01*
X104843Y168913D01*
X105500Y168783D01*
X106157Y168913D01*
X106714Y169286D01*
X107087Y169843D01*
X107217Y170500D01*
X107087Y171157D01*
X106714Y171714D01*
X106157Y172087D01*
X105500Y172217D01*
X104843Y172087D01*
X104286Y171714D01*
X104224Y171622D01*
X101379D01*
X100950Y171536D01*
X100586Y171293D01*
X100586Y171293D01*
X93414Y164122D01*
X91276D01*
X91214Y164214D01*
X90657Y164586D01*
X90000Y164717D01*
X89343Y164586D01*
X88786Y164214D01*
X88414Y163657D01*
X88283Y163000D01*
X88414Y162343D01*
X88664Y161968D01*
X88645Y161728D01*
X88525Y161443D01*
X88431Y161319D01*
X88128Y161272D01*
X87657Y161586D01*
X87000Y161717D01*
X86343Y161586D01*
X85786Y161214D01*
X85722Y161118D01*
X85122Y161300D01*
Y166046D01*
X85036Y166475D01*
X84793Y166839D01*
X84793Y166839D01*
X84507Y167125D01*
Y174153D01*
X72996D01*
Y174453D01*
X72405D01*
Y174153D01*
X72083D01*
Y170500D01*
X70728D01*
Y174153D01*
X70406D01*
Y174453D01*
X69815D01*
Y174153D01*
X66622D01*
Y176500D01*
X66622Y176500D01*
X66536Y176929D01*
X66293Y177293D01*
X66293Y177293D01*
X63696Y179891D01*
X63717Y180000D01*
X63587Y180657D01*
X63214Y181214D01*
X62657Y181587D01*
X62000Y181717D01*
D02*
G37*
G36*
X37272Y170319D02*
X35500D01*
Y168744D01*
X37272D01*
Y170319D01*
D02*
G37*
G36*
X33500D02*
X31728D01*
Y168744D01*
X33500D01*
Y170319D01*
D02*
G37*
G36*
X114000Y169484D02*
X112819D01*
Y168500D01*
X114000D01*
Y169484D01*
D02*
G37*
G36*
X27984Y168031D02*
X27000D01*
Y166850D01*
X27984D01*
Y168031D01*
D02*
G37*
G36*
X25000D02*
X24016D01*
Y166850D01*
X25000D01*
Y168031D01*
D02*
G37*
G36*
X114000Y166500D02*
X112819D01*
Y165516D01*
X114000D01*
Y166500D01*
D02*
G37*
G36*
X37272Y166744D02*
X35500D01*
Y165169D01*
X37272D01*
Y166744D01*
D02*
G37*
G36*
X33500D02*
X31728D01*
Y165169D01*
X33500D01*
Y166744D01*
D02*
G37*
G36*
X124000Y165725D02*
X122543D01*
Y161000D01*
X124000D01*
Y165725D01*
D02*
G37*
G36*
X120000Y161718D02*
Y161000D01*
X120718D01*
X120431Y161431D01*
X120000Y161718D01*
D02*
G37*
G36*
X29519Y162759D02*
X24182D01*
Y160622D01*
X23350D01*
Y161184D01*
X20013D01*
X19587Y161184D01*
X18987Y161184D01*
X15650D01*
Y160622D01*
X11500D01*
X11500Y160622D01*
X11071Y160536D01*
X10707Y160293D01*
X10707Y160293D01*
X10109Y159695D01*
X10000Y159717D01*
X9343Y159587D01*
X8786Y159214D01*
X8414Y158657D01*
X8283Y158000D01*
X8414Y157343D01*
X8786Y156786D01*
X9343Y156413D01*
X10000Y156283D01*
X10657Y156413D01*
X11214Y156786D01*
X11586Y157343D01*
X11717Y158000D01*
X12182Y158379D01*
X15650D01*
Y157816D01*
X18987D01*
X19413Y157816D01*
X20013Y157816D01*
X23350D01*
Y158379D01*
X24182D01*
Y156241D01*
X29519D01*
Y162759D01*
D02*
G37*
G36*
X120718Y159000D02*
X120000D01*
Y158282D01*
X120431Y158570D01*
X120718Y159000D01*
D02*
G37*
G36*
X142157Y165425D02*
X137843D01*
Y154576D01*
X142157D01*
Y165425D01*
D02*
G37*
G36*
X124000Y159000D02*
X122543D01*
Y154276D01*
X124000D01*
Y159000D01*
D02*
G37*
G36*
X29519Y155259D02*
X24182D01*
Y153122D01*
X23350D01*
Y153684D01*
X20013D01*
X19587Y153684D01*
X18987Y153684D01*
X15650D01*
Y153122D01*
X13276D01*
X13214Y153214D01*
X12657Y153586D01*
X12000Y153717D01*
X11343Y153586D01*
X10786Y153214D01*
X10413Y152657D01*
X10283Y152000D01*
X10413Y151343D01*
X10786Y150786D01*
X11343Y150414D01*
X12000Y150283D01*
X12657Y150414D01*
X13214Y150786D01*
X13276Y150878D01*
X15650D01*
Y150316D01*
X18987D01*
X19413Y150316D01*
X20013Y150316D01*
X23350D01*
Y150879D01*
X24182D01*
Y148741D01*
X29519D01*
Y155259D01*
D02*
G37*
G36*
X147157Y165425D02*
X142843D01*
Y154576D01*
X142924D01*
X143305Y154112D01*
X143283Y154000D01*
X143413Y153343D01*
X143786Y152786D01*
X144343Y152413D01*
X145000Y152283D01*
X145657Y152413D01*
X146214Y152786D01*
X146587Y153343D01*
X146717Y154000D01*
X146695Y154112D01*
X147076Y154576D01*
X147157D01*
Y165425D01*
D02*
G37*
G36*
X137157D02*
X132843D01*
Y154576D01*
X132924D01*
X133305Y154112D01*
X133283Y154000D01*
X133414Y153343D01*
X133786Y152786D01*
X134343Y152413D01*
X135000Y152283D01*
X135657Y152413D01*
X136214Y152786D01*
X136586Y153343D01*
X136717Y154000D01*
X136695Y154112D01*
X137076Y154576D01*
X137157D01*
Y165425D01*
D02*
G37*
G36*
X16000Y143874D02*
Y141500D01*
X18374D01*
X18057Y142265D01*
X17496Y142996D01*
X16765Y143557D01*
X16000Y143874D01*
D02*
G37*
G36*
X14000Y143874D02*
X13235Y143557D01*
X12504Y142996D01*
X11943Y142265D01*
X11626Y141500D01*
X14000D01*
Y143874D01*
D02*
G37*
G36*
X18374Y139500D02*
X16000D01*
Y137126D01*
X16765Y137443D01*
X17496Y138004D01*
X18057Y138735D01*
X18374Y139500D01*
D02*
G37*
G36*
X14000D02*
X11626D01*
X11943Y138735D01*
X12504Y138004D01*
X13235Y137443D01*
X14000Y137126D01*
Y139500D01*
D02*
G37*
G36*
X91437Y137781D02*
Y137063D01*
X92155D01*
X91868Y137494D01*
X91437Y137781D01*
D02*
G37*
G36*
X89437D02*
X89007Y137494D01*
X88719Y137063D01*
X89437D01*
Y137781D01*
D02*
G37*
G36*
X92155Y135063D02*
X91437D01*
Y134345D01*
X91868Y134633D01*
X92155Y135063D01*
D02*
G37*
G36*
X89437D02*
X88719D01*
X89007Y134633D01*
X89437Y134345D01*
Y135063D01*
D02*
G37*
G36*
X92421Y133213D02*
X91437D01*
Y132031D01*
X92421D01*
Y133213D01*
D02*
G37*
G36*
X89437D02*
X88453D01*
Y132031D01*
X89437D01*
Y133213D01*
D02*
G37*
G36*
X15000Y134228D02*
X14165Y134118D01*
X13386Y133795D01*
X12718Y133282D01*
X12205Y132614D01*
X11882Y131835D01*
X11772Y131000D01*
X11882Y130165D01*
X12205Y129386D01*
X12718Y128718D01*
X13386Y128205D01*
X14165Y127882D01*
X15000Y127772D01*
X15835Y127882D01*
X16614Y128205D01*
X17282Y128718D01*
X17795Y129386D01*
X18118Y130165D01*
X18228Y131000D01*
X18118Y131835D01*
X17795Y132614D01*
X17282Y133282D01*
X16614Y133795D01*
X15835Y134118D01*
X15000Y134228D01*
D02*
G37*
G36*
X17000Y125218D02*
X16569Y124931D01*
X16282Y124500D01*
X17000D01*
Y125218D01*
D02*
G37*
G36*
X156000Y124718D02*
Y124000D01*
X156718D01*
X156431Y124431D01*
X156000Y124718D01*
D02*
G37*
G36*
X154000D02*
X153569Y124431D01*
X153282Y124000D01*
X154000D01*
Y124718D01*
D02*
G37*
G36*
X156718Y122000D02*
X156000D01*
Y121282D01*
X156431Y121569D01*
X156718Y122000D01*
D02*
G37*
G36*
X154000D02*
X153282D01*
X153569Y121569D01*
X154000Y121282D01*
Y122000D01*
D02*
G37*
G36*
X37484Y122118D02*
X36500D01*
Y120937D01*
X37484D01*
Y122118D01*
D02*
G37*
G36*
X34500D02*
X33516D01*
Y120937D01*
X34500D01*
Y122118D01*
D02*
G37*
G36*
X47346Y122980D02*
X44000D01*
Y120815D01*
X47346D01*
Y122980D01*
D02*
G37*
G36*
X42000D02*
X38654D01*
Y120815D01*
X42000D01*
Y122980D01*
D02*
G37*
G36*
X17031Y118000D02*
X15850D01*
Y117016D01*
X17031D01*
Y118000D01*
D02*
G37*
G36*
X47346Y118815D02*
X44000D01*
Y116650D01*
X47346D01*
Y118815D01*
D02*
G37*
G36*
X42000D02*
X38654D01*
Y116650D01*
X42000D01*
Y118815D01*
D02*
G37*
G36*
X79484Y109531D02*
X78500D01*
Y108350D01*
X79484D01*
Y109531D01*
D02*
G37*
G36*
X76500D02*
X75516D01*
Y108350D01*
X76500D01*
Y109531D01*
D02*
G37*
G36*
X78500Y106718D02*
Y106000D01*
X79218D01*
X78931Y106431D01*
X78500Y106718D01*
D02*
G37*
G36*
X76500D02*
X76069Y106431D01*
X75782Y106000D01*
X76500D01*
Y106718D01*
D02*
G37*
G36*
X63000Y106218D02*
Y105500D01*
X63718D01*
X63431Y105931D01*
X63000Y106218D01*
D02*
G37*
G36*
X47650Y104484D02*
X46468D01*
Y103500D01*
X47650D01*
Y104484D01*
D02*
G37*
G36*
X79218Y104000D02*
X78500D01*
Y103282D01*
X78931Y103569D01*
X79218Y104000D01*
D02*
G37*
G36*
X76500D02*
X75782D01*
X76069Y103569D01*
X76500Y103282D01*
Y104000D01*
D02*
G37*
G36*
X63718Y103500D02*
X63000D01*
Y102782D01*
X63431Y103069D01*
X63718Y103500D01*
D02*
G37*
G36*
X61000D02*
X60282D01*
X60569Y103069D01*
X61000Y102782D01*
Y103500D01*
D02*
G37*
G36*
X47650Y101500D02*
X46468D01*
Y100516D01*
X47650D01*
Y101500D01*
D02*
G37*
G36*
X47500Y94718D02*
Y94000D01*
X48218D01*
X47931Y94431D01*
X47500Y94718D01*
D02*
G37*
G36*
X45500D02*
X45070Y94431D01*
X44782Y94000D01*
X45500D01*
Y94718D01*
D02*
G37*
G36*
X42618Y94818D02*
X41437D01*
Y93833D01*
X42618D01*
Y94818D01*
D02*
G37*
G36*
X48218Y92000D02*
X47500D01*
Y91282D01*
X47931Y91570D01*
X48218Y92000D01*
D02*
G37*
G36*
X45500D02*
X44782D01*
X45070Y91570D01*
X45500Y91282D01*
Y92000D01*
D02*
G37*
G36*
X42618Y91833D02*
X41437D01*
Y90849D01*
X42618D01*
Y91833D01*
D02*
G37*
G36*
X102180Y95547D02*
X96450D01*
Y87454D01*
X102180D01*
Y88855D01*
X102780Y89326D01*
X103000Y89283D01*
X103657Y89413D01*
X104214Y89786D01*
X104587Y90343D01*
X104717Y91000D01*
X104587Y91657D01*
X104214Y92214D01*
X103657Y92586D01*
X103000Y92717D01*
X102780Y92674D01*
X102180Y93145D01*
Y95547D01*
D02*
G37*
G36*
X49000Y85218D02*
Y84500D01*
X49718D01*
X49431Y84931D01*
X49000Y85218D01*
D02*
G37*
G36*
X47000D02*
X46569Y84931D01*
X46282Y84500D01*
X47000D01*
Y85218D01*
D02*
G37*
G36*
X72680Y101818D02*
X66950D01*
Y90182D01*
X72680D01*
Y94522D01*
X75388D01*
X75522Y94388D01*
Y81574D01*
X72590D01*
Y81645D01*
X68948D01*
Y82885D01*
X61052D01*
Y81945D01*
X60488D01*
Y80453D01*
X59488D01*
Y79453D01*
D01*
Y77484D01*
D01*
Y75740D01*
X57410D01*
Y75567D01*
X57110D01*
Y75567D01*
X57047D01*
X56657Y75489D01*
X56326Y75268D01*
X54730Y73672D01*
X54500Y73717D01*
X53843Y73587D01*
X53286Y73214D01*
X52913Y72657D01*
X52867Y72424D01*
X52824Y72358D01*
X52222Y71988D01*
X52215Y71988D01*
X52113Y72009D01*
X52113Y72009D01*
X50112D01*
X49849Y72500D01*
X46151D01*
X45889Y72009D01*
X39426D01*
X38980Y72382D01*
X38980Y72609D01*
Y77500D01*
X35815D01*
X32650D01*
Y72609D01*
X32650Y72382D01*
X32204Y72009D01*
X31163D01*
X31101Y72101D01*
X30544Y72474D01*
X29887Y72604D01*
X29230Y72474D01*
X28673Y72101D01*
X28300Y71544D01*
X28248Y71280D01*
X28052Y70835D01*
X27607Y70639D01*
X27343Y70587D01*
X26786Y70214D01*
X26414Y69657D01*
X26283Y69000D01*
X26414Y68343D01*
X26786Y67786D01*
X27343Y67414D01*
X28000Y67283D01*
X28657Y67414D01*
X29058Y67681D01*
X30750D01*
X30750Y67681D01*
X31179Y67766D01*
X31347Y67878D01*
X35353D01*
X35922Y67802D01*
X35922Y67278D01*
Y60891D01*
X44409D01*
X44409Y67802D01*
X44977Y67878D01*
X51414D01*
X52586Y66707D01*
X52950Y66464D01*
X53379Y66378D01*
X53379Y66378D01*
X87914D01*
X91170Y63123D01*
X91170Y63123D01*
X91534Y62880D01*
X91963Y62794D01*
X107780D01*
X107786Y62786D01*
X108343Y62414D01*
X109000Y62283D01*
X109657Y62414D01*
X110214Y62786D01*
X110587Y63343D01*
X110717Y64000D01*
X110587Y64657D01*
X110214Y65214D01*
Y65786D01*
X110587Y66343D01*
X110717Y67000D01*
X110587Y67657D01*
X110214Y68214D01*
X109657Y68586D01*
X109000Y68717D01*
X108343Y68586D01*
X107786Y68214D01*
X107413Y67657D01*
X107283Y67000D01*
X106874Y66537D01*
X93049D01*
X91870Y67716D01*
X92119Y68316D01*
X94987D01*
X95413Y68316D01*
X96013Y68316D01*
X99350D01*
Y68879D01*
X100724D01*
X100786Y68786D01*
X101343Y68414D01*
X102000Y68283D01*
X102657Y68414D01*
X103214Y68786D01*
X103587Y69343D01*
X103717Y70000D01*
X103587Y70657D01*
X103214Y71214D01*
X102657Y71587D01*
X102000Y71717D01*
X101343Y71587D01*
X100786Y71214D01*
X100724Y71122D01*
X99350D01*
Y71684D01*
X96013D01*
X95587Y71684D01*
X95046Y71684D01*
X94622Y72109D01*
Y74138D01*
X97517D01*
Y73477D01*
X104035D01*
Y76617D01*
X104035Y77043D01*
X104035Y77643D01*
Y80358D01*
X104035Y80783D01*
X104035Y81383D01*
Y84523D01*
X97517D01*
Y84219D01*
X90296D01*
X90272Y84342D01*
X90061Y84657D01*
Y87454D01*
X91550D01*
Y95547D01*
X85820D01*
Y87454D01*
X87309D01*
Y84657D01*
X87098Y84342D01*
X86968Y83685D01*
X87098Y83028D01*
X87471Y82471D01*
X88028Y82099D01*
X88219Y82061D01*
X88585Y81695D01*
X89064Y81374D01*
X89630Y81262D01*
X92252D01*
X92699Y80892D01*
X92699Y80892D01*
X92699D01*
X92721Y80662D01*
X92701Y80658D01*
X92343Y80587D01*
X92181Y80479D01*
X85000D01*
X84434Y80366D01*
X83955Y80045D01*
X83534Y79624D01*
X83343Y79586D01*
X82786Y79214D01*
X82414Y78657D01*
X82283Y78000D01*
X82414Y77343D01*
X82786Y76786D01*
X83343Y76414D01*
X84000Y76283D01*
X84657Y76414D01*
X85214Y76786D01*
X85587Y77343D01*
X85622Y77522D01*
X92181D01*
X92298Y77444D01*
X92364Y77180D01*
X92400Y76790D01*
X92286Y76714D01*
X91913Y76157D01*
X91783Y75500D01*
X91913Y74843D01*
X92286Y74286D01*
X92378Y74224D01*
Y71684D01*
X91650D01*
Y68784D01*
X91050Y68536D01*
X89793Y69793D01*
X89429Y70036D01*
X89000Y70122D01*
X89000Y70122D01*
X55800D01*
X55618Y70722D01*
X55714Y70786D01*
X56087Y71343D01*
X56217Y72000D01*
X56172Y72230D01*
X56966Y73024D01*
X57410Y73355D01*
Y73355D01*
X57410Y73355D01*
X61052D01*
Y72115D01*
X68948D01*
Y73355D01*
X72590D01*
Y73528D01*
X73377D01*
X73413Y73343D01*
X73786Y72786D01*
X74343Y72413D01*
X75000Y72283D01*
X75657Y72413D01*
X76214Y72786D01*
X76587Y73343D01*
X76717Y74000D01*
X76587Y74657D01*
X76495Y74794D01*
X76816Y75394D01*
X79180D01*
X79343Y75285D01*
X80000Y75155D01*
X80657Y75285D01*
X81214Y75658D01*
X81587Y76215D01*
X81717Y76872D01*
X81587Y77529D01*
X81214Y78086D01*
X80657Y78458D01*
X80000Y78589D01*
X79343Y78458D01*
X78873Y78145D01*
X78506Y78354D01*
X78495Y78363D01*
X78375Y78478D01*
X78478Y79000D01*
Y80000D01*
Y95000D01*
X78366Y95566D01*
X78045Y96045D01*
X77663Y96428D01*
X78045Y96894D01*
X78434Y96634D01*
X79000Y96522D01*
X101181D01*
X101343Y96413D01*
X102000Y96283D01*
X102657Y96413D01*
X103214Y96786D01*
X103328Y96956D01*
X107454D01*
X111455Y92955D01*
X111934Y92634D01*
X112500Y92522D01*
X115820D01*
Y89954D01*
X117522D01*
Y84819D01*
X117413Y84657D01*
X117376Y84466D01*
X117128Y84219D01*
X113484D01*
Y84523D01*
X106965D01*
Y81383D01*
X106965Y80958D01*
X106965Y80358D01*
Y77643D01*
X106965Y77217D01*
X106965Y76617D01*
Y73477D01*
X113484D01*
Y74138D01*
X120550D01*
X120786Y73786D01*
X121343Y73413D01*
X122000Y73283D01*
X122657Y73413D01*
X123214Y73786D01*
X123586Y74343D01*
X123717Y75000D01*
X123586Y75657D01*
X123214Y76214D01*
X122657Y76587D01*
X122000Y76717D01*
X121343Y76587D01*
X121036Y76381D01*
X119859D01*
X119809Y76511D01*
X119759Y76981D01*
X120214Y77286D01*
X120587Y77843D01*
X120717Y78500D01*
X120587Y79157D01*
X120214Y79714D01*
X119657Y80087D01*
X119000Y80217D01*
X118343Y80087D01*
X117786Y79714D01*
X117724Y79622D01*
X113908D01*
X113484Y80046D01*
X113484Y80783D01*
X113775Y81262D01*
X117740D01*
X118306Y81374D01*
X118786Y81695D01*
X119466Y82376D01*
X119657Y82414D01*
X120214Y82786D01*
X120587Y83343D01*
X120717Y84000D01*
X120587Y84657D01*
X120478Y84819D01*
Y89954D01*
X121550D01*
Y98046D01*
X115820D01*
Y95478D01*
X113112D01*
X109111Y99480D01*
X108632Y99800D01*
X108066Y99913D01*
X102434D01*
X101868Y99800D01*
X101636Y99645D01*
X101343Y99586D01*
X101181Y99478D01*
X79612D01*
X79125Y99966D01*
X79087Y100157D01*
X78714Y100714D01*
X78157Y101087D01*
X77500Y101217D01*
X76843Y101087D01*
X76681Y100979D01*
X72680D01*
Y101818D01*
D02*
G37*
G36*
X10000Y84718D02*
X9569Y84431D01*
X9282Y84000D01*
X10000D01*
Y84718D01*
D02*
G37*
G36*
X49718Y82500D02*
X49000D01*
Y81782D01*
X49431Y82069D01*
X49718Y82500D01*
D02*
G37*
G36*
X47000D02*
X46282D01*
X46569Y82069D01*
X47000Y81782D01*
Y82500D01*
D02*
G37*
G36*
X58488Y81945D02*
X57110D01*
Y81453D01*
X58488D01*
Y81945D01*
D02*
G37*
G36*
X10000Y82000D02*
X9282D01*
X9569Y81569D01*
X10000Y81282D01*
Y82000D01*
D02*
G37*
G36*
X147393Y84621D02*
X141465D01*
Y80859D01*
X147393D01*
Y81262D01*
X150921D01*
X151083Y81154D01*
X151740Y81023D01*
X152397Y81154D01*
X152954Y81526D01*
X153327Y82083D01*
X153457Y82740D01*
X153327Y83397D01*
X152954Y83955D01*
X152397Y84327D01*
X151740Y84457D01*
X151083Y84327D01*
X150921Y84219D01*
X147393D01*
Y84621D01*
D02*
G37*
G36*
X15984Y82031D02*
X15000D01*
Y80850D01*
X15984D01*
Y82031D01*
D02*
G37*
G36*
X38980Y84618D02*
X36815D01*
Y79500D01*
X38980D01*
Y84618D01*
D02*
G37*
G36*
X34815D02*
X32650D01*
Y79500D01*
X34815D01*
Y84618D01*
D02*
G37*
G36*
X49500Y80203D02*
Y79484D01*
X50218D01*
X49931Y79915D01*
X49500Y80203D01*
D02*
G37*
G36*
X47500D02*
X47069Y79915D01*
X46782Y79484D01*
X47500D01*
Y80203D01*
D02*
G37*
G36*
X50218Y77484D02*
X49500D01*
Y76766D01*
X49931Y77054D01*
X50218Y77484D01*
D02*
G37*
G36*
X47500D02*
X46782D01*
X47069Y77054D01*
X47500Y76766D01*
Y77484D01*
D02*
G37*
G36*
X49000Y75218D02*
Y74500D01*
X49718D01*
X49431Y74931D01*
X49000Y75218D01*
D02*
G37*
G36*
X47000D02*
X46569Y74931D01*
X46282Y74500D01*
X47000D01*
Y75218D01*
D02*
G37*
G36*
X20000Y84717D02*
X19343Y84587D01*
X18786Y84214D01*
X18414Y83657D01*
X18283Y83000D01*
X18414Y82343D01*
X18522Y82181D01*
Y79819D01*
X18414Y79657D01*
X18283Y79000D01*
X18414Y78343D01*
X18522Y78181D01*
Y75819D01*
X18414Y75657D01*
X18283Y75000D01*
X18414Y74343D01*
X18786Y73786D01*
X19343Y73413D01*
X20000Y73283D01*
X20657Y73413D01*
X20819Y73522D01*
X22320D01*
Y72682D01*
X28050D01*
Y84318D01*
X22320D01*
Y83821D01*
X21477D01*
X21214Y84214D01*
X20657Y84587D01*
X20000Y84717D01*
D02*
G37*
G36*
X165074Y77633D02*
X160524D01*
Y72296D01*
X165074D01*
Y77633D01*
D02*
G37*
G36*
X157476D02*
X152926D01*
Y72296D01*
X157476D01*
Y77633D01*
D02*
G37*
G36*
X155763Y71531D02*
X148458D01*
Y70590D01*
X147276D01*
X147214Y70683D01*
X146657Y71055D01*
X146000Y71186D01*
X145343Y71055D01*
X144786Y70683D01*
X144413Y70126D01*
X144283Y69469D01*
X144413Y68811D01*
X144786Y68254D01*
X145343Y67882D01*
X146000Y67751D01*
X146657Y67882D01*
X147214Y68254D01*
X147276Y68347D01*
X148458D01*
Y67375D01*
X155763D01*
Y71531D01*
D02*
G37*
G36*
Y65625D02*
X148458D01*
Y65026D01*
X147850D01*
X147689Y65134D01*
X147031Y65264D01*
X146374Y65134D01*
X145817Y64762D01*
X145445Y64205D01*
X145314Y63547D01*
X145445Y62890D01*
X145817Y62333D01*
X146374Y61961D01*
X147031Y61830D01*
X147689Y61961D01*
X147850Y62069D01*
X148458D01*
Y61469D01*
X155763D01*
Y65625D01*
D02*
G37*
G36*
X159000Y69020D02*
X158036Y68828D01*
X157218Y68282D01*
X156672Y67464D01*
X156480Y66500D01*
X156672Y65536D01*
X157218Y64718D01*
X158036Y64172D01*
X159000Y63980D01*
X159964Y64172D01*
X160782Y64718D01*
X161328Y65536D01*
X161520Y66500D01*
X161328Y67464D01*
X160782Y68282D01*
X159964Y68828D01*
X159000Y69020D01*
D02*
G37*
G36*
X22755Y67802D02*
X14269D01*
Y60891D01*
X22755D01*
Y67802D01*
D02*
G37*
G36*
X79901Y61818D02*
X74958D01*
Y56481D01*
X79901D01*
Y61818D01*
D02*
G37*
G36*
Y55519D02*
X74958D01*
Y53972D01*
X73173D01*
X73027Y54191D01*
X72470Y54564D01*
X71812Y54694D01*
X71155Y54564D01*
X70598Y54191D01*
X70226Y53634D01*
X70095Y52977D01*
X70226Y52320D01*
X70598Y51763D01*
X71155Y51390D01*
X71812Y51260D01*
X72470Y51390D01*
X72976Y51729D01*
X74958D01*
Y50182D01*
X79901D01*
Y55519D01*
D02*
G37*
G36*
X159000Y57209D02*
X158036Y57017D01*
X157218Y56471D01*
X156672Y55653D01*
X156480Y54689D01*
X156672Y53725D01*
X157218Y52907D01*
X158036Y52361D01*
X159000Y52169D01*
X159964Y52361D01*
X160782Y52907D01*
X161328Y53725D01*
X161520Y54689D01*
X161328Y55653D01*
X160782Y56471D01*
X159964Y57017D01*
X159000Y57209D01*
D02*
G37*
G36*
X96043Y55519D02*
X91099D01*
Y50182D01*
X96043D01*
Y55519D01*
D02*
G37*
G36*
X155763Y53814D02*
X148458D01*
Y49658D01*
X155763D01*
Y53814D01*
D02*
G37*
G36*
X165074Y48893D02*
X160524D01*
Y43556D01*
X165074D01*
Y48893D01*
D02*
G37*
G36*
X157476D02*
X152926D01*
Y43556D01*
X157476D01*
Y48893D01*
D02*
G37*
G36*
X102000Y51217D02*
X101343Y51087D01*
X100786Y50714D01*
X100414Y50157D01*
X100283Y49500D01*
X100414Y48843D01*
X100624Y48529D01*
Y45330D01*
X97954D01*
Y39599D01*
X106046D01*
Y41241D01*
X108058D01*
X108205Y40886D01*
X108718Y40218D01*
X109386Y39705D01*
X110165Y39382D01*
X111000Y39272D01*
X111835Y39382D01*
X112614Y39705D01*
X113282Y40218D01*
X113795Y40886D01*
X114118Y41665D01*
X114228Y42500D01*
X114118Y43335D01*
X113795Y44114D01*
X113282Y44782D01*
X112614Y45295D01*
X111835Y45618D01*
X111000Y45728D01*
X110165Y45618D01*
X109386Y45295D01*
X108718Y44782D01*
X108205Y44114D01*
X108028Y43688D01*
X106046D01*
Y45330D01*
X103376D01*
Y48529D01*
X103587Y48843D01*
X103717Y49500D01*
X103587Y50157D01*
X103214Y50714D01*
X102657Y51087D01*
X102000Y51217D01*
D02*
G37*
G36*
X71500Y47217D02*
X70843Y47087D01*
X70286Y46714D01*
X69914Y46157D01*
X69783Y45500D01*
X69914Y44843D01*
X70286Y44286D01*
X70379Y44224D01*
Y41849D01*
X69816D01*
Y41090D01*
X28969D01*
X28539Y41005D01*
X28175Y40762D01*
X28175Y40762D01*
X23191Y35777D01*
X22948Y35414D01*
X22863Y34984D01*
X22863Y34984D01*
Y26661D01*
X21928D01*
Y27448D01*
X20775D01*
Y29570D01*
X20868Y29632D01*
X21240Y30189D01*
X21371Y30846D01*
X21240Y31504D01*
X20868Y32061D01*
X20311Y32433D01*
X19654Y32564D01*
X18996Y32433D01*
X18439Y32061D01*
X18067Y31504D01*
X17936Y30846D01*
X18067Y30189D01*
X18439Y29632D01*
X18532Y29570D01*
Y27448D01*
X13048D01*
Y20143D01*
X21710D01*
Y19355D01*
X26259D01*
Y20143D01*
X26878D01*
Y17276D01*
X26786Y17214D01*
X26414Y16657D01*
X26283Y16000D01*
X26414Y15343D01*
X26786Y14786D01*
X27343Y14413D01*
X28000Y14283D01*
X28657Y14413D01*
X29214Y14786D01*
X29586Y15343D01*
X29717Y16000D01*
X29586Y16657D01*
X29214Y17214D01*
X29122Y17276D01*
Y20143D01*
X30071D01*
Y19055D01*
X31646D01*
Y23008D01*
Y26961D01*
X30590D01*
Y27448D01*
X26040D01*
Y26661D01*
X25106D01*
Y34520D01*
X29433Y38847D01*
X69816D01*
Y38212D01*
X69516D01*
Y37031D01*
X73484D01*
Y38212D01*
X73184D01*
Y41849D01*
X72622D01*
Y44224D01*
X72714Y44286D01*
X73087Y44843D01*
X73217Y45500D01*
X73087Y46157D01*
X72714Y46714D01*
X72157Y47087D01*
X71500Y47217D01*
D02*
G37*
G36*
X79000Y46228D02*
X78165Y46118D01*
X77386Y45795D01*
X76718Y45282D01*
X76205Y44614D01*
X75882Y43835D01*
X75773Y43000D01*
X75882Y42165D01*
X76205Y41386D01*
X76718Y40718D01*
X77386Y40205D01*
X78165Y39882D01*
X79000Y39772D01*
X79835Y39882D01*
X80614Y40205D01*
X81282Y40718D01*
X81795Y41386D01*
X81999Y41879D01*
X85124D01*
Y39031D01*
X84028D01*
Y34481D01*
X88972D01*
Y39031D01*
X87876D01*
Y42028D01*
X88087Y42343D01*
X88217Y43000D01*
X88087Y43657D01*
X87714Y44214D01*
X87157Y44587D01*
X86500Y44717D01*
X85843Y44587D01*
X85286Y44214D01*
X85224Y44122D01*
X81999D01*
X81795Y44614D01*
X81282Y45282D01*
X80614Y45795D01*
X79835Y46118D01*
X79000Y46228D01*
D02*
G37*
G36*
X73484Y35032D02*
X69516D01*
Y33850D01*
X69700D01*
X69949Y33250D01*
X69782Y33000D01*
X73218D01*
X73051Y33250D01*
X73300Y33850D01*
X73484D01*
Y35032D01*
D02*
G37*
G36*
X73218Y31000D02*
X69782D01*
X69949Y30749D01*
X69700Y30149D01*
X69516D01*
Y28969D01*
X71500D01*
X73484D01*
Y30149D01*
X73300D01*
X73051Y30749D01*
X73218Y31000D01*
D02*
G37*
G36*
X49500Y34217D02*
X48843Y34087D01*
X48286Y33714D01*
X47914Y33157D01*
X47783Y32500D01*
X47805Y32391D01*
X44845Y29431D01*
X44602Y29067D01*
X44516Y28638D01*
X44516Y28638D01*
Y27448D01*
X43582D01*
Y29023D01*
X39032D01*
Y27448D01*
X38098D01*
Y29708D01*
X38214Y29786D01*
X38587Y30343D01*
X38717Y31000D01*
X38587Y31657D01*
X38214Y32214D01*
X37657Y32587D01*
X37000Y32717D01*
X36343Y32587D01*
X35786Y32214D01*
X35414Y31657D01*
X35283Y31000D01*
X35414Y30343D01*
X35786Y29786D01*
X35855Y29740D01*
Y27448D01*
X34702D01*
Y26961D01*
X33646D01*
Y23008D01*
Y19055D01*
X35221D01*
Y20143D01*
X39251D01*
Y21717D01*
X40185D01*
Y17469D01*
X40093Y17407D01*
X39720Y16850D01*
X39590Y16193D01*
X39720Y15536D01*
X40093Y14979D01*
X40650Y14606D01*
X41307Y14476D01*
X41964Y14606D01*
X42521Y14979D01*
X42894Y15536D01*
X43024Y16193D01*
X42894Y16850D01*
X42521Y17407D01*
X42429Y17469D01*
Y21717D01*
X43363D01*
Y20143D01*
X47913D01*
Y22674D01*
X69816D01*
Y22150D01*
X73184D01*
Y25787D01*
X73484D01*
Y26969D01*
X71500D01*
X69516D01*
Y25787D01*
X69816D01*
Y24917D01*
X47913D01*
Y27448D01*
X46759D01*
Y28173D01*
X49391Y30805D01*
X49500Y30783D01*
X50157Y30913D01*
X50714Y31286D01*
X51087Y31843D01*
X51217Y32500D01*
X51087Y33157D01*
X50714Y33714D01*
X50157Y34087D01*
X49500Y34217D01*
D02*
G37*
G36*
X95500Y43217D02*
X94843Y43087D01*
X94286Y42714D01*
X93914Y42157D01*
X93783Y41500D01*
X93914Y40843D01*
X94286Y40286D01*
X94379Y40224D01*
Y36669D01*
X93816D01*
Y33332D01*
X93816Y32906D01*
X93816Y32306D01*
Y28969D01*
X94676D01*
Y26171D01*
X94076Y25989D01*
X94031Y26055D01*
X94031Y26055D01*
X92622Y27465D01*
Y28969D01*
X93184D01*
Y32306D01*
X93184Y32732D01*
X93184Y33332D01*
Y36669D01*
X92622D01*
Y37724D01*
X92714Y37786D01*
X93087Y38343D01*
X93217Y39000D01*
X93087Y39657D01*
X92714Y40214D01*
X92157Y40587D01*
X91500Y40717D01*
X90843Y40587D01*
X90286Y40214D01*
X89913Y39657D01*
X89783Y39000D01*
X89913Y38343D01*
X90286Y37786D01*
X90378Y37724D01*
Y36669D01*
X89816D01*
Y33332D01*
X89816Y32906D01*
X89816Y32306D01*
Y28969D01*
X90378D01*
Y27000D01*
X90378Y27000D01*
X90464Y26571D01*
X90707Y26207D01*
X92049Y24865D01*
X91995Y24407D01*
X91412Y24219D01*
X87724Y27907D01*
Y28969D01*
X88972D01*
Y33519D01*
X84028D01*
Y28969D01*
X85277D01*
Y27400D01*
X85370Y26932D01*
X85635Y26535D01*
X89456Y22714D01*
Y21889D01*
X82499D01*
Y12440D01*
X78956D01*
Y9861D01*
X77609D01*
X77184Y10286D01*
Y10550D01*
X77184Y11150D01*
Y14487D01*
X73816D01*
Y13830D01*
X73184D01*
Y14487D01*
X72724D01*
Y18300D01*
X73087Y18843D01*
X73217Y19500D01*
X73087Y20157D01*
X72714Y20714D01*
X72157Y21087D01*
X71500Y21217D01*
X70843Y21087D01*
X70286Y20714D01*
X69914Y20157D01*
X69783Y19500D01*
X69914Y18843D01*
X70276Y18300D01*
Y14487D01*
X69816D01*
Y11150D01*
X69816Y10725D01*
X69816Y10286D01*
X69392Y9861D01*
X67440D01*
Y13078D01*
X60528D01*
Y4198D01*
X67440D01*
Y7414D01*
X69816D01*
Y6788D01*
X73184D01*
Y7414D01*
X73816D01*
Y6788D01*
X77184D01*
Y7414D01*
X78956D01*
Y3560D01*
X95513D01*
Y3560D01*
X96082D01*
Y3560D01*
X112639D01*
Y12440D01*
X109096D01*
Y21889D01*
X102139D01*
Y25209D01*
X102965Y26035D01*
X103230Y26432D01*
X103323Y26900D01*
Y28969D01*
X106046D01*
Y30777D01*
X108043D01*
X108205Y30386D01*
X108718Y29718D01*
X109386Y29205D01*
X110165Y28882D01*
X111000Y28772D01*
X111835Y28882D01*
X112614Y29205D01*
X113282Y29718D01*
X113795Y30386D01*
X114118Y31165D01*
X114228Y32000D01*
X114118Y32835D01*
X113795Y33614D01*
X113282Y34282D01*
X112614Y34795D01*
X111835Y35118D01*
X111000Y35228D01*
X110165Y35118D01*
X109386Y34795D01*
X108718Y34282D01*
X108205Y33614D01*
X108043Y33224D01*
X106046D01*
Y34700D01*
X97954D01*
Y28969D01*
X100876D01*
Y27407D01*
X100050Y26580D01*
X99785Y26184D01*
X99692Y25715D01*
Y21889D01*
X96919D01*
Y28969D01*
X97184D01*
Y32306D01*
X97184Y32732D01*
X97184Y33332D01*
Y36669D01*
X96622D01*
Y40224D01*
X96714Y40286D01*
X97087Y40843D01*
X97217Y41500D01*
X97087Y42157D01*
X96714Y42714D01*
X96157Y43087D01*
X95500Y43217D01*
D02*
G37*
G36*
X141000Y50246D02*
X140343Y50115D01*
X139786Y49743D01*
X139413Y49186D01*
X139283Y48529D01*
X139413Y47871D01*
X139459Y47804D01*
Y40590D01*
X138268D01*
Y25410D01*
X143605D01*
Y40590D01*
X142415D01*
Y47615D01*
X142587Y47871D01*
X142717Y48529D01*
X142587Y49186D01*
X142214Y49743D01*
X141657Y50115D01*
X141000Y50246D01*
D02*
G37*
G36*
X15669Y17015D02*
X8757D01*
Y8135D01*
X15669D01*
Y17015D01*
D02*
G37*
G36*
X154432Y18542D02*
X147127D01*
Y3757D01*
X154432D01*
Y18542D01*
D02*
G37*
G36*
X126873D02*
X119568D01*
Y3757D01*
X126873D01*
Y18542D01*
D02*
G37*
%LPD*%
G36*
X79123Y235291D02*
X79487Y235048D01*
X79916Y234963D01*
X79916Y234963D01*
X96826D01*
X97008Y234363D01*
X96786Y234214D01*
X96413Y233657D01*
X96283Y233000D01*
X96413Y232343D01*
X96522Y232181D01*
Y229612D01*
X95325Y228415D01*
X91684D01*
Y228818D01*
X88316D01*
Y228059D01*
X85088D01*
X84634Y228659D01*
X84685Y228916D01*
X84555Y229573D01*
X84183Y230130D01*
X83625Y230502D01*
X82968Y230633D01*
X82311Y230502D01*
X82218Y230440D01*
X81678Y230801D01*
X81717Y231000D01*
X81586Y231657D01*
X81214Y232214D01*
X80657Y232587D01*
X80000Y232717D01*
X79343Y232587D01*
X78786Y232214D01*
X78724Y232121D01*
X75052D01*
X74623Y232036D01*
X74259Y231793D01*
X74259Y231793D01*
X71159Y228692D01*
X70559Y228941D01*
Y231420D01*
X71000Y231783D01*
X71657Y231913D01*
X72214Y232286D01*
X72587Y232843D01*
X72717Y233500D01*
X72587Y234157D01*
X72214Y234714D01*
X71657Y235086D01*
X71000Y235217D01*
X70343Y235086D01*
X69786Y234714D01*
X69414Y234157D01*
X69190Y234073D01*
X68826Y234247D01*
X68617Y234498D01*
X68717Y235000D01*
X68587Y235657D01*
X68214Y236214D01*
X67657Y236587D01*
X67000Y236717D01*
X66343Y236587D01*
X66052Y236392D01*
X65452Y236713D01*
Y238474D01*
X65545Y238536D01*
X65917Y239093D01*
X66048Y239750D01*
X65917Y240407D01*
X65545Y240964D01*
X64988Y241336D01*
X64331Y241467D01*
X63674Y241336D01*
X63116Y240964D01*
X62744Y240407D01*
X62613Y239750D01*
X62744Y239093D01*
X63116Y238536D01*
X63209Y238474D01*
Y232669D01*
X63209Y232669D01*
X63295Y232240D01*
X63538Y231876D01*
X64378Y231035D01*
Y219335D01*
X62685D01*
Y227937D01*
X62599Y228366D01*
X62356Y228730D01*
X62356Y228730D01*
X58625Y232462D01*
X58854Y233016D01*
X58969D01*
Y235000D01*
Y236984D01*
X57787D01*
Y236684D01*
X57153D01*
Y238692D01*
X57246Y238754D01*
X57463Y239079D01*
X57581Y239109D01*
X58135Y239070D01*
X58469Y238569D01*
X58900Y238282D01*
Y240000D01*
Y241718D01*
X58469Y241431D01*
X58126Y240916D01*
X57624Y240854D01*
X57442Y240889D01*
X57246Y241183D01*
X56689Y241555D01*
X56032Y241686D01*
X55374Y241555D01*
X54817Y241183D01*
X54445Y240626D01*
X54314Y239968D01*
X54445Y239311D01*
X54817Y238754D01*
X54910Y238692D01*
Y236684D01*
X54150D01*
Y233316D01*
X54940D01*
X54995Y233039D01*
X55238Y232675D01*
X55238Y232675D01*
X60441Y227472D01*
Y226493D01*
X59842Y226244D01*
X56196Y229891D01*
X56217Y230000D01*
X56087Y230657D01*
X55714Y231214D01*
X55157Y231587D01*
X54500Y231717D01*
X53843Y231587D01*
X53722Y231505D01*
X53122Y231826D01*
Y242535D01*
X54371Y243785D01*
X70629D01*
X79123Y235291D01*
D02*
G37*
G36*
X114786Y194286D02*
X114878Y194224D01*
Y193465D01*
X113929Y192515D01*
X113531Y192913D01*
X110959Y190341D01*
X110747Y190553D01*
X109912Y189718D01*
X111315Y188315D01*
X109901Y186901D01*
X108498Y188304D01*
X107663Y187469D01*
X109456Y185676D01*
X109226Y185122D01*
X94547D01*
Y186429D01*
X94846D01*
Y188867D01*
X98316D01*
Y188150D01*
X101684D01*
X102028Y187969D01*
Y187969D01*
X106972D01*
Y189168D01*
X107173Y189208D01*
X107537Y189451D01*
X112465Y194378D01*
X114724D01*
X114786Y194286D01*
D02*
G37*
%LPC*%
G36*
X60900Y241718D02*
Y241000D01*
X61618D01*
X61331Y241431D01*
X60900Y241718D01*
D02*
G37*
G36*
X61618Y239000D02*
X60900D01*
Y238282D01*
X61331Y238569D01*
X61618Y239000D01*
D02*
G37*
G36*
X62150Y236984D02*
X60969D01*
Y236000D01*
X62150D01*
Y236984D01*
D02*
G37*
G36*
Y234000D02*
X60969D01*
Y233016D01*
X62150D01*
Y234000D01*
D02*
G37*
%LPD*%
G36*
X72253Y157826D02*
X72253Y157826D01*
X72338Y157397D01*
X72581Y157033D01*
X74879Y154735D01*
Y153849D01*
X74000D01*
Y151669D01*
X72000D01*
Y153849D01*
X71016D01*
X70559Y154194D01*
Y166547D01*
X72253D01*
Y157826D01*
D02*
G37*
G36*
X99304Y150988D02*
X99668Y150745D01*
X100098Y150660D01*
X100098Y150660D01*
X104724D01*
X104786Y150567D01*
X105343Y150195D01*
X105682Y150127D01*
X105878Y149834D01*
X105878Y149834D01*
Y148276D01*
X105786Y148214D01*
X105413Y147657D01*
X105283Y147000D01*
X105413Y146343D01*
X105786Y145786D01*
X106343Y145413D01*
X107000Y145283D01*
X107657Y145413D01*
X108214Y145786D01*
X108397Y146059D01*
X108997Y145877D01*
Y141513D01*
X113940D01*
Y146062D01*
X113836D01*
X113536Y146662D01*
X113722Y146910D01*
X116192D01*
X116254Y146817D01*
X116347Y146755D01*
Y142381D01*
X115784D01*
Y138744D01*
X115484D01*
Y137563D01*
X119453D01*
Y138744D01*
X119153D01*
Y142381D01*
X118590D01*
Y146755D01*
X118683Y146817D01*
X118724Y146879D01*
X120284D01*
Y146119D01*
X120284D01*
Y145944D01*
X120284D01*
Y142182D01*
X123653D01*
Y142941D01*
X125472D01*
X126086Y142328D01*
X125998Y141906D01*
X125902Y141728D01*
X124532D01*
Y138091D01*
X124232D01*
Y135653D01*
X122468D01*
X122468Y135653D01*
X122039Y135568D01*
X121675Y135325D01*
X120648Y134297D01*
X120018D01*
X119453Y134382D01*
Y135563D01*
X115484D01*
Y134382D01*
X114919Y134297D01*
X113153D01*
Y134881D01*
X109784D01*
Y131119D01*
X109784D01*
Y130944D01*
X109784D01*
Y127182D01*
X110347D01*
Y125808D01*
X110254Y125746D01*
X109882Y125189D01*
X109751Y124531D01*
X109882Y123874D01*
X110254Y123317D01*
X110811Y122945D01*
X111469Y122814D01*
X112126Y122945D01*
X112683Y123317D01*
X112745Y123410D01*
X113468D01*
X113469Y123410D01*
X113898Y123495D01*
X114261Y123738D01*
X115184Y124661D01*
X115784Y124413D01*
Y124182D01*
X119153D01*
Y125536D01*
X120594D01*
X120595Y125536D01*
X121024Y125621D01*
X121388Y125864D01*
X123028Y127505D01*
X124532D01*
Y127336D01*
X129869D01*
X130241Y126889D01*
Y123398D01*
X129916Y122933D01*
X129707Y122793D01*
X129707Y122793D01*
X126035Y119122D01*
X110465D01*
X97122Y132465D01*
Y138174D01*
X97122Y138174D01*
X97036Y138603D01*
X96793Y138967D01*
X96793Y138967D01*
X95726Y140034D01*
X95924Y140685D01*
X95930Y140686D01*
X96487Y141059D01*
X96859Y141616D01*
X96990Y142273D01*
X96859Y142930D01*
X96708Y143157D01*
X97028Y143757D01*
X99645D01*
X99707Y143664D01*
X100264Y143292D01*
X100921Y143161D01*
X101578Y143292D01*
X102136Y143664D01*
X102508Y144221D01*
X102638Y144879D01*
X102508Y145536D01*
X102136Y146093D01*
X101578Y146465D01*
X100921Y146596D01*
X100264Y146465D01*
X99707Y146093D01*
X99645Y146000D01*
X87086D01*
X85270Y147816D01*
X85565Y148369D01*
X86000Y148283D01*
X86657Y148414D01*
X87214Y148786D01*
X87587Y149343D01*
X87717Y150000D01*
X87587Y150657D01*
X87214Y151214D01*
X86657Y151587D01*
X86000Y151717D01*
X85891Y151696D01*
X85306Y152280D01*
X85479Y152716D01*
X85588Y152847D01*
X89816D01*
Y152213D01*
X89516D01*
Y151031D01*
X93484D01*
Y152213D01*
X93184D01*
Y152847D01*
X97446D01*
X99304Y150988D01*
D02*
G37*
G36*
X141265Y136122D02*
X140965D01*
Y135229D01*
X140365Y135170D01*
X140338Y135306D01*
X139899Y135962D01*
X139469Y136250D01*
Y134531D01*
Y132813D01*
X139899Y133101D01*
X140338Y133757D01*
X140365Y133893D01*
X140965Y133834D01*
Y132941D01*
X141265D01*
Y128811D01*
X140696Y128735D01*
Y128735D01*
X137221D01*
X137039Y129335D01*
X137114Y129386D01*
X137487Y129943D01*
X137617Y130600D01*
X137487Y131257D01*
X137114Y131814D01*
X136557Y132186D01*
X135900Y132317D01*
X135243Y132186D01*
X134686Y131814D01*
X134313Y131257D01*
X134183Y130600D01*
X134313Y129943D01*
X134347Y129893D01*
Y128735D01*
X130658D01*
X130210Y128982D01*
X130169Y129306D01*
Y129595D01*
X129870D01*
Y129917D01*
X127201D01*
Y131595D01*
X130169D01*
Y133321D01*
X130769Y133503D01*
X131038Y133101D01*
X131468Y132813D01*
Y134531D01*
Y136250D01*
X131038Y135962D01*
X130769Y135560D01*
X130169Y135742D01*
Y137347D01*
X133184D01*
X133308Y137264D01*
X133737Y137178D01*
X134192D01*
X134254Y137086D01*
X134811Y136714D01*
X135468Y136583D01*
X136126Y136714D01*
X136683Y137086D01*
X136745Y137178D01*
X138763D01*
X138763Y137178D01*
X139192Y137264D01*
X139316Y137347D01*
X141265D01*
Y136122D01*
D02*
G37*
%LPC*%
G36*
X97500Y151718D02*
Y151000D01*
X98218D01*
X97931Y151431D01*
X97500Y151718D01*
D02*
G37*
G36*
X95500D02*
X95069Y151431D01*
X94782Y151000D01*
X95500D01*
Y151718D01*
D02*
G37*
G36*
X98218Y149000D02*
X97500D01*
Y148282D01*
X97931Y148570D01*
X98218Y149000D01*
D02*
G37*
G36*
X95500D02*
X94782D01*
X95069Y148570D01*
X95500Y148282D01*
Y149000D01*
D02*
G37*
G36*
X93484Y149031D02*
X92500D01*
Y147850D01*
X93484D01*
Y149031D01*
D02*
G37*
G36*
X90500D02*
X89516D01*
Y147850D01*
X90500D01*
Y149031D01*
D02*
G37*
G36*
X114240Y140850D02*
X112469D01*
Y139276D01*
X114240D01*
Y140850D01*
D02*
G37*
G36*
X110468D02*
X108697D01*
Y139276D01*
X110468D01*
Y140850D01*
D02*
G37*
G36*
X114240Y137276D02*
X112469D01*
Y135701D01*
X114240D01*
Y137276D01*
D02*
G37*
G36*
X110468D02*
X108697D01*
Y135701D01*
X110468D01*
Y137276D01*
D02*
G37*
G36*
X137469Y136250D02*
X137038Y135962D01*
X136750Y135531D01*
X137469D01*
Y136250D01*
D02*
G37*
G36*
X133468D02*
Y135531D01*
X134187D01*
X133899Y135962D01*
X133468Y136250D01*
D02*
G37*
G36*
X137469Y133531D02*
X136750D01*
X137038Y133101D01*
X137469Y132813D01*
Y133531D01*
D02*
G37*
G36*
X134187D02*
X133468D01*
Y132813D01*
X133899Y133101D01*
X134187Y133531D01*
D02*
G37*
%LPD*%
D13*
X117500Y51531D02*
X121500D01*
X71500Y12606D02*
Y19500D01*
Y12606D02*
X75500D01*
X110965Y42465D02*
X111000Y42500D01*
X102000Y42465D02*
X110965D01*
X83693Y8638D02*
X84331Y8000D01*
X63984Y8638D02*
X83693D01*
X90679Y18473D02*
Y23221D01*
X86500Y27400D02*
X90679Y23221D01*
X86500Y27400D02*
Y31244D01*
X100915Y18473D02*
Y25715D01*
X102100Y26900D01*
Y31735D01*
X102000Y31835D02*
X102100Y31735D01*
X102000Y31835D02*
X102165Y32000D01*
X111000D01*
X132468Y134531D02*
X138469D01*
D16*
X106650Y260012D02*
D03*
X97988D02*
D03*
Y252138D02*
D03*
X106650D02*
D03*
D17*
X97988Y256075D02*
D03*
X106650D02*
D03*
D18*
X46012Y215382D02*
D03*
X90894Y170500D02*
D03*
D19*
X83217Y215382D02*
D03*
X81248D02*
D03*
X79280D02*
D03*
X77311D02*
D03*
X75343D02*
D03*
X73374D02*
D03*
X71406D02*
D03*
X69437D02*
D03*
X67469D02*
D03*
X65500D02*
D03*
X63532D02*
D03*
X61563D02*
D03*
X59595D02*
D03*
X57626D02*
D03*
X55658D02*
D03*
X53689D02*
D03*
Y170500D02*
D03*
X55658D02*
D03*
X57626D02*
D03*
X59595D02*
D03*
X61563D02*
D03*
X63532D02*
D03*
X65500D02*
D03*
X67469D02*
D03*
X69437D02*
D03*
X71406D02*
D03*
X73374D02*
D03*
X75343D02*
D03*
X77311D02*
D03*
X79280D02*
D03*
X81248D02*
D03*
X83217D02*
D03*
D20*
X46012Y207705D02*
D03*
Y205736D02*
D03*
Y203768D02*
D03*
Y201799D02*
D03*
Y199831D02*
D03*
Y197862D02*
D03*
Y195894D02*
D03*
Y193925D02*
D03*
Y191957D02*
D03*
Y189988D02*
D03*
Y188020D02*
D03*
Y186051D02*
D03*
Y184083D02*
D03*
Y182114D02*
D03*
Y180146D02*
D03*
Y178177D02*
D03*
X90894D02*
D03*
Y180146D02*
D03*
Y182114D02*
D03*
Y184083D02*
D03*
Y186051D02*
D03*
Y188020D02*
D03*
Y189988D02*
D03*
Y191957D02*
D03*
Y193925D02*
D03*
Y195894D02*
D03*
Y197862D02*
D03*
Y199831D02*
D03*
Y201799D02*
D03*
Y203768D02*
D03*
Y205736D02*
D03*
Y207705D02*
D03*
D21*
X65000Y254126D02*
D03*
Y258063D02*
D03*
Y262000D02*
D03*
X53583Y254126D02*
D03*
Y258063D02*
D03*
Y262000D02*
D03*
D22*
X59291Y258063D02*
D03*
D23*
X57374Y268063D02*
D03*
X61311D02*
D03*
X103811Y269012D02*
D03*
X99874D02*
D03*
X82780Y261150D02*
D03*
X86717D02*
D03*
X82780Y256327D02*
D03*
X86717D02*
D03*
X135500Y263264D02*
D03*
X139437D02*
D03*
X135531Y259264D02*
D03*
X139469D02*
D03*
X150437Y262264D02*
D03*
X146500D02*
D03*
X155500D02*
D03*
X159437D02*
D03*
X36287Y268000D02*
D03*
X40224D02*
D03*
X16287Y269000D02*
D03*
X20224D02*
D03*
X16319Y265000D02*
D03*
X20256D02*
D03*
X31224Y268000D02*
D03*
X27287D02*
D03*
X16969Y227000D02*
D03*
X13032D02*
D03*
X21468Y152000D02*
D03*
X17531D02*
D03*
X21468Y159500D02*
D03*
X17531D02*
D03*
X13032Y231000D02*
D03*
X16969D02*
D03*
X45469Y102500D02*
D03*
X41532D02*
D03*
X39531Y98000D02*
D03*
X43468D02*
D03*
X40437Y92833D02*
D03*
X36500D02*
D03*
X21969Y119000D02*
D03*
X18032D02*
D03*
X67469Y109000D02*
D03*
X63532D02*
D03*
X150969Y193500D02*
D03*
X147031D02*
D03*
Y197500D02*
D03*
X150969D02*
D03*
Y189000D02*
D03*
X147031D02*
D03*
X59969Y235000D02*
D03*
X56032D02*
D03*
X97469Y70000D02*
D03*
X93532D02*
D03*
X143968Y118500D02*
D03*
X140032D02*
D03*
X115032Y172500D02*
D03*
X118968D02*
D03*
X134468Y198500D02*
D03*
X130532D02*
D03*
X115000Y167500D02*
D03*
X118937D02*
D03*
X64468Y116000D02*
D03*
X60532D02*
D03*
X56032Y146000D02*
D03*
X59969D02*
D03*
X34563Y137000D02*
D03*
X38500D02*
D03*
X46437D02*
D03*
X42500D02*
D03*
D24*
X114874Y256106D02*
D03*
Y260043D02*
D03*
X16000Y194968D02*
D03*
Y191031D02*
D03*
X12000Y194968D02*
D03*
Y191031D02*
D03*
Y112937D02*
D03*
Y109000D02*
D03*
X14000Y86968D02*
D03*
Y83031D02*
D03*
X35500Y116000D02*
D03*
Y119937D02*
D03*
X28000Y96468D02*
D03*
Y92531D02*
D03*
X90000Y226937D02*
D03*
Y223000D02*
D03*
X121500Y55468D02*
D03*
Y51531D02*
D03*
X117500D02*
D03*
Y55468D02*
D03*
X113500Y51531D02*
D03*
Y55468D02*
D03*
X73000Y151669D02*
D03*
Y147731D02*
D03*
X152000Y117469D02*
D03*
Y113531D02*
D03*
X64500Y156968D02*
D03*
Y153031D02*
D03*
X26000Y172968D02*
D03*
Y169031D02*
D03*
X100000Y193968D02*
D03*
Y190031D02*
D03*
X37500Y190969D02*
D03*
Y187031D02*
D03*
X134000Y65532D02*
D03*
Y69469D02*
D03*
X135000Y100531D02*
D03*
Y104469D02*
D03*
X93500Y107531D02*
D03*
Y111469D02*
D03*
X77500Y110531D02*
D03*
Y114469D02*
D03*
X90437Y131031D02*
D03*
Y127094D02*
D03*
X71500Y12606D02*
D03*
Y8669D02*
D03*
X75500Y12606D02*
D03*
Y8669D02*
D03*
X95500Y30850D02*
D03*
Y34787D02*
D03*
X91500Y30850D02*
D03*
Y34787D02*
D03*
X71500Y36031D02*
D03*
Y39968D02*
D03*
Y24032D02*
D03*
Y27968D02*
D03*
X125500Y202468D02*
D03*
Y198531D02*
D03*
X91500Y153969D02*
D03*
Y150031D02*
D03*
X99000Y158031D02*
D03*
Y161969D02*
D03*
X117469Y126063D02*
D03*
Y130000D02*
D03*
Y140500D02*
D03*
Y136563D02*
D03*
X111469Y133000D02*
D03*
Y129063D02*
D03*
X121968Y144063D02*
D03*
Y148000D02*
D03*
D25*
X151913Y253295D02*
D03*
Y255264D02*
D03*
Y257232D02*
D03*
X145024D02*
D03*
Y255264D02*
D03*
Y253295D02*
D03*
X32701Y259032D02*
D03*
Y261000D02*
D03*
Y262968D02*
D03*
X25811D02*
D03*
Y261000D02*
D03*
Y259032D02*
D03*
D26*
X155201Y74965D02*
D03*
X162799D02*
D03*
Y46224D02*
D03*
X155201D02*
D03*
D27*
X152110Y51736D02*
D03*
Y69453D02*
D03*
Y63547D02*
D03*
D28*
X33150Y152000D02*
D03*
X26851D02*
D03*
X33150Y159500D02*
D03*
X26851D02*
D03*
X57650Y109500D02*
D03*
X51350D02*
D03*
D29*
X34500Y167744D02*
D03*
Y173256D02*
D03*
X104500Y195756D02*
D03*
Y190244D02*
D03*
X86500Y31244D02*
D03*
Y36756D02*
D03*
X111469Y138276D02*
D03*
Y143787D02*
D03*
D30*
X43000Y119815D02*
D03*
Y109185D02*
D03*
X144500Y113315D02*
D03*
Y102685D02*
D03*
X79937Y122063D02*
D03*
Y132693D02*
D03*
X102000Y31835D02*
D03*
Y42465D02*
D03*
D31*
X21953Y113453D02*
D03*
X23921D02*
D03*
X25890D02*
D03*
Y103610D02*
D03*
X23921D02*
D03*
X21953D02*
D03*
D32*
X28842Y112469D02*
D03*
Y110500D02*
D03*
Y108531D02*
D03*
Y106563D02*
D03*
Y104595D02*
D03*
X19000D02*
D03*
Y106563D02*
D03*
Y108531D02*
D03*
Y110500D02*
D03*
Y112469D02*
D03*
D33*
X113392Y190392D02*
D03*
X110608Y187608D02*
D03*
D34*
X26244Y188000D02*
D03*
X31756D02*
D03*
D35*
X64331Y123716D02*
D03*
Y138283D02*
D03*
X55669D02*
D03*
Y123716D02*
D03*
D36*
X35579Y129000D02*
D03*
X45421D02*
D03*
D37*
X118685Y94000D02*
D03*
X129315D02*
D03*
X88685Y91500D02*
D03*
X99315D02*
D03*
D38*
X100776Y82740D02*
D03*
Y79000D02*
D03*
Y75260D02*
D03*
X110224D02*
D03*
Y79000D02*
D03*
Y82740D02*
D03*
D39*
X135571Y79000D02*
D03*
X144429Y82740D02*
D03*
Y75260D02*
D03*
D40*
X69815Y96000D02*
D03*
X59185D02*
D03*
X35815Y78500D02*
D03*
X25185D02*
D03*
D41*
X59488Y80453D02*
D03*
Y78484D02*
D03*
Y76516D02*
D03*
Y74547D02*
D03*
X70512Y80453D02*
D03*
Y78484D02*
D03*
Y76516D02*
D03*
Y74547D02*
D03*
D42*
X65000Y77500D02*
D03*
D43*
X115000Y108500D02*
D03*
D44*
X123563Y104563D02*
D03*
Y106531D02*
D03*
Y108500D02*
D03*
Y110468D02*
D03*
Y112437D02*
D03*
X106437Y104563D02*
D03*
Y106531D02*
D03*
Y108500D02*
D03*
Y110468D02*
D03*
Y112437D02*
D03*
D45*
X15323Y23795D02*
D03*
X19654D02*
D03*
X23984Y23008D02*
D03*
X28315Y23795D02*
D03*
X32646Y23008D02*
D03*
X36977Y23795D02*
D03*
X41307Y25370D02*
D03*
X45638Y23795D02*
D03*
D46*
X40165Y64346D02*
D03*
X18512D02*
D03*
D47*
X12213Y12575D02*
D03*
X63984Y8638D02*
D03*
D48*
X125000Y160000D02*
D03*
Y175000D02*
D03*
X130000Y160000D02*
D03*
Y175000D02*
D03*
X135000Y160000D02*
D03*
Y175000D02*
D03*
X140000Y160000D02*
D03*
Y175000D02*
D03*
X145000Y160000D02*
D03*
Y175000D02*
D03*
D49*
X143933Y140437D02*
D03*
Y136500D02*
D03*
Y132563D02*
D03*
Y130595D02*
D03*
Y128626D02*
D03*
Y134531D02*
D03*
X127201Y138469D02*
D03*
Y134531D02*
D03*
Y132563D02*
D03*
Y130595D02*
D03*
Y128626D02*
D03*
Y136500D02*
D03*
X143933Y138469D02*
D03*
X127201Y140437D02*
D03*
D50*
X139406Y142996D02*
D03*
X137437D02*
D03*
X139406Y126067D02*
D03*
X137437D02*
D03*
X135468D02*
D03*
X131532Y142996D02*
D03*
X133500D02*
D03*
X135468D02*
D03*
X131532Y126067D02*
D03*
X133500D02*
D03*
D51*
X149571Y215150D02*
D03*
X133429D02*
D03*
Y208850D02*
D03*
X149571D02*
D03*
X93571Y59150D02*
D03*
X77429D02*
D03*
Y52850D02*
D03*
X93571D02*
D03*
X12929Y211850D02*
D03*
X29071D02*
D03*
Y218150D02*
D03*
X12929D02*
D03*
D52*
X90679Y18472D02*
D03*
X93238D02*
D03*
X95797D02*
D03*
X98356D02*
D03*
X100915D02*
D03*
D53*
X86102Y17055D02*
D03*
X105492D02*
D03*
D54*
X84331Y8000D02*
D03*
X107264D02*
D03*
D55*
X92500D02*
D03*
X99094D02*
D03*
D56*
X133063Y33000D02*
D03*
X140937D02*
D03*
D57*
X123221Y11150D02*
D03*
X150779D02*
D03*
D58*
X52352Y254126D02*
D03*
X66230Y262000D02*
D03*
Y258063D02*
D03*
Y254126D02*
D03*
X52352Y258063D02*
D03*
Y262000D02*
D03*
D106*
X48343Y254126D02*
X54020D01*
X90561Y249075D02*
X91218Y249732D01*
X50820Y249075D02*
X90561D01*
X93959Y246991D02*
X153195D01*
X91218Y249732D02*
X93959Y246991D01*
X91218Y249732D02*
Y252138D01*
X48343Y251552D02*
X50820Y249075D01*
X48343Y251552D02*
Y254126D01*
X45555Y246991D02*
X68021D01*
X34744Y255012D02*
X42765Y246991D01*
X45555D01*
X23244Y255012D02*
X34744D01*
X21256Y257000D02*
X23244Y255012D01*
X66667Y258063D02*
X71374D01*
X66667Y254126D02*
X71374D01*
X48343Y258063D02*
X52789D01*
X65437Y254126D02*
X66667D01*
X52789Y258063D02*
X54020D01*
X65437D02*
X66667D01*
X153988Y268947D02*
X155500Y267435D01*
X153988Y268947D02*
Y269012D01*
X155500Y262264D02*
Y267435D01*
X99398Y212100D02*
Y225000D01*
X95003Y207705D02*
X99398Y212100D01*
X90894Y207705D02*
X95003D01*
X70000Y273000D02*
X74500Y268500D01*
X36331Y273000D02*
X70000D01*
X36287Y272956D02*
X36331Y273000D01*
X36287Y268000D02*
Y272956D01*
X67000Y235000D02*
X67469Y234531D01*
X71374Y258063D02*
Y264709D01*
X68021Y268063D02*
X71374Y264709D01*
X114874Y256106D02*
X118217D01*
X121068Y253256D01*
X114124Y249075D02*
X138280D01*
X153195Y246991D02*
X157468Y251264D01*
X140469D02*
X142500Y253295D01*
X138280Y249075D02*
X140469Y251264D01*
X32701Y261000D02*
X38256D01*
X79280Y244000D02*
X110000D01*
X76289Y246991D02*
X79280Y244000D01*
X68021Y246991D02*
X76289D01*
X53906Y244906D02*
X71094D01*
X52000Y243000D02*
X53906Y244906D01*
X71094D02*
X79916Y236084D01*
X36224Y259032D02*
X38256Y257000D01*
X32701Y259032D02*
X36224D01*
X41130Y254126D02*
X48343D01*
X38256Y257000D02*
X41130Y254126D01*
X48343Y258063D02*
Y265032D01*
X51374Y268063D01*
X34787Y262968D02*
X36287Y264469D01*
X32701Y262968D02*
X34787D01*
X40224Y263947D02*
Y268000D01*
X61311Y268063D02*
X68021D01*
X51374D02*
X57374D01*
X111061Y252138D02*
X114124Y249075D01*
X106650Y252138D02*
X111061D01*
X114858Y260028D02*
X114874Y260043D01*
X106666Y260028D02*
X114858D01*
X106650Y260012D02*
X106666Y260028D01*
X106650Y256075D02*
X106681Y256106D01*
X114874D01*
X91218Y252138D02*
X97988D01*
X106650Y263850D02*
X107874Y265075D01*
Y269012D01*
X103811D02*
X107874D01*
X95214D02*
X99874D01*
X95214Y266721D02*
X97988Y263947D01*
X95214Y266721D02*
Y269012D01*
X97988Y260012D02*
Y263947D01*
X106650Y260012D02*
Y263850D01*
X99874Y269012D02*
X99874Y269012D01*
X78055Y261150D02*
X82780D01*
X78044Y256327D02*
X82780D01*
X86717D02*
X91218D01*
X97737D01*
X91218D02*
Y260295D01*
X90363Y261150D02*
X91218Y260295D01*
X86717Y261150D02*
X90363D01*
X97737Y256327D02*
X97988Y256075D01*
X151913Y255264D02*
X157468D01*
X138469D02*
X145024D01*
X139453Y259279D02*
X139469Y259264D01*
X142513D01*
X144544Y257232D02*
X145024D01*
X142513Y259264D02*
X144544Y257232D01*
X142513Y259264D02*
Y262264D01*
X130468Y259264D02*
X135531D01*
X130468Y263264D02*
X135500D01*
X141513D02*
X142513Y262264D01*
X139437Y263264D02*
X141513D01*
X151913Y257232D02*
X153999D01*
X155500Y258733D02*
Y262264D01*
X153999Y257232D02*
X155500Y258733D01*
X146500Y262264D02*
Y266232D01*
X146468Y266264D02*
X146500Y266232D01*
X150437Y262264D02*
Y266232D01*
X150469Y266264D01*
X142500Y253295D02*
X145024D01*
X151913D02*
X155437D01*
X157468Y251264D01*
X23287Y259032D02*
X25811D01*
X21256Y257000D02*
X23287Y259032D01*
X31224Y271969D02*
X31256Y272000D01*
X31224Y268000D02*
Y271969D01*
X27256Y272000D02*
X27287Y271969D01*
Y268000D02*
Y271969D01*
X36287Y264469D02*
Y268000D01*
X20224Y269000D02*
X22300D01*
X23300Y268000D01*
X11256Y269000D02*
X16287D01*
X11256Y265000D02*
X16319D01*
X23300D02*
Y268000D01*
Y265000D02*
X25332Y262968D01*
X25811D01*
X20256Y265000D02*
X23300D01*
X20240Y265016D02*
X20256Y265000D01*
X19256Y261000D02*
X25811D01*
X79916Y236084D02*
X149916D01*
X64331Y232669D02*
Y239750D01*
Y232669D02*
X65500Y231500D01*
X152000Y223000D02*
Y234000D01*
X117469Y137063D02*
X117863Y136669D01*
X16969Y231000D02*
X22000D01*
X35815Y82000D02*
X43000D01*
X72900Y141200D02*
Y147900D01*
X71686Y52850D02*
X77429D01*
X46012Y188020D02*
X56020D01*
X51201Y109500D02*
Y114201D01*
Y108500D02*
Y109500D01*
X24000Y195500D02*
Y195500D01*
Y195000D02*
Y195500D01*
X141000Y196500D02*
X144000Y193500D01*
X139000Y198500D02*
X141000Y196500D01*
X152094Y69469D02*
X152110Y69453D01*
X146000Y69469D02*
X152094D01*
X133063Y33000D02*
Y47000D01*
X133724Y75260D02*
X144429D01*
X133429Y74965D02*
X133724Y75260D01*
X133429Y74965D02*
X134000Y74394D01*
Y69469D02*
Y74394D01*
X110224Y75260D02*
X121740D01*
X122000Y75000D01*
X52416Y160126D02*
X52834Y160544D01*
X52416Y156416D02*
Y160126D01*
X52834Y160544D02*
Y161456D01*
X55658Y164279D01*
X53916Y157916D02*
X54500Y158500D01*
X53916Y155795D02*
Y157916D01*
X43500Y145379D02*
X53916Y155795D01*
X43500Y143500D02*
Y145379D01*
X34563Y138563D02*
X52416Y156416D01*
X54621Y149500D02*
X67000D01*
X49500Y144379D02*
X54621Y149500D01*
X49500Y140000D02*
Y144379D01*
X55500Y152500D02*
Y155500D01*
X48000Y145000D02*
X55500Y152500D01*
X48000Y138563D02*
Y145000D01*
X46437Y137000D02*
X48000Y138563D01*
X43000Y143500D02*
X43500D01*
X38500Y139000D02*
X43000Y143500D01*
X36500Y152000D02*
X40000Y155500D01*
X55658Y164279D02*
Y170500D01*
X55500Y155500D02*
X58000Y158000D01*
Y160500D01*
X34756Y173000D02*
X34787Y172968D01*
X34500Y173256D02*
X34756Y173000D01*
X90000Y223000D02*
X92000Y221000D01*
X94000D01*
X20031Y187000D02*
X22000D01*
X19583Y184083D02*
X46012D01*
X39916Y223000D02*
X55000D01*
X55658Y222342D01*
X25863Y193916D02*
X46003D01*
X24863Y192916D02*
X25863Y193916D01*
X46003D02*
X46012Y193925D01*
X27863Y195416D02*
X28341Y195894D01*
X24084Y195416D02*
X27863D01*
X143968Y118500D02*
X148000D01*
X152000Y117469D02*
Y120500D01*
X150500Y122000D02*
X152000Y120500D01*
X130500Y122000D02*
X150500D01*
X78500Y153000D02*
Y155600D01*
X75343Y158757D02*
X78500Y155600D01*
X75343Y158757D02*
Y170500D01*
X76000Y152000D02*
Y155200D01*
X73374Y157826D02*
X76000Y155200D01*
X73374Y157826D02*
Y170500D01*
X67469Y215382D02*
Y234531D01*
X60532Y156968D02*
X64500D01*
X58500Y153000D02*
X58531Y153031D01*
X64500D01*
X13250Y239750D02*
X18250D01*
X13250D02*
X14500Y238500D01*
X19500Y235000D02*
X25000D01*
X16000Y238500D02*
X19500Y235000D01*
X14500Y238500D02*
X16000Y238500D01*
X25000Y235000D02*
X32000Y228000D01*
X26000Y237750D02*
X28250Y240000D01*
X13000Y223000D02*
X13032Y223031D01*
Y227000D01*
X13000Y218221D02*
Y223000D01*
X12929Y218150D02*
X13000Y218221D01*
X54500Y230000D02*
X59595Y224905D01*
X57626Y215382D02*
Y222874D01*
X20000Y94000D02*
X21953Y95953D01*
X53500Y91000D02*
X57685D01*
X59185Y92500D01*
X18000Y123500D02*
X18032Y123468D01*
X28000Y87500D02*
Y92531D01*
X79937Y132693D02*
Y140063D01*
X76500Y144500D02*
X80000D01*
X84027Y140473D01*
X82000Y185000D02*
X85020Y188020D01*
X113469Y124531D02*
X115000Y126063D01*
X110724Y78500D02*
X119000D01*
X19000Y98500D02*
Y104595D01*
X32646Y23008D02*
Y31646D01*
X37031Y36031D01*
X26244Y188000D02*
Y190744D01*
X21969Y119000D02*
Y123468D01*
X130500Y132563D02*
X132468Y134531D01*
X130500Y136500D02*
X132468Y134531D01*
X12000Y191031D02*
X16000D01*
X13500Y199000D02*
X20500D01*
X12000Y197500D02*
X13500Y199000D01*
X12000Y194968D02*
Y197500D01*
X16000Y194968D02*
X16032Y195000D01*
X147031Y197500D02*
Y200961D01*
X149571Y203500D01*
Y208851D01*
X21468Y152000D02*
X26851D01*
X33150D02*
Y159500D01*
X73542Y215550D02*
Y226542D01*
X73374Y215382D02*
X73542Y215550D01*
X79280Y215382D02*
Y222279D01*
X83937Y226937D01*
X90000D01*
X81248Y215382D02*
Y219248D01*
X85000Y223000D01*
X90000D01*
X63363Y215550D02*
X63532Y215382D01*
X63363Y215550D02*
Y228683D01*
X59969Y232077D02*
X63363Y228683D01*
X61563Y215382D02*
Y227937D01*
X56032Y233468D02*
X61563Y227937D01*
X56032Y233468D02*
Y235000D01*
X59595Y215382D02*
Y224905D01*
X103799Y201799D02*
X107000Y205000D01*
X90894Y201799D02*
X103799D01*
X100768Y203768D02*
X104500Y207500D01*
X90894Y203768D02*
X100768D01*
X97736Y205736D02*
X102000Y210000D01*
X90894Y205736D02*
X97736D01*
X36468Y192000D02*
X37500Y190969D01*
X26244Y187500D02*
Y188000D01*
X31756Y187500D02*
X32225Y187031D01*
X37500D01*
X40532D01*
X41520Y188020D01*
X46012D01*
X37500Y190969D02*
X40055D01*
X41043Y191957D01*
X46012D01*
X35732Y203768D02*
X46012D01*
X41795Y207705D02*
X46012D01*
Y189988D02*
X51988D01*
X18032Y119000D02*
Y123468D01*
Y116469D02*
Y119000D01*
Y116469D02*
X19000Y115500D01*
Y112469D02*
Y115500D01*
X21953Y113453D02*
X21969Y113469D01*
Y119000D01*
X12000Y109000D02*
X12468Y108531D01*
X19000D01*
X46333Y92833D02*
X46500Y93000D01*
X40437Y92833D02*
X46333D01*
X43468Y98000D02*
X48500D01*
X34500Y100500D02*
X37000Y98000D01*
X32500Y102500D02*
X34500Y100500D01*
X28842Y108531D02*
X32469D01*
X38500Y102500D02*
X41532D01*
X28905Y106500D02*
X31000D01*
X32500Y105000D01*
Y102500D02*
Y105000D01*
X28842Y106563D02*
X28905Y106500D01*
X37000Y98000D02*
X39531D01*
X28842Y101657D02*
Y104595D01*
Y110500D02*
Y112469D01*
X37315Y109185D02*
X43000D01*
X35500Y111000D02*
X37315Y109185D01*
X35500Y111000D02*
Y116000D01*
X29000D02*
X35500D01*
X28842Y115842D02*
X29000Y116000D01*
X28842Y112469D02*
Y115842D01*
X42878Y119937D02*
X43000Y119815D01*
X35500Y119937D02*
X42878D01*
X53000Y116000D02*
X55500D01*
X51201Y114201D02*
X53000Y116000D01*
X58000Y109000D02*
X63532D01*
X21953Y95953D02*
Y103610D01*
X28000Y96468D02*
Y98500D01*
X25890Y100610D02*
X28000Y98500D01*
X25890Y100610D02*
Y103610D01*
X93500Y107531D02*
X95531D01*
X81437Y122063D02*
X82315Y121185D01*
X88685D01*
X101850Y59150D02*
X109468Y51531D01*
X45638Y28638D02*
X49500Y32500D01*
X79000Y43000D02*
X86500D01*
X91500Y34787D02*
Y39000D01*
X74563Y122063D02*
X79937D01*
X73000Y120500D02*
X74563Y122063D01*
X73000Y112000D02*
Y120500D01*
X70000Y109000D02*
X73000Y112000D01*
X67469Y109000D02*
X70000D01*
X57500Y108500D02*
X58000Y109000D01*
X63532Y162469D02*
X64500Y161500D01*
X45638Y23795D02*
Y28638D01*
X36977Y30976D02*
X37000Y31000D01*
X36977Y23795D02*
Y30976D01*
X28969Y39968D02*
X71500D01*
X23984Y34984D02*
X28969Y39968D01*
X23984Y23008D02*
Y34984D01*
X19654Y23795D02*
Y30846D01*
X134468Y198500D02*
X139000D01*
X144000Y193500D02*
X147031D01*
X141500Y189000D02*
X147031D01*
X150969Y193500D02*
Y197500D01*
Y189000D02*
Y193500D01*
X113500Y55468D02*
Y60000D01*
X109468Y51531D02*
X113500D01*
Y55468D02*
X117500D01*
X129469D02*
X129500Y55500D01*
X121500Y55468D02*
X129469D01*
X126500Y118000D02*
X130500Y122000D01*
X139969Y118563D02*
X140032Y118500D01*
X132437Y118563D02*
X139969D01*
X144378Y113563D02*
X144410Y113531D01*
X134937Y113563D02*
X144378D01*
X63532Y162469D02*
Y170500D01*
X71406Y176905D02*
X74500Y180000D01*
X62000D02*
X65500Y176500D01*
Y170500D02*
Y176500D01*
X82000Y192500D02*
X84512Y189988D01*
X53689Y167189D02*
Y170500D01*
X113392Y190392D02*
X116000Y193000D01*
X106744Y190244D02*
X112000Y195500D01*
X104500Y190244D02*
X106744D01*
X101787Y195756D02*
X104500D01*
X100000Y193968D02*
X101787Y195756D01*
X98469Y193968D02*
X100000D01*
X96457Y191957D02*
X98469Y193968D01*
X104288Y190031D02*
X104500Y190244D01*
X100000Y190031D02*
X104288D01*
X99957Y189988D02*
X100000Y190031D01*
X90894Y189988D02*
X99957D01*
X109000Y186000D02*
X110608Y187608D01*
X97000Y186000D02*
X109000D01*
X94980Y188020D02*
X97000Y186000D01*
X90894Y188020D02*
X94980D01*
X103788Y191031D02*
X104000Y191244D01*
X57516Y170390D02*
X57626Y170500D01*
X65500D02*
X65668Y170331D01*
X116500Y188500D02*
X118916D01*
X112000Y184000D02*
X116500Y188500D01*
X90894Y184000D02*
X112000D01*
X121500Y186000D02*
X125000Y182500D01*
X118000Y186000D02*
X121500D01*
X114114Y182114D02*
X118000Y186000D01*
X90894Y182114D02*
X114114D01*
X116646Y180146D02*
X119500Y183000D01*
X90894Y180146D02*
X116646D01*
X118823Y178177D02*
X119000Y178000D01*
X90894Y178177D02*
X118823D01*
X119000Y172531D02*
Y178000D01*
X115000Y164000D02*
X119000Y160000D01*
X115000Y164000D02*
Y167500D01*
X118916Y188500D02*
X121731Y191315D01*
X34563Y137000D02*
Y138563D01*
X64614Y124000D02*
X68000D01*
X51217Y138283D02*
X55669D01*
X49500Y140000D02*
X51217Y138283D01*
X64331Y123716D02*
X64614Y124000D01*
X38500Y137000D02*
Y139000D01*
X34563Y130016D02*
X35579Y129000D01*
X34563Y130016D02*
Y137000D01*
X45421Y129000D02*
X46437Y130016D01*
Y137000D01*
X38500D02*
X42500D01*
X123500Y46500D02*
X129500D01*
X48000Y83500D02*
X50000D01*
X53047Y80453D01*
X44500Y73500D02*
X48000D01*
X50000D01*
X53016Y76516D01*
X95500Y30850D02*
X95797Y30553D01*
Y18473D02*
Y30553D01*
X91500Y27000D02*
Y30850D01*
Y27000D02*
X93238Y25262D01*
Y18473D02*
Y25262D01*
X97469Y70000D02*
X102000D01*
X93500Y70031D02*
X93532Y70000D01*
X93500Y70031D02*
Y75500D01*
X59185Y92500D02*
Y96000D01*
Y99750D01*
X77500Y105000D02*
Y110531D01*
Y114469D02*
X82468D01*
X43000Y75000D02*
X44500Y73500D01*
X35831Y75000D02*
X43000D01*
X35831D02*
Y78484D01*
X38016D02*
X48500D01*
X35815Y78500D02*
Y82000D01*
X48500Y78484D02*
X59488D01*
X35815Y78500D02*
X35831Y78484D01*
X53016Y76516D02*
X59488D01*
X53047Y80453D02*
X59488D01*
X90437Y131031D02*
Y136063D01*
X91437Y127094D02*
X94906D01*
X132437Y116563D02*
Y118563D01*
X128311Y112437D02*
X132437Y116563D01*
X123563Y112437D02*
X128311D01*
X123563Y110468D02*
X131843D01*
X134937Y113563D01*
X137374Y108500D02*
X137437Y108563D01*
X123563Y108500D02*
X137374D01*
X45638Y23795D02*
X71264D01*
X71500Y32000D02*
Y36031D01*
Y39968D02*
Y45500D01*
Y27968D02*
Y32000D01*
X71264Y23795D02*
X71500Y24032D01*
X37031Y36031D02*
X71500D01*
X121731Y191315D02*
X130000Y183046D01*
Y175000D02*
Y183046D01*
X135000Y175000D02*
Y185000D01*
X130500Y189500D02*
X135000Y185000D01*
X140000Y175000D02*
Y184500D01*
X130500Y194000D02*
X140000Y184500D01*
X125000Y175000D02*
Y182500D01*
X115000Y167500D02*
Y172468D01*
X115032Y172500D01*
X118968D02*
X119000Y172531D01*
X118937Y167500D02*
X124000D01*
X125000Y168500D01*
Y175000D01*
X130468Y194031D02*
X130500Y194000D01*
X125500Y195084D02*
Y198531D01*
X121731Y191315D02*
X125500Y195084D01*
X130532Y194095D02*
Y198500D01*
X119000Y160000D02*
X125000D01*
X64331Y116138D02*
Y123716D01*
Y116138D02*
X64468Y116000D01*
X55500D02*
X60532D01*
X55500D02*
Y123547D01*
X55669Y123716D01*
Y138283D02*
Y145638D01*
X56032Y146000D01*
X59969D02*
X64331D01*
Y138283D02*
Y146000D01*
X71406Y170500D02*
Y176905D01*
X85020Y188020D02*
X90894D01*
X84512Y189988D02*
X90894D01*
X84027Y140473D02*
X93701D01*
X85727Y142273D02*
X95273D01*
X81248Y166252D02*
Y170500D01*
X85532Y153969D02*
X91500D01*
Y150031D02*
X96469D01*
X96500Y150000D01*
X67469Y149969D02*
Y170500D01*
X54500Y158500D02*
Y161000D01*
X57516Y164016D01*
Y170390D01*
X58000Y160500D02*
X59595Y162094D01*
Y170500D01*
X67000Y149500D02*
X67469Y149969D01*
X68000Y124000D02*
X69437Y125437D01*
X76000Y152000D02*
X85727Y142273D01*
X80500Y155500D02*
X86000Y150000D01*
X82500Y157000D02*
X85532Y153969D01*
X80500Y155500D02*
Y164454D01*
X79280Y165675D02*
X80500Y164454D01*
X86621Y144879D02*
X100921D01*
X78500Y153000D02*
X86621Y144879D01*
X93701Y140473D02*
X96000Y138174D01*
X123563Y106531D02*
X128969D01*
X131032Y104469D01*
X135000D01*
X123563Y104563D02*
X125937D01*
X129969Y100531D01*
X135000D01*
Y94000D02*
Y100531D01*
X110224Y79000D02*
X110724Y78500D01*
X93468Y107500D02*
X93500Y107531D01*
X85000Y107500D02*
X93468D01*
X98500Y104563D02*
X106437D01*
X95531Y107531D02*
X98500Y104563D01*
X103577Y110468D02*
X106437D01*
X92861Y121185D02*
X103577Y110468D01*
X88685Y121185D02*
X92861D01*
X101483Y108500D02*
X106437D01*
X82595Y114469D02*
X95514D01*
X101483Y108500D01*
X93500Y111469D02*
X95031D01*
X99968Y106531D01*
X106437D01*
X93740Y75260D02*
X100776D01*
X93500Y75500D02*
X93740Y75260D01*
X120595Y126657D02*
X122563Y128626D01*
X117532Y126657D02*
X120595D01*
X118437Y148000D02*
X121968D01*
X117469Y141000D02*
Y147031D01*
X112969Y148031D02*
X117469D01*
X111469Y146531D02*
X112969Y148031D01*
X111469Y143787D02*
Y146531D01*
X117469Y136563D02*
X117532Y136500D01*
X121113Y133176D02*
X122468Y134531D01*
X111644Y133176D02*
X121113D01*
X111469Y133000D02*
X111644Y133176D01*
X115000Y126063D02*
X117469D01*
X115937Y136563D02*
X117469D01*
X114225Y138276D02*
X115937Y136563D01*
X111469Y138276D02*
X114225D01*
X56032Y235000D02*
Y239968D01*
X28000Y23480D02*
X28315Y23795D01*
X28000Y16000D02*
Y23480D01*
X51988Y189988D02*
X54000Y192000D01*
X55500D01*
X56000Y188000D02*
X56020Y188020D01*
X55500Y188000D02*
X56000D01*
X79644Y76516D02*
X80000Y76872D01*
X70512Y76516D02*
X79644D01*
X58935Y99500D02*
X59185Y99750D01*
X45469Y102500D02*
X50000D01*
X52000Y104500D01*
X62000D01*
X32469Y108531D02*
X35484Y105516D01*
X38500Y102500D01*
X28842Y101657D02*
X32000Y98500D01*
Y92833D02*
Y98500D01*
X33167Y92833D02*
X36500D01*
X32000Y92833D02*
X33167Y92833D01*
X36500Y152000D02*
X36500Y152000D01*
X33150Y152000D02*
X36500D01*
X104500Y207500D02*
X118000Y221000D01*
X150969Y189000D02*
X151500Y188469D01*
X151500Y175000D02*
X151500Y175000D01*
X112000Y195500D02*
X116000D01*
Y193000D02*
Y195500D01*
X73542Y226542D02*
X75000Y228000D01*
Y228000D01*
X21468Y159500D02*
X26851D01*
X13032Y227000D02*
Y231000D01*
X69437Y215382D02*
Y232437D01*
X70500Y233500D01*
X71000D01*
X93500Y59150D02*
X93571D01*
X101850D01*
X43000Y82000D02*
X44500Y83500D01*
X48000D01*
X41307Y16193D02*
Y25370D01*
X125500Y202468D02*
Y205500D01*
X125000Y206000D02*
Y209000D01*
Y206000D02*
X125500Y205500D01*
X61563Y160563D02*
Y170500D01*
X60532Y159531D02*
X61563Y160563D01*
X60532Y156968D02*
Y159531D01*
X27937Y119937D02*
X35500D01*
X25890Y113453D02*
Y117890D01*
X27937Y119937D01*
X18000Y123500D02*
Y125500D01*
X19500Y127000D01*
X26500D01*
X28000Y125500D01*
Y120000D02*
Y125500D01*
X27937Y119937D02*
X28000Y120000D01*
X16563Y106563D02*
X19000D01*
X15500Y105500D02*
X16563Y106563D01*
X69437Y125437D02*
Y170500D01*
X79280Y165675D02*
Y170500D01*
X71406Y156395D02*
Y170500D01*
Y156395D02*
X73000Y154800D01*
Y151669D02*
Y154800D01*
X90894Y191957D02*
X96457D01*
X46012D02*
X51157D01*
X55500Y196300D01*
X82300D01*
X86643Y191957D01*
X90894D01*
X135468Y138300D02*
Y142209D01*
X133737Y138300D02*
X135468D01*
X138763D01*
X138931Y138469D01*
X143146D01*
X127988D02*
X133569D01*
X133737Y138300D01*
X135468Y126854D02*
Y130168D01*
X135900Y130600D01*
X143146Y136500D02*
Y138469D01*
Y140437D01*
X127988D02*
Y142012D01*
X126969Y143031D02*
X127988Y142012D01*
Y136500D02*
X130500D01*
X127988Y132563D02*
X130500D01*
X122468Y134531D02*
X127988D01*
Y130595D02*
Y132563D01*
X122563Y128626D02*
X127988D01*
X131532Y126854D02*
X133500D01*
X135468D01*
X137437D01*
X139406D01*
X143154D01*
X143700Y127400D01*
Y128072D01*
X143146Y128626D02*
X143700Y128072D01*
X143146Y130595D02*
X149906D01*
X138469Y134531D02*
X143146D01*
X135468Y142209D02*
X137437D01*
X139406D01*
X118063Y130595D02*
X127988D01*
X117469Y130000D02*
X118063Y130595D01*
X117469Y136563D02*
X127925D01*
X127988Y136500D01*
X59969Y235000D02*
X59969Y232077D01*
X59900Y235068D02*
Y240000D01*
Y235068D02*
X59969Y235000D01*
X12000Y112937D02*
X14163D01*
X16600Y110500D01*
X19000D01*
X21600Y231400D02*
X22000Y231000D01*
X21300Y231400D02*
X21600D01*
X111469Y124531D02*
X113469D01*
X111469D02*
Y129063D01*
X106437Y112437D02*
Y115563D01*
X110000Y118000D02*
X126500D01*
X96000Y132000D02*
Y138174D01*
Y132000D02*
X110000Y118000D01*
X94906Y127094D02*
X94937Y127063D01*
X106437Y115563D01*
X70512Y78484D02*
X76484D01*
X69815Y96000D02*
X70815Y95000D01*
X69000D02*
X70815D01*
X76484Y78484D02*
X77000Y79000D01*
X70512Y80453D02*
X76547D01*
X77000Y80000D01*
X48500Y98000D02*
X50000Y99500D01*
X53500D02*
X58935D01*
X50000D02*
X53500D01*
Y96000D02*
X59185D01*
X14000Y83031D02*
X14000Y83031D01*
X14000Y86968D02*
X21468D01*
X23921Y89421D02*
Y103610D01*
X21468Y86968D02*
X23921Y89421D01*
X20000Y92000D02*
Y94000D01*
X15500Y92500D02*
Y105500D01*
X13969Y83000D02*
X14000Y83031D01*
X11000Y83000D02*
X13969D01*
X29887Y70887D02*
X52113D01*
X54000Y69000D01*
X28000Y69000D02*
X28197Y68803D01*
X30750D01*
X30948Y69000D01*
X51879D01*
X53379Y67500D01*
X95500Y34787D02*
Y41500D01*
X54000Y69000D02*
X89000D01*
X92584Y65416D01*
X53379Y67500D02*
X88379D01*
X91963Y63916D01*
X92584Y65416D02*
X107416D01*
X109000Y67000D01*
X91963Y63916D02*
X108916D01*
X135000Y160000D02*
X135000Y160000D01*
X135000Y154000D02*
Y160000D01*
X130000D02*
X130000Y160000D01*
X130000Y154000D02*
Y160000D01*
X145000D02*
X145000Y160000D01*
X145000Y154000D02*
Y160000D01*
X133500Y142209D02*
Y150500D01*
X131532Y142209D02*
Y149469D01*
X125937Y144063D02*
X126969Y143031D01*
X121968Y144063D02*
X125937D01*
X130719Y150281D02*
X131532Y149469D01*
X132219Y151781D02*
X133500Y150500D01*
X106000Y151781D02*
X132219D01*
X101000Y156000D02*
X107000D01*
X97910Y153969D02*
X100098Y151781D01*
X91500Y153969D02*
X97910D01*
X100098Y151781D02*
X106000D01*
X107000Y147000D02*
Y149834D01*
X107448Y150281D01*
X130719D01*
X86000Y157000D02*
X97969D01*
X83217Y166829D02*
Y170500D01*
X81248Y166252D02*
X82500Y165000D01*
Y157000D02*
Y165000D01*
X84000Y159000D02*
X86000Y157000D01*
X84000Y159000D02*
Y166046D01*
X83217Y166829D02*
X84000Y166046D01*
X99000Y158000D02*
X101000Y156000D01*
X151500Y175000D02*
Y188469D01*
X145000Y175000D02*
X151500D01*
X97969Y157000D02*
X99000Y158031D01*
X87000Y160000D02*
X93000D01*
X32000Y228000D02*
X34500Y225500D01*
X48000Y161000D02*
Y161500D01*
X53689Y167189D01*
X46012Y166012D02*
Y178177D01*
X46000Y166000D02*
X46012Y166012D01*
X90000Y163000D02*
X93879D01*
X42146Y180146D02*
X46012D01*
X41000Y179000D02*
X42146Y180146D01*
X41000Y166000D02*
Y179000D01*
X149906Y130595D02*
X150000Y130500D01*
Y130000D02*
Y130500D01*
X143146Y132563D02*
X150563D01*
X152000Y134000D01*
X98084Y165084D02*
X108916D01*
X93000Y160000D02*
X98084Y165084D01*
X108916D02*
X115000Y159000D01*
X97000Y175000D02*
X110000D01*
X93879Y163000D02*
X101379Y170500D01*
X105500D01*
X99000Y161969D02*
X106000D01*
X108000Y159000D02*
X113000Y154000D01*
X116000D01*
X152000Y134000D02*
Y158000D01*
X118000Y221000D02*
Y224000D01*
X115000Y223000D02*
Y224000D01*
X102000Y210000D02*
X115000Y223000D01*
X149916Y236084D02*
X152000Y234000D01*
X75052Y231000D02*
X80000D01*
X71406Y227353D02*
X75052Y231000D01*
X71406Y215382D02*
Y227353D01*
X52000Y228500D02*
X57626Y222874D01*
X52000Y228500D02*
Y243000D01*
X77311Y215382D02*
Y222432D01*
X82968Y228089D01*
Y228916D01*
X75343Y215382D02*
Y224342D01*
X76000Y225000D01*
X37000Y233000D02*
X46000D01*
X55658Y215382D02*
Y222342D01*
X53689Y215382D02*
Y220311D01*
X53000Y221000D02*
X53689Y220311D01*
X42000Y221000D02*
X53000D01*
X40000Y219000D02*
X42000Y221000D01*
X39916Y219000D02*
X40000D01*
X38764Y205736D02*
X46012D01*
X39500Y210000D02*
X41795Y207705D01*
X39500Y210000D02*
Y216468D01*
X26000Y237750D02*
X37832Y225918D01*
X36500Y208000D02*
X38764Y205736D01*
X34500Y225500D02*
X36331Y223669D01*
X37832Y218137D02*
X39500Y216468D01*
X36331Y208169D02*
X36500Y208000D01*
X36331Y208169D02*
Y223669D01*
X37832Y218137D02*
Y225918D01*
X34500Y205000D02*
X35732Y203768D01*
X32000Y202000D02*
X32201Y201799D01*
X46012D01*
X45896Y197746D02*
X46012Y197862D01*
X30000Y199831D02*
X46012D01*
X26754Y197746D02*
X45896D01*
X26244Y190744D02*
X27500Y192000D01*
X36468D01*
X26754Y197746D02*
X27000Y197500D01*
X28341Y195894D02*
X46012D01*
X20500Y199000D02*
X24000Y195500D01*
X21584Y192916D02*
X24863D01*
X24000Y195500D02*
X24084Y195416D01*
X21584Y192916D02*
X22000Y192500D01*
Y191000D02*
Y192500D01*
X20121Y191000D02*
X22000D01*
X16032Y195000D02*
X16121D01*
X20121Y191000D01*
X16000Y191031D02*
X20031Y187000D01*
X12000Y152000D02*
X17531D01*
X17531Y152000D01*
X11500Y159500D02*
X17531D01*
X19736Y182114D02*
X46012D01*
X15811Y178189D02*
X19736Y182114D01*
X10000Y158000D02*
X11500Y159500D01*
X14000Y178500D02*
X19583Y184083D01*
X14000Y169000D02*
Y178500D01*
X15811Y170878D02*
Y178189D01*
Y170878D02*
X17000Y169688D01*
X15000Y164000D02*
X17000Y166000D01*
Y169688D01*
X125000Y209000D02*
Y211688D01*
X128461Y215150D01*
X133429D01*
X71686Y52850D02*
X71812Y52977D01*
X5021Y211850D02*
X12929D01*
X5000Y211829D02*
X5021Y211850D01*
X65500Y215382D02*
Y231500D01*
D107*
X140937Y48465D02*
X141000Y48529D01*
X140937Y33000D02*
Y48465D01*
X134000Y62086D02*
X135900Y60186D01*
X134000Y62086D02*
Y65532D01*
X30000Y173000D02*
X34756D01*
X147031Y63547D02*
X152110D01*
X129500Y62000D02*
Y74000D01*
Y55500D02*
Y62000D01*
X22977Y82343D02*
X25185Y80135D01*
X20657Y82343D02*
X22977D01*
X20000Y83000D02*
X20657Y82343D01*
X25185Y75000D02*
X25185Y75000D01*
X20000Y75000D02*
X25185D01*
X20000Y79000D02*
Y83000D01*
Y75000D02*
Y79000D01*
X24685D02*
X25185Y78500D01*
X20000Y79000D02*
X24685D01*
X48500Y155500D02*
X49000Y156000D01*
X40000Y155500D02*
X48500D01*
X29969Y172968D02*
X30000Y173000D01*
X26000Y172968D02*
X29969D01*
X98000Y229000D02*
Y233000D01*
X95937Y226937D02*
X98000Y229000D01*
X90000Y226937D02*
X95937D01*
X84000Y78000D02*
X85000Y79000D01*
X93000D01*
X54953Y123000D02*
X55500Y123547D01*
X50000Y123000D02*
X54953D01*
X50886Y109185D02*
X51201Y109500D01*
X43000Y109185D02*
X50886D01*
X49000Y226000D02*
Y239000D01*
X88685Y83685D02*
X89630Y82740D01*
X144500Y97000D02*
Y102685D01*
X129500Y46500D02*
Y55500D01*
X69815Y96000D02*
Y99500D01*
X112500Y94000D02*
X118685D01*
X127500Y83500D02*
X132000Y88000D01*
X127500Y79000D02*
Y83500D01*
Y79000D02*
X135571D01*
X89630Y82740D02*
X100776D01*
X119000Y90815D02*
X119185Y91000D01*
X119000Y84000D02*
Y90815D01*
X144429Y82740D02*
X151740D01*
X117740D02*
X119000Y84000D01*
X110224Y82740D02*
X117740D01*
X132000Y88000D02*
X145000D01*
X129315Y94000D02*
X135000D01*
X152000Y95000D02*
Y113531D01*
X145000Y88000D02*
X152000Y95000D01*
X93000Y79000D02*
X100776D01*
X144410Y113531D02*
X152000D01*
X69815Y99500D02*
X77500D01*
X127500Y76000D02*
Y79000D01*
Y76000D02*
X129500Y74000D01*
X69815Y96000D02*
X76000D01*
X77000Y95000D01*
Y79000D02*
Y80000D01*
Y95000D01*
X77500Y99500D02*
X79000Y98000D01*
X102000D01*
X102434Y98434D01*
X108066D01*
X112500Y94000D01*
X99815Y91000D02*
X103000D01*
X99315Y91500D02*
X99815Y91000D01*
D108*
X25185Y80135D02*
Y82000D01*
Y78500D02*
Y80135D01*
X54500Y72000D02*
X57047Y74547D01*
X25185Y75000D02*
Y78500D01*
X57047Y74547D02*
X59488D01*
X16969Y227000D02*
X17000Y226968D01*
X12000Y105500D02*
Y109000D01*
X12000Y105500D02*
X12000Y105500D01*
X16969Y227000D02*
X21600D01*
X21600Y227000D01*
X70512Y74547D02*
X74453D01*
X75000Y74000D01*
D109*
X88685Y83685D02*
Y91500D01*
X86500Y36756D02*
Y43000D01*
X102000Y42465D02*
Y49500D01*
D110*
X159000Y66500D02*
D03*
Y54689D02*
D03*
D111*
X36000Y240000D02*
D03*
D112*
X26000D02*
D03*
X16000D02*
D03*
D113*
X79000Y43000D02*
D03*
X123000Y46500D02*
D03*
X15000Y140500D02*
D03*
Y131000D02*
D03*
X111000Y42500D02*
D03*
Y32000D02*
D03*
D114*
X45555Y246991D02*
D03*
X71374Y254126D02*
D03*
X48343D02*
D03*
X71374Y258063D02*
D03*
X48343D02*
D03*
X153988Y269012D02*
D03*
X99398Y225000D02*
D03*
X74500Y268500D02*
D03*
X36331Y273000D02*
D03*
X67000Y235000D02*
D03*
X121068Y253256D02*
D03*
X38256Y261000D02*
D03*
X110000Y244000D02*
D03*
X68021Y246991D02*
D03*
X40224Y263947D02*
D03*
X61260Y254126D02*
D03*
X57323D02*
D03*
X61260Y258063D02*
D03*
X57323D02*
D03*
X61260Y262000D02*
D03*
X57323D02*
D03*
X114124Y249075D02*
D03*
X91218Y252138D02*
D03*
X107874Y269012D02*
D03*
X95214D02*
D03*
X78055Y261150D02*
D03*
X78044Y256327D02*
D03*
X157468Y255264D02*
D03*
X138469D02*
D03*
X130468Y259264D02*
D03*
Y263264D02*
D03*
X146468Y266264D02*
D03*
X150469D02*
D03*
X140469Y251264D02*
D03*
X157468D02*
D03*
X38256Y257000D02*
D03*
X21256D02*
D03*
X31256Y272000D02*
D03*
X27256D02*
D03*
X11256Y269000D02*
D03*
Y265000D02*
D03*
X19256Y261000D02*
D03*
X141000Y48529D02*
D03*
X135900Y60186D02*
D03*
X155000Y123000D02*
D03*
X64331Y239750D02*
D03*
X152000Y223000D02*
D03*
X129500Y62000D02*
D03*
X133063Y47000D02*
D03*
X147031Y63547D02*
D03*
X146000Y69469D02*
D03*
X122000Y75000D02*
D03*
X43500Y143500D02*
D03*
X49000Y156000D02*
D03*
X40000Y155500D02*
D03*
X94000Y221000D02*
D03*
X98000Y233000D02*
D03*
X84000Y78000D02*
D03*
X50000Y123000D02*
D03*
X49000Y239000D02*
D03*
Y226000D02*
D03*
X22000Y187000D02*
D03*
X148000Y118500D02*
D03*
X60532Y156968D02*
D03*
X58500Y153000D02*
D03*
X13000Y223000D02*
D03*
X54500Y230000D02*
D03*
X53500Y91000D02*
D03*
X18000Y123500D02*
D03*
X28000Y87500D02*
D03*
X79937Y140063D02*
D03*
X76500Y144500D02*
D03*
X82000Y185000D02*
D03*
X117166Y110666D02*
D03*
Y106335D02*
D03*
X119000Y78500D02*
D03*
X63032Y75531D02*
D03*
X19000Y98500D02*
D03*
X21969Y123468D02*
D03*
X88685Y83685D02*
D03*
X132468Y134531D02*
D03*
X107000Y205000D02*
D03*
X104500Y207500D02*
D03*
X102000Y210000D02*
D03*
X35500Y111000D02*
D03*
X46500Y93000D02*
D03*
X35484Y105516D02*
D03*
X34500Y100500D02*
D03*
X88685Y121185D02*
D03*
X49500Y32500D02*
D03*
X86500Y43000D02*
D03*
X91500Y39000D02*
D03*
X64500Y161500D02*
D03*
X37000Y31000D02*
D03*
X19654Y30846D02*
D03*
X141000Y196500D02*
D03*
X141500Y189000D02*
D03*
X102000Y49500D02*
D03*
X113500Y60000D02*
D03*
X144500Y97000D02*
D03*
X127500Y79000D02*
D03*
X129500Y46500D02*
D03*
X74500Y180000D02*
D03*
X62000D02*
D03*
X30000Y173000D02*
D03*
X82000Y192500D02*
D03*
X119000Y178000D02*
D03*
X48000Y83500D02*
D03*
Y73500D02*
D03*
X54500Y72000D02*
D03*
X93500Y75500D02*
D03*
X133429Y74965D02*
D03*
X151740Y82740D02*
D03*
X119000Y84000D02*
D03*
X77500Y105000D02*
D03*
X20000Y75000D02*
D03*
Y79000D02*
D03*
X48500Y78484D02*
D03*
X90437Y136063D02*
D03*
X132437Y118563D02*
D03*
X134937Y113563D02*
D03*
X137437Y108563D02*
D03*
X71500Y19500D02*
D03*
Y45500D02*
D03*
Y32000D02*
D03*
X130500Y189500D02*
D03*
Y194000D02*
D03*
X119500Y183000D02*
D03*
X121731Y191315D02*
D03*
X119000Y160000D02*
D03*
X55500Y116000D02*
D03*
X64331Y146000D02*
D03*
X95273Y142273D02*
D03*
X86000Y150000D02*
D03*
X96500D02*
D03*
X54500Y158500D02*
D03*
X100921Y144879D02*
D03*
X135000Y94000D02*
D03*
X131032Y104469D02*
D03*
X85000Y107500D02*
D03*
X82595Y114469D02*
D03*
X117469Y148031D02*
D03*
X56032Y239968D02*
D03*
X28000Y16000D02*
D03*
X55500Y192000D02*
D03*
Y188000D02*
D03*
X93000Y79000D02*
D03*
X80000Y76872D02*
D03*
X62000Y104500D02*
D03*
X32000Y92833D02*
D03*
X138469Y134531D02*
D03*
X116000Y195500D02*
D03*
X75000Y228000D02*
D03*
X71000Y233500D02*
D03*
X77500Y99500D02*
D03*
X41307Y16193D02*
D03*
X125000Y209000D02*
D03*
X12000Y105500D02*
D03*
X72900Y141200D02*
D03*
X135468Y138300D02*
D03*
X135900Y130600D02*
D03*
X59900Y240000D02*
D03*
X21300Y231400D02*
D03*
X21600Y227000D02*
D03*
X111469Y124531D02*
D03*
X112835Y110666D02*
D03*
Y106335D02*
D03*
X94937Y127063D02*
D03*
X66969Y79468D02*
D03*
X63032D02*
D03*
X66969Y75531D02*
D03*
X53500Y99500D02*
D03*
Y96000D02*
D03*
X20000Y83000D02*
D03*
Y92000D02*
D03*
X15500Y92500D02*
D03*
X75000Y74000D02*
D03*
X11000Y83000D02*
D03*
X28000Y69000D02*
D03*
X29887Y70887D02*
D03*
X95500Y41500D02*
D03*
X102000Y70000D02*
D03*
X109000Y67000D02*
D03*
Y64000D02*
D03*
X102000Y98000D02*
D03*
X103000Y91000D02*
D03*
X135000Y154000D02*
D03*
X130000D02*
D03*
X145000D02*
D03*
X106000Y151781D02*
D03*
X107000Y156000D02*
D03*
Y147000D02*
D03*
X87000Y160000D02*
D03*
X151000Y175000D02*
D03*
X48000Y161000D02*
D03*
X46000Y166000D02*
D03*
X90000Y163000D02*
D03*
X41000Y166000D02*
D03*
X150000Y130000D02*
D03*
X115000Y159000D02*
D03*
X97000Y175000D02*
D03*
X110000D02*
D03*
X105500Y170500D02*
D03*
X106000Y161969D02*
D03*
X108000Y159000D02*
D03*
X116000Y154000D02*
D03*
X152000Y158000D02*
D03*
X118000Y224000D02*
D03*
X115000D02*
D03*
X80000Y231000D02*
D03*
X82968Y228916D02*
D03*
X76000Y225000D02*
D03*
X46000Y233000D02*
D03*
X37000D02*
D03*
X39916Y219000D02*
D03*
Y223000D02*
D03*
X39500Y210000D02*
D03*
X36500Y208000D02*
D03*
X34500Y205000D02*
D03*
X32000Y202000D02*
D03*
X30000Y199831D02*
D03*
X27000Y197500D02*
D03*
X24000Y195000D02*
D03*
X22000Y191000D02*
D03*
X12000Y152000D02*
D03*
X10000Y158000D02*
D03*
X15000Y164000D02*
D03*
X14000Y169000D02*
D03*
X71812Y52977D02*
D03*
X5000Y211829D02*
D03*
M02*
