G04*
G04 #@! TF.GenerationSoftware,Altium Limited,Altium Designer,19.1.5 (86)*
G04*
G04 Layer_Color=16711935*
%FSLAX25Y25*%
%MOIN*%
G70*
G01*
G75*
%ADD99C,0.03162*%
%ADD100R,0.06706X0.06706*%
%ADD101C,0.06706*%
%ADD102C,0.05800*%
%ADD103C,0.02769*%
D99*
X159000Y66500D02*
D03*
Y54689D02*
D03*
D100*
X36000Y240000D02*
D03*
D101*
X26000D02*
D03*
X16000D02*
D03*
D102*
X79000Y43000D02*
D03*
X123000Y46500D02*
D03*
X15000Y140500D02*
D03*
Y131000D02*
D03*
X111000Y42500D02*
D03*
Y32000D02*
D03*
D103*
X153988Y269012D02*
D03*
X99398Y225000D02*
D03*
X74500Y268500D02*
D03*
X36331Y273000D02*
D03*
X67000Y235000D02*
D03*
X71374Y254126D02*
D03*
Y258063D02*
D03*
X121068Y253256D02*
D03*
X46863Y251264D02*
D03*
X38256Y261000D02*
D03*
X110000Y244000D02*
D03*
X68021Y246991D02*
D03*
X48343Y258063D02*
D03*
Y254126D02*
D03*
X40224Y263947D02*
D03*
X114124Y249075D02*
D03*
X91218Y252138D02*
D03*
X107874Y269012D02*
D03*
X95214D02*
D03*
X78055Y261150D02*
D03*
X78044Y256327D02*
D03*
X157468Y255264D02*
D03*
X138469D02*
D03*
X130468Y259264D02*
D03*
Y263264D02*
D03*
X146468Y266264D02*
D03*
X150469D02*
D03*
X140469Y251264D02*
D03*
X157468D02*
D03*
X38256Y257000D02*
D03*
X21256D02*
D03*
X31256Y272000D02*
D03*
X27256D02*
D03*
X11256Y269000D02*
D03*
Y265000D02*
D03*
X19256Y261000D02*
D03*
X141000Y48529D02*
D03*
X135900Y60186D02*
D03*
X155000Y123000D02*
D03*
X64331Y239750D02*
D03*
X152000Y223000D02*
D03*
X129500Y62000D02*
D03*
X133063Y47000D02*
D03*
X147031Y63547D02*
D03*
X146000Y69469D02*
D03*
X122000Y75000D02*
D03*
X43500Y143500D02*
D03*
X49000Y156000D02*
D03*
X40000Y155500D02*
D03*
X94000Y221000D02*
D03*
X98000Y233000D02*
D03*
X84000Y78000D02*
D03*
X50000Y123000D02*
D03*
X49000Y239000D02*
D03*
Y226000D02*
D03*
X22000Y187000D02*
D03*
X148000Y118500D02*
D03*
X60532Y156968D02*
D03*
X58500Y153000D02*
D03*
X13000Y223000D02*
D03*
X54500Y230000D02*
D03*
X53500Y91000D02*
D03*
X18000Y123500D02*
D03*
X28000Y87500D02*
D03*
X79937Y140063D02*
D03*
X76500Y144500D02*
D03*
X82000Y185000D02*
D03*
X117166Y110666D02*
D03*
Y106335D02*
D03*
X119000Y78500D02*
D03*
X63032Y75531D02*
D03*
X19000Y98500D02*
D03*
X21969Y123468D02*
D03*
X88685Y83685D02*
D03*
X132468Y134531D02*
D03*
X107000Y205000D02*
D03*
X104500Y207500D02*
D03*
X102000Y210000D02*
D03*
X35500Y111000D02*
D03*
X46500Y93000D02*
D03*
X35484Y105516D02*
D03*
X34500Y100500D02*
D03*
X88685Y121185D02*
D03*
X49500Y32500D02*
D03*
X86500Y43000D02*
D03*
X91500Y39000D02*
D03*
X64500Y161500D02*
D03*
X37000Y31000D02*
D03*
X19654Y30846D02*
D03*
X141000Y196500D02*
D03*
X141500Y189000D02*
D03*
X102000Y49500D02*
D03*
X113500Y60000D02*
D03*
X144500Y97000D02*
D03*
X127500Y79000D02*
D03*
X129500Y46500D02*
D03*
X74500Y180000D02*
D03*
X62000D02*
D03*
X30000Y173000D02*
D03*
X82000Y192500D02*
D03*
X119000Y178000D02*
D03*
X48000Y83500D02*
D03*
Y73500D02*
D03*
X54500Y72000D02*
D03*
X93500Y75500D02*
D03*
X133429Y74965D02*
D03*
X151740Y82740D02*
D03*
X119000Y84000D02*
D03*
X77500Y105000D02*
D03*
X20000Y75000D02*
D03*
Y79000D02*
D03*
X48500Y78484D02*
D03*
X90437Y136063D02*
D03*
X132437Y118563D02*
D03*
X134937Y113563D02*
D03*
X137437Y108563D02*
D03*
X71500Y19500D02*
D03*
Y45500D02*
D03*
Y32000D02*
D03*
X130500Y189500D02*
D03*
Y194000D02*
D03*
X119500Y183000D02*
D03*
X121731Y191315D02*
D03*
X119000Y160000D02*
D03*
X55500Y116000D02*
D03*
X64331Y146000D02*
D03*
X95273Y142273D02*
D03*
X86000Y150000D02*
D03*
X96500D02*
D03*
X54500Y158500D02*
D03*
X100921Y144879D02*
D03*
X135000Y94000D02*
D03*
X131032Y104469D02*
D03*
X85000Y107500D02*
D03*
X82595Y114469D02*
D03*
X117469Y148031D02*
D03*
X56032Y239968D02*
D03*
X28000Y16000D02*
D03*
X55500Y192000D02*
D03*
Y188000D02*
D03*
X93000Y79000D02*
D03*
X80000Y76872D02*
D03*
X62000Y104500D02*
D03*
X32000Y92833D02*
D03*
X138469Y134531D02*
D03*
X116000Y195500D02*
D03*
X75000Y228000D02*
D03*
X71000Y233500D02*
D03*
X77500Y99500D02*
D03*
X41307Y16193D02*
D03*
X125000Y209000D02*
D03*
X12000Y105500D02*
D03*
X72900Y141200D02*
D03*
X135468Y138300D02*
D03*
X135900Y130600D02*
D03*
X59900Y240000D02*
D03*
X21300Y231400D02*
D03*
X21600Y227000D02*
D03*
X111469Y124531D02*
D03*
X112835Y110666D02*
D03*
Y106335D02*
D03*
X94937Y127063D02*
D03*
X66969Y79468D02*
D03*
X63032D02*
D03*
X66969Y75531D02*
D03*
X53500Y99500D02*
D03*
Y96000D02*
D03*
X20000Y83000D02*
D03*
Y92000D02*
D03*
X15500Y92500D02*
D03*
X75000Y74000D02*
D03*
X11000Y83000D02*
D03*
X28000Y69000D02*
D03*
X29887Y70887D02*
D03*
X95500Y41500D02*
D03*
X102000Y70000D02*
D03*
X109000Y67000D02*
D03*
Y64000D02*
D03*
X102000Y98000D02*
D03*
X103000Y91000D02*
D03*
X135000Y154000D02*
D03*
X130000D02*
D03*
X145000D02*
D03*
X106000Y151781D02*
D03*
X107000Y156000D02*
D03*
Y147000D02*
D03*
X87000Y160000D02*
D03*
X151000Y175000D02*
D03*
X48000Y161000D02*
D03*
X46000Y166000D02*
D03*
X90000Y163000D02*
D03*
X41000Y166000D02*
D03*
X150000Y130000D02*
D03*
X115000Y159000D02*
D03*
X97000Y175000D02*
D03*
X110000D02*
D03*
X105500Y170500D02*
D03*
X106000Y161969D02*
D03*
X108000Y159000D02*
D03*
X116000Y154000D02*
D03*
X152000Y158000D02*
D03*
X118000Y224000D02*
D03*
X115000D02*
D03*
X80000Y231000D02*
D03*
X82968Y228916D02*
D03*
X76000Y225000D02*
D03*
X46000Y233000D02*
D03*
X37000D02*
D03*
X39916Y219000D02*
D03*
Y223000D02*
D03*
X39500Y210000D02*
D03*
X36500Y208000D02*
D03*
X34500Y205000D02*
D03*
X32000Y202000D02*
D03*
X30000Y199831D02*
D03*
X27000Y197500D02*
D03*
X24000Y195000D02*
D03*
X22000Y191000D02*
D03*
X12000Y152000D02*
D03*
X10000Y158000D02*
D03*
X15000Y164000D02*
D03*
X14000Y169000D02*
D03*
X71812Y52977D02*
D03*
X5000Y211829D02*
D03*
M02*
