G04*
G04 #@! TF.GenerationSoftware,Altium Limited,Altium Designer,18.1.9 (240)*
G04*
G04 Layer_Color=16711935*
%FSLAX25Y25*%
%MOIN*%
G70*
G01*
G75*
%ADD12C,0.00394*%
%ADD13C,0.01000*%
D12*
X23528Y110894D02*
G03*
X23528Y110894I-1969J0D01*
G01*
X64606Y79862D02*
G03*
X64606Y79862I-1969J0D01*
G01*
X114409Y111059D02*
G03*
X114409Y111059I-1969J0D01*
G01*
X109380Y-483D02*
G03*
X109793Y-1362I1142J0D01*
G01*
X80443Y7016D02*
G03*
X81033Y6253I787J0D01*
G01*
X81802Y-1362D02*
G03*
X82214Y-483I-729J879D01*
G01*
X81033Y9747D02*
G03*
X80443Y8984I197J-762D01*
G01*
X110561Y6253D02*
G03*
X111152Y7016I-197J762D01*
G01*
Y8984D02*
G03*
X110561Y9747I-787J0D01*
G01*
X81671Y258791D02*
X97104D01*
X81671Y259776D02*
X97104D01*
X81671Y258004D02*
Y259776D01*
X80136Y258004D02*
X81671D01*
X97104D02*
Y259776D01*
Y258004D02*
X98640D01*
X80136Y245602D02*
Y258004D01*
Y245602D02*
X83285D01*
X98640D02*
Y258004D01*
X95490Y245602D02*
X98640D01*
X83285D02*
Y247610D01*
X95490D01*
Y245602D02*
Y247610D01*
X112367Y258791D02*
X127800D01*
X112367Y259776D02*
X127800D01*
X112367Y258004D02*
Y259776D01*
X110832Y258004D02*
X112367D01*
X127800D02*
Y259776D01*
Y258004D02*
X129336D01*
X110832Y245602D02*
Y258004D01*
Y245602D02*
X113981D01*
X129336D02*
Y258004D01*
X126186Y245602D02*
X129336D01*
X113981D02*
Y247610D01*
X126186D01*
Y245602D02*
Y247610D01*
X143064Y258791D02*
X158497D01*
X143064Y259776D02*
X158497D01*
X143064Y258004D02*
Y259776D01*
X141528Y258004D02*
X143064D01*
X158497D02*
Y259776D01*
Y258004D02*
X160032D01*
X141528Y245602D02*
Y258004D01*
Y245602D02*
X144678D01*
X160032D02*
Y258004D01*
X156883Y245602D02*
X160032D01*
X144678D02*
Y247610D01*
X156883D01*
Y245602D02*
Y247610D01*
X164118Y47406D02*
Y73783D01*
X153882D02*
X164118D01*
X153882Y47406D02*
X164118D01*
X153882D02*
Y73783D01*
X14819Y195166D02*
X17181D01*
X14819Y190835D02*
X17181D01*
Y195166D01*
X14819Y190835D02*
Y195166D01*
X10819D02*
X13181D01*
X10819Y190835D02*
X13181D01*
Y195166D01*
X10819Y190835D02*
Y195166D01*
X17165Y225819D02*
Y228181D01*
X12835Y225819D02*
Y228181D01*
Y225819D02*
X17165D01*
X12835Y228181D02*
X17165D01*
X21665Y150819D02*
Y153181D01*
X17335Y150819D02*
Y153181D01*
Y150819D02*
X21665D01*
X17335Y153181D02*
X21665D01*
Y158319D02*
Y160681D01*
X17335Y158319D02*
Y160681D01*
Y158319D02*
X21665D01*
X17335Y160681D02*
X21665D01*
X25768Y149244D02*
X34232D01*
X25768Y154756D02*
X34232D01*
Y149244D02*
Y154756D01*
X25768Y149244D02*
Y154756D01*
Y156744D02*
X34232D01*
X25768Y162256D02*
X34232D01*
Y156744D02*
Y162256D01*
X25768Y156744D02*
Y162256D01*
X12835Y229819D02*
Y232181D01*
X17165Y229819D02*
Y232181D01*
X12835D02*
X17165D01*
X12835Y229819D02*
X17165D01*
X32630Y167055D02*
X36370D01*
X32630Y173945D02*
X36370D01*
X32630Y167055D02*
Y173945D01*
X36370Y167055D02*
Y173945D01*
X46543Y107807D02*
Y121193D01*
X39457Y107807D02*
Y121193D01*
X46543D01*
X39457Y107807D02*
X46543D01*
X10819Y113134D02*
X13181D01*
X10819Y108803D02*
X13181D01*
Y113134D01*
X10819Y108803D02*
Y113134D01*
X12819Y87165D02*
X15181D01*
X12819Y82835D02*
X15181D01*
Y87165D01*
X12819Y82835D02*
Y87165D01*
X34319Y115803D02*
X36681D01*
X34319Y120134D02*
X36681D01*
X34319Y115803D02*
Y120134D01*
X36681Y115803D02*
Y120134D01*
X45665Y101319D02*
Y103681D01*
X41335Y101319D02*
Y103681D01*
Y101319D02*
X45665D01*
X41335Y103681D02*
X45665D01*
X39335Y96819D02*
Y99181D01*
X43666Y96819D02*
Y99181D01*
X39335D02*
X43666D01*
X39335Y96819D02*
X43666D01*
X40634Y91652D02*
Y94014D01*
X36303Y91652D02*
Y94014D01*
Y91652D02*
X40634D01*
X36303Y94014D02*
X40634D01*
X22165Y117819D02*
Y120181D01*
X17835Y117819D02*
Y120181D01*
Y117819D02*
X22165D01*
X17835Y120181D02*
X22165D01*
X18016Y102626D02*
X29827D01*
X18016Y114437D02*
X29827D01*
Y102626D02*
Y114437D01*
X18016Y102626D02*
Y114437D01*
X26819Y96665D02*
X29181D01*
X26819Y92335D02*
X29181D01*
Y96665D01*
X26819Y92335D02*
Y96665D01*
X91181Y222803D02*
Y227134D01*
X88819Y222803D02*
Y227134D01*
X91181D01*
X88819Y222803D02*
X91181D01*
X58732Y106744D02*
Y112256D01*
X50268Y106744D02*
Y112256D01*
Y106744D02*
X58732D01*
X50268Y112256D02*
X58732D01*
X63335Y107819D02*
X67665D01*
X63335Y110181D02*
X67665D01*
Y107819D02*
Y110181D01*
X63335Y107819D02*
Y110181D01*
X151165Y192319D02*
Y194681D01*
X146835Y192319D02*
Y194681D01*
Y192319D02*
X151165D01*
X146835Y194681D02*
X151165D01*
X146835Y196319D02*
Y198681D01*
X151165Y196319D02*
Y198681D01*
X146835D02*
X151165D01*
X146835Y196319D02*
X151165D01*
X151165Y187819D02*
Y190181D01*
X146835Y187819D02*
Y190181D01*
Y187819D02*
X151165D01*
X146835Y190181D02*
X151165D01*
X120319Y55665D02*
X122681D01*
X120319Y51335D02*
X122681D01*
Y55665D01*
X120319Y51335D02*
Y55665D01*
X116319Y51335D02*
X118681D01*
X116319Y55665D02*
X118681D01*
X116319Y51335D02*
Y55665D01*
X118681Y51335D02*
Y55665D01*
X112319Y51335D02*
X114681D01*
X112319Y55665D02*
X114681D01*
X112319Y51335D02*
Y55665D01*
X114681Y51335D02*
Y55665D01*
X71819Y151865D02*
X74181D01*
X71819Y147535D02*
X74181D01*
Y151865D01*
X71819Y147535D02*
Y151865D01*
X150819Y117666D02*
X153181D01*
X150819Y113335D02*
X153181D01*
Y117666D01*
X150819Y113335D02*
Y117666D01*
X63319Y157166D02*
X65681D01*
X63319Y152835D02*
X65681D01*
Y157166D01*
X63319Y152835D02*
Y157166D01*
X60165Y233819D02*
Y236181D01*
X55835Y233819D02*
Y236181D01*
Y233819D02*
X60165D01*
X55835Y236181D02*
X60165D01*
X27181Y168835D02*
Y173166D01*
X24819Y168835D02*
Y173166D01*
X27181D01*
X24819Y168835D02*
X27181D01*
X111304Y186634D02*
X114366Y189696D01*
X109634Y188304D02*
X112696Y191366D01*
X114366Y189696D01*
X109634Y188304D02*
X111304Y186634D01*
X25555Y186130D02*
Y189870D01*
X32445Y186130D02*
Y189870D01*
X25555D02*
X32445D01*
X25555Y186130D02*
X32445D01*
X102630Y196445D02*
X106370D01*
X102630Y189555D02*
X106370D01*
Y196445D01*
X102630Y189555D02*
Y196445D01*
X98819Y194166D02*
X101181D01*
X98819Y189835D02*
X101181D01*
Y194166D01*
X98819Y189835D02*
Y194166D01*
X36319Y191165D02*
X38681D01*
X36319Y186835D02*
X38681D01*
Y191165D01*
X36319Y186835D02*
Y191165D01*
X97665Y68819D02*
Y71181D01*
X93335Y68819D02*
Y71181D01*
Y68819D02*
X97665D01*
X93335Y71181D02*
X97665D01*
X117307Y97543D02*
X130693D01*
X117307Y90457D02*
X130693D01*
X117307D02*
Y97543D01*
X130693Y90457D02*
Y97543D01*
X132819Y65335D02*
X135181D01*
X132819Y69665D02*
X135181D01*
X132819Y65335D02*
Y69665D01*
X135181Y65335D02*
Y69665D01*
X102055Y73291D02*
Y84709D01*
X108945Y73291D02*
Y84709D01*
X102055D02*
X108945D01*
X102055Y73291D02*
X108945D01*
X137244Y84905D02*
X142756D01*
X137244Y73094D02*
X142756D01*
X137244D02*
Y84905D01*
X142756Y73094D02*
Y84905D01*
X57807Y90685D02*
X71193D01*
X57807Y101315D02*
X71193D01*
Y90685D02*
Y101315D01*
X57807Y90685D02*
Y101315D01*
X23807Y73185D02*
X37193D01*
X23807Y83815D02*
X37193D01*
Y73185D02*
Y83815D01*
X23807Y73185D02*
Y83815D01*
X59095Y71594D02*
Y83405D01*
X70906Y71594D02*
Y83405D01*
X59095D02*
X70906D01*
X59095Y71594D02*
X70906D01*
X133819Y100335D02*
X136181D01*
X133819Y104666D02*
X136181D01*
X133819Y100335D02*
Y104666D01*
X136181Y100335D02*
Y104666D01*
X148043Y101307D02*
Y114693D01*
X140957Y101307D02*
Y114693D01*
X148043D01*
X140957Y101307D02*
X148043D01*
X92319Y107335D02*
X94681D01*
X92319Y111665D02*
X94681D01*
X92319Y107335D02*
Y111665D01*
X94681Y107335D02*
Y111665D01*
X108898Y102398D02*
X121102D01*
X108898Y114602D02*
X121102D01*
Y102398D02*
Y114602D01*
X108898Y102398D02*
Y114602D01*
X76394Y120685D02*
Y134071D01*
X83480Y120685D02*
Y134071D01*
X76394Y120685D02*
X83480D01*
X76394Y134071D02*
X83480D01*
X144165Y117319D02*
Y119681D01*
X139835Y117319D02*
Y119681D01*
Y117319D02*
X144165D01*
X139835Y119681D02*
X144165D01*
X76319Y110335D02*
X78681D01*
X76319Y114665D02*
X78681D01*
X76319Y110335D02*
Y114665D01*
X78681Y110335D02*
Y114665D01*
X89256Y131228D02*
X91618D01*
X89256Y126898D02*
X91618D01*
Y131228D01*
X89256Y126898D02*
Y131228D01*
X137957Y48807D02*
Y62193D01*
X145043Y48807D02*
Y62193D01*
X137957Y48807D02*
X145043D01*
X137957Y62193D02*
X145043D01*
X70319Y12803D02*
X72681D01*
X70319Y8472D02*
X72681D01*
Y12803D01*
X70319Y8472D02*
Y12803D01*
X74319D02*
X76681D01*
X74319Y8472D02*
X76681D01*
Y12803D01*
X74319Y8472D02*
Y12803D01*
X94319Y30654D02*
X96681D01*
X94319Y34984D02*
X96681D01*
X94319Y30654D02*
Y34984D01*
X96681Y30654D02*
Y34984D01*
X90319Y30654D02*
X92681D01*
X90319Y34984D02*
X92681D01*
X90319Y30654D02*
Y34984D01*
X92681Y30654D02*
Y34984D01*
X84630Y30555D02*
X88370D01*
X84630Y37445D02*
X88370D01*
X84630Y30555D02*
Y37445D01*
X88370Y30555D02*
Y37445D01*
X98457Y30457D02*
Y43843D01*
X105543Y30457D02*
Y43843D01*
X98457Y30457D02*
X105543D01*
X98457Y43843D02*
X105543D01*
X70319Y35835D02*
Y40165D01*
X72681Y35835D02*
Y40165D01*
X70319Y35835D02*
X72681D01*
X70319Y40165D02*
X72681D01*
X70319Y23835D02*
X72681D01*
X70319Y28165D02*
X72681D01*
X70319Y23835D02*
Y28165D01*
X72681Y23835D02*
Y28165D01*
X10441Y6079D02*
X65559D01*
X10441D02*
Y65921D01*
X65559Y6079D02*
Y65921D01*
X10441D02*
X65559D01*
X87307Y95043D02*
X100693D01*
X87307Y87957D02*
X100693D01*
X87307D02*
Y95043D01*
X100693Y87957D02*
Y95043D01*
X114835Y171319D02*
Y173681D01*
X119166Y171319D02*
Y173681D01*
X114835D02*
X119166D01*
X114835Y171319D02*
X119166D01*
X134665Y197319D02*
Y199681D01*
X130335Y197319D02*
Y199681D01*
Y197319D02*
X134665D01*
X130335Y199681D02*
X134665D01*
X114803Y166319D02*
Y168681D01*
X119134Y166319D02*
Y168681D01*
X114803D02*
X119134D01*
X114803Y166319D02*
X119134D01*
X124319Y202665D02*
X126681D01*
X124319Y198335D02*
X126681D01*
Y202665D01*
X124319Y198335D02*
Y202665D01*
X60335Y114819D02*
X64666D01*
X60335Y117181D02*
X64666D01*
Y114819D02*
Y117181D01*
X60335Y114819D02*
Y117181D01*
X55835Y147181D02*
X60165D01*
X55835Y144819D02*
X60165D01*
X55835D02*
Y147181D01*
X60165Y144819D02*
Y147181D01*
X34366Y138181D02*
X38697D01*
X34366Y135819D02*
X38697D01*
X34366D02*
Y138181D01*
X38697Y135819D02*
Y138181D01*
X42303Y135819D02*
X46634D01*
X42303Y138181D02*
X46634D01*
Y135819D02*
Y138181D01*
X42303Y135819D02*
Y138181D01*
X90319Y154165D02*
X92681D01*
X90319Y149835D02*
X92681D01*
Y154165D01*
X90319Y149835D02*
Y154165D01*
X97819Y157835D02*
X100181D01*
X97819Y162165D02*
X100181D01*
X97819Y157835D02*
Y162165D01*
X100181Y157835D02*
Y162165D01*
X116288Y125866D02*
X118650D01*
X116288Y130197D02*
X118650D01*
X116288Y125866D02*
Y130197D01*
X118650Y125866D02*
Y130197D01*
X116288Y140697D02*
X118650D01*
X116288Y136366D02*
X118650D01*
Y140697D01*
X116288Y136366D02*
Y140697D01*
X110287Y133197D02*
X112650D01*
X110287Y128866D02*
X112650D01*
Y133197D01*
X110287Y128866D02*
Y133197D01*
X109599Y137587D02*
X113339D01*
X109599Y144476D02*
X113339D01*
X109599Y137587D02*
Y144476D01*
X113339Y137587D02*
Y144476D01*
X120788Y143866D02*
X123150D01*
X120788Y148197D02*
X123150D01*
X120788Y143866D02*
Y148197D01*
X123150Y143866D02*
Y148197D01*
X150555Y206488D02*
Y217512D01*
X132445Y206488D02*
X150555D01*
X132445Y217512D02*
X150555D01*
X132445Y206488D02*
Y217512D01*
X94555Y50488D02*
Y61512D01*
X76445Y50488D02*
X94555D01*
X76445Y61512D02*
X94555D01*
X76445Y50488D02*
Y61512D01*
X11945Y209488D02*
Y220512D01*
X30055D01*
X11945Y209488D02*
X30055D01*
Y220512D01*
X83199Y-465D02*
Y18039D01*
X108396Y-465D02*
Y18039D01*
X110146Y-1655D02*
X110900Y-746D01*
X83986Y-2158D02*
Y-1234D01*
X80695Y-746D02*
X81449Y-1655D01*
X107608Y-2158D02*
Y-1234D01*
X80089Y-1249D02*
X80695Y-746D01*
X83986Y-1234D02*
X107608D01*
X83974Y-2157D02*
X83986Y-2158D01*
X83961Y-2157D02*
X83974Y-2157D01*
X83949Y-2157D02*
X83961Y-2157D01*
X83937Y-2156D02*
X83949Y-2157D01*
X83924Y-2156D02*
X83937Y-2156D01*
X83912Y-2155D02*
X83924Y-2156D01*
X83900Y-2155D02*
X83912Y-2155D01*
X83887Y-2154D02*
X83900Y-2155D01*
X83875Y-2153D02*
X83887Y-2154D01*
X83863Y-2151D02*
X83875Y-2153D01*
X83851Y-2150D02*
X83863Y-2151D01*
X83839Y-2149D02*
X83851Y-2150D01*
X83827Y-2147D02*
X83839Y-2149D01*
X83814Y-2146D02*
X83827Y-2147D01*
X83802Y-2144D02*
X83814Y-2146D01*
X83790Y-2142D02*
X83802Y-2144D01*
X83778Y-2140D02*
X83790Y-2142D01*
X83767Y-2138D02*
X83778Y-2140D01*
X83755Y-2136D02*
X83767Y-2138D01*
X83743Y-2133D02*
X83755Y-2136D01*
X83731Y-2131D02*
X83743Y-2133D01*
X83719Y-2128D02*
X83731Y-2131D01*
X83708Y-2126D02*
X83719Y-2128D01*
X83696Y-2123D02*
X83708Y-2126D01*
X83685Y-2120D02*
X83696Y-2123D01*
X83674Y-2117D02*
X83685Y-2120D01*
X83662Y-2114D02*
X83674Y-2117D01*
X83651Y-2111D02*
X83662Y-2114D01*
X83640Y-2107D02*
X83651Y-2111D01*
X83629Y-2104D02*
X83640Y-2107D01*
X83618Y-2100D02*
X83629Y-2104D01*
X83607Y-2097D02*
X83618Y-2100D01*
X83596Y-2093D02*
X83607Y-2097D01*
X83585Y-2089D02*
X83596Y-2093D01*
X83575Y-2085D02*
X83585Y-2089D01*
X83564Y-2081D02*
X83575Y-2085D01*
X83554Y-2077D02*
X83564Y-2081D01*
X83544Y-2073D02*
X83554Y-2077D01*
X83534Y-2068D02*
X83544Y-2073D01*
X83523Y-2064D02*
X83534Y-2068D01*
X83513Y-2059D02*
X83523Y-2064D01*
X83504Y-2054D02*
X83513Y-2059D01*
X83494Y-2050D02*
X83504Y-2054D01*
X83484Y-2045D02*
X83494Y-2050D01*
X83475Y-2040D02*
X83484Y-2045D01*
X83465Y-2035D02*
X83475Y-2040D01*
X83456Y-2030D02*
X83465Y-2035D01*
X83447Y-2024D02*
X83456Y-2030D01*
X83438Y-2019D02*
X83447Y-2024D01*
X83429Y-2014D02*
X83438Y-2019D01*
X83421Y-2008D02*
X83429Y-2014D01*
X83412Y-2002D02*
X83421Y-2008D01*
X83404Y-1997D02*
X83412Y-2002D01*
X83396Y-1991D02*
X83404Y-1997D01*
X83388Y-1985D02*
X83396Y-1991D01*
X83380Y-1979D02*
X83388Y-1985D01*
X83372Y-1973D02*
X83380Y-1979D01*
X83364Y-1967D02*
X83372Y-1973D01*
X83356Y-1961D02*
X83364Y-1967D01*
X83349Y-1955D02*
X83356Y-1961D01*
X83342Y-1949D02*
X83349Y-1955D01*
X83335Y-1942D02*
X83342Y-1949D01*
X83328Y-1936D02*
X83335Y-1942D01*
X83321Y-1929D02*
X83328Y-1936D01*
X83315Y-1923D02*
X83321Y-1929D01*
X83309Y-1916D02*
X83315Y-1923D01*
X83302Y-1910D02*
X83309Y-1916D01*
X83296Y-1903D02*
X83302Y-1910D01*
X83290Y-1896D02*
X83296Y-1903D01*
X83285Y-1889D02*
X83290Y-1896D01*
X83279Y-1882D02*
X83285Y-1889D01*
X83274Y-1875D02*
X83279Y-1882D01*
X83269Y-1868D02*
X83274Y-1875D01*
X83264Y-1861D02*
X83269Y-1868D01*
X83259Y-1854D02*
X83264Y-1861D01*
X83254Y-1847D02*
X83259Y-1854D01*
X83250Y-1840D02*
X83254Y-1847D01*
X83245Y-1833D02*
X83250Y-1840D01*
X83241Y-1825D02*
X83245Y-1833D01*
X83237Y-1818D02*
X83241Y-1825D01*
X83234Y-1811D02*
X83237Y-1818D01*
X83230Y-1803D02*
X83234Y-1811D01*
X83227Y-1796D02*
X83230Y-1803D01*
X83223Y-1788D02*
X83227Y-1796D01*
X83221Y-1781D02*
X83223Y-1788D01*
X83218Y-1774D02*
X83221Y-1781D01*
X83215Y-1766D02*
X83218Y-1774D01*
X83213Y-1758D02*
X83215Y-1766D01*
X83210Y-1751D02*
X83213Y-1758D01*
X83209Y-1743D02*
X83210Y-1751D01*
X83207Y-1736D02*
X83209Y-1743D01*
X83205Y-1728D02*
X83207Y-1736D01*
X83204Y-1720D02*
X83205Y-1728D01*
X83202Y-1712D02*
X83204Y-1720D01*
X83201Y-1705D02*
X83202Y-1712D01*
X83200Y-1697D02*
X83201Y-1705D01*
X83200Y-1689D02*
X83200Y-1697D01*
X83199Y-1682D02*
X83200Y-1689D01*
X83199Y-1674D02*
X83199Y-1682D01*
X83199Y-1666D02*
X83199Y-1674D01*
X83974Y-1234D02*
X83986Y-1234D01*
X83961Y-1234D02*
X83974Y-1234D01*
X83949Y-1234D02*
X83961Y-1234D01*
X83937Y-1233D02*
X83949Y-1234D01*
X83924Y-1233D02*
X83937Y-1233D01*
X83912Y-1232D02*
X83924Y-1233D01*
X83900Y-1231D02*
X83912Y-1232D01*
X83887Y-1230D02*
X83900Y-1231D01*
X83875Y-1229D02*
X83887Y-1230D01*
X83863Y-1228D02*
X83875Y-1229D01*
X83851Y-1227D02*
X83863Y-1228D01*
X83839Y-1226D02*
X83851Y-1227D01*
X83827Y-1224D02*
X83839Y-1226D01*
X83814Y-1223D02*
X83827Y-1224D01*
X83802Y-1221D02*
X83814Y-1223D01*
X83790Y-1219D02*
X83802Y-1221D01*
X83778Y-1217D02*
X83790Y-1219D01*
X83767Y-1215D02*
X83778Y-1217D01*
X83755Y-1213D02*
X83767Y-1215D01*
X83743Y-1210D02*
X83755Y-1213D01*
X83731Y-1208D02*
X83743Y-1210D01*
X83719Y-1205D02*
X83731Y-1208D01*
X83708Y-1203D02*
X83719Y-1205D01*
X83696Y-1200D02*
X83708Y-1203D01*
X83685Y-1197D02*
X83696Y-1200D01*
X83674Y-1194D02*
X83685Y-1197D01*
X83662Y-1191D02*
X83674Y-1194D01*
X83651Y-1187D02*
X83662Y-1191D01*
X83640Y-1184D02*
X83651Y-1187D01*
X83629Y-1181D02*
X83640Y-1184D01*
X83618Y-1177D02*
X83629Y-1181D01*
X83607Y-1173D02*
X83618Y-1177D01*
X83596Y-1170D02*
X83607Y-1173D01*
X83585Y-1166D02*
X83596Y-1170D01*
X83575Y-1162D02*
X83585Y-1166D01*
X83564Y-1158D02*
X83575Y-1162D01*
X83554Y-1154D02*
X83564Y-1158D01*
X83544Y-1149D02*
X83554Y-1154D01*
X83534Y-1145D02*
X83544Y-1149D01*
X83523Y-1141D02*
X83534Y-1145D01*
X83513Y-1136D02*
X83523Y-1141D01*
X83504Y-1131D02*
X83513Y-1136D01*
X83494Y-1126D02*
X83504Y-1131D01*
X83484Y-1122D02*
X83494Y-1126D01*
X83475Y-1117D02*
X83484Y-1122D01*
X83465Y-1112D02*
X83475Y-1117D01*
X83456Y-1106D02*
X83465Y-1112D01*
X83447Y-1101D02*
X83456Y-1106D01*
X83438Y-1096D02*
X83447Y-1101D01*
X83429Y-1090D02*
X83438Y-1096D01*
X83421Y-1085D02*
X83429Y-1090D01*
X83412Y-1079D02*
X83421Y-1085D01*
X83404Y-1074D02*
X83412Y-1079D01*
X83396Y-1068D02*
X83404Y-1074D01*
X83388Y-1062D02*
X83396Y-1068D01*
X83380Y-1056D02*
X83388Y-1062D01*
X83372Y-1050D02*
X83380Y-1056D01*
X83364Y-1044D02*
X83372Y-1050D01*
X83356Y-1038D02*
X83364Y-1044D01*
X83349Y-1032D02*
X83356Y-1038D01*
X83342Y-1025D02*
X83349Y-1032D01*
X83335Y-1019D02*
X83342Y-1025D01*
X83328Y-1013D02*
X83335Y-1019D01*
X83321Y-1006D02*
X83328Y-1013D01*
X83315Y-1000D02*
X83321Y-1006D01*
X83309Y-993D02*
X83315Y-1000D01*
X83302Y-986D02*
X83309Y-993D01*
X83296Y-980D02*
X83302Y-986D01*
X83290Y-973D02*
X83296Y-980D01*
X83285Y-966D02*
X83290Y-973D01*
X83279Y-959D02*
X83285Y-966D01*
X83274Y-952D02*
X83279Y-959D01*
X83269Y-945D02*
X83274Y-952D01*
X83264Y-938D02*
X83269Y-945D01*
X83259Y-931D02*
X83264Y-938D01*
X83254Y-924D02*
X83259Y-931D01*
X83250Y-917D02*
X83254Y-924D01*
X83245Y-910D02*
X83250Y-917D01*
X83241Y-902D02*
X83245Y-910D01*
X83237Y-895D02*
X83241Y-902D01*
X83234Y-888D02*
X83237Y-895D01*
X83230Y-880D02*
X83234Y-888D01*
X83227Y-873D02*
X83230Y-880D01*
X83223Y-865D02*
X83227Y-873D01*
X83221Y-858D02*
X83223Y-865D01*
X83218Y-850D02*
X83221Y-858D01*
X83215Y-843D02*
X83218Y-850D01*
X83213Y-835D02*
X83215Y-843D01*
X83210Y-828D02*
X83213Y-835D01*
X83209Y-820D02*
X83210Y-828D01*
X83207Y-812D02*
X83209Y-820D01*
X83205Y-805D02*
X83207Y-812D01*
X83204Y-797D02*
X83205Y-805D01*
X83202Y-789D02*
X83204Y-797D01*
X83201Y-782D02*
X83202Y-789D01*
X83200Y-774D02*
X83201Y-782D01*
X83200Y-766D02*
X83200Y-774D01*
X83199Y-759D02*
X83200Y-766D01*
X83199Y-751D02*
X83199Y-759D01*
X83199Y-743D02*
X83199Y-751D01*
X108396D02*
X108396Y-743D01*
X108395Y-759D02*
X108396Y-751D01*
X108395Y-766D02*
X108395Y-759D01*
X108394Y-774D02*
X108395Y-766D01*
X108393Y-782D02*
X108394Y-774D01*
X108392Y-789D02*
X108393Y-782D01*
X108391Y-797D02*
X108392Y-789D01*
X108389Y-805D02*
X108391Y-797D01*
X108388Y-812D02*
X108389Y-805D01*
X108386Y-820D02*
X108388Y-812D01*
X108384Y-828D02*
X108386Y-820D01*
X108382Y-835D02*
X108384Y-828D01*
X108379Y-843D02*
X108382Y-835D01*
X108377Y-850D02*
X108379Y-843D01*
X108374Y-858D02*
X108377Y-850D01*
X108371Y-865D02*
X108374Y-858D01*
X108368Y-873D02*
X108371Y-865D01*
X108364Y-880D02*
X108368Y-873D01*
X108361Y-888D02*
X108364Y-880D01*
X108357Y-895D02*
X108361Y-888D01*
X108353Y-902D02*
X108357Y-895D01*
X108349Y-910D02*
X108353Y-902D01*
X108345Y-917D02*
X108349Y-910D01*
X108340Y-924D02*
X108345Y-917D01*
X108336Y-931D02*
X108340Y-924D01*
X108331Y-938D02*
X108336Y-931D01*
X108326Y-945D02*
X108331Y-938D01*
X108321Y-952D02*
X108326Y-945D01*
X108315Y-959D02*
X108321Y-952D01*
X108310Y-966D02*
X108315Y-959D01*
X108304Y-973D02*
X108310Y-966D01*
X108298Y-980D02*
X108304Y-973D01*
X108292Y-986D02*
X108298Y-980D01*
X108286Y-993D02*
X108292Y-986D01*
X108280Y-1000D02*
X108286Y-993D01*
X108273Y-1006D02*
X108280Y-1000D01*
X108266Y-1013D02*
X108273Y-1006D01*
X108259Y-1019D02*
X108266Y-1013D01*
X108253Y-1025D02*
X108259Y-1019D01*
X108245Y-1032D02*
X108253Y-1025D01*
X108238Y-1038D02*
X108245Y-1032D01*
X108230Y-1044D02*
X108238Y-1038D01*
X108223Y-1050D02*
X108230Y-1044D01*
X108215Y-1056D02*
X108223Y-1050D01*
X108207Y-1062D02*
X108215Y-1056D01*
X108199Y-1068D02*
X108207Y-1062D01*
X108191Y-1074D02*
X108199Y-1068D01*
X108182Y-1079D02*
X108191Y-1074D01*
X108174Y-1085D02*
X108182Y-1079D01*
X108165Y-1090D02*
X108174Y-1085D01*
X108156Y-1096D02*
X108165Y-1090D01*
X108147Y-1101D02*
X108156Y-1096D01*
X108138Y-1106D02*
X108147Y-1101D01*
X108129Y-1112D02*
X108138Y-1106D01*
X108120Y-1117D02*
X108129Y-1112D01*
X108110Y-1122D02*
X108120Y-1117D01*
X108101Y-1126D02*
X108110Y-1122D01*
X108091Y-1131D02*
X108101Y-1126D01*
X108081Y-1136D02*
X108091Y-1131D01*
X108071Y-1141D02*
X108081Y-1136D01*
X108061Y-1145D02*
X108071Y-1141D01*
X108051Y-1149D02*
X108061Y-1145D01*
X108041Y-1154D02*
X108051Y-1149D01*
X108030Y-1158D02*
X108041Y-1154D01*
X108020Y-1162D02*
X108030Y-1158D01*
X108009Y-1166D02*
X108020Y-1162D01*
X107998Y-1170D02*
X108009Y-1166D01*
X107988Y-1173D02*
X107998Y-1170D01*
X107977Y-1177D02*
X107988Y-1173D01*
X107966Y-1181D02*
X107977Y-1177D01*
X107955Y-1184D02*
X107966Y-1181D01*
X107943Y-1187D02*
X107955Y-1184D01*
X107932Y-1191D02*
X107943Y-1187D01*
X107921Y-1194D02*
X107932Y-1191D01*
X107910Y-1197D02*
X107921Y-1194D01*
X107898Y-1200D02*
X107910Y-1197D01*
X107887Y-1203D02*
X107898Y-1200D01*
X107875Y-1205D02*
X107887Y-1203D01*
X107863Y-1208D02*
X107875Y-1205D01*
X107852Y-1210D02*
X107863Y-1208D01*
X107840Y-1213D02*
X107852Y-1210D01*
X107828Y-1215D02*
X107840Y-1213D01*
X107816Y-1217D02*
X107828Y-1215D01*
X107804Y-1219D02*
X107816Y-1217D01*
X107792Y-1221D02*
X107804Y-1219D01*
X107780Y-1223D02*
X107792Y-1221D01*
X107768Y-1224D02*
X107780Y-1223D01*
X107756Y-1226D02*
X107768Y-1224D01*
X107744Y-1227D02*
X107756Y-1226D01*
X107731Y-1228D02*
X107744Y-1227D01*
X107719Y-1229D02*
X107731Y-1228D01*
X107707Y-1230D02*
X107719Y-1229D01*
X107695Y-1231D02*
X107707Y-1230D01*
X107682Y-1232D02*
X107695Y-1231D01*
X107670Y-1233D02*
X107682Y-1232D01*
X107658Y-1233D02*
X107670Y-1233D01*
X107645Y-1234D02*
X107658Y-1233D01*
X107633Y-1234D02*
X107645Y-1234D01*
X107621Y-1234D02*
X107633Y-1234D01*
X107608Y-1234D02*
X107621Y-1234D01*
X110561Y-465D02*
X110900Y-746D01*
X108396Y-1674D02*
X108396Y-1666D01*
X108395Y-1682D02*
X108396Y-1674D01*
X108395Y-1689D02*
X108395Y-1682D01*
X108394Y-1697D02*
X108395Y-1689D01*
X108393Y-1705D02*
X108394Y-1697D01*
X108392Y-1712D02*
X108393Y-1705D01*
X108391Y-1720D02*
X108392Y-1712D01*
X108389Y-1728D02*
X108391Y-1720D01*
X108388Y-1736D02*
X108389Y-1728D01*
X108386Y-1743D02*
X108388Y-1736D01*
X108384Y-1751D02*
X108386Y-1743D01*
X108382Y-1758D02*
X108384Y-1751D01*
X108379Y-1766D02*
X108382Y-1758D01*
X108377Y-1774D02*
X108379Y-1766D01*
X108374Y-1781D02*
X108377Y-1774D01*
X108371Y-1788D02*
X108374Y-1781D01*
X108368Y-1796D02*
X108371Y-1788D01*
X108364Y-1803D02*
X108368Y-1796D01*
X108361Y-1811D02*
X108364Y-1803D01*
X108357Y-1818D02*
X108361Y-1811D01*
X108353Y-1825D02*
X108357Y-1818D01*
X108349Y-1833D02*
X108353Y-1825D01*
X108345Y-1840D02*
X108349Y-1833D01*
X108340Y-1847D02*
X108345Y-1840D01*
X108336Y-1854D02*
X108340Y-1847D01*
X108331Y-1861D02*
X108336Y-1854D01*
X108326Y-1868D02*
X108331Y-1861D01*
X108321Y-1875D02*
X108326Y-1868D01*
X108315Y-1882D02*
X108321Y-1875D01*
X108310Y-1889D02*
X108315Y-1882D01*
X108304Y-1896D02*
X108310Y-1889D01*
X108298Y-1903D02*
X108304Y-1896D01*
X108292Y-1910D02*
X108298Y-1903D01*
X108286Y-1916D02*
X108292Y-1910D01*
X108280Y-1923D02*
X108286Y-1916D01*
X108273Y-1929D02*
X108280Y-1923D01*
X108266Y-1936D02*
X108273Y-1929D01*
X108259Y-1942D02*
X108266Y-1936D01*
X108253Y-1949D02*
X108259Y-1942D01*
X108245Y-1955D02*
X108253Y-1949D01*
X108238Y-1961D02*
X108245Y-1955D01*
X108230Y-1967D02*
X108238Y-1961D01*
X108223Y-1973D02*
X108230Y-1967D01*
X108215Y-1979D02*
X108223Y-1973D01*
X108207Y-1985D02*
X108215Y-1979D01*
X108199Y-1991D02*
X108207Y-1985D01*
X108191Y-1997D02*
X108199Y-1991D01*
X108182Y-2002D02*
X108191Y-1997D01*
X108174Y-2008D02*
X108182Y-2002D01*
X108165Y-2014D02*
X108174Y-2008D01*
X108156Y-2019D02*
X108165Y-2014D01*
X108147Y-2024D02*
X108156Y-2019D01*
X108138Y-2030D02*
X108147Y-2024D01*
X108129Y-2035D02*
X108138Y-2030D01*
X108120Y-2040D02*
X108129Y-2035D01*
X108110Y-2045D02*
X108120Y-2040D01*
X108101Y-2050D02*
X108110Y-2045D01*
X108091Y-2054D02*
X108101Y-2050D01*
X108081Y-2059D02*
X108091Y-2054D01*
X108071Y-2064D02*
X108081Y-2059D01*
X108061Y-2068D02*
X108071Y-2064D01*
X108051Y-2073D02*
X108061Y-2068D01*
X108041Y-2077D02*
X108051Y-2073D01*
X108030Y-2081D02*
X108041Y-2077D01*
X108020Y-2085D02*
X108030Y-2081D01*
X108009Y-2089D02*
X108020Y-2085D01*
X107998Y-2093D02*
X108009Y-2089D01*
X107988Y-2097D02*
X107998Y-2093D01*
X107977Y-2100D02*
X107988Y-2097D01*
X107966Y-2104D02*
X107977Y-2100D01*
X107955Y-2107D02*
X107966Y-2104D01*
X107943Y-2111D02*
X107955Y-2107D01*
X107932Y-2114D02*
X107943Y-2111D01*
X107921Y-2117D02*
X107932Y-2114D01*
X107910Y-2120D02*
X107921Y-2117D01*
X107898Y-2123D02*
X107910Y-2120D01*
X107887Y-2126D02*
X107898Y-2123D01*
X107875Y-2128D02*
X107887Y-2126D01*
X107863Y-2131D02*
X107875Y-2128D01*
X107852Y-2133D02*
X107863Y-2131D01*
X107840Y-2136D02*
X107852Y-2133D01*
X107828Y-2138D02*
X107840Y-2136D01*
X107816Y-2140D02*
X107828Y-2138D01*
X107804Y-2142D02*
X107816Y-2140D01*
X107792Y-2144D02*
X107804Y-2142D01*
X107780Y-2146D02*
X107792Y-2144D01*
X107768Y-2147D02*
X107780Y-2146D01*
X107756Y-2149D02*
X107768Y-2147D01*
X107744Y-2150D02*
X107756Y-2149D01*
X107731Y-2151D02*
X107744Y-2150D01*
X107719Y-2153D02*
X107731Y-2151D01*
X107707Y-2154D02*
X107719Y-2153D01*
X107695Y-2155D02*
X107707Y-2154D01*
X107682Y-2155D02*
X107695Y-2155D01*
X107670Y-2156D02*
X107682Y-2155D01*
X107658Y-2156D02*
X107670Y-2156D01*
X107645Y-2157D02*
X107658Y-2156D01*
X107633Y-2157D02*
X107645Y-2157D01*
X107621Y-2157D02*
X107633Y-2157D01*
X107608Y-2158D02*
X107621Y-2157D01*
X107608Y18039D02*
Y19220D01*
X109380Y-483D02*
Y-465D01*
X83986Y18039D02*
Y19220D01*
X81033Y18039D02*
X110561D01*
X80089Y-1249D02*
X80843Y-2158D01*
X110146Y-1655D02*
X110752Y-2158D01*
X82214Y-483D02*
Y-465D01*
X81449Y-1655D02*
X81802Y-1362D01*
X83986Y19220D02*
X107608D01*
X80843Y-2158D02*
X81449Y-1655D01*
X108396Y-1666D02*
Y-743D01*
X80443Y7016D02*
Y8984D01*
X80695Y-746D02*
X81033Y-465D01*
X110561D01*
X81033D02*
Y18039D01*
X108396Y-743D02*
Y-465D01*
X109793Y-1362D02*
X110146Y-1655D01*
X110561Y-465D02*
Y18039D01*
X83199Y-1666D02*
Y-743D01*
X111152Y7016D02*
Y8984D01*
X83986Y-2158D02*
X107608D01*
X110900Y-746D02*
X111506Y-1249D01*
X83199Y-743D02*
Y-465D01*
X110752Y-2158D02*
X111506Y-1249D01*
D13*
X122000Y3000D02*
Y40500D01*
Y3000D02*
X152000D01*
Y40500D01*
X122000D02*
X152000D01*
M02*
