G04*
G04 #@! TF.GenerationSoftware,Altium Limited,Altium Designer,18.1.9 (240)*
G04*
G04 Layer_Physical_Order=2*
G04 Layer_Color=16711680*
%FSLAX25Y25*%
%MOIN*%
G70*
G01*
G75*
%ADD16R,0.02362X0.01968*%
%ADD25C,0.00600*%
%ADD26C,0.00800*%
%ADD27C,0.01968*%
%ADD28R,0.01181X0.02756*%
%ADD29R,0.01181X0.03937*%
G36*
X35500Y27478D02*
X35000Y27327D01*
X34931Y27431D01*
X34274Y27869D01*
X34000Y27924D01*
Y26000D01*
Y24076D01*
X34274Y24131D01*
X34931Y24569D01*
X35000Y24673D01*
X35500Y24522D01*
Y0D01*
X463D01*
X387Y115D01*
X428Y299D01*
X654Y615D01*
X2759D01*
Y5952D01*
X178Y5952D01*
X0Y6378D01*
Y38500D01*
X5585D01*
X5736Y38000D01*
X5632Y37931D01*
X5194Y37274D01*
X5139Y37000D01*
X8987D01*
X8932Y37274D01*
X8494Y37931D01*
X8390Y38000D01*
X8541Y38500D01*
X35500D01*
Y27478D01*
D02*
G37*
%LPC*%
G36*
X3126Y31894D02*
X2469Y31764D01*
X1912Y31392D01*
X1539Y30834D01*
X1409Y30177D01*
X1539Y29520D01*
X1912Y28963D01*
X2469Y28591D01*
X3126Y28460D01*
X3783Y28591D01*
X4340Y28963D01*
X4713Y29520D01*
X4843Y30177D01*
X4713Y30834D01*
X4340Y31392D01*
X3783Y31764D01*
X3126Y31894D01*
D02*
G37*
G36*
X25063Y27957D02*
X24406Y27827D01*
X23849Y27455D01*
X23787Y27362D01*
X20276D01*
X20214Y27455D01*
X19657Y27827D01*
X19000Y27957D01*
X18343Y27827D01*
X17786Y27455D01*
X17413Y26897D01*
X17283Y26240D01*
X17413Y25583D01*
X17786Y25026D01*
X18343Y24654D01*
X19000Y24523D01*
X19657Y24654D01*
X20214Y25026D01*
X20276Y25119D01*
X23787D01*
X23849Y25026D01*
X24406Y24654D01*
X25063Y24523D01*
X25720Y24654D01*
X26277Y25026D01*
X26649Y25583D01*
X26780Y26240D01*
X26649Y26897D01*
X26277Y27455D01*
X25720Y27827D01*
X25063Y27957D01*
D02*
G37*
G36*
X11000D02*
X10343Y27827D01*
X9786Y27455D01*
X9414Y26897D01*
X9283Y26240D01*
X9414Y25583D01*
X9786Y25026D01*
X10343Y24654D01*
X11000Y24523D01*
X11657Y24654D01*
X12214Y25026D01*
X12587Y25583D01*
X12717Y26240D01*
X12587Y26897D01*
X12214Y27455D01*
X11657Y27827D01*
X11000Y27957D01*
D02*
G37*
G36*
X7063D02*
X6406Y27827D01*
X5849Y27455D01*
X5477Y26897D01*
X5346Y26240D01*
X5477Y25583D01*
X5849Y25026D01*
X6406Y24654D01*
X7063Y24523D01*
X7720Y24654D01*
X8277Y25026D01*
X8650Y25583D01*
X8780Y26240D01*
X8650Y26897D01*
X8277Y27455D01*
X7720Y27827D01*
X7063Y27957D01*
D02*
G37*
G36*
X3126D02*
X2469Y27827D01*
X1912Y27455D01*
X1539Y26897D01*
X1409Y26240D01*
X1539Y25583D01*
X1912Y25026D01*
X2469Y24654D01*
X3126Y24523D01*
X3783Y24654D01*
X4340Y25026D01*
X4713Y25583D01*
X4843Y26240D01*
X4713Y26897D01*
X4340Y27455D01*
X3783Y27827D01*
X3126Y27957D01*
D02*
G37*
G36*
X8987Y36000D02*
X5139D01*
X5142Y35984D01*
X4850Y35484D01*
X4850D01*
Y34000D01*
X7032D01*
Y33000D01*
X4850D01*
Y31516D01*
X5330D01*
X5598Y31016D01*
X5477Y30834D01*
X5346Y30177D01*
X5477Y29520D01*
X5849Y28963D01*
X6406Y28591D01*
X7063Y28460D01*
X7720Y28591D01*
X8277Y28963D01*
X8650Y29520D01*
X8780Y30177D01*
X8650Y30834D01*
X8529Y31016D01*
X8756Y31442D01*
X9213Y31516D01*
X9264Y31510D01*
X9512Y30981D01*
X9414Y30834D01*
X9283Y30177D01*
X9414Y29520D01*
X9786Y28963D01*
X10343Y28591D01*
X11000Y28460D01*
X11657Y28591D01*
X12214Y28963D01*
X12587Y29520D01*
X12717Y30177D01*
X12587Y30834D01*
X12265Y31316D01*
X12351Y31610D01*
X12479Y31816D01*
X12850D01*
Y32378D01*
X25567D01*
X27878Y30067D01*
Y27276D01*
X27786Y27214D01*
X27413Y26657D01*
X27283Y26000D01*
X27413Y25343D01*
X27786Y24786D01*
X28343Y24413D01*
X29000Y24283D01*
X29563Y24395D01*
X30063Y24129D01*
Y20806D01*
X8184D01*
X7755Y20720D01*
X7391Y20477D01*
X7391Y20477D01*
X7109Y20196D01*
X7000Y20217D01*
X6343Y20087D01*
X5786Y19714D01*
X5413Y19157D01*
X5283Y18500D01*
X5413Y17843D01*
X5786Y17286D01*
X6343Y16914D01*
X6871Y16808D01*
X7067Y16529D01*
X6907Y16094D01*
X4957D01*
Y15795D01*
X3288D01*
Y11639D01*
X4957D01*
Y11339D01*
X6047D01*
Y13716D01*
X7047D01*
Y11339D01*
X8138D01*
Y11639D01*
X9363D01*
Y10753D01*
X9363Y10753D01*
X9448Y10324D01*
X9691Y9960D01*
X12260Y7391D01*
X12624Y7148D01*
X13053Y7063D01*
X13053Y7063D01*
X25440D01*
X25796Y6707D01*
X25796Y6707D01*
X26160Y6464D01*
X26589Y6379D01*
X26589Y6379D01*
X27724D01*
X27786Y6286D01*
X28343Y5914D01*
X29000Y5783D01*
X29657Y5914D01*
X30214Y6286D01*
X30586Y6843D01*
X30717Y7500D01*
X30586Y8157D01*
X30214Y8714D01*
X30121Y8776D01*
Y9528D01*
X30913D01*
Y9528D01*
X31087D01*
Y9528D01*
X31847D01*
Y6797D01*
X31723Y6714D01*
X31350Y6157D01*
X31220Y5500D01*
X31332Y4935D01*
X31121Y4616D01*
X30988Y4484D01*
X29532D01*
Y2500D01*
Y516D01*
X31213D01*
Y816D01*
X34850D01*
Y4184D01*
X34685D01*
X34418Y4684D01*
X34523Y4843D01*
X34654Y5500D01*
X34523Y6157D01*
X34151Y6714D01*
X34090Y6755D01*
Y9528D01*
X34850D01*
Y12897D01*
X34090D01*
Y19684D01*
X34005Y20113D01*
X33762Y20477D01*
X33398Y20720D01*
X32969Y20806D01*
X32306D01*
Y23875D01*
X32806Y24115D01*
X33000Y24076D01*
Y26000D01*
Y27924D01*
X32806Y27885D01*
X32306Y28125D01*
Y29219D01*
X33261Y30175D01*
X33262Y30176D01*
X33505Y30539D01*
X33590Y30968D01*
X33590Y30969D01*
Y31692D01*
X33683Y31754D01*
X34055Y32311D01*
X34186Y32969D01*
X34055Y33626D01*
X33683Y34183D01*
X33126Y34555D01*
X32469Y34686D01*
X31811Y34555D01*
X31254Y34183D01*
X30882Y33626D01*
X30751Y32969D01*
X30882Y32311D01*
X31254Y31754D01*
X31170Y31256D01*
X30600Y30687D01*
X30058Y30851D01*
X30036Y30961D01*
X29793Y31325D01*
X29793Y31325D01*
X26825Y34293D01*
X26461Y34536D01*
X26032Y34622D01*
X26032Y34622D01*
X12850D01*
Y35184D01*
X9588D01*
X9213Y35484D01*
X9213D01*
X8984Y35984D01*
X8987Y36000D01*
D02*
G37*
G36*
X24500Y5924D02*
Y4500D01*
X25924D01*
X25869Y4774D01*
X25431Y5431D01*
X24774Y5869D01*
X24500Y5924D01*
D02*
G37*
G36*
X23500D02*
X23226Y5869D01*
X22569Y5431D01*
X22131Y4774D01*
X22076Y4500D01*
X23500D01*
Y5924D01*
D02*
G37*
G36*
X28532Y4484D02*
X26851D01*
Y3000D01*
X28532D01*
Y4484D01*
D02*
G37*
G36*
X25924Y3500D02*
X24500D01*
Y2076D01*
X24774Y2131D01*
X25431Y2569D01*
X25869Y3226D01*
X25924Y3500D01*
D02*
G37*
G36*
X23500D02*
X22076D01*
X22131Y3226D01*
X22569Y2569D01*
X23226Y2131D01*
X23500Y2076D01*
Y3500D01*
D02*
G37*
G36*
X18822Y5952D02*
X16241D01*
Y615D01*
X18822D01*
Y5952D01*
D02*
G37*
G36*
X28532Y2000D02*
X26851D01*
Y516D01*
X28532D01*
Y2000D01*
D02*
G37*
%LPD*%
D16*
X10968Y33500D02*
D03*
X7032D02*
D03*
X32969Y11212D02*
D03*
X29032D02*
D03*
X29032Y2500D02*
D03*
X32969D02*
D03*
D25*
X25000Y4000D02*
X26500Y2500D01*
X25000Y4000D02*
X25000Y4000D01*
X26500Y2500D02*
X29032D01*
X6547Y10453D02*
Y13716D01*
X10648Y6352D02*
X24648D01*
X6547Y10453D02*
X10648Y6352D01*
X1042Y32042D02*
X2500Y33500D01*
X7032D01*
X24000Y4000D02*
X25000D01*
X24000Y5704D02*
X24648Y6352D01*
X24000Y4000D02*
Y5704D01*
X1042Y17458D02*
Y32042D01*
X2888Y11883D02*
X3533Y11239D01*
X5625D01*
X6269Y11883D01*
Y13716D01*
X6547D01*
X1042Y17458D02*
X2888Y15612D01*
Y11883D02*
Y15612D01*
X7032Y33500D02*
Y36468D01*
D26*
X31184Y29684D02*
X32469Y30968D01*
X31184Y19868D02*
Y29684D01*
X32969Y5532D02*
Y11212D01*
X32937Y5500D02*
X32969Y5532D01*
X29000Y7500D02*
Y11180D01*
X29032Y11212D01*
X32969Y2500D02*
Y5468D01*
X32937Y5500D02*
X32969Y5468D01*
X10968Y33500D02*
X26032D01*
X8516Y13716D02*
Y16984D01*
X7000Y18500D02*
X8516Y16984D01*
X14421Y13716D02*
X17284D01*
X19000Y17000D02*
X19016Y16984D01*
X17284Y13716D02*
X19016Y15449D01*
Y16984D01*
X19000Y26240D02*
X25063D01*
X12453Y11047D02*
Y13716D01*
X10484Y10753D02*
Y13716D01*
X12453Y11047D02*
X13500Y10000D01*
X19331D01*
X21500Y12169D01*
X25905Y8184D02*
X26589Y7500D01*
X29000D01*
X10484Y10753D02*
X13053Y8184D01*
X25905D01*
X26032Y33500D02*
X29000Y30532D01*
Y26000D02*
Y30532D01*
X32969Y11212D02*
Y19684D01*
X32469Y30968D02*
Y32969D01*
X31000Y19684D02*
X31184Y19868D01*
X31000Y19684D02*
X32969D01*
X7000Y18500D02*
X8184Y19684D01*
X31000D01*
D27*
X7000Y18500D02*
D03*
X3126Y26240D02*
D03*
Y30177D02*
D03*
X7063Y26240D02*
D03*
Y30177D02*
D03*
X11000Y26240D02*
D03*
Y30177D02*
D03*
X29000Y7500D02*
D03*
X32937Y5500D02*
D03*
X29000Y26000D02*
D03*
X25063Y26240D02*
D03*
X21500Y12169D02*
D03*
X19000Y17000D02*
D03*
Y26240D02*
D03*
X32469Y32969D02*
D03*
X33500Y26000D02*
D03*
X24000Y4000D02*
D03*
X7063Y36500D02*
D03*
D28*
X4579Y13716D02*
D03*
X6547D02*
D03*
X14421D02*
D03*
X12453D02*
D03*
X10484D02*
D03*
X8516D02*
D03*
D29*
X17531Y3283D02*
D03*
X1469D02*
D03*
M02*
