G04 Layer_Physical_Order=2*
G04 Layer_Color=16711680*
%FSLAX25Y25*%
%MOIN*%
G70*
G01*
G75*
%ADD15C,0.00800*%
%ADD17R,0.03937X0.03937*%
%ADD18C,0.03937*%
%ADD19C,0.01968*%
D15*
X18500Y31000D02*
Y42000D01*
X21500Y36500D02*
X24500D01*
X21000Y36000D02*
X21500Y36500D01*
X21000Y25500D02*
Y36000D01*
X17500Y22000D02*
X21000Y25500D01*
X7128Y22000D02*
X17500D01*
X4616Y19488D02*
X7128Y22000D01*
X4616Y18116D02*
Y19488D01*
X4500Y18000D02*
X4616Y18116D01*
X4500Y18000D02*
X4500Y18000D01*
Y9500D02*
Y18000D01*
X14500Y16000D02*
X32500D01*
X14500Y9500D02*
Y16000D01*
Y9500D02*
Y18000D01*
X14000Y18500D02*
X14500Y18000D01*
X7000Y18500D02*
X14000D01*
X9500Y2000D02*
Y4500D01*
Y2000D02*
X11000Y500D01*
X20500D01*
X23000Y3000D01*
Y11500D01*
D17*
X4500Y4500D02*
D03*
D18*
Y9500D02*
D03*
X9500Y4500D02*
D03*
Y9500D02*
D03*
X14500Y4500D02*
D03*
Y9500D02*
D03*
D19*
X18500Y31000D02*
D03*
Y42000D02*
D03*
X24500Y36500D02*
D03*
X7000Y18500D02*
D03*
X23000Y11500D02*
D03*
X32500Y16000D02*
D03*
X3126Y26240D02*
D03*
Y30177D02*
D03*
X7063Y26240D02*
D03*
Y30177D02*
D03*
X11000Y26240D02*
D03*
Y30177D02*
D03*
M02*
