G04 Layer_Color=65535*
%FSLAX25Y25*%
%MOIN*%
G70*
G01*
G75*
%ADD20C,0.01000*%
%ADD21C,0.00394*%
%ADD22C,0.00787*%
%ADD23C,0.00500*%
D20*
X33000Y18000D02*
G03*
X33000Y18000I-500J0D01*
G01*
D21*
X13756Y36279D02*
G03*
X13756Y36279I-197J0D01*
G01*
D22*
X957Y957D02*
Y13043D01*
X18043D01*
Y957D02*
Y13043D01*
X957Y957D02*
X18043D01*
X567Y21713D02*
Y23780D01*
Y32638D02*
Y34705D01*
X13559Y21713D02*
Y23780D01*
Y32638D02*
Y34705D01*
X567Y21713D02*
X666D01*
X13461D02*
X13559D01*
X567Y34705D02*
X666D01*
X13461D02*
X13559D01*
D23*
X18001Y20000D02*
X20500D01*
X21000Y20500D01*
Y21499D01*
X20500Y21999D01*
X18001D01*
X21000Y24998D02*
Y22999D01*
X19001Y24998D01*
X18501D01*
X18001Y24499D01*
Y23499D01*
X18501Y22999D01*
X14501Y29500D02*
X17000D01*
X17500Y30000D01*
Y30999D01*
X17000Y31499D01*
X14501D01*
X17500Y32499D02*
Y33499D01*
Y32999D01*
X14501D01*
X15001Y32499D01*
X15500Y37000D02*
Y39999D01*
X16999D01*
X17499Y39499D01*
Y38500D01*
X16999Y38000D01*
X15500D01*
X16500D02*
X17499Y37000D01*
X20498D02*
X18499D01*
X20498Y38999D01*
Y39499D01*
X19999Y39999D01*
X18999D01*
X18499Y39499D01*
X21500Y10000D02*
Y12999D01*
X22999D01*
X23499Y12499D01*
Y11500D01*
X22999Y11000D01*
X21500D01*
X22500D02*
X23499Y10000D01*
X24499D02*
X25499D01*
X24999D01*
Y12999D01*
X24499Y12499D01*
X2999Y17499D02*
X2000D01*
X2499D01*
Y15000D01*
X2000Y14500D01*
X1500D01*
X1000Y15000D01*
X3999Y14500D02*
X4999D01*
X4499D01*
Y17499D01*
X3999Y16999D01*
X22999Y4499D02*
X22500Y4999D01*
X21500D01*
X21000Y4499D01*
Y2500D01*
X21500Y2000D01*
X22500D01*
X22999Y2500D01*
X25998Y2000D02*
X23999D01*
X25998Y3999D01*
Y4499D01*
X25499Y4999D01*
X24499D01*
X23999Y4499D01*
X23499Y8499D02*
X22999Y8999D01*
X22000D01*
X21500Y8499D01*
Y6500D01*
X22000Y6000D01*
X22999D01*
X23499Y6500D01*
X24499Y6000D02*
X25499D01*
X24999D01*
Y8999D01*
X24499Y8499D01*
M02*
