G04*
G04 #@! TF.GenerationSoftware,Altium Limited,Altium Designer,18.1.9 (240)*
G04*
G04 Layer_Color=32896*
%FSLAX25Y25*%
%MOIN*%
G70*
G01*
G75*
%ADD10C,0.01000*%
%ADD12C,0.00787*%
%ADD13C,0.00500*%
%ADD32C,0.00984*%
D10*
X14201Y27198D02*
X16201D01*
X15201D01*
Y22200D01*
X16201Y21200D01*
X17200D01*
X18200Y22200D01*
X12202Y21200D02*
X10203D01*
X11202D01*
Y27198D01*
X12202Y26198D01*
D12*
X249Y6695D02*
Y14898D01*
X16587D02*
X18753D01*
Y6695D02*
Y14898D01*
X3519Y724D02*
X15481D01*
X249Y14898D02*
X2413D01*
D13*
X19000Y32000D02*
Y34999D01*
X17501D01*
X17001Y34499D01*
Y33500D01*
X17501Y33000D01*
X19000D01*
X18000D02*
X17001Y32000D01*
X14002D02*
X16001D01*
X14002Y33999D01*
Y34499D01*
X14501Y34999D01*
X15501D01*
X16001Y34499D01*
X26500Y9712D02*
Y12711D01*
X25001D01*
X24501Y12212D01*
Y11212D01*
X25001Y10712D01*
X26500D01*
X25500D02*
X24501Y9712D01*
X23501D02*
X22501D01*
X23001D01*
Y12711D01*
X23501Y12212D01*
X24501Y3499D02*
X25001Y3999D01*
X26000D01*
X26500Y3499D01*
Y1500D01*
X26000Y1000D01*
X25001D01*
X24501Y1500D01*
X21502Y1000D02*
X23501D01*
X21502Y2999D01*
Y3499D01*
X22001Y3999D01*
X23001D01*
X23501Y3499D01*
D32*
X14913Y17260D02*
G03*
X14913Y17260I-492J0D01*
G01*
M02*
